<?xml version="1.0" standalone="no"?><!DOCTYPE svg PUBLIC "-//W3C//DTD SVG 1.1//EN" "http://www.w3.org/Graphics/SVG/1.1/DTD/svg11.dtd"><svg t="1607839875134" class="icon" viewBox="0 0 1024 1024" version="1.1" xmlns="http://www.w3.org/2000/svg" p-id="1563" xmlns:xlink="http://www.w3.org/1999/xlink" width="200" height="200"><defs><style type="text/css"></style></defs><path d="M961.22 504.74c0.8-8.04-0.43-98.8-7.84-124.39-8.1-27.96-16.98-50.13-57.86-80.94l-2.2-1.64h-0.01c-31.98-23.96-88.36-62.59-107.79-69.42-7.98-2.8-23.27-6.34-38.83-9.27 0.05-4.37-1.4-8.75-4.34-12.33-13.23-16.07-28.46-38.92-30.06-47.32-1.74-9.09-2.2-13.73-2.19-16.08 8.88-6.07 17.56-14.14 18.59-15.1 2.33-2.17 4.07-4.89 5.07-7.91l1.2-3.59c2.5-7.51 0.12-15.78-5.99-20.81L708.65 79.2a19.16 19.16 0 0 0-15.75-4.02 19.09 19.09 0 0 0-13.15 9.54c-4.22 7.62-9.04 15.55-13 21.49-12.75-9.19-18.06-12.86-22.72-14.6-5.89-2.21-13.05-2.68-24.13-3.19-2.45-0.11-4.83-0.22-6.38-0.31-2.94-0.55-11.8-4.71-16.06-6.71-7.25-3.4-11.23-5.22-15.19-6.1l-5.38-1.2c-1.38-0.31-2.77-0.46-4.15-0.46-6.61 0-12.86 3.44-16.36 9.26-3.9-0.26-7.92-0.46-12.09-0.46-17.28 0-32.09 2.74-44.01 8.14-34.35 15.57-65.99 53.97-75.23 91.29-3.59 14.5-6.93 33.9-10.16 52.66-2.19 12.69-4.59 26.61-6.35 34.61l-11.13 7.57c-0.65 0.07-1.38 0.07-1.98 0.17-12.63 2.26-22.69 12.81-28.56 20.61C244.44 380.85 97.72 481.07 87.08 489.93c-16.73 13.94-18.79 23.05-18.4 37.02l0.76 2.85v0.33c0 0.65 1.08 68.18 8.96 82.79 0.38 0.7 0.37 1.45 0.73 2.21 2.24 4.73 6.51 13.72 16.26 19.18l1.14 25 1.61 29.51v0.04l9.56 41.18v53.43c0 0.14 1.35 0.28 1.36 0.42l5.8 50.52c0.04 0.35 0.49 0.67 0.53 1.01l9.77 93.98c0.52 5.21 3.26 9.98 7.4 13.18a19.296 19.296 0 0 0 14.66 3.78c78.21-11.93 286.76-43.16 312.11-44.43l27.16-1.39c56.69-2.91 189.46-9.75 206.21-9.75 24.36 0 152.56-27.11 174.96-32.39 27.34-6.44 58.77-15.85 60.09-16.24 6.93-2.08 12.1-7.9 13.34-15.03l13.85-78.5 3.97-21.92v-0.01c0-1.48 0.15-2.93 0.07-4.36-0.03-0.4-0.18-0.78-0.22-1.18-0.13-1.06-0.35-2.1-0.65-3.12-0.07-0.22 0.78-0.45 0.71-0.67-0.02-0.05-9.47-16.01-9.47-31.93v-0.03l-2.48-5.13c-2.26-7.33-4.74-14.22-6.02-19.24l-0.67-1.88c0.23-1.25 2.32-3.41 2.56-4.63 1.95-9.98 6.61-26.67 6.61-46.59v-0.07c0-0.1-1.79-0.18-1.8-0.28 0-0.63-0.87-1.24-0.88-1.87-0.01-0.42-0.55-0.84-0.59-1.27-0.19-5.84-1.29-11.12-2-16.05-1.13-7.93-4.3-16.71-4.3-25.48v-0.03l-0.09-4.43-0.35 0.08c-0.12-0.31-0.13-0.61-0.27-0.91l0.92-0.17-2.29-17.14c18.72-11.49 22.52-25.62 23.52-35.58z" p-id="1564"></path><path d="M874.44 568.79c-39.85-4.78-76.51-14.35-105.21-1.6s-51.01 39.85-100.61 33.48c-49.61-6.38-41.26-35.07-95.86-66.85-54.6-31.78-98.43 11.06-122.34 38.16s-79.71 51.01-111.59 56-97.24-20.93-121.15-28.9-43.04 33.48-66.95 51.01c-10.46 7.68-23.07 8.63-33.94 7.28l3.02 29.52c76.54-5.48 331.88-23.93 360.2-27.99 28.11-4.03 325.92-30.93 446.65-50.74-0.09-5.5-0.37-11.15-1.21-17.05-1.14-7.97-2.37-16.78-3.58-25.58 0.02 0.15 0.05 0.3 0.06 0.45-12.88 2.9-29.53 4.97-47.49 2.81zM215.3 651.68c-10.36 7.97-15.14 2.39-19.13 0-3.99-2.39 10.36-18.33 10.36-18.33s7.17 2.39 12.76 5.58 6.36 4.78-3.99 12.75z m68.54 4.14c-3.98 2.54-7.98 4.63-11.16 0-3.18-4.63 11.16-11.24 11.16-11.24h4.78c0.01 0-0.8 8.7-4.78 11.24z m262.23-75.87c-8.77 1.59-17.53-0.8-21.52-7.17s14.35-9.56 14.35-9.56c6.36-1.61 18.33 3.19 20.73 8.61 2.38 5.4-4.79 6.52-13.56 8.12z m259.03 19.92c-10.37-1.59-11.15-14.35-11.15-14.35s4.78-0.8 7.17 0c0 0 9.56-2.39 13.54-0.35 3.98 2.04 10.37 1.15 13.55 7.35 3.19 6.2-12.74 8.95-23.11 7.35z m68.94-15.52c-0.6 5.6-4.78 0.38-10.76-3.93-5.98-4.31 0-5.26 0-5.26 10.76 0 11.36 3.59 10.76 9.19zM926.66 608.16c0.32 21.63-4.09 39.41-5.52 47.71 1.47-8.31 5.84-26.15 5.52-47.71zM918.41 540.12c0.02 0.09 0.03 0.18 0.04 0.28-0.02-0.09-0.03-0.18-0.04-0.28zM921.12 560.07l0.21 1.54-0.21-1.54zM921.06 656.32c-0.22 1.38-0.39 2.56-0.39 3.33 0-0.78 0.15-1.91 0.39-3.33zM917.75 535.18c0.02 0.22 0.06 0.43 0.07 0.64-0.01-0.21-0.05-0.42-0.07-0.64zM911.1 747.32H767.64s-302.86 49.41-323.59 52.6c-20.73 3.19-210.16 32.51-259.83 31.88-18.9-0.24-35.86-0.29-49.63-0.27l9.79 95.91s282.15-43.03 314.03-44.63c31.88-1.6 213.6-11.16 234.33-11.16 20.73 0 143.46-25.5 170.56-31.88 27.11-6.38 58.98-15.94 58.98-15.94l17.53-100.43-4.17 23.91H911.1zM185.01 872.46c-16.74-5.58-22.31-23.09-22.31-23.09s11.16 1.57 20.73 3.9c9.56 2.33 27.1 4.05 29.49 7.64s-11.18 17.13-27.91 11.55z m138.29-7.18c-6.78 4.78-23.51 0-28.29-1.6s2.39-16.74 2.39-16.74 22.72-6.77 26.7-6.56c3.99 0.21 14.35-4.2 15.14 2.58 0.79 6.78-9.16 17.54-15.94 22.32z m187.3-55.19c-1.2 4.58-15.94 9.77-22.31 8.57-6.37-1.2 3.18-17.13 3.18-17.13s6.77 0.4 10.76 0c3.98-0.4 9.56 3.98 8.37 8.56z m27.09 36.46c-5.59 5.18-14.74 1.99-18.33 0-3.59-1.99 8.76-15.14 8.76-15.14s4.78 1.59 9.56 1.59 5.6 8.37 0.01 13.55z m188.1-22.71c-5.38 2.39-20.92 0.6-25.11-5.98-4.18-6.58 25.11-12.55 25.11-12.55 4.4-1.01 9.56 0.6 12.55 9.77s-7.17 6.37-12.55 8.76z m115.37-43.64c-12.55 8.37-20.92 7.77-29.87 0s2.97-24.51 2.97-24.51c8.37-3.59 26.9 1.2 36.46 4.78s3 11.36-9.56 19.73z" fill="#FEE0AF" p-id="1565"></path><path d="M921.12 560.07c-0.93-6.8-1.84-13.5-2.68-19.67-0.01-0.09-0.02-0.18-0.04-0.28-0.19-1.46-0.39-2.9-0.58-4.3-0.02-0.22-0.06-0.43-0.07-0.64-0.28-2.08-0.55-4.05-0.8-5.96-18.12 6.4-48.46 9.68-73.39 7.08-28.69-2.99-41.25-10.16-57.39-16.14s-35.87 12.55-60.37 32.28c-24.51 19.73-37.66 28.1-60.32 19.13-22.67-8.97-28.75-19.13-47.28-38.26s-42.44-20.92-61.57-26.3c-19.13-5.38-66.95-0.6-80.01 3.59-13.06 4.18-58.08 47.82-70.63 65.75-12.55 17.93-69.94 22.72-93.85 23.31-23.91 0.6-61.57 0-78.91-18.53-17.34-18.53-25.11-15.54-35.87-16.14-10.76-0.6-19.73 20.92-30.49 30.49-10.76 9.56-22.12 18.53-44.24 23.31-3.87 0.84-6.93 1.02-9.68 0.94l3.83 37.63c10.87 1.35 23.48 0.4 33.94-7.28 23.91-17.54 43.04-58.98 66.95-51.01s89.27 33.89 121.15 28.9 87.68-28.9 111.59-56 67.73-69.93 122.34-38.16c54.6 31.78 46.25 60.47 95.86 66.85 49.61 6.38 71.92-20.73 100.61-33.48s65.35-3.18 105.21 1.6c17.96 2.16 34.61 0.09 47.49-2.82-0.02-0.15-0.05-0.3-0.06-0.45-0.18-1.31-0.36-2.61-0.53-3.91-0.07-0.5-0.14-1.02-0.21-1.53z" fill="#FED693" p-id="1566"></path><path d="M921.85 665.65c0.03 0.12 0.07 0.25 0.09 0.37-0.02-0.13-0.06-0.25-0.09-0.37zM921.19 662.85zM572.76 728.99s-195.68 35.87-214 35.87S206.54 779.2 163.5 779.2c-12.46 0-23.95 0.95-34.04 2.28l5.12 50.05c13.78-0.02 30.73 0.03 49.63 0.27 49.67 0.63 239.11-28.69 259.83-31.88 20.73-3.19 323.59-52.6 323.59-52.6h167.99l4.17-23.91s-5.38-16.14-10.43-32.26l-247.92 28.84-108.68 9zM119.81 686.88l4.23 41.47c73.98-2.01 279.63-9.58 395.42-33.72 111.08-13.86 111.01-14.06 111.01-14.06l290.19-19.64v0.03c0-0.5-0.07-1.02-0.07-1.31 0-0.77 0.2-1.95 0.43-3.33 0.02-0.14 0.07-0.31 0.1-0.45 1.43-8.3 5.85-26.08 5.52-47.71h0.01c-120.72 19.81-418.52 46.71-446.64 50.74-28.31 4.05-283.66 22.5-360.2 27.98zM927.73 685.91c0.07 0.22 0.13 0.42 0.21 0.64-0.08-0.22-0.14-0.43-0.21-0.64z" fill="#FECA76" p-id="1567"></path><path d="M630.48 680.57s0.04 0.2-111.05 14.06c-115.8 24.14-321.42 31.71-395.41 33.72l5.44 53.13c10.09-1.33 21.57-2.28 34.03-2.28 43.04 0 176.94-14.35 195.28-14.35 18.33 0 214-35.87 214-35.87l108.68-9 247.92-28.84c-0.49-1.54-0.96-3.08-1.43-4.6-0.07-0.22-0.13-0.43-0.21-0.64-2.37-7.68-4.5-14.89-5.78-19.89l-0.09-0.37c-0.22-0.9-0.42-1.72-0.59-2.46-0.03-0.12-0.13-0.22-0.15-0.34-0.16-0.72-0.45-1.36-0.45-1.89v-0.03l-290.19 19.65z" fill="#FFF39F" p-id="1568"></path><path d="M97.78 531.56c0.21-1.34 0.5-2.46 0.95-3.03 4.78-5.98 0 2.39 0 2.39s0.13 0.3 0.32 0.75c0.6 0.04 1.14 0.13 1.78 0.15 33.48 1.2 287.38-33.33 344.76-40.5s404.32-74.05 430.62-91.98c26.3-17.93 26.41-16.1 16.85-46.29-3.98-12.55-7.93-27.16-11.21-39.98-38.02-28.49-88.17-61.59-102.65-66.68-13.55-4.76-55.28-12.87-73.11-13.84 0.05 1.84 0.19 3.55 0.19 5.47 0 6.28-0.77 12.12-1.92 17.95 2.21 0.45 4.13 0.89 5.31 1.32 13.75 4.92 16.14 13.01 20.31 25.87 4.18 12.86-3.57 20.02-5.36 31.37-1.79 11.36 7.77 20.32 4.78 31.68-2.99 11.36-26.3 47.22-35.87 58.58-9.56 11.36-23.91 4.78-41.25-4.18-17.34-8.97-14.94-1.79-48.42 11.96-33.48 13.75-31.68 9.56-44.24 5.38-12.55-4.18-47.22 14.94-78.31 25.11-31.08 10.16-54.99-17.34-60.37-26.3-5.38-8.97-8.37-22.12-31.08-26.3-22.72-4.18-31.08-16.74-31.08-31.68 0-14.94 10.16-21.52 14.94-34.67 1.57-4.33 3.97-8.69 6.72-12.69-87.04 59.23-270.19 184.11-281.11 193.21-14.35 11.96-12.15 14.74-12.15 25.5 0-0.69-0.02-1.26-0.03-1.88 2.56 1.66 6.05 2.82 10.63 3.31zM424.22 283.15c0.28-0.54 0.56-1.27 0.86-2.12-1.91 1.3-9.73 6.61-21.87 14.87 3.8 0.64 8.49 2.33 12.94 4.22 2.95-6.91 6.09-13.13 8.07-16.97z" fill="#F5A8AD" p-id="1569"></path><path d="M122.64 618.8c22.12-4.78 33.48-13.75 44.24-23.31 10.76-9.56 19.73-31.08 30.49-30.49 10.76 0.6 18.53-2.39 35.87 16.14 17.34 18.53 54.99 19.13 78.91 18.53 23.91-0.6 81.3-5.38 93.85-23.31 12.55-17.93 57.57-61.57 70.63-65.75 13.06-4.18 60.88-8.97 80.01-3.59 19.13 5.38 43.04 7.17 61.57 26.3 18.53 19.13 24.61 29.29 47.28 38.26 22.66 8.97 35.81 0.6 60.32-19.13 24.51-19.73 44.24-38.26 60.37-32.28 16.14 5.98 28.69 13.15 57.39 16.14 24.94 2.6 55.28-0.69 73.39-7.08 2.72-0.96 5.19-1.98 7.3-3.08 16.14-8.37 17.34-17.34 17.93-23.31 0.6-5.98-0.6-94.45-7.17-117.16-6.58-22.72-12.76-42.16-51.02-71-0.7-0.53-1.44-1.07-2.15-1.61 3.28 12.82 7.23 27.44 11.21 39.98 9.56 30.19 9.45 28.36-16.85 46.29s-373.23 84.81-430.62 91.98-311.29 41.69-344.76 40.5c-0.64-0.02-1.18-0.11-1.78-0.15 1.68 3.93 9.84 23.48 9.84 31.53 0 8.97 3.59 11.96 13.15 12.55 9.56 0.6 17.93 2.99 22.12-4.18 4.18-7.17 14.35-26.3 25.7-28.1 11.36-1.79 32.88-5.98 32.88-5.98l4.78 1.79s-35.27 11.36-43.64 22.12-14.94 24.51-28.1 28.69c-13.15 4.18-29.89 7.77-31.08 2.99-1.08-4.33-8.99-48.69-6.93-61.53-4.58-0.5-8.07-1.66-10.63-3.32 0.01 0.63 0.03 1.2 0.03 1.88 0 10.76 3.18 65.96 7.37 73.73 3.46 6.41 5.45 15.53 18.42 15.88 2.75 0.1 5.81-0.08 9.68-0.92z m792.83-108.99c-7.59 3.98-25.09 3.19-25.09 3.19s11.96-2.39 20.72-5.58c8.76-3.19 13.55-30.29 13.55-30.29 1.6 10.36-1.59 28.69-9.18 32.68z m-73.71-90.86c17.54-4.78 61.37-23.91 63.77-32.68 2.39-8.77-0.79-26.3-7.17-38.26-6.38-11.96-7.97-17.49-7.97-17.49s28.69 31.85 24.7 46.99c-3.99 15.14-10.36 37.45-43.83 46.22-33.48 8.77-297.02 57.39-297.02 57.39s249.98-57.39 267.52-62.17zM390.29 550.51c21.52-22.72 37.73-47.15 58.06-53.13 20.32-5.98 53.28-8.29 59.85-8.29h10.76s-56.79 10.16-65.75 17.34c-8.97 7.17-34.67 30.49-43.64 38.86-8.97 8.37-25.7 25.11-56.79 27.8-31.08 2.69-42.14 0-42.14 0s58.13 0.13 79.65-22.58z" fill="#F19BA0" p-id="1570"></path><path d="M98.73 528.54c-0.45 0.57-0.75 1.68-0.95 3.03-2.06 12.84 5.85 57.2 6.93 61.53 1.2 4.78 17.93 1.2 31.08-2.99 13.15-4.18 19.73-17.93 28.1-28.69s43.64-22.12 43.64-22.12l-4.78-1.79s-21.52 4.18-32.88 5.98c-11.36 1.79-21.52 20.92-25.7 28.1-4.18 7.17-12.55 4.78-22.12 4.18-9.56-0.6-13.15-3.59-13.15-12.55 0-8.05-8.16-27.6-9.84-31.53-0.19-0.45-0.32-0.75-0.32-0.75s4.77-8.38-0.01-2.4zM352.78 573.07c31.08-2.69 47.82-19.43 56.79-27.8 8.97-8.37 34.67-31.68 43.64-38.86 8.97-7.17 65.75-17.34 65.75-17.34H508.2c-6.58 0-39.53 2.32-59.85 8.29-20.32 5.98-36.54 30.41-58.06 53.13-21.52 22.72-79.65 22.57-79.65 22.57s11.06 2.7 42.14 0.01zM915.09 377.5c3.99-15.14-24.7-46.99-24.7-46.99s1.59 5.54 7.97 17.49c6.38 11.96 9.56 29.49 7.17 38.26-2.39 8.77-46.22 27.89-63.77 32.68-17.54 4.78-267.52 62.17-267.52 62.17s263.54-48.62 297.02-57.39c33.47-8.76 39.84-31.08 43.83-46.22zM911.1 507.42c-8.76 3.19-20.72 5.58-20.72 5.58s17.49 0.79 25.09-3.19c7.58-3.98 10.78-22.31 9.18-32.68 0 0-4.79 27.1-13.55 30.29z" fill="#FED3D5" p-id="1571"></path><path d="M358.76 358.77c0 14.94 8.37 27.5 31.08 31.68 22.72 4.18 25.7 17.34 31.08 26.3 5.38 8.97 29.29 36.46 60.37 26.3s65.75-29.29 78.31-25.11c12.55 4.18 10.76 8.37 44.24-5.38 33.48-13.75 31.08-20.92 48.42-11.96 17.34 8.97 31.68 15.54 41.25 4.18 9.56-11.36 32.88-47.22 35.87-58.58 2.99-11.36-6.58-20.32-4.78-31.68 1.79-11.36 9.54-18.51 5.36-31.37-4.17-12.86-6.56-20.95-20.31-25.87-1.18-0.42-3.09-0.87-5.31-1.32-2.49 12.67-7.01 25.3-10.83 42.22-5.59 24.7-44.83 50.11-80.4 66.85-35.57 16.74-88.47 23.31-143.47 14.35-54.99-8.97-60.08-36.46-60.97-50.21-0.52-8.06 3.28-19.27 7.47-29.06-4.45-1.89-9.13-3.58-12.94-4.22-1.67-0.28-3.2-0.41-4.4-0.2-5.61 1-12.8 7.56-18.39 15.71-2.75 4-5.15 8.36-6.72 12.69-4.77 13.16-14.93 19.74-14.93 34.68z" fill="#FFFAE7" p-id="1572"></path><path d="M416.15 300.12c-4.19 9.79-7.99 21-7.47 29.06 0.9 13.75 5.98 41.25 60.97 50.21 54.99 8.97 107.9 2.39 143.47-14.35 35.57-16.74 74.81-42.15 80.4-66.85 3.82-16.92 8.34-29.55 10.83-42.22 1.16-5.83 1.92-11.68 1.92-17.95 0-1.92-0.14-3.63-0.19-5.47-0.3-11.98-1.52-22.48-4.09-31.92-7.62-7.01-14.46-14.02-14.46-14.02l-2.99 46.63-1.79-17.93c-1.79-17.93-25.7-54.99-25.7-54.99l-41.25 22.72 25.11-38.86-59.18 2.99 39.45-22.12s0 0.29-14.94-5.09c-6.76-2.43-14.19-3.87-20.36-13.44h-0.07s-47.71-12.06-77.6 1.49-57.09 48.27-64.56 78.46c-7.04 28.43-13.81 80.89-18.57 94.65-0.3 0.84-0.58 1.55-0.86 2.08-1.98 3.82-5.12 10.01-8.07 16.92z m103.41-115.21c0.6-8.87 6.28-4.88 6.28-4.88s4.18 0.9 3.89 4.88c-0.3 3.98-5.68 10.07-7.02 10.67-1.35 0.6-3.75-1.79-3.15-10.67z m-46.42 148.36c-3.19-4.78 6.37-7.24 6.37-7.24 4.39-1.83 10.37 4.05 9.56 7.24-0.8 3.19-12.74 4.78-15.93 0z m74.43 19.82c-5.46 2.09-7.99 2.39-9.78-1.79-1.79-4.18 8.7-7.77 8.7-7.77s3.85 1.2 5.34 2.09c1.51 0.9 1.21 5.38-4.26 7.47z m2.78-46.03c-5.08 4.18-8.67 2.99-9.56 0-0.9-2.99 4.48-5.08 4.48-5.08s5.68-1.79 7.77-1.49c2.09 0.3 2.39 2.39-2.69 6.57z m64.56 18.97c-1.2 2.83-9.86 3.15-11.66 0-1.79-3.15 8.07-7.91 8.07-7.91s2.69 0.6 4.78 0c2.09-0.6 0 5.08-1.19 7.91z m60.37-55.73c-4.48 1.79-7.17 0.3-6.58-4.48 0.6-4.78 9.27-8.07 9.27-8.07s2.39 0.6 3.29 2.99c0.9 2.39-1.5 7.77-5.98 9.56z m-47.22-30.78s5.98 0.6 7.77 2.09c1.79 1.49-2.09 6.28-7.77 6.87-5.68 0.6-8.67-3.59-9.86-7.17s9.86-1.79 9.86-1.79zM580.83 163c7.17-2.39 8.37-0.9 11.06 0 2.69 0.9-2.69 8.97-8.67 9.86-5.98 0.9-6.87 0.3-8.07-2.99-1.19-3.28 5.68-6.87 5.68-6.87z m-39.75 83.69c-3.59 3.59-7.47 2.99-8.37-2.89-0.9-5.88 6.87-4.74 6.87-4.74s3.29-1.05 5.98-0.09c2.69 0.97-0.89 4.13-4.48 7.72z m-29.89-111.68c3.59-5.78 10.16-5.58 10.16-5.58s13.54-0.8 17.54 1.79c3.98 2.59 5.57 4.58 4.58 10.56-0.99 5.98-15.15 9.77-24.51 7.57-9.35-2.19-11.35-8.56-7.77-14.34z m-40.65 59.87c3.98-16.14 21.31-30.99 21.31-30.99h-0.99c16.94 0 16.94 9.47 14.14 16.64-2.78 7.17-13.94 25.26-16.33 31.23-2.39 5.98-1.79 38.03-3.59 43.21-1.79 5.18-7.17 7.16-12.76 7.36-5.59 0.2-6.37-8.62-6.37-17.79 0.02-9.15 0.62-33.52 4.59-49.66z" fill="#D6031D" p-id="1573"></path><path d="M621.18 125.04l-39.45 22.12 59.18-2.99-25.11 38.86 41.25-22.72s23.91 37.06 25.7 54.99l1.79 17.93 2.99-46.63s6.84 7 14.46 14.02c5.75 5.28 11.92 10.57 16.03 12.88l9.56 5.38S697.1 181.83 693.51 163c-3.59-18.83-4.18-28.99 4.18-34.37 8.37-5.38 17.93-14.35 17.93-14.35l1.2-3.59-20.32-16.73s-22.12 40.05-27.5 37.06c-5.38-2.99-26.9-19.73-31.68-21.52-4.78-1.79-17.34-1.79-25.7-2.39-8.37-0.6-28.1-11.96-33.48-13.15l-5.38-1.2s5.62 6.46 13.11 13.18c6.17 5.56 13.6 11.29 20.36 13.72l14.95 5.38z" fill="#3AB16F" p-id="1574"></path><path d="M518.96 149.36c9.36 2.19 23.52-1.6 24.51-7.57 0.99-5.98-0.6-7.97-4.58-10.56-4-2.59-17.54-1.79-17.54-1.79s-6.58-0.2-10.16 5.58c-3.58 5.77-1.58 12.14 7.77 14.34zM472.34 262.53c5.59-0.2 10.97-1.99 12.76-7.17 1.79-5.18 1.2-36.86 3.59-42.84 2.39-5.98 13.54-24.81 16.33-31.98 2.8-7.17 2.8-16.64-14.14-16.64h0.99s-17.34 14.85-21.31 30.99-4.58 40.6-4.58 49.77c-0.01 9.16 0.77 18.07 6.36 17.87z" fill="#F5767A" p-id="1575"></path><path d="M522.7 195.58c1.35-0.6 6.73-6.69 7.02-10.67 0.3-3.98-3.89-4.88-3.89-4.88s-5.68-4-6.28 4.88c-0.59 8.88 1.81 11.27 3.15 10.67zM583.22 172.86c5.98-0.9 11.36-8.97 8.67-9.86-2.69-0.9-3.89-2.39-11.06 0 0 0-6.87 3.59-5.68 6.87 1.2 3.29 2.1 3.89 8.07 2.99zM628.06 248.48c5.68-0.6 9.56-5.38 7.77-6.87-1.79-1.49-7.77-2.09-7.77-2.09s-11.06-1.79-9.86 1.79 4.18 7.77 9.86 7.17zM677.97 257.75s-8.67 3.29-9.27 8.07c-0.6 4.78 2.09 6.28 6.58 4.48 4.48-1.79 6.87-7.17 5.98-9.56-0.9-2.39-3.29-2.99-3.29-2.99zM539.59 239.07s-7.77-1.14-6.87 4.74c0.9 5.87 4.78 6.47 8.37 2.89 3.59-3.59 7.17-6.75 4.48-7.71-2.7-0.97-5.98 0.08-5.98 0.08zM553.04 300.49c-2.09-0.3-7.77 1.49-7.77 1.49s-5.38 2.09-4.48 5.08c0.9 2.99 4.48 4.18 9.56 0s4.78-6.27 2.69-6.57zM616.1 318.12c-2.09 0.6-4.78 0-4.78 0s-9.86 4.75-8.07 7.91c1.79 3.15 10.46 2.83 11.66 0 1.19-2.83 3.28-8.51 1.19-7.91zM546.5 343.53s-10.5 3.59-8.7 7.77c1.79 4.18 4.31 3.89 9.78 1.79 5.46-2.09 5.76-6.58 4.27-7.47-1.5-0.9-5.35-2.09-5.35-2.09zM479.51 326.03s-9.56 2.46-6.37 7.24c3.18 4.78 15.13 3.19 15.93 0 0.81-3.19-5.17-9.07-9.56-7.24z" fill="#9A1E23" p-id="1576"></path><path d="M219.28 638.93c-5.59-3.19-12.76-5.58-12.76-5.58s-14.35 15.94-10.36 18.33c3.99 2.39 8.77 7.97 19.13 0s9.58-9.56 3.99-12.75zM272.68 655.82c3.18 4.63 7.18 2.54 11.16 0 3.98-2.54 4.78-11.24 4.78-11.24h-4.78s-14.34 6.6-11.16 11.24zM538.9 563.21s-18.33 3.19-14.35 9.56 12.75 8.77 21.52 7.17c8.77-1.59 15.94-2.71 13.55-8.13-2.39-5.41-14.36-10.21-20.72-8.6zM814.66 585.17c-3.98-2.04-13.54 0.35-13.54 0.35-2.39-0.8-7.17 0-7.17 0s0.78 12.75 11.15 14.35c10.37 1.59 26.3-1.15 23.12-7.35-3.19-6.2-9.58-5.31-13.56-7.35zM863.28 575.16s-5.98 0.95 0 5.26 10.16 9.53 10.76 3.93c0.6-5.6 0-9.19-10.76-9.19zM850.73 760.47c-9.56-3.59-28.1-8.37-36.46-4.78 0 0-11.92 16.74-2.97 24.51 8.95 7.77 17.32 8.37 29.87 0s19.12-16.14 9.56-19.73zM725.79 805.31s-29.29 5.98-25.11 12.55c4.18 6.58 19.73 8.37 25.11 5.98 5.38-2.39 15.54 0.41 12.55-8.76-2.98-9.18-8.15-10.78-12.55-9.77zM502.23 801.52c-3.99 0.4-10.76 0-10.76 0s-9.55 15.94-3.18 17.13c6.37 1.2 21.12-3.99 22.31-8.57 1.19-4.57-4.39-8.95-8.37-8.56zM537.69 833c-4.78 0-9.56-1.59-9.56-1.59s-12.35 13.15-8.76 15.14c3.59 1.99 12.74 5.18 18.33 0 5.58-5.18 4.77-13.55-0.01-13.55zM324.1 840.39c-3.99-0.21-26.7 6.56-26.7 6.56s-7.17 15.14-2.39 16.74 21.51 6.38 28.29 1.6c6.78-4.78 16.74-15.54 15.94-22.32-0.79-6.78-11.15-2.37-15.14-2.58zM183.42 853.26c-9.56-2.33-20.73-3.9-20.73-3.9s5.58 17.51 22.31 23.09 30.29-7.95 27.9-11.55-19.92-5.31-29.48-7.64z" fill="#FDD792" p-id="1577"></path></svg>