<?xml version="1.0" standalone="no"?><!DOCTYPE svg PUBLIC "-//W3C//DTD SVG 1.1//EN" "http://www.w3.org/Graphics/SVG/1.1/DTD/svg11.dtd"><svg t="1607840053059" class="icon" viewBox="0 0 1024 1024" version="1.1" xmlns="http://www.w3.org/2000/svg" p-id="3765" xmlns:xlink="http://www.w3.org/1999/xlink" width="200" height="200"><defs><style type="text/css"></style></defs><path d="M960.88 762.58c-0.08-0.76-0.2-1.49-0.38-2.21-0.04-0.53-0.18-2.13-0.18-2.13v-6.5l0.08-0.94c0.09-0.96 0.17-1.93 0.21-2.91 0.14-1.03 0.22-2.09 0.19-2.97 0 0-0.17-9-0.25-11.53 0.02-0.37 0.01-0.73 0-1.07 0.01-0.22 0.07-0.44 0.07-0.67 0-0.49-0.1-0.94-0.13-1.41l-0.17-3.8v-0.11-0.28c0-0.15 0.17-0.28 0.16-0.42l-0.16-8.37v-0.1c0-7-0.9-11.73-0.9-11.73-0.05-0.8-0.27-1.6-0.43-2.39l-3.74-17.52 5.8-48.44c0.28-2.3 0.07-4.63-0.58-6.85-2.12-7.26-21.24-71.56-36.22-93.45-11.67-17.06-32.23-36.83-41.15-45.1-4.83-23.8-22.29-105.43-40.02-133.39-17.97-28.35-97.54-116.69-109.81-130.26-1.87-3.42-3.54-10.11-12.09-18.34v-0.01c0-0.02-0.16-0.07-0.18-0.09-0.09-0.12-0.23-0.23-0.31-0.35-0.03-0.03-0.09-0.06-0.13-0.09-0.05-0.07-0.12-0.15-0.15-0.19-1.77-2.28-3.79-4.7-5.93-7.15l-2.4-2.69c-0.89-0.99-3.04-3.26-3.04-3.26l-0.01-0.01c-1.42-1.48-2.91-2.97-4.51-4.54l-2.39-2.27-0.53-0.51h-0.01l-0.03-0.03c-1.94-1.8-3.99-3.6-6.09-5.38l-2.74-2.28c-0.02-0.01-0.03-0.02-0.04-0.03-2.67-2.18-5.43-4.34-8.24-6.38-0.08-0.05-0.68-0.49-0.75-0.54-0.01 0-0.02-0.01-0.02-0.01a0.328 0.328 0 0 0-0.08-0.06c-0.01 0-0.02-0.01-0.02-0.01-3.01-2.14-6.2-4.25-9.54-6.33-0.02-0.01-0.02-0.02-0.04-0.03l-1.96-1.2-0.63-0.39c-0.01 0-0.02-0.01-0.02-0.01l-0.03-0.02h-0.01c-7.42-4.46-15.39-8.5-23.72-12.04-0.03-0.01-0.05-0.03-0.08-0.04l-3.16-1.3c-0.02-0.01-0.05-0.01-0.08-0.02-9.05-3.65-18.67-6.68-28.66-9.07-0.02 0-0.03-0.01-0.04-0.01l-1.4-0.32-2.45-0.56c-6.08-1.32-11.25-2.26-16.31-2.98-41.9-5.9-68.68-8.41-89.55-8.41-30.34 0-48.68 5.7-69.48 13.16-1.41 0.5-2.74 1.19-3.98 2.05l-125.62 87.19c-1.72 1.19-3.2 2.69-4.38 4.42-6.61 9.72-37.62 56.72-40.8 88.39-7.79 9.68-17.36 21.14-27.41 33.19-48.13 57.67-55.38 67.93-55.38 78.41-0.04 7.37-5.71 45.6-9.88 55.35-8.48 7.83-22.19 25.48-26.47 31.07-2 2.62-3.21 5.77-3.46 9.06-1.53 19.94-7.29 57.22-16.2 72.37-3.15 5.35-8.75 13.24-14.68 21.59-28.31 39.86-49.42 72.48-42.69 99.39 6.83 27.29 29.52 50.69 40.42 61.94 1.55 1.6 2.81 2.87 3.52 3.65 1.14 2.1 3.84 7.97 6.08 12.92l0.84 1.85c0.11 0.25 0.23 0.51 0.33 0.74 0 0 0.05 0.12 0.1 0.22l3.16 6.97 1.46 3.14c0.03 0.08 0.05 0.16 0.08 0.24l0.96 2.09c0.04 0.09 0.11 0.15 0.15 0.23l5.25 11.28s0.05 0.1 0.08 0.15l0.28 0.58c0.01 0.02 0.02 0.02 0.03 0.04 0.88 1.79 3.05 6.23 3.05 6.23 1.96 3.9 3.89 7.58 5.74 10.89 0.02 0.05 0.57 1.02 0.61 1.08 0.84 1.47 1.79 2.86 2.57 4.1 0 0.01 0.23 0.1 0.23 0.14v0.01c0 0.04-0.07 0.14 0 0.23 0.02 0.03-0.06 1.73-0.04 1.76 0.09 0.14 0.09 2.03 0.12 2.03h-0.08v-3.37c0 1.61 2.04 3.07 3 4.4 0.1 0.14 0.54 0.69 0.67 0.85l0.03 0.03c0.9 1.21 1.79 2.27 2.98 3.58 0.04 0.05 0.43 0.45 0.48 0.51l0.03 0.03c0.1 0.1 0.21 0.22 0.26 0.27 1.17 1.17 2.99 2.87 5.43 4.27 9.73 5.56 91.62 46.47 110.45 51.49 2.72 0.73 5.6 1.29 8.53 1.67 0.38 0.05 1.24 0.12 1.74 0.15 0.36 0.03 0.71 2.08 1.07 2.08 1.93 0.17 3.85 2.38 5.82 2.38h0.1c0.13 0 0.81-2.06 0.94-2.07 0.05 0 0.09-1.03 0.14-1.03 2.54-0.05 5.13-0.7 7.93-1.03 0.04 0 0.1-0.27 0.15-0.27 12.19-1.45 25.31-5.61 43.8-12.08 15.21-5.32 32.81-10.83 48.13-10.83 5.97 0 11.39 0.76 16.57 2.38 4.9 1.53 15.11 3.94 47.12 7.3 0.14 0.02 0.28 0 0.42 0.01 0.06 0.01 0.1-0.06 0.16-0.06l6.83 0.6H454.13c0.6 0 1.23 0.25 1.83 0.3 3.74 0.36 10.15 0.11 13.72 0.43 0 0 0.62-0.73 1.58-0.73h0.06l6.28 1.48c0.2 0.02 0.39 0.48 0.59 0.49 0.06 0 0.13 0.25 0.18 0.25 0.08 0.01 0.17-1.7 0.25-1.69l14.81-0.53h0.05c0.47 0 0.78 1.92 0.78 1.92l0.88 1 6.11 3.04c0.16 0.01 0.31 2.58 0.46 2.58h0.04c0.06 0 0.11-0.25 0.17-0.24l6.9 0.24h0.27c0.03 0 0.07-0.21 0.11-0.2l5.83 0.2h0.14l0.71-1.54c1.13 0.55 2.33 0.18 3.56 0.45 1.77 0.73 4.83 1.49 8.93 1.49 2.81 0 5.1-0.78 6.68-1.26 0.45-0.07 0.92-0.25 1.4-0.37l1.49-0.07c0.44 0.03 1.39 0.02 1.44 0.02 7.46 2.25 26.29 6.93 53.38 6.93 7.98 0 16.18-0.41 24.38-1.21 19.26-1.88 45.65-2.97 72.39-2.97 30.83 0 57.28 1.47 67.38 3.75 0.12 0.02 0.23 0.02 0.34 0.04 1.08 0.22 2.17 0.36 3.29 0.37 0.03 0 0.08 0.01 0.12 0.01 1.03 0 2.08-0.1 3.1-0.28 2.94-0.54 5.65-1.08 8.28-1.63 0.13-0.02 0.34-0.07 0.58-0.13 0.02 0 0.03-0.01 0.06-0.01 0.27-0.06 0.91-0.19 0.93-0.2 2.11-0.45 4.11-0.91 6.06-1.38 0.05-0.01 0.12-0.03 0.17-0.04 0.02 0 0.03-0.01 0.05-0.02 26.83-6.51 38.32-15.28 68.26-38.18l1.89-1.45C951 804.16 956.1 791.39 958.01 786.62c0.54-1.34 1.07-3.15 1.57-5.51 0.02-0.09 0.2-1.02 0.22-1.11 0.18-1.05 0.52-2.21 0.52-3.47v-0.02-0.03c0-0.02 0.02-0.22 0.03-0.4 0.03-0.28 0.06-0.58 0.07-0.61 0.16-1.51 0.28-3.14 0.41-5.51 0.08-1.28 0.12-2.6 0.16-3.87 0-0.06 0.03-0.12 0.03-0.18l0.05-1.17c0.01-0.55-0.09-1.06-0.13-1.6-0.03-0.19-0.04-0.38-0.06-0.56z" p-id="3766"></path><path d="M681.99 194.11c0.82 0.67 1.63 1.33 2.41 2-0.79-0.66-1.58-1.33-2.41-2zM943.24 758.24v0zM943.29 726.85c0.01 0.18 0.02 0.37 0.02 0.55-0.01-0.19-0.02-0.37-0.02-0.55zM701.58 213.02c1.94 2.22 3.74 4.38 5.33 6.42-1.59-2.05-3.37-4.19-5.33-6.42zM943.98 763.51zM943.54 732.7c0 0.2 0.01 0.39 0.02 0.58-0.02-0.19-0.02-0.38-0.02-0.58zM943.93 745.31c0.01 0.37 0.02 0.74 0.02 1.11-0.01-0.37-0.01-0.74-0.02-1.11zM942.95 777.07c-0.05 0.29-0.1 0.58-0.15 0.84 0.05-0.26 0.1-0.55 0.15-0.84zM616.55 213.88c-23.49 7.47-91.81 26.42-98.22 45.64-6.41 19.22-12.81 73.53-27.76 77.8-14.95 4.27-92.88 20.22-99.29 39.43-6.41 19.22-1.07 70.43-22.42 99.25s-23.49 42.91-27.76 51.87c-4.27 8.96-28.83 33.51-29.89 54.86-1.07 21.35-14.95 59.78-10.68 69.39s37.37 57.65 23.49 68.32c-13.88 10.68-46.97 37.37-44.84 60.85 2.14 23.49 6.21 41.64-0.1 54.45-1.8 3.65-2.92 8.03-3.47 12.62 27.6-5.63 60.05-12.79 69.76-15.83 6.42-2.01 16.77-3.56 28.6-4.1L371 816.54h17.08V828.35c16.1 0.42 33.1 2.84 45.91 8.47 3.29 1.45 9.21 2.83 17.11 4.13 1.78-6.14 3.88-12.89 6.38-20.14 0.83-2.42 1.5-5.24 1.97-8.22 2.4-15.37-3.04-37.49-3.04-58.72v-0.06c0-2.94-1.07-5.85-1.58-8.72-0.03-0.19-0.11-0.37-0.14-0.56-0.5-2.76-1.03-5.48-1.54-8.16-0.06-0.29-0.13-0.58-0.18-0.88-0.5-2.57-1.01-5.1-1.51-7.55-0.08-0.35-0.15-0.71-0.22-1.06-0.5-2.4-0.99-4.74-1.48-6.99-0.07-0.32-0.13-0.62-0.2-0.94-0.49-2.24-0.97-4.41-1.43-6.46-0.05-0.21-0.09-0.41-0.14-0.62-1.4-6.25-2.62-11.42-3.48-15.15-0.04-0.15-0.08-0.34-0.12-0.49-0.33-1.4-0.59-2.61-0.79-3.53-0.1-0.48-0.18-1.05-0.26-1.72-0.02-0.27-0.04-0.61-0.07-0.91-0.03-0.44-0.08-0.85-0.09-1.36-0.03-0.4-1.92-0.88-1.93-1.32-0.02-0.49-1.93-0.96-1.93-1.5v-1.51-1.78c0-0.56 1.9-1.18 1.92-1.78 0.01-0.64 0.96-1.26 0.98-1.94 0.02-0.64 0.52-1.32 0.53-1.99 0.03-0.72 0.28-1.42 0.32-2.17 0.02-0.6 0.18-1.23 0.2-1.85 0.04-0.9 0.14-1.8 0.19-2.74 0.02-0.54 0.09-1.1 0.11-1.66 0.07-1.05 0.13-2.1 0.2-3.19 0.03-0.54 0.08-1.09 0.11-1.64 0.07-1.17 0.14-2.34 0.22-3.55 0.03-0.47 0.07-0.95 0.1-1.42 0.09-1.32 0.18-2.66 0.28-4.02 0.02-0.39 0.05-0.78 0.08-1.17 0.11-1.49 0.22-3 0.33-4.53 0.02-0.25 1.28-0.51 1.3-0.77 0.13-1.72 1.65-3.45 1.65-5.2v-0.13c0-1.88-0.93-3.78-0.77-5.69 0.01-0.08-0.6-0.15-0.59-0.23 0.16-1.88 0.01-3.77 0.18-5.67 0.01-0.09 0.32-0.18 0.32-0.27 0.17-1.9 0.87-3.8 0.87-5.7v-0.22c0-1.78-0.16-3.55 0.01-5.32 0.02-0.16-0.21-0.32-0.19-0.47 1.03-11.09 1.97-21.79 2.9-30.89 0.1-1.06 0.14-2.04 0.25-3.05 0.02-0.21 0.01-0.42 0.02-0.63 0.12-1.1 0.22-2.16 0.33-3.2 0.1-0.97 0.19-1.88 0.28-2.79l0.12-1.13c0.13-1.24 0.25-2.42 0.37-3.54 0.02-0.23 0.05-0.48 0.08-0.7 0.28-2.69 0.53-4.9 0.72-6.66 0.01-0.08 0.01-0.14 0.02-0.22 0.06-0.58 0.12-1.11 0.17-1.57 0.04-0.38 0.07-0.69 0.11-0.98 0.1-0.93 0.16-1.45 0.16-1.45l33.1-29.89 274.37 9.61-1.07 39.5-11.74 73.66 2.14 85.41 0.63 2.17 8.97 30.92 9.61 33.1-1.23 27.86c6.96-0.73 14.3-1.17 22.58-1.17 35.23 0 59.79 1.07 68.33-4.27s48.04-59.79 53.38-70.46c5.34-10.68 11.74-37.37 23.49-39.5 1.75-0.32 4.24-0.77 7.09-1.28-0.38-6.88-0.68-11.53-0.68-11.53l-4.27-20.28 6.17-51.24s-20.05-68.33-33.93-88.61-42.7-45.91-42.7-45.91-20.29-103.91-38.79-133.09c-18.5-29.18-109.6-129.54-109.6-129.54s-3.69-7.61-11.89-18.17c-28.96-4.7-74.95-10.86-90.61-5.88zM371 671.34h-6.94l-10.68-19.68c6.41-9.01 12.28 0 12.28 0l2.67 3.67 2.67 7.47v8.54z m6.41-111.83l4.8-10.68 13.88-6.41 4.8 10.28-4.8 5.2-7.21 3.74-7.21 1.33-4.26-3.46z m27.76 205.78h-5.34l-11.88-3.07-3.34-4.67 2.94-6.14c9.61 0.53 17.62 5.34 17.62 5.34v8.54z m25.62-119.57h-10.67l-7.74-12.28 1.33-13.34h7.47l7.47 6.94 4.8 8.01-2.66 10.67z m17.08-175.09l-2.67 4.8-5.87 8.01h-8.54V470.9l6.27-4.54h10.81v4.27z m17.08 57.12v5.87l-3.07 6.94-1.2 2.67h-4.27v-17.08l8.16-8.16-0.02-0.38h0.4l-0.38 0.38 0.38 9.76z m42-131.88l-4.99 7.79h-4.98l-2.14-5.62 4.27-9.96h7.83v7.79z m359.42 210.88v-3.74h8.54l8.54 4.8v9.61s-8.54-1.07-8.54 0-8.54-4.27-8.54-4.27v-6.4z m-10.14 91.55l-5.87 7.74h-6.94v-3.74l6.94-11.74h8.54l-2.67 7.74z m-19.75-139.59l4.27-9.07h4.8l4.8 3.07-2.14 5.2-5.34 5.07-6.41 3.2v-7.47z m-29.1-121.72l16.28 3.75v14.41l-10.61-2.74-9.54-5.01 3.87-10.41z m-8.8 330.97v6.14s-2.14 0.8-3.2 2.4c-1.07 1.6-4.27 3.74-4.27 3.74h-7.47v-3.74l7.47-8.54h7.47z m-14.95-246.48l3.2 8.94-3.74 3.74-9.83 8.35 0.58 0.73h-1.43l0.85-0.73-4.99-6.21 8.67-16.55 6.69 1.73z m-28.29-166.15h6.41l5.79 4.8 6.32 3.74s-1.77 8.54-3.9 10.14c-2.14 1.6-4.6 0-4.6 0L754 363.88l1.34-8.55z m-8.54 61.87v15h-8.54v-17.08l-0.27-2.14 8.27 2.14 0.54 2.08z m-20.29-130.19l9.61-5.34h2.67v10.68l-7.47 2.14h-4.8v-7.48z m-141.99 76.87h-3.56l-13.52-15.66v-2.14l11.03-6.41 5.35 8.54 5.69 4.27-4.99 11.4z m42.71 81.13v12.81h-5.87l-13.61-4.14 6.14-16.41s5.34 0.27 6.94 0c1.6-0.27 6.41 3.47 6.41 3.47v4.27z m74.19-168.14l6.94 5.87v9.6h-7.47l-6.41-9.61 6.94-5.86z m-6.93 140.38s3.2 0.53 4.8 0c1.6-0.53 2.14 3.2 2.14 3.2V425l-2.67 7.74h-7.47l-3.2-5.34 6.4-10.15z m-29.9-49.1l9.07-8.01 4.27 3.74-4.27 3.2-2.14 6.94h-6.94v-5.87z m-15.35 149.46l2.54-0.8 9.61 0.8v8.54h-12.01l-4.8-7.07 4.66-1.47zM635.77 244.3v8.54h-18.15l4.27-25.62h8.54l5.34 8.54v8.54zM943.24 751.64v0zM673.75 187.78c0.18 0.13 0.37 0.26 0.54 0.39-0.18-0.14-0.36-0.26-0.54-0.39zM689.95 201.02c0.92 0.86 1.82 1.72 2.7 2.57-0.88-0.85-1.78-1.7-2.7-2.57zM943.42 773.67c-0.03 0.31-0.07 0.58-0.1 0.87 0.03-0.3 0.07-0.57 0.1-0.87zM608.12 159.16c1.19 0.26 2.39 0.53 3.56 0.81-1.18-0.28-2.36-0.54-3.56-0.81zM943.77 768.99c-0.01 0.19-0.02 0.4-0.02 0.58 0-0.18 0.01-0.38 0.02-0.58zM638.03 168.31c0.96 0.38 1.9 0.77 2.84 1.16-0.94-0.4-1.88-0.78-2.84-1.16zM696.71 207.68a145 145 0 0 1 2.74 2.93c-0.89-0.97-1.79-1.94-2.74-2.93zM662.57 180.49c0.8 0.48 1.6 0.97 2.39 1.46-0.78-0.5-1.58-0.98-2.39-1.46z" fill="#FFF3E2" p-id="3767"></path><path d="M275.35 906.08c-0.3-0.03-0.61-0.03-0.9-0.06 0.3 0.03 0.6 0.03 0.9 0.06zM288.02 905.95c-0.02 0-0.06 0.01-0.09 0.01 0.03 0 0.06-0.01 0.09-0.01zM281.53 906.38c-0.18 0-0.36 0.03-0.54 0.03 0.19 0 0.37-0.03 0.54-0.03zM143.64 825.46c-0.13-0.28-0.27-0.56-0.41-0.85 0.14 0.29 0.28 0.57 0.41 0.85zM233.28 856.04c3.23 0 21.39-3.39 42.34-7.66 0.55-4.6 1.67-8.97 3.47-12.62 6.31-12.81 2.24-30.96 0.1-54.45-2.14-23.49 30.96-50.18 44.84-60.85 13.88-10.68-19.22-58.71-23.49-68.32s9.61-48.04 10.68-69.39c1.07-21.35 25.62-45.9 29.89-54.86s6.41-23.05 27.76-51.87 16.01-80.04 22.42-99.25c6.41-19.22 84.34-35.16 99.29-39.43 14.95-4.27 21.35-58.58 27.76-77.8s74.73-38.17 98.22-45.64c15.66-4.98 61.65 1.18 90.6 5.85-0.07-0.09-0.16-0.19-0.23-0.28-1.59-2.04-3.39-4.2-5.33-6.42-0.69-0.8-1.39-1.59-2.14-2.41a155.629 155.629 0 0 0-6.8-7.01c-0.88-0.85-1.78-1.71-2.7-2.57-1.76-1.63-3.61-3.27-5.55-4.91-0.78-0.67-1.59-1.33-2.41-2-2.44-2-4.98-3.99-7.7-5.95-0.18-0.13-0.37-0.26-0.54-0.39-2.77-1.98-5.73-3.92-8.79-5.83-0.78-0.49-1.59-0.98-2.39-1.46-6.56-3.95-13.8-7.67-21.71-11.02-0.93-0.39-1.88-0.78-2.84-1.16-8.07-3.25-16.84-6.07-26.35-8.33-1.18-0.28-2.37-0.55-3.56-0.81-4.85-1.06-9.83-2.02-15.05-2.76-93.59-13.17-113.17-9.61-150.89 3.91l-125.62 87.19s-39.5 58.01-38.07 85.05c-27.04 34.16-82.56 96.79-82.56 105.33 0 8.54-7.12 61.21-14.24 66.9s-25.62 29.89-25.62 29.89-4.28 55.52-18.51 79.72-62.64 79.71-55.51 108.18c7.12 28.47 37.02 54.09 41.29 59.79 1.67 2.23 6.4 12.96 12.12 25.53-1.55-3.41-3.04-6.69-4.4-9.69 31.76 19.12 96.6 57.8 102.22 57.8z m269.04-640.83s8.27 7.47 12.54 13.34 2.67 12.54 2.4 16.28c-0.27 3.74-12.54 0.53-18.15-3.2-5.6-3.74-8.27-18.68-8.27-20.28s11.48-6.14 11.48-6.14z m-128.65 85.41c0.27-2.67 7.89-11.89 9.07-12.01 8.27-0.8 8.27 7.21 6.94 10.41-1.33 3.2-6.67 11.48-9.87 13.34-3.2 1.87-4 1.6-6.14 0-2.13-1.6-0.26-9.07 0-11.74z m-57.78 199.91h12.41v6.67l-2.19 11.81s-5.12 8.07-8.06 10.21c-2.94 2.14-5.44-6.81-6.51-11.34-1.06-4.54 4.35-17.35 4.35-17.35z m-30.83-90.75c6.41-3.2 11.21 4.54 11.21 4.54s-0.53 5.07-3.2 10.68c-2.67 5.6-8.01 10.41-12.14 10.41-4.14 0-3.87-10.41-4.14-14.95-0.27-4.54 8.27-10.68 8.27-10.68z m-28.82 251.6l4.45 4.27 7.82 14.23v15.66s-10.14-2.49-17.27-4.63c-7.12-2.14-7.29-21.71-7.29-21.71l12.29-7.82zM189.25 549.9c1.87-5.07 19.75-15.21 19.75-15.21h9.34l3.2 14.65s-1.87 2.1-9.34 6.37-13.34 5.27-20.55 5.54c-7.21 0.26-4.27-6.28-2.4-11.35z m-27.14 159.52s9.62 11.74 12.46 13.17c2.84 1.42 0 8.54 0 8.54v10.68s-10.06-2.58-15.75-5.43c-5.69-2.85-10.76-21.8-10.76-21.8l14.05-5.16zM146.53 831.36c-0.16-0.32-0.32-0.64-0.48-0.97 0.17 0.32 0.33 0.65 0.48 0.97zM137.95 813.37c-0.3-0.67-0.62-1.34-0.92-2 0.31 0.66 0.61 1.32 0.92 2zM140.52 818.89c-0.17-0.35-0.33-0.71-0.5-1.06 0.17 0.35 0.33 0.71 0.5 1.06zM157.71 850.79c-0.14-0.19-0.28-0.35-0.42-0.55 0.14 0.2 0.28 0.37 0.42 0.55zM159.94 853.45c-0.17-0.18-0.35-0.38-0.53-0.57 0.18 0.19 0.36 0.39 0.53 0.57zM154.98 846.79l-0.38-0.63 0.38 0.63zM152.43 842.49l-0.52-0.92 0.52 0.92z" fill="#F4E8D5" p-id="3768"></path><path d="M943.24 752.46v-0.82c0-1.73 0.35-3.47 0.32-5.22-0.01-0.37 0.18-0.74 0.18-1.11-0.09-4.06-0.12-8.12-0.28-12.02-0.01-0.2 0.03-0.39 0.03-0.58-0.08-1.82-0.13-3.59-0.2-5.31-0.01-0.18 0-0.37-0.02-0.55-0.15-3.16-0.28-6.13-0.43-8.75-2.85 0.52-5.33 0.97-7.08 1.28-11.74 2.14-18.15 28.83-23.49 39.5-5.34 10.68-44.84 65.12-53.38 70.46-8.54 5.34-33.1 4.27-68.33 4.27-8.27 0-15.61 0.44-22.58 1.17l-0.46 10.36-1.52 34.38 9.82 24.87c-2.15 0.52-4.42 1.03-6.82 1.53 29.16-6.08 37.36-12.67 70.67-38.14 36.3-27.76 98.22-76.87 102.49-87.54 0.24-0.6 0.44-1.42 0.63-2.33 0.05-0.26 0.1-0.55 0.15-0.84 0.13-0.77 0.26-1.61 0.37-2.54 0.03-0.29 0.07-0.56 0.1-0.87 0.13-1.26 0.24-2.62 0.33-4.09 0.01-0.19 0.02-0.39 0.02-0.58 0.08-1.33 0.13-2.75 0.18-4.22 0.02-0.42-0.38-0.84-0.38-1.26 0.04-1.49-0.33-3.03-0.33-4.62v-0.65c0.01-1.88 0.01-3.81 0.01-5.78zM443.14 873.85c0.02-0.1 0.03-0.18 0.06-0.34 0.04-0.24 0.1-0.54 0.17-0.91 0.03-0.15 0.05-0.26 0.08-0.44 0.12-0.59 0.25-1.28 0.42-2.11 0.02-0.1 0.04-0.21 0.06-0.32 0.15-0.74 0.33-1.58 0.52-2.49 0.06-0.27 0.11-0.53 0.18-0.8 0.22-1.03 0.46-2.14 0.73-3.35 0.02-0.08 0.03-0.15 0.05-0.23 0.32-1.37 0.66-2.86 1.04-4.44l0.12-0.48c0.35-1.45 0.73-2.98 1.14-4.59 0.07-0.22 0.12-0.44 0.18-0.67 0.92-3.56 1.98-7.49 3.22-11.73-7.9-1.3-13.82-2.68-17.11-4.13-12.81-5.64-29.81-8.06-45.91-8.47v5.27H375.28l-1.29-5.16c-11.83 0.53-22.18 2.09-28.6 4.1-9.71 3.04-42.16 10.2-69.76 15.83-20.95 4.27-39.11 7.66-42.34 7.66-5.62 0-70.46-38.68-102.23-57.83 1.36 3 2.84 6.28 4.4 9.69 0.53 1.14 1.05 2.29 1.59 3.46 0.3 0.66 0.62 1.33 0.92 2 0.68 1.48 1.38 2.97 2.07 4.46 0.17 0.35 0.33 0.71 0.5 1.06 0.9 1.92 1.8 3.83 2.71 5.72 0.14 0.29 0.28 0.56 0.41 0.85 0.81 1.67 1.61 3.32 2.42 4.93 0.16 0.33 0.32 0.65 0.48 0.97 1.83 3.66 3.64 7.11 5.38 10.22 0.18 0.31 0.35 0.61 0.52 0.92 0.74 1.3 1.46 2.52 2.17 3.67 0.13 0.2 0.26 0.43 0.38 0.63 0.8 1.28 1.57 2.43 2.31 3.46 0.14 0.2 0.28 0.36 0.42 0.55 0.59 0.79 1.15 1.48 1.69 2.08 0.18 0.2 0.37 0.4 0.53 0.57 0.65 0.65 1.27 1.2 1.83 1.52 9.96 5.69 90.39 45.55 106.4 49.82 2.08 0.56 4.18 0.95 6.29 1.23 0.29 0.04 0.6 0.03 0.9 0.06 1.85 0.2 3.73 0.33 5.64 0.33 0.18 0 0.37-0.03 0.54-0.03 2.07-0.02 4.2-0.16 6.39-0.41 0.03 0 0.07-0.01 0.09-0.01 10.73-1.25 23.17-5.14 40.29-11.13 28.47-9.96 52.66-15.66 75.44-8.54 7.33 2.29 24.25 4.58 43.82 6.64l-4.49-18.73c-0.02-0.02 0.01-0.15 0.04-0.36zM541.09 900.48c-0.25-0.02-0.65-0.04-1.03-0.07 0.42 0.03 0.76 0.05 1.03 0.07zM494.79 897.17zM528.24 899.63zM516.28 898.79c-1.87-0.14-3.8-0.28-5.81-0.43 2.01 0.15 3.94 0.29 5.81 0.43zM502.55 897.77c-1.98-0.15-4-0.31-6.05-0.47 2.05 0.16 4.08 0.32 6.05 0.47zM510.07 898.34c-2.21-0.16-4.5-0.33-6.85-0.51 2.35 0.17 4.64 0.34 6.85 0.51zM522.57 899.24c-1.64-0.12-3.37-0.24-5.17-0.37 1.8 0.13 3.53 0.25 5.17 0.37zM532.53 899.92c-1.28-0.08-2.65-0.18-4.15-0.28 1.49 0.1 2.87 0.19 4.15 0.28zM768.53 906.03zM539.14 900.35c-1.44-0.09-3.41-0.22-5.86-0.38 2.43 0.16 4.43 0.29 5.86 0.38zM479.04 895.88c-2.27-0.2-4.55-0.39-6.83-0.59 2.28 0.19 4.56 0.39 6.83 0.59zM454.88 893.66c-2.27-0.23-4.51-0.45-6.73-0.68 2.21 0.23 4.46 0.46 6.73 0.68zM471.21 895.2c-5.16-0.46-10.33-0.94-15.4-1.44 5.06 0.49 10.23 0.97 15.4 1.44z" fill="#EADCC8" p-id="3769"></path><path d="M158.82 736.38c5.69 2.85 15.75 5.43 15.75 5.43v-10.68s2.84-7.12 0-8.54c-2.84-1.42-12.46-13.17-12.46-13.17l-14.05 5.16s5.07 18.95 10.76 21.8zM251.25 690.91c7.12 2.14 17.27 4.63 17.27 4.63v-15.66l-7.82-14.23-4.45-4.27-12.28 7.83c-0.01 0 0.16 19.57 7.28 21.7zM318.06 529.22c2.94-2.14 8.06-10.21 8.06-10.21l2.19-11.81v-6.67H315.9s-5.4 12.81-4.34 17.35c1.06 4.53 3.56 13.47 6.5 11.34zM191.65 561.25c7.21-0.27 13.08-1.27 20.55-5.54 7.47-4.27 9.34-6.37 9.34-6.37l-3.2-14.65H209s-17.88 10.14-19.75 15.21c-1.87 5.07-4.81 11.61 2.4 11.35zM280.93 435.4c4.14 0 9.48-4.8 12.14-10.41 2.67-5.61 3.2-10.68 3.2-10.68s-4.8-7.74-11.21-4.54c0 0-8.54 6.14-8.27 10.68 0.27 4.55 0 14.95 4.14 14.95zM379.81 312.36c3.2-1.87 8.54-10.14 9.87-13.34 1.33-3.2 1.33-11.21-6.94-10.41-1.18 0.12-8.81 9.34-9.07 12.01-0.27 2.67-2.14 10.14 0 11.74 2.14 1.61 2.94 1.87 6.14 0zM499.12 241.64c5.61 3.74 17.88 6.94 18.15 3.2 0.27-3.74 1.87-10.41-2.4-16.28-4.27-5.87-12.54-13.34-12.54-13.34s-11.48 4.54-11.48 6.14 2.66 16.54 8.27 20.28z" fill="#EFD7B5" p-id="3770"></path><path d="M439.33 684.37v-1.78 1.78zM443.13 680.82zM443.28 690.06c-0.03-0.44-0.08-0.85-0.09-1.36 0.01 0.5 0.05 0.92 0.09 1.36zM443.24 676.88c0.02-0.72 0.04-1.42 0.08-2.17-0.04 0.75-0.05 1.46-0.08 2.17zM443.9 663.63c0.07-1.17 0.14-2.34 0.22-3.55-0.08 1.2-0.15 2.38-0.22 3.55zM714.77 646.52l-144.66-8.27-56.05 16.54 53.38-4.27 79 12.28zM443.62 668.47c0.06-1.05 0.12-2.1 0.18-3.19-0.07 1.08-0.12 2.13-0.18 3.19zM443.4 672.86c0.04-0.9 0.08-1.8 0.13-2.74-0.05 0.94-0.09 1.84-0.13 2.74zM443.14 687.38c-0.02-0.49-0.04-0.96-0.04-1.5 0 0.54 0.02 1.01 0.04 1.5zM453.13 736.35c-0.06-0.29-0.12-0.58-0.17-0.88 0.05 0.3 0.11 0.59 0.17 0.88zM454.74 745.07c-0.03-0.19-0.07-0.37-0.1-0.56 0.04 0.19 0.07 0.38 0.1 0.56zM456.41 753.86v-0.06 0.06zM451.45 727.93c-0.07-0.36-0.14-0.7-0.22-1.06 0.08 0.35 0.14 0.7 0.22 1.06zM448.13 712.48l-0.14-0.62c0.05 0.21 0.09 0.41 0.14 0.62zM444.51 696.71c-0.03-0.15-0.08-0.34-0.12-0.49 0.04 0.15 0.08 0.34 0.12 0.49zM449.76 719.88c-0.07-0.32-0.13-0.62-0.2-0.94 0.06 0.32 0.13 0.62 0.2 0.94zM443.6 692.69a20.174 20.174 0 0 0 0 0zM446.4 630.96c0.17-1.9 0.33-3.8 0.5-5.7-0.16 1.9-0.33 3.8-0.5 5.7zM583.19 747.11l61.12 9.64h20.82l35.23 13.04 29.36 4.04h29.89l-8.98-30.92-103.52-4.06zM453.05 563.9c0.09-0.88 0.16-1.45 0.16-1.45s-0.06 0.52-0.16 1.45zM758.81 555.78l-58.72 1.69-26.16 4.71 79.01 3.2-18.95 6.41 25.85 1.15-0.23 8.72 1.07-39.5-0.38 13.8zM452.03 573.33c0.28-2.66 0.53-4.91 0.72-6.66l-0.72 6.66zM539.68 611.56l150.4-5.34-79.82-7.47-159.8-10.38c-0.93 9.1-1.98 19.8-3.01 30.89l26.04-7.69h66.19zM451.17 581.48c0.1-0.95 0.2-1.89 0.29-2.79-0.09 0.91-0.19 1.82-0.29 2.79zM446.93 625.04l0.48-5.32-0.48 5.32zM451.58 577.57c0.13-1.25 0.26-2.42 0.37-3.54-0.11 1.12-0.23 2.29-0.37 3.54zM450.78 585.31l0.06-0.63-0.06 0.63zM445.89 636.9l0.48-5.67-0.48 5.67zM444.58 653.46zM444.98 648.16c0.13-1.72 0.27-3.45 0.41-5.2-0.14 1.76-0.27 3.49-0.41 5.2zM452.77 566.45c0.06-0.61 0.12-1.1 0.17-1.57-0.05 0.46-0.11 0.99-0.17 1.57zM445.4 642.83c0.15-1.88 0.31-3.78 0.47-5.69-0.16 1.91-0.32 3.81-0.47 5.69zM444.22 658.66c0.09-1.32 0.18-2.66 0.28-4.02-0.1 1.36-0.19 2.69-0.28 4.02zM482.03 836.82l24.55-0.53 18.15 5.87h22.95l45.37-8.54H562.1l-42.9-17.21-59.87-3.58c0.02-0.08 0.02-0.17 0.02-0.24-0.47 2.99-1.04 5.81-1.88 8.22-2.5 7.25-4.6 14-6.38 20.14-1.23 4.24-2.3 8.17-3.22 11.73 0.47-1.81 0.97-3.69 1.51-5.68l32.65-10.18zM443.2 873.51c0.01-0.02 0.02-0.07 0.02-0.09 0.03-0.16 0.07-0.33 0.1-0.54 0.02-0.1 0.03-0.17 0.05-0.28-0.07 0.37-0.13 0.67-0.17 0.91zM446.56 857.94c0.35-1.45 0.73-2.98 1.14-4.59-0.4 1.61-0.79 3.15-1.14 4.59zM443.45 872.16c0.01-0.02 0.02-0.07 0.02-0.1 0.08-0.45 0.19-0.97 0.3-1.54 0.03-0.17 0.06-0.28 0.1-0.47-0.17 0.83-0.3 1.52-0.42 2.11zM443.08 874.19s0.02-0.11 0.05-0.3c0-0.02 0.01-0.02 0.01-0.04-0.03 0.21-0.06 0.34-0.06 0.34zM444.62 866.44c0.02-0.08 0.04-0.19 0.06-0.28 0.14-0.66 0.3-1.37 0.46-2.11 0.08-0.33 0.13-0.62 0.22-0.97-0.28 1.22-0.53 2.33-0.74 3.36zM443.93 869.73c0.04-0.22 0.11-0.5 0.16-0.73 0.08-0.38 0.15-0.77 0.24-1.2 0.04-0.19 0.08-0.35 0.12-0.56-0.2 0.91-0.37 1.75-0.52 2.49zM445.4 862.86c0.05-0.23 0.13-0.51 0.18-0.75 0.18-0.79 0.37-1.58 0.57-2.43h0.01c0.1-0.43 0.18-0.81 0.29-1.26-0.39 1.59-0.73 3.07-1.05 4.44z" fill="#49784A" p-id="3771"></path><path d="M443.14 873.85c0 0.02-0.01 0.02-0.01 0.04 0.02-0.11 0.05-0.29 0.08-0.47 0 0.02-0.01 0.07-0.02 0.09-0.01 0.16-0.03 0.24-0.05 0.34zM443.87 870.04c-0.04 0.19-0.07 0.3-0.1 0.47 0.09-0.46 0.2-0.98 0.32-1.52-0.05 0.23-0.12 0.52-0.16 0.73-0.02 0.11-0.05 0.23-0.06 0.32zM443.37 872.6c-0.02 0.11-0.03 0.18-0.05 0.28 0.05-0.25 0.09-0.5 0.15-0.82 0 0.03-0.01 0.08-0.02 0.1-0.03 0.18-0.05 0.28-0.08 0.44zM444.44 867.24c-0.04 0.2-0.08 0.36-0.12 0.56 0.11-0.52 0.22-1.06 0.35-1.64l-0.06 0.28c-0.06 0.28-0.11 0.54-0.17 0.8zM445.35 863.09c-0.08 0.35-0.13 0.63-0.22 0.97 0.14-0.63 0.29-1.27 0.44-1.94-0.05 0.24-0.12 0.52-0.18 0.75 0 0.07-0.02 0.14-0.04 0.22zM759.61 773.83h-29.89l-29.36-4.04-35.23-13.04h-20.82l-61.12-9.64 63.92-8.26 103.52 4.06-0.63-2.17-2.14-85.41 11.74-73.66 0.23-8.72-25.86-1.15 18.95-6.41-79-3.2 26.16-4.71 58.72-1.69 1.49 0.19 0.38-13.8-274.37-9.61-33.1 29.89s-0.07 0.57-0.16 1.45c-0.03 0.29-0.07 0.6-0.11 0.98-0.05 0.47-0.11 0.97-0.17 1.57-0.02 0.08-0.02 0.14-0.02 0.22-0.19 1.75-0.43 4-0.72 6.66-0.02 0.22-0.05 0.47-0.08 0.7-0.12 1.12-0.24 2.29-0.37 3.54-0.03 0.37-0.08 0.76-0.12 1.13-0.09 0.89-0.19 1.84-0.29 2.79-0.11 1.03-0.22 2.1-0.33 3.2l-0.06 0.63c-0.11 1.01-0.21 1.99-0.32 3.05l159.8 10.38 79.82 7.47-150.4 5.34h-66.19l-26.04 7.69c-0.02 0.15-0.03 0.31-0.04 0.47-0.17 1.77-0.33 3.54-0.48 5.32-0.01 0.08-0.02 0.15-0.02 0.22-0.17 1.9-0.33 3.8-0.5 5.7-0.01 0.09-0.02 0.18-0.02 0.27-0.17 1.89-0.33 3.79-0.48 5.67-0.01 0.08 1.22 0.16 1.21 0.23-0.16 1.91 0.77 3.81 0.77 5.69v0.13c0 1.75-1.52 3.48-1.65 5.2-0.02 0.25-0.66 0.51-0.68 0.77-0.12 1.53-0.53 3.04-0.64 4.53-0.03 0.39-0.21 0.78-0.24 1.17-0.1 1.36-0.27 2.7-0.36 4.02-0.03 0.47-0.1 0.95-0.13 1.42-0.08 1.21-0.18 2.39-0.25 3.55-0.03 0.55-0.08 1.11-0.11 1.64-0.07 1.09-0.12 2.15-0.19 3.19-0.02 0.55-0.06 1.12-0.08 1.66-0.05 0.94-0.09 1.84-0.13 2.74-0.03 0.62-0.06 1.26-0.08 1.85-0.03 0.75-0.05 1.46-0.08 2.17-0.02 0.67-0.05 1.35-0.07 1.99-0.02 0.68-1.92 1.3-1.93 1.94-0.02 0.6-1.92 1.21-1.92 1.78v3.29c0 0.54 1.91 1.01 1.93 1.5 0.01 0.44 0.96 0.92 0.98 1.32 0.02 0.5 0.53 0.92 0.56 1.36 0.03 0.3 0.28 0.65 0.31 0.91 0.08 0.67 0.27 1.25 0.37 1.72 0.2 0.92 0.53 2.13 0.85 3.53 0.03 0.15 0.12 0.34 0.15 0.49 0.85 3.74 2.09 8.91 3.49 15.15 0.05 0.21 0.1 0.4 0.15 0.62 0.46 2.04 0.93 4.22 1.43 6.46 0.07 0.32 0.13 0.62 0.2 0.94 0.48 2.25 0.98 4.59 1.48 6.99 0.07 0.35 0.14 0.7 0.22 1.06 0.5 2.46 1.01 4.98 1.51 7.55 0.05 0.29 0.11 0.58 0.17 0.88 0.52 2.67 1.03 5.4 1.52 8.16 0.03 0.19 0.16 0.37 0.19 0.56 0.51 2.88 1.58 5.79 1.58 8.72v0.06c0 21.23 5.44 43.35 3.04 58.72-0.02 0.08-0.06 0.17-0.08 0.24l59.85 3.58 42.88 17.21h30.96l-45.37 8.54h-22.95l-18.15-5.87-24.55 0.53-32.67 10.2c-0.54 1.98-1.04 3.87-1.51 5.68-0.06 0.23-0.11 0.45-0.18 0.67-0.41 1.61-0.79 3.14-1.14 4.59l-0.12 0.48c-0.11 0.45-0.19 0.83-0.29 1.26l87.26 22.85 123.24-22.99 27.16 8.24h37.37l46.36-22.64 0.46-10.36 1.23-27.86-9.62-33.09zM514.06 654.79l56.05-16.55 144.66 8.27-68.33 16.28-79-12.28-53.38 4.28z" fill="#386339" p-id="3772"></path><path d="M766.01 879.52l1.52-34.38-46.36 22.64H683.8l-27.16-8.24-123.24 22.99-87.26-22.85h-0.01c-0.2 0.85-0.38 1.65-0.57 2.43-0.15 0.68-0.3 1.32-0.44 1.94-0.16 0.73-0.32 1.45-0.46 2.11-0.13 0.58-0.24 1.12-0.35 1.64-0.09 0.43-0.17 0.81-0.24 1.2-0.12 0.54-0.22 1.06-0.32 1.52-0.11 0.58-0.22 1.1-0.3 1.54-0.06 0.32-0.1 0.57-0.15 0.82-0.03 0.2-0.07 0.38-0.1 0.54l-0.08 0.47c-0.03 0.19-0.05 0.3-0.05 0.3l4.49 18.73 0.58 0.06a1018.404 1018.404 0 0 0 7.66 0.77c5.06 0.5 10.23 0.98 15.4 1.44l1 0.09c2.29 0.2 4.56 0.4 6.83 0.59l1.03 0.09c5 0.43 9.94 0.83 14.72 1.21 0.57 0.05 1.14 0.09 1.71 0.13 2.05 0.16 4.08 0.32 6.05 0.47 0.23 0.02 0.45 0.03 0.68 0.05 2.34 0.18 4.64 0.35 6.85 0.51l0.4 0.03c2 0.15 3.94 0.29 5.81 0.43 0.37 0.02 0.75 0.05 1.12 0.08 1.8 0.13 3.53 0.25 5.17 0.37 0.13 0.01 0.28 1.17 0.41 1.19 1.86 0.12 3.63 1.52 5.26 1.52h0.13c1.5 0 2.87-0.96 4.15-0.88 0.26 0.02 0.5-0.54 0.75-0.53 2.45 0.16 4.42 0 5.86 0.1 0.36 0.02 0.63-0.1 0.91-0.09 0.38 0.02 0.78-0.02 1.03 0 0.46 0.03 0.74 0.01 0.74 0.01s27.75 10.39 73.66 5.9 122.77-3.94 145.19 1.12c2.8-0.52 5.4-1.03 7.86-1.54 0.16-0.03 0.32-0.07 0.48-0.11 2.4-0.5 4.67-1.01 6.82-1.53l-9.81-24.88z" fill="#234824" p-id="3773"></path><path d="M388.09 816.54H371l2.98 11.91 1.29 5.17h12.82v-6.14zM384.62 757.55l3.34 4.67 11.88 3.07h5.34v-8.54s-8.01-4.8-17.62-5.34l-2.94 6.14zM365.67 651.66s-5.87-9.01-12.28 0l10.68 19.68H371v-8.54l-2.67-7.47-2.66-3.67zM421.18 620.1h-7.47l-1.34 13.34 7.74 12.28h10.68l2.67-10.68-4.81-8zM396.09 557.91l4.81-5.2-4.81-10.28-13.88 6.41-4.8 10.67 4.27 3.47 7.21-1.33zM464.55 517.61l0.02 0.38 0.38-0.38zM456.41 534.69v8.54h4.27l1.2-2.67 3.07-6.94v-5.87l-0.38-9.76-8.16 8.16zM437.06 466.36l-6.27 4.54v12.55h8.54l5.87-8.01 2.67-4.81v-4.27h-6.4zM494.85 398.04l2.13 5.62h4.98l4.99-7.79v-7.79h-7.83zM578.47 339.67l-11.03 6.41v2.14l13.52 15.66h3.56l4.98-11.39-5.69-4.27zM621.89 227.22l-4.27 25.63h18.15v-17.09l-5.34-8.54zM708.36 292.35v-9.61l-6.94-5.87-6.93 5.87 6.4 9.61zM738.79 292.35v-10.68h-2.67l-9.61 5.34v7.47h4.81zM673.67 367.08l4.27-3.2-4.27-3.74-9.08 8.01v5.87h6.94zM613.88 437.27l-6.14 16.41 13.61 4.14h5.87v-17.08s-4.8-3.74-6.41-3.47c-1.59 0.27-6.93 0-6.93 0zM658.72 526.15h2.67v-8.54l-9.61-0.8-2.54 0.8-4.66 1.47 4.8 7.07zM694.49 432.74h4.27l2.67-7.74v-4.54s-0.53-3.74-2.14-3.2c-1.6 0.53-4.8 0-4.8 0l-6.41 10.14 3.2 5.34h3.21zM738.26 415.12v17.08h8.54v-15l-0.54-2.08-8.27-2.14zM769.95 374.02c2.14-1.6 3.9-10.14 3.9-10.14l-6.32-3.74-5.79-4.8h-6.41l-1.33 8.54 11.34 10.14c0.01 0 2.48 1.6 4.61 0zM823.66 455.15v-14.41l-16.28-3.75-3.87 10.42 9.55 5.01zM773.27 542.51l9.83-8.35 3.73-3.74-3.2-8.94-6.67-1.74-8.68 16.55zM773.85 543.23l-0.58-0.72-0.85 0.72zM848.22 557.91l2.13-5.2-4.8-3.07h-4.8l-4.27 9.07v7.47l6.4-3.2zM874.91 617.43c0-1.07 8.54 0 8.54 0v-9.61l-8.54-4.8h-8.54v10.15c0-0.01 8.54 5.33 8.54 4.26zM843.41 702.3v3.74h6.94l5.88-7.74 2.67-7.74h-8.55zM783.63 780.24h7.47s3.2-2.14 4.27-3.74c1.07-1.6 3.2-2.4 3.2-2.4v-6.14h-7.47l-7.47 8.54v3.74z" fill="#EECFA3" p-id="3774"></path></svg>