<?xml version="1.0" standalone="no"?><!DOCTYPE svg PUBLIC "-//W3C//DTD SVG 1.1//EN" "http://www.w3.org/Graphics/SVG/1.1/DTD/svg11.dtd"><svg t="1607840044749" class="icon" viewBox="0 0 1024 1024" version="1.1" xmlns="http://www.w3.org/2000/svg" p-id="3464" xmlns:xlink="http://www.w3.org/1999/xlink" width="200" height="200"><defs><style type="text/css"></style></defs><path d="M955.07 442.12c0-0.89-0.04-0.5-0.14-1.7 0-0.03-0.01-0.06-0.01-0.1l-0.07-0.88-0.26-2.39-0.03-0.12-0.11-0.98c-0.06-0.44-0.19-1.3-0.31-2.08-0.04-0.29-0.07-0.55-0.12-0.85 0-0.02-0.01-0.03-0.01-0.05-0.07-0.42-0.12-0.75-0.12-0.75-0.23-1.35-0.49-2.77-0.79-4.25-0.01-0.01-0.64-2.97-0.99-4.5-0.01-0.02-0.91-0.04-0.92-0.06l-1.09-0.8v-0.04c0-0.27 0.75-0.56 0.69-0.83-0.09-0.32 0.29-0.63 0.19-1.01-0.17-0.65-0.11-1.3-0.29-1.96-0.01-0.03 0.1-0.04 0.09-0.07-0.18-0.67-0.27-1.21-0.28-1.24-0.17-0.58-0.45-1.61-0.74-2.57-0.13-0.45-0.25-0.9-0.39-1.35-0.01-0.01-0.01-0.02-0.01-0.04-0.15-0.48-0.26-0.84-0.26-0.85-0.54-1.71-1.12-3.41-1.58-4.62-0.01-0.02 1.34-0.05 1.34-0.07-0.05-0.14 1.24-0.27 1.24-0.41v-0.01c0-0.02-1.08-0.04-1.08-0.06-1.61-4.33-6.41-8.36-6.41-11.96v-0.02c0-2-2.55-3.88-3.74-5.62l-0.91-1.08a49.784 49.784 0 0 0-4.37-5.32c-0.01-0.01-0.07 1.36-0.08 1.35-4.58-4.82-12.9-11.63-25.42-19.12h-2.92v-1.39l-4.29-4.75c-0.01 0-0.59-0.35-0.6-0.35l-2.6-1.58v-0.09l0.2-0.8-1.82-1.74-1.87-1.5c-0.05-0.03 0.07-0.08 0.03-0.12l-3.07-2.14c-0.04-0.03-0.06-0.04-0.1-0.07l-1.86-1.28c-0.07-0.04-0.1 1.53-0.15 1.48l-3.39-0.66h-0.01l-2.92-3.55c-0.04-0.03-0.08-0.89-0.12-0.92l-2.13-1.81c-0.05-0.03-0.11-0.24-0.15-0.27l-1.3-0.96c-0.06-0.04-0.1-0.14-0.16-0.18l-1.81-1.21c-0.04-0.03-0.08-0.05-0.12-0.07l-0.97-0.64c-0.07-0.04-0.11-0.1-0.18-0.14 0 0-1.05-0.69-1.1-0.72-0.02-0.01-0.05-0.02-0.07-0.03l-0.5-0.33c-0.02-0.01-0.03-0.03-0.04-0.04l-0.67-0.43c-0.5-0.32-1.02-0.61-1.56-0.88-3.13-1.53-31.1-15-48.38-16.45-2.96-0.25-8.76-1.07-19.53-3.57-0.01 0-0.02-0.01-0.04-0.01-8.12-1.89-15.8-3.99-19.61-5.05l-2.35-1.86-0.02-0.02-1.29-1.01-0.41-0.33-0.35-0.27c-0.12-0.1-0.27-0.12-0.39-0.21-0.03-0.03-0.06-0.06-0.09-0.08l0.04-0.06-0.81-0.64c-0.01 0-0.01-0.01-0.01-0.01-49.98-38.9-64.13-41.82-68.78-42.78-19.64-4.06-107.82-11.54-117.23-11.54-50.45 0-55.04 2.86-59.09 5.38l-0.01 0.01s-0.06 0.04-0.07 0.04c-0.35 0.22-0.75 0.52-1.13 0.79-0.57 0.39-1.14 0.82-1.76 1.3-0.42 0.33-0.83 0.64-1.26 0.99 0 0-0.01 0-0.01 0.01l-1.16 0.99c-0.83 0.72-1.67 1.49-2.52 2.3-0.01 0.01-0.01 0.01-0.01 0.02-0.06 0.05-0.1 0.08-0.16 0.14 0 0-0.26 0.26-0.61 0.6-0.04 0.03-0.07 0.05-0.1 0.08-0.41 0.39-0.78 0.78-1.18 1.18-0.68 0.66-1.37 1.35-1.76 1.74 0 0 0.82 0.08 0.8 0.09-0.04 0.04 0.76 0.09 0.76 0.14v0.01l-0.91 0.01-1.84 1.46c-91.98 6.18-99.93 9.74-102.51 10.93-1.81 0.83-10.3 4.15-19.17 7.67-40 15.85-76.83 30.68-87.38 37.87-4.76 3.25-10.59 6.12-16.19 8.91-11.03 5.47-20.56 10.2-24.51 18.89-0.31 0.6-2.52 4.47-14.91 21.18l-0.02 0.02c-1.52 2.05-6.14 8.23-6.14 8.23l0.04 0.03c-0.07 0.09-0.17 0.15-0.24 0.25-0.1 0.12-0.37 0.48-0.52 0.69l-5.35 7.07-5.53 7.25c-0.53 0.69-1 1.43-1.4 2.2l-4.88 9.35c-15.82 6.38-58.06 25.43-71.67 52.66-12.86 25.74-18.76 57.14-18.76 78.52v1.72l-0.03 3.29-0.04 1.86c-0.1 1.2-0.2 2.34-0.44 3.49-0.07 0.24 0.24 0.53 0.17 0.79-0.01 0.06 0.34 0.16 0.34 0.2v0.03c0 0.04-0.39 0.12-0.4 0.15-0.22 0.9-0.61 1.8-0.75 2.2-0.09 0.2-0.45 0.86-0.52 1.06-0.01 0.03-0.06 0.06-0.07 0.09-0.3 0.78-0.67 1.68-0.75 1.86-0.1 0.19-0.32 0.6-0.47 0.87 0 0.02-0.02 0.05-0.03 0.06-0.37 0.73-0.74 1.45-1.1 2.08-0.01 0.01-0.01 0.03-0.02 0.04-1.46 2.46-2.78 3.91-2.78 3.91h0.01c-0.22 0.22-0.52 0.57-0.78 0.87-0.02 0.03-0.05 0.04-0.07 0.07a2.7 2.7 0 0 0-0.18 0.22c-0.01 0.01-0.01 0.02-0.02 0.03 0 0-0.04 0.05-0.05 0.07-0.16 0.19-0.31 0.36-0.32 0.38l-0.01 0.01c-0.03 0.04-0.25 0.31-0.25 0.31l-0.12 0.14c-0.03 0.03-0.04 0.07-0.07 0.1-0.4 0.49-0.8 1-0.88 1.12-0.69 0.73-1.65 1.91-2.57 3.36-0.18 0.26-0.35 0.44-0.52 0.73l-0.83 1.04c-1.2 1.32-2.44 2.78-3.69 4.31-0.1 0.12-0.19 0.22-0.29 0.34-1.46 1.8-2.96 3.74-4.48 5.75-0.53 0.71-1.1 1.48-1.64 2.22-1.08 1.46-2.16 2.92-3.26 4.44-0.57 0.79-1.16 1.62-1.74 2.43-0.51 0.71-1.02 1.4-1.53 2.12-2.57 3.4-5.22 6.98-7.86 10.59-0.8 0.7-1.55 1.47-2.19 2.35l-0.18 0.24c-2.8 2.73-4.78 6.02-6.39 8.9-0.66 0.93-3.07 1.88-3.72 2.81-0.07 0.11-1.9 0.21-1.9 0.29v-2.25h1.69c-5.33 7.49-8.82 15.45-12.04 20.99-0.06 0.1-2.1 3.39-2.73 4.57 0 0-1.9 2.37-1.9 3.31V649.33c0 0.84 0.06 1.67-0.34 2.54-0.34 0.74-0.18 1.44-0.44 2.07-0.91 2.26-1.25 4.02-1.61 5.69-3.9 18.21-0.92 45.5-0.21 51.52 0.26 18.06 7.77 48.21 34.5 51.36 2.88 0.34 7.09 0.86 12.21 1.51 29.3 3.68 83.84 10.52 112.56 10.52 5.97 0 10.64-0.29 14.27-0.9 19.93-3.32 47.36-11.95 55.87-14.7 14.23 0.44 79.9 2.42 101.42 2.42 18.62 0 56.48-2.21 100.85-17l37.44-12.48c0.9-0.3 1.68-0.82 2.5-1.28l22.9 10.13a14.985 14.985 0 0 0 9.79 0.81s65.49-16.84 109.77-28.07c45.41-11.51 79.55-30.39 89.28-40.12 6.8-6.8 14.73-21.54 18.66-29.32 5.92-4.26 19.89-14.23 34.78-24.47 18.22-12.53 37.41-30.93 42.59-36.02 4.12-2.69 11.65-8.9 16.45-20.55 2.79-6.78 7.19-14.06 9.27-17.37l10.27-8.16 0.01-0.01c5.54-4.38 11.35-8.97 13.37-10.41 0.64-0.45 1.54-0.95 2.58-1.57 6.66-3.92 19.03-11.2 24.4-24.26 5.81-14.12 7.99-51.03 7.99-57.49 0-0.34-0.04-0.75-0.05-1.13-0.09-0.17-0.04-0.31-0.04-0.47z" p-id="3465"></path><path d="M935.06 417.99c0.37 1.2 0.72 2.38 1.06 3.57-0.33-1.19-0.68-2.37-1.06-3.57zM933.28 412.73zM926.12 398.25zM936.42 422.65zM939.22 435.45c0.15 0.89 0.27 1.73 0.38 2.53-0.11-0.8-0.24-1.64-0.38-2.53zM939.72 438.91c0.09 0.7 0.15 1.35 0.21 1.96-0.06-0.62-0.13-1.26-0.21-1.96zM937.51 426.91zM102.94 668.98c0.94 4.68-9.36 16.85 4.68 27.15s75.82 30.89 145.09 7.49 74.88-26.92 74.88-26.92l8.41-14.19c-9.97-14.58-35.12-39.31-55.86-58.23-6.22 2.22-14.42 5.7-24.51 11.35-10.96 6.14-21.1 13.91-33.09 20.35l6.76 8.67s-0.12-0.08-10.75-6.62c-12.75 6.27-27.75 10.81-47.99 10.36-25.99-0.58-50.8-10.06-66.01-17.24-6.58 9.43-12.21 18.22-15.44 24.76 0.88-1.76 1.88-3.63 3.06-5.68 4.81 7.4 10.26 16.18 10.77 18.75z" fill="#FEC26B" p-id="3466"></path><path d="M113.14 620.31c10.9-14.98 20.69-29.8 28.18-37.02V583c0-1.05 1.49-2.1 2.08-2.82-5.56 6.89-24.11 30.6-38.63 51.38 2.71-3.87 5.51-11.25 8.4-11.25h-0.03zM424.02 606.27l-57.09 6.55-46.53-7.66c9.8 13.12 19.28 27.71 26.85 42.29 1.7 3.28 3.09 6.51 4.34 9.71 6.64-0.08 14.64 0.18 20.93 1.53 13.1 2.81 79.57 7.49 95.48 2.81 10.76-3.17 36.89-16.59 52.71-24.96-2.55-7.09-5.27-14.46-8.3-22.47-4.62-12.19-13.01-26.61-23.72-42.1-30.23 34.96-64.67 34.3-64.67 34.3zM87.48 659.49c0.2-0.5 0.42-1.01 0.66-1.55-0.23 0.53-0.46 1.05-0.66 1.55zM144.46 578.62c0.07-0.1 0.18-0.22 0.23-0.29l-0.5 0.62c0.04-0.04 0.07-0.07 0.1-0.12 0.07-0.09 0.11-0.14 0.17-0.21zM922.62 393.78c1.04 1.09 2.01 2.35 2.95 3.68-0.94-1.32-1.91-2.59-2.95-3.68zM869.54 431.18l12.52 32.23c2.9-0.81 5.43-1.29 7.17-1.29 0 0 21.53 2.81 25.27 0 3.74-2.81 15.57-12.6 16.85-31.83 0.32-4.8 1.02-11.01 1.91-17.61-1.3-3.52-2.8-6.94-4.48-10.07-5.85 5.84-16.94 14.88-30.19 15.51-9.97 0.47-19.94 6.01-29.05 13.06zM727.05 492.42c-7.95 11.04-23.32 31.8-28.78 35.22-7.49 4.68-52.42 27.15-92.67 33.7-29.06 4.73-60.02 1.66-84.18 0.29 10.52 25.13 21.12 53.58 26.19 71.31 13.27 3.01 31.79 7.02 36.46 7.02 7.49 0 64.59-15.91 92.67-27.15s69.27-30.89 76.76-42.12c0.99-1.48 1.86-3.08 2.67-4.74-1.12-3.83-2.25-7.77-3.39-11.95-4.51-16.37-14.12-38.42-25.73-61.58zM939.99 441.62zM846.17 452.75c-13.1 13.1-47.74 31.83-60.84 32.76-13.1 0.94-29.95 0-29.95 0h-8.68c8.76 20.55 16.71 39.94 22.8 55.07 8.58-1.5 23.66-4.45 34.14-8.27 15.39-5.62 46.28-48.68 53.77-56.16 3.14-3.14 8.1-6.08 13.28-8.48-3.77-8.72-8.01-17.62-12.37-26.83-4.46 4.16-8.55 8.32-12.15 11.91z" fill="#FEC26B" p-id="3467"></path><path d="M891.65 530.27c-1.57 1.25-3.02 2.41-4.1 3.27 1.1-0.88 2.51-2 4.1-3.27zM870.68 467.67c-5.18 2.4-10.14 5.34-13.28 8.48-7.49 7.49-38.38 50.55-53.77 56.16-10.48 3.82-25.56 6.77-34.14 8.27 7.42 18.41 12.1 30.52 12.1 30.52l3.16 60.61c-2.05 1.47-3.27 2.31-3.27 2.31s-3.64 2.91-3.64 6.93v-0.06c0-11.93-9.51-33.1-21.67-74.94-0.8 1.66-1.68 3.26-2.67 4.74-7.49 11.23-48.68 30.89-76.76 42.12s-85.18 27.15-92.67 27.15c-4.67 0-23.2-4.01-36.46-7.02 1.92 6.73 3.08 11.99 3.08 14.83 0 7.19-3.95 40.06-7.29 66.64l28.51 12.61s65.52-16.85 109.83-28.08c44.31-11.23 75.51-29.33 82.37-36.2 6.87-6.86 17.48-28.7 17.48-28.7s18.09-13.11 38.06-26.83c19.97-13.73 41.81-35.57 41.81-35.57s7.5-3.74 11.86-14.35 11.85-21.84 11.85-21.84 0.26-0.21 0.63-0.5c-0.7-6.15-1.35-12.92-1.88-20.32-1.13-15.67-6.36-31.02-13.24-46.96zM894.08 528.35l-1.26 1c0.41-0.33 0.83-0.66 1.26-1zM520.71 636.54c-15.82 8.37-41.95 21.79-52.71 24.96-15.91 4.68-82.37 0-95.48-2.81-6.29-1.35-14.29-1.61-20.93-1.53 14.3 36.62 0.65 66.74 0.65 66.74s-4.99-36.2-12.48-54.92c-0.72-1.79-2.09-4.03-3.77-6.48l-8.41 14.19s-5.62 3.52-74.88 26.92-131.05 2.81-145.09-7.49-3.74-22.47-4.68-27.15c-0.51-2.57-5.95-11.35-10.76-18.75a98.847 98.847 0 0 0-3.06 5.68 44.748 44.748 0 0 0-1.63 3.58c-0.48 1.2-0.88 2.33-1.08 3.25-3.74 17.47 0 47.43 0 47.43s0 34.94 21.21 37.44 112.33 14.98 134.79 11.23c22.47-3.74 56.16-14.98 56.16-14.98s79.87 2.5 103.59 2.5 58.66-3.75 96.11-16.23 37.44-12.48 37.44-12.48l2.9-3.87c1.29-18.19-5.38-42.53-17.89-77.23zM939.99 441.62c-0.02-0.24-0.04-0.5-0.07-0.75-0.06-0.61-0.12-1.26-0.21-1.96-0.04-0.3-0.07-0.61-0.12-0.93-0.11-0.8-0.23-1.64-0.38-2.53-0.04-0.25-0.07-0.49-0.12-0.75-0.4-2.38-0.94-5.02-1.59-7.8-0.07-0.3-0.15-0.59-0.22-0.89-0.26-1.1-0.56-2.23-0.86-3.37l-0.3-1.1c-0.34-1.18-0.69-2.37-1.06-3.57-0.09-0.28-0.17-0.55-0.26-0.83-0.47-1.48-0.98-2.96-1.52-4.43-0.01-0.02-0.01-0.04-0.02-0.07-0.89 6.61-1.59 12.81-1.91 17.62-1.28 19.22-13.1 29.02-16.85 31.83-3.74 2.81-25.27 0-25.27 0-1.73 0-4.27 0.48-7.17 1.29l8.11 20.87 7.26 41.42c5.78-4.58 11.86-9.35 13.95-10.84 4.37-3.12 17.48-8.74 21.84-19.35s6.86-43.68 6.86-51.79c0.01-0.57-0.03-1.29-0.09-2.07z" fill="#FFAA39" p-id="3468"></path><path d="M872.2 356.55c0.81 0.54 1.73 1.14 2.65 1.76-0.93-0.62-1.84-1.23-2.65-1.76zM141.16 582.72c0-0.01 0-0.01 0 0zM868.84 354.34c0.49 0.32 1.07 0.7 1.64 1.08-0.59-0.39-1.14-0.75-1.64-1.08zM187.43 571.74c-7.55 10.13-13.35 19.55-13.35 19.55l25.27 14.98 23.19 29.71c11.99-6.44 22.13-14.21 33.09-20.35 10.08-5.65 18.28-9.13 24.51-11.35-12.13-11.07-22.74-20.15-27.74-23.91-6.99-5.24-36.01-7.6-64.97-8.63zM144.28 578.83c-0.03 0.04-0.06 0.07-0.1 0.12-0.12 0.15-0.23 0.3-0.37 0.47 0.17-0.21 0.34-0.43 0.47-0.59zM877.31 359.94c1.08 0.72 2.18 1.46 3.34 2.24-1.16-0.78-2.26-1.52-3.34-2.24zM888.15 367.29c1.16 0.8 2.34 1.62 3.52 2.44-1.18-0.82-2.36-1.64-3.52-2.44zM218.56 638.03c-0.5-0.3-0.89-0.54-1.42-0.87-9.42-5.8-74.86-14.39-103.98-17.98a626.43 626.43 0 0 0-8.43 11.75c-0.06 0.07-0.11 0.15-0.16 0.22 15.21 7.18 40.02 16.66 66.01 17.24 20.23 0.45 35.23-4.09 47.98-10.36zM893.7 371.14zM817.15 397.69s-15.91-17.95-24.34-22.63c-8.42-4.68-47.74-52.42-59.91-53.36s-43.99 0-43.99 0 3.74 16.85 16.85 36.51c13.1 19.66 81.44 83.31 81.44 83.31s-41.19-19.66-59.91-29.02c-4.67-2.33-12.12-7.58-20.88-14.29 12.95 24.89 27.47 57.26 40.28 87.3h8.68s16.85 0.94 29.95 0c13.1-0.94 47.74-19.66 60.84-32.76 3.6-3.59 7.69-7.75 12.14-11.91-5.28-11.15-10.71-22.77-15.57-35.12-5.67-14.39-16.38-29.05-27.9-42.09-7.49-2.06-12.67-3.55-12.67-3.55l14.99 37.61zM882.78 363.63c1.02 0.69 2.06 1.4 3.12 2.12-1.07-0.73-2.09-1.43-3.12-2.12zM866.38 352.73l1.21 0.79c-0.5-0.32-0.86-0.56-1.21-0.79zM605.6 561.33c40.25-6.55 85.18-29.02 92.67-33.7 5.46-3.41 20.83-24.18 28.78-35.22-23.79-47.46-56.02-99.66-70.27-117.75-7.8-9.88-30.24-26.77-55.52-44.17-16.62-0.26-33.1 1.5-33.1 1.5s36.51 48.68 52.42 65.69c15.91 17.01 29.95 78.46 29.95 78.46s-3.74-16.85-21.53-34.63c-17.79-17.79-30.89-21.53-52.42-34.63s-120.75-59.91-120.75-59.91l8.42 19.66s29.02 28.08 48.16 46.21c19.14 18.13 69.79 101.72 69.79 101.72s-72.08-59.94-102.97-85.22c-21.11-17.27-47.01-17.92-67.88-15.42 9.84 9.79 19.22 19.88 27.01 28.21 22.47 24.03 57.41 62.09 74.05 98.74 2.9 6.38 5.95 13.43 9.01 20.74 24.16 1.39 55.12 4.46 84.18-0.28zM843.18 371.03l4.56 4.05 21.81 56.1c9.11-7.05 19.08-12.59 29.05-13.06 13.24-0.63 24.34-9.67 30.19-15.51a50.74 50.74 0 0 0-2.65-4.35c-0.18-0.27-0.37-0.53-0.55-0.79-0.94-1.33-1.92-2.59-2.95-3.68-4.43-4.67-13.59-11.7-23.31-18.66-11.43 0.45-23.91 0.88-29.74 0.88-4.55-0.01-15.03-2.22-26.41-4.98zM339.76 461.18l91.73 73.01-22.47-10.3c-22.47-10.3-131.98-51.48-131.98-51.48l5.62 14.98 120.75 87.05-14.04 3.74c-14.04 3.74-26.21-8.42-35.57-17.79-9.36-9.36-25.27-14.98-50.55-18.72-19.71-2.92-56.43-1.27-78.34 2.7 21.31 3.73 40.26 9.63 48.7 13.53 10.44 4.82 29.13 23.61 46.79 47.25l46.53 7.66 57.09-6.55s34.44 0.67 64.68-34.3c-34.61-50.04-93.57-111.36-129.19-145.73-10.28 4-17.87 7.79-17.87 7.79l-1.88 27.16zM865.2 351.97zM144.86 578.13c-0.05 0.06-0.09 0.11-0.16 0.19-0.06 0.07-0.16 0.2-0.23 0.29 0.14-0.18 0.29-0.37 0.39-0.48z" fill="#FFD188" p-id="3469"></path><path d="M529.58 283.6c0.77-0.82 1.65-1.76 2.6-2.74-0.97 1-1.83 1.91-2.6 2.74zM775.25 325.43c1.24 0.98 1.97 1.58 1.97 1.58l-1.97-1.58zM770.62 321.79c0.65 0.51 1.35 1.05 1.91 1.5-0.57-0.46-1.25-0.99-1.91-1.5zM141.32 583.29c-7.49 7.22-17.27 22.04-28.18 37.02h0.01c29.13 0 94.56 11.62 103.98 17.42 0.53 0.33 0.92 0.29 1.42 0.59 10.63 6.54 10.75 6.48 10.75 6.48l-6.76-8.74-23.19-29.74-25.27-15s5.81-9.43 13.35-19.56c-13.15-0.47-26.28-0.66-37.33-0.72 0.01-0.01 0.01-0.03 0.02-0.04-2.63 4.43-5.07 6.89-5.07 6.89l-0.2 0.26c-0.09 0.11-0.24 0.3-0.4 0.49-0.06 0.07-0.1 0.12-0.18 0.21-0.13 0.16-0.31 0.38-0.47 0.59-0.16 0.2-0.23 0.38-0.42 0.62-0.58 0.72-2.08 1.92-2.08 2.96v0.27zM156.29 551.66c0.12-1.53 0.26-3.29 0.4-5.15-0.14 1.87-0.28 3.63-0.4 5.15zM535.8 277.3zM264.6 390.6c0.02-0.03 0.04-0.05 0.06-0.08-0.02 0.03-0.04 0.06-0.06 0.08zM532.2 280.84c0.89-0.91 1.84-1.85 2.79-2.77-0.96 0.92-1.9 1.85-2.79 2.77zM260.96 395.45l0.3-0.39-0.3 0.39zM257.43 400.13c0.35-0.46 0.7-0.93 1.07-1.4-0.36 0.46-0.72 0.95-1.07 1.4zM538.76 274.65c0.91-0.76 1.8-1.45 2.57-1.93-0.77 0.48-1.65 1.16-2.57 1.93zM224.92 544.37c21.9-3.97 58.63-5.62 78.34-2.7 25.27 3.74 41.19 9.36 50.55 18.72s21.53 21.53 35.57 17.79l14.04-3.74-120.75-87.05-5.62-14.98s109.52 41.19 131.98 51.48l22.47 10.3-91.73-73.01 1.87-27.15s7.59-3.79 17.87-7.79c-3.01-2.9-5.86-5.62-8.51-8.12-30.47-28.73-73.06-21.63-96.05-14.71 0.36-0.47 0.79-1.04 1.18-1.55-3.66 4.83-6.22 8.15-6.22 8.15l-7.5 14.35s-54.92 19.96-68.65 47.42c-12.04 24.1-15.44 54.91-16.94 73.06 3.08-0.61 6.21-1.24 9.46-1.92 17.36-3.58 39-1.98 58.64 1.45zM151.74 567.93c0.12-0.26 0.26-0.46 0.38-0.72-0.12 0.26-0.25 0.47-0.38 0.72zM773.38 323.96c0.59 0.47 1.21 0.96 1.68 1.33-0.46-0.38-1.07-0.86-1.68-1.33zM155.11 558.66c0.1-0.4 0.24-0.75 0.33-1.17-0.09 0.42-0.23 0.77-0.33 1.17z" fill="#FFBC45" p-id="3470"></path><path d="M358.18 375.68c14.47 2.45 34.65 19.81 53.17 38.25 20.87-2.5 46.77-1.85 67.88 15.42 30.89 25.27 102.97 85.22 102.97 85.22s-50.65-83.59-69.79-101.72c-19.14-18.13-48.16-46.21-48.16-46.21l-8.42-19.66s99.22 46.8 120.75 59.91 34.63 16.85 52.42 34.63c17.79 17.79 21.53 34.63 21.53 34.63s-14.04-61.45-29.95-78.46C604.67 380.68 568.16 332 568.16 332s16.48-1.76 33.1-1.5c-24.94-17.17-52.63-34.85-71.75-46.83-1.49 1.61-2.53 2.78-2.53 2.78s-94.85 6.24-102.97 9.98c-8.12 3.74-90.49 34.95-104.22 44.31-13.73 9.36-32.45 14.98-35.57 21.84-1.44 3.16-8.83 13.47-16.4 23.68 0.15-0.19 0.29-0.38 0.43-0.58 23.37-1.25 67.77-13.74 89.93-10zM550.69 273.96c9.36 1.87 102.34 58.03 131.05 85.49 6.49 6.21 15.16 20.47 24.67 38.77 8.75 6.71 16.21 11.95 20.88 14.29 18.72 9.36 59.91 29.02 59.91 29.02s-68.33-63.65-81.44-83.31c-13.1-19.66-16.85-36.51-16.85-36.51s31.83-0.94 43.99 0 51.48 48.68 59.91 53.36c8.42 4.68 24.34 22.63 24.34 22.63l-14.98-37.61s5.18 1.49 12.67 3.55c-21.46-24.29-45.74-42.86-45.74-42.86h0.22c-15.32-11.92-48.86-37.09-62.61-39.94-18.1-3.74-104.84-11.23-114.2-11.23s-46.19 0-51.18 3.12c0.38-0.24 0.99-0.45 1.71-0.65 2.42 0.68 5.02 1.35 7.65 1.88zM869.57 376c5.83 0 18.31-0.43 29.74-0.88 0 0-0.01-0.01-0.02-0.01-1.86-1.33-3.74-2.65-5.6-3.97-0.68-0.48-1.35-0.94-2.03-1.4-1.18-0.83-2.36-1.64-3.52-2.44-0.76-0.53-1.5-1.03-2.24-1.54-1.06-0.72-2.1-1.43-3.12-2.12-0.72-0.49-1.44-0.97-2.13-1.44-1.16-0.79-2.27-1.53-3.34-2.24-0.86-0.58-1.67-1.11-2.46-1.64-0.92-0.61-1.84-1.22-2.65-1.76-0.64-0.42-1.16-0.76-1.72-1.13-0.57-0.38-1.15-0.76-1.64-1.08-0.48-0.31-0.86-0.56-1.25-0.82-0.45-0.29-0.89-0.57-1.21-0.79-0.22-0.14-0.38-0.25-0.53-0.34-0.34-0.22-0.64-0.42-0.64-0.42s-28.08-13.73-43.06-14.98c-5.84-0.49-13.97-2.12-21.71-3.92l42.74 37.95c11.38 2.76 21.86 4.97 26.39 4.97zM777.65 327.13c0.05 0.01 0.07 0.02 0.13 0.04-0.04-0.01-0.1-0.03-0.13-0.04zM153.59 563.65c0.12-0.33 0.26-0.61 0.39-0.96-0.13 0.35-0.27 0.63-0.39 0.96z" fill="#FFBC45" p-id="3471"></path><path d="M882.06 463.4l-12.52-32.23-21.81-56.1-4.56-4.05-42.74-37.95c-10.5-2.45-20.28-5.21-22.66-5.89-0.06-0.02-0.08-0.03-0.13-0.04l-0.43-0.12s-0.73-0.59-1.97-1.58c-0.07-0.06-0.11-0.08-0.18-0.15-0.47-0.37-1.09-0.86-1.68-1.33-0.3-0.23-0.53-0.42-0.86-0.67-0.56-0.45-1.26-0.99-1.91-1.5-0.45-0.35-0.82-0.65-1.3-1.02h-0.22s24.29 18.57 45.74 42.86c11.52 13.04 22.23 27.71 27.9 42.09 4.86 12.35 10.29 23.96 15.57 35.12 4.36 9.21 8.61 18.11 12.37 26.83 6.87 15.93 12.11 31.28 13.24 46.94 0.53 7.4 1.18 14.18 1.88 20.32l1.75-1.4c1.08-0.86 2.52-2.02 4.1-3.27 0.39-0.3 0.77-0.61 1.17-0.93 0.42-0.34 0.82-0.65 1.26-1 1.08-0.86 2.2-1.75 3.35-2.65l-7.26-41.42-8.1-20.86zM187.43 571.74c28.96 1.03 57.98 3.39 64.97 8.63 5 3.75 15.61 12.83 27.74 23.91 20.74 18.92 45.89 43.65 55.86 58.23 1.68 2.44 3.05 4.69 3.77 6.48 7.49 18.72 12.48 54.92 12.48 54.92s13.65-30.12-0.65-66.74c-1.24-3.2-2.63-6.43-4.34-9.71-7.57-14.58-17.05-29.17-26.85-42.29-17.66-23.65-36.35-42.44-46.79-47.25-8.44-3.9-27.39-9.8-48.7-13.53-19.64-3.44-41.27-5.04-58.64-1.44-3.25 0.67-6.38 1.3-9.46 1.92-0.05 0.58-0.09 1.11-0.13 1.67-0.15 1.86-0.29 3.62-0.4 5.15-0.16 2.05-0.45 3.99-0.86 5.83-0.09 0.41-0.23 0.76-0.33 1.17-0.34 1.39-0.69 2.78-1.13 4.03-0.12 0.34-0.26 0.63-0.39 0.96-0.47 1.24-0.94 2.46-1.46 3.56-0.12 0.26-0.26 0.47-0.38 0.72-0.53 1.08-1.08 2.13-1.62 3.05-0.01 0.01-0.01 0.03-0.02 0.04 11.06 0.03 24.18 0.22 37.33 0.69zM547.61 632.94c-5.07-17.73-15.67-46.18-26.19-71.31-3.06-7.31-6.11-14.36-9.01-20.74-16.64-36.65-51.59-74.72-74.05-98.74-7.79-8.33-17.17-18.42-27.01-28.21-18.52-18.44-38.7-35.8-53.17-38.25-22.16-3.74-66.56 8.75-89.92 9.99-0.15 0.19-0.28 0.38-0.43 0.58-1.06 1.43-2.12 2.86-3.17 4.26-0.01 0.03-0.04 0.06-0.06 0.08-1.13 1.52-2.25 3.01-3.33 4.46-0.1 0.13-0.21 0.26-0.3 0.39-0.86 1.14-1.67 2.21-2.46 3.27-0.37 0.48-0.72 0.95-1.07 1.4-0.46 0.61-0.88 1.16-1.31 1.73-0.39 0.51-0.82 1.08-1.18 1.55 22.99-6.93 65.58-14.02 96.05 14.71 2.65 2.5 5.5 5.22 8.51 8.12 35.62 34.37 94.59 95.69 129.19 145.73 10.71 15.49 19.09 29.91 23.72 42.1 3.03 8.01 5.75 15.38 8.3 22.47 12.51 34.7 19.17 59.04 17.9 77.25l0.84-1.13 3.94 1.74c3.34-26.58 7.29-59.45 7.29-66.64 0-2.82-1.16-8.08-3.08-14.81zM656.78 374.67c14.25 18.09 46.48 70.29 70.27 117.75 11.61 23.16 21.22 45.2 25.73 61.58 1.15 4.19 2.27 8.12 3.39 11.95 12.15 41.84 21.67 63.01 21.67 74.94v0.06c0-4.01 3.64-6.93 3.64-6.93s1.22-0.84 3.27-2.31l-3.16-60.61s-4.68-12.11-12.1-30.52a2934.29 2934.29 0 0 0-22.8-55.07c-12.81-30.04-27.33-62.41-40.28-87.3-9.51-18.29-18.19-32.56-24.67-38.77-28.7-27.46-121.69-83.62-131.05-85.49-2.63-0.53-5.23-1.2-7.65-1.89-0.72 0.2-1.33 0.41-1.71 0.65-0.77 0.48-1.65 1.17-2.57 1.93-0.29 0.24-0.57 0.49-0.86 0.74-0.69 0.6-1.39 1.24-2.1 1.91-0.28 0.26-0.54 0.5-0.81 0.77-0.95 0.92-1.9 1.86-2.79 2.77l-0.02 0.02c-0.95 0.99-1.84 1.92-2.6 2.74-0.01 0.02-0.04 0.05-0.07 0.07 19.12 11.97 46.81 29.66 71.75 46.83 25.28 17.42 47.72 34.3 55.52 44.18z" fill="#FF981D" p-id="3472"></path></svg>