<?xml version="1.0" standalone="no"?><!DOCTYPE svg PUBLIC "-//W3C//DTD SVG 1.1//EN" "http://www.w3.org/Graphics/SVG/1.1/DTD/svg11.dtd"><svg t="1607840048831" class="icon" viewBox="0 0 1024 1024" version="1.1" xmlns="http://www.w3.org/2000/svg" p-id="3607" xmlns:xlink="http://www.w3.org/1999/xlink" width="200" height="200"><defs><style type="text/css"></style></defs><path d="M846.75 290.37c-3.7-7.09-10.26-11.91-18.46-13.54-3.68-0.74-7.61-1.11-11.69-1.11-14.1 0-41.81 4.55-68.92 35.03-11.04 12.42-26.7 30.51-40.37 46.37-1.52-1.23-3.11-2.52-4.5-3.65l-2.43-1.97c0.76-3.6 1.45-7.17 2-10.68 0-0.03 0.02-0.06 0.02-0.09 1.69-10.9 2.56-21.98 2.56-32.92 0-9.7-0.88-19.54-2.27-29.36 6.75-8.74 10.31-17.89 8.6-31.57-1.76-14.2-35.47-85.81-47.96-99.02-11.33-11.98-66.85-56.67-116.05-64.01-25.34-3.78-44.28-9.93-56.81-14-9.4-3.05-15.08-4.9-20.39-4.9-0.47 0-1.66 0.04-2.12 0.09-1.04 0-2.07-0.17-3.14-0.29-2.32-0.28-4.68-0.53-7.07-0.53-7.84 0-14.84 2.59-20.81 7.66-1.8 1.53-4.23 3.69-7.02 6.18-6.07 5.4-21.98 19.56-27.36 22.21-13.78 3.36-51.15 27.26-67.05 47.32-15.84 19.98-54.38 87.25-59.68 109.19-3.51 14.54-7.34 30.67 5.62 41.15-0.17 3.36-0.25 6.66-0.25 9.89 0 10.2 0.76 20.42 2.22 30.51-8.25 4.55-15.43 9.43-21.32 14.63-38.76 34.14-48.49 57.79-50.91 68.01-0.76 0.94-1.74 2.07-2.83 3.37-9.41 11.19-26.92 32-24.46 54.62 0.52 4.79 0.81 9.33 1.09 13.56 0.57 8.77 1.22 17.07 3.51 24.72-0.08 2.43-0.18 4.85-0.18 7.29 0 12.41 1.15 24.8 3.3 36.98-8.79 11.21-13.3 23.08-13.3 35.42 0 15.46 8.13 30.12 21.82 43.64l20.42 122.97v0.09l7.26 53.3c0.03 0.43-0.61 0.85-0.55 1.29l3.6 25.23c0.11 0.73 0.26 1.41 0.47 2.1l3.02 19.68c0.45 2.88 1.66 5.46 3.43 7.56 22.13 55.1 142 83.89 253.04 83.89 112.29 0 233.6-29.45 253.74-85.76 1.06-1.71 1.82-3.63 2.14-5.72l2.19-14.17v-0.01l3.54-22.83 8.98-54.29 0.95-2.4v-0.04c0-1.06-0.37-2.12-0.42-3.14l0.05-5.61c0.46-1.11 0.38-2.28 0.38-3.52v-0.02l1.18-4.7h0.18l4.07-25.9 0.51-12.4 1.81-20.73v-0.03l3.01-10.61h0.71l6.95-42.37c15.11-14.07 23.02-29.31 23.02-45.61 0-13.43-5.21-26.26-15.61-38.31 1.1-8.75 1.86-17.54 1.86-26.27 0-13.94-1.44-27.95-4.21-41.75 2.6-17.77-5.76-51.16-9.86-65.9-1.3-4.67-4.43-10.02-13.15-19.09 67.54-38.91 73.83-53.24 76.61-59.64 11.39-26.21 13.64-43.33 7.29-55.49z" p-id="3608"></path><path d="M589.5 891.87c-53.53 6.46-114.8 9.68-138.67 7.09-22.1-2.38-102.77-17.51-154.03-36.12h-46.11c11.54 43.96 114.62 78.37 240.12 78.37 125.51 0 228.58-34.41 240.13-78.37h-37.75c-34.43 11.98-76.63 25.77-103.69 29.03z" fill="#8E3739" p-id="3609"></path><path d="M633.15 864.33l4.01-1.48H350.15c40.89 12.59 89.54 22.04 141.72 20.64 84.73-3.71 141.28-19.16 141.28-19.16zM745.39 772.38l-180.56 50.64c-12.2 20.16-45.66 34.66-85.14 34.66-40.44 0-74.67-15.21-86.09-36.15l-4.7-1.27-154.29-54.06-0.76-4.88-0.23-0.08 8.6 54.77c18.47 10.76 57.22 31.22 107.92 46.83h287.02l99.96-37.02 8.77-56.69-0.5 3.25z" fill="#8E3739" p-id="3610"></path><path d="M213.49 633.02l20.12 128.14-1.87-13.43-1.06-6.83-7.02-45.34-1.78-11.46 204.35 80.8c14.97-6.32 33.41-10.09 53.45-10.09 19.62 0 37.71 3.61 52.5 9.68l3.17-1.18 223.88-80.46 7.43-48.01c-44.2 36.87-150.88 62.88-275.53 62.88-126.69 0.01-234.81-26.86-277.64-64.7zM693.18 862.85h38.22l2.86-18.53-0.67 4.35c-10.31 3.53-24.53 8.66-40.41 14.18zM747.8 756.83l0.52-3.34-0.52 3.34zM285.06 858.33c-16.86-7-29.45-12.64-38.87-17.06l3.39 21.58h47.22c-4.1-1.49-8.07-3-11.74-4.52z" fill="#8E3739" p-id="3611"></path><path d="M765.82 590.36c-0.93 3-1.93 5.98-3.01 8.92-0.14 0.4-0.26 0.8-0.41 1.19-1.21 3.25-2.48 6.46-3.85 9.63l-47.15 24.41s-67.73 17.42-125.78 26.15c-47.08 7.09-126.87 2.68-155.32 0.76-0.13-0.14-0.24-0.31-0.36-0.46-16.2-0.41-31.13-1.08-38.87-2.19-18.06-2.58-104.89-16.36-110.7-17.65-4.7-1.04-44.65-26.96-59.64-36.76-2.35-5.28-4.43-10.7-6.32-16.2-0.07-0.2-0.15-0.41-0.22-0.61-1.89-5.56-1.74-11.23-3.13-17-0.02-0.04 1.74-0.07 1.74-0.1v0.02c-7.74-1.51-2.54-3.01-2.87-4.53-9.31 9.77-15.27 20.17-15.27 31 0 12.71 6.58 24.87 19.26 36.07 42.83 37.84 150.72 64.71 277.42 64.71 124.65 0 231.22-26.01 275.42-62.88 14.03-11.7 21.78-24.49 21.78-37.9 0-11.59-5.87-22.71-16.48-33.06-1.44 8.88-3.5 17.55-6.1 25.99-0.03 0.17-0.08 0.33-0.14 0.49z" fill="#FFFFFF" p-id="3612"></path><path d="M389.79 803.56c0.16-1.81 0.48-3.58 0.96-5.32l-160.06-57.35 1.06 6.83-0.02-0.18 158.06 56.02zM532.19 764.49c4.09 1.68 7.97 3.51 11.5 5.55l213.97-76.93-5.08 32.85 6.67-43.11h-0.01l-223.88 80.46-3.17 1.18zM569.37 801.03c0.29 1.68 0.44 3.37 0.45 5.09l177.98-49.29 0.51-3.34 0.29-1.9-179.23 49.44zM426.24 764.9l-204.35-80.8 1.78 11.46 190.69 75.32c3.64-2.19 7.62-4.18 11.88-5.98zM745.39 772.38l0.51-3.25-177.85 47.29c-0.79 2.26-1.92 4.45-3.22 6.6l180.56-50.64zM233.86 761.32l0.76 4.88 154.29 54.07 4.7 1.27c-1.62-2.96-2.71-6.06-3.37-9.22l-156.38-51z" fill="#B54D51" p-id="3613"></path><path d="M543.69 770.04c14.14 8.13 23.56 18.95 25.68 30.99l179.24-49.45 3.97-25.62 5.08-32.85-213.97 76.93zM390.75 798.24c2.89-10.52 11.32-19.98 23.61-27.36l-190.69-75.32 7.02 45.34 160.06 57.34z" fill="#6D2425" p-id="3614"></path><path d="M390.23 812.32c-0.41-2-0.68-4.02-0.68-6.08 0-0.91 0.16-1.79 0.24-2.68l-158.07-56.02 1.23 0.18 3.08 13.43v0.08l-0.97 0.08 155.17 51.01zM568.86 806.12v0.13c0 3.49-0.14 6.89-1.3 10.18l178.1-47.29 1.54-12.31-178.34 49.29z" fill="#51171A" p-id="3615"></path><path d="M494.99 781.65c-1.65 0-3.02 0.56-4.14 1.66-1.13 1.1-1.75 2.57-1.87 4.41h11.81c-0.15-1.78-0.61-3.11-1.35-4.01-1.15-1.36-2.62-2.06-4.45-2.06zM496.39 820.02c-1.3 0.53-3.25 0.98-5.86 1.35-1.47 0.22-2.51 0.45-3.12 0.72-0.6 0.27-1.08 0.65-1.41 1.16-0.34 0.51-0.51 1.07-0.51 1.7 0 0.96 0.36 1.75 1.1 2.38 0.71 0.65 1.78 0.96 3.16 0.96 1.39 0 2.61-0.29 3.69-0.9 1.07-0.6 1.86-1.44 2.37-2.48 0.39-0.81 0.58-2 0.58-3.58v-1.31zM474.74 818.03c-0.16-1.78-0.61-3.11-1.35-4-1.15-1.38-2.62-2.07-4.44-2.07-1.65 0-3.02 0.55-4.14 1.65-1.13 1.1-1.75 2.59-1.87 4.42h11.8z" fill="#FFFFFF" p-id="3616"></path><path d="M390.75 798.24c-0.48 1.75-0.8 3.51-0.96 5.32-0.08 0.89-0.24 1.78-0.24 2.68 0 2.06 0.27 4.08 0.68 6.08 0.66 3.17 1.75 6.26 3.37 9.22 11.42 20.94 45.65 36.15 86.09 36.15 39.48 0 72.94-14.5 85.14-34.66 1.3-2.15 1.94-4.34 2.73-6.6 1.16-3.29 1.3-6.69 1.3-10.18v-0.13c0-1.72 0.33-3.41 0.03-5.09-2.12-12.04-11.3-22.86-25.44-30.99-3.53-2.04-7.29-3.87-11.38-5.55-14.79-6.07-32.83-9.68-52.44-9.68-20.04 0-38.45 3.77-53.42 10.09-4.26 1.8-8.22 3.79-11.87 5.98-12.28 7.38-20.7 16.84-23.59 27.36z m66.12-27.09h3.58v4.12h-3.58v-4.12zM469.4 780c1.53-0.85 3.22-1.28 5.03-1.28 2.3 0 4.18 0.58 5.64 1.75 1.46 1.15 2.39 2.8 2.8 4.94l-3.47 0.54c-0.34-1.42-0.93-2.49-1.76-3.21-0.85-0.72-1.87-1.08-3.06-1.08-1.8 0-3.26 0.65-4.4 1.94-1.13 1.29-1.69 3.34-1.69 6.15 0 2.83 0.54 4.9 1.63 6.18 1.09 1.28 2.51 1.93 4.26 1.93 1.41 0 2.59-0.44 3.53-1.3 0.95-0.86 1.53-2.18 1.79-3.98l3.51 0.45c-0.38 2.43-1.37 4.33-2.95 5.7-1.59 1.38-3.54 2.06-5.84 2.06-2.89 0-5.22-0.95-6.97-2.83-1.76-1.89-2.65-4.6-2.65-8.13 0-2.28 0.38-4.27 1.13-5.99 0.76-1.7 1.92-2.99 3.47-3.84z m35.16 10.97c0 0.22-0.01 2.21-0.02 2.21h-15.76c0.14 0 0.79 2.84 1.97 4.07 1.19 1.24 2.66 1.22 4.41 1.22 1.32 0 2.44-0.66 3.36-1.35 0.94-0.69 1.67-1.95 2.21-3.46l3.7 0.39c-0.59 2.16-1.67 3.8-3.25 5-1.57 1.19-3.59 1.77-6.05 1.77-3.08 0-5.53-0.96-7.35-2.86-1.81-1.9-2.71-4.58-2.71-8.02 0-3.55 0.92-6.31 2.75-8.28 1.82-1.97 4.2-2.95 7.12-2.95 2.82 0 5.14 1.59 6.92 3.51 1.81 1.93 2.7 5.27 2.7 8.75z m-4.73 37.75c0.15 0.88 0.86 3.17 1.31 3.17h-3.74c-0.36 0-0.6-2.24-0.72-3.24-1.32 1.13-2.6 1.6-3.83 2.07-1.22 0.46-2.54 0.54-3.95 0.54-2.31 0-4.1-0.65-5.35-1.78-1.24-1.13-1.87-2.63-1.87-4.39 0-1.04 0.23-2 0.71-2.85 0.47-0.86 1.09-1.55 1.85-2.07 0.76-0.51 1.62-0.91 2.58-1.18 0.7-0.19 1.77-0.36 3.18-0.54 2.89-0.34 5.03-0.76 6.39-1.22 0.01-0.5 0.01-0.81 0.01-0.94 0-1.47-0.34-2.49-1.01-3.08-0.91-0.82-2.28-1.22-4.09-1.22-1.68 0-2.93 0.3-3.72 0.89-0.81 0.59-1.4 1.63-1.78 3.13l-3.5-0.47c0.32-1.5 0.84-2.71 1.56-3.64 0.73-0.92 1.78-1.64 3.17-2.12 1.38-0.51 2.97-0.76 4.8-0.76 1.8 0 3.27 0.21 4.39 0.64 1.13 0.43 1.96 0.97 2.49 1.6 0.52 0.65 0.49 1.47 0.7 2.44 0.12 0.61-0.23 1.72-0.23 3.3v4.78c0.02 3.32 0.5 6.05 0.65 6.94z m-54.81-20.05h7.74v4.04c0-1.5 0.14-2.49 0.82-2.97 0.71-0.48 0.73-0.72 1.57-0.72 1.21 0 2.07 0.39 3.33 1.16l-1.42 3.32c-0.88-0.51-1.84-0.77-2.71-0.77-0.79 0-1.53 0.24-2.16 0.71-0.62 0.47 0.19 1.12-0.08 1.96-0.39 1.28 0.66 2.67 0.66 4.18v12.32h-7.74v-23.23z m16.73 19.57c-1.81-1.9-2.71-4.57-2.71-8 0-3.56 0.91-6.31 2.75-8.28 1.82-1.97 4.2-2.95 7.12-2.95 2.83 0 5.14 0.97 6.92 2.89 1.79 1.93 2.68 6.22 2.68 9.71l-0.01 2.54h-15.76c0.14 0 0.79 2.52 1.97 3.75 1.19 1.23 2.66 1.06 4.42 1.06 1.32 0 2.43-0.74 3.37-1.44 0.91-0.69 1.65-1.99 2.2-3.5l3.7 0.36c-0.58 2.16-1.67 3.79-3.25 4.99-1.57 1.19-3.59 1.77-6.06 1.77-3.08-0.01-5.52-0.98-7.34-2.9z m-1.25-50.53v23.22-23.22z m-35.31 42.43c0-2.28 0.38-4.28 1.13-5.99 0.76-1.71 1.9-2.99 3.45-3.86 1.54-0.85 3.23-1.28 5.04-1.28 2.3 0 4.17 0.58 5.63 1.75 1.46 1.16 2.4 2.8 2.8 4.94l-3.48 0.54c-0.33-1.42-0.92-2.49-1.76-3.2-0.85-0.71-1.86-1.07-3.05-1.07-1.8 0-3.27 0.65-4.4 1.93-1.13 1.3-1.69 3.34-1.69 6.14 0 2.84 0.54 4.9 1.63 6.2 1.09 1.28 2.5 1.93 4.26 1.93 1.41 0 2.59-0.43 3.52-1.29 0.95-0.86 1.54-2.19 1.79-3.98l3.52 0.46c-0.39 2.43-1.38 4.32-2.95 5.7-1.59 1.38-3.54 2.06-5.85 2.06-2.89 0-5.22-0.94-6.97-2.83-1.75-1.91-2.62-4.62-2.62-8.15z m112.71-4.02v15.77h-7.74v-14.57c0-1.43 0.12-2.46-0.11-3.09-0.24-0.63-0.54-1.14-1.15-1.52-0.61-0.39-1.27-0.58-2.09-0.58-1.48 0-2.32 0.49-3.3 1.49-0.98 0.98-1.09 2.57-1.09 4.73v13.55h-7.74v-15c0-1.6 1.42-2.79 0.85-3.58-0.59-0.79-0.68-1.19-2-1.19-1.01 0-1.51 0.26-2.37 0.79-0.85 0.54-2.37 1.32-2.74 2.33-0.38 1.03-1.47 2.49-1.47 4.41v12.23-23.22 3.79c0-1.04 2.46-1.87 3.56-2.49 1.1-0.64 2.82-0.95 4.23-0.95 1.56 0 3.07 0.33 4.07 0.98 1 0.65 1.82 1.56 2.23 2.72 1.68-2.46 3.9-3.7 6.58-3.7 2.12 0 5.6 0.58 6.73 1.75 1.11 1.15 3.55 2.94 3.55 5.35z" fill="#FFFFFF" p-id="3617"></path><path d="M456.87 771.15h3.58v4.12h-3.58zM465.94 783.84c-0.76 1.72-1.13 3.7-1.13 5.99 0 3.54 0.88 6.24 2.65 8.13 1.75 1.89 4.07 2.83 6.97 2.83 2.31 0 4.26-0.69 5.84-2.06s2.57-3.27 2.95-5.7l-3.51-0.45c-0.26 1.79-0.85 3.11-1.79 3.98-0.94 0.86-2.12 1.3-3.53 1.3-1.75 0-3.17-0.65-4.26-1.93-1.09-1.28-1.63-3.35-1.63-6.18 0-2.8 0.56-4.85 1.69-6.15 1.13-1.29 2.6-1.94 4.4-1.94 1.19 0 2.22 0.36 3.06 1.08 0.83 0.72 1.42 1.78 1.76 3.21l3.47-0.54c-0.41-2.14-1.34-3.79-2.8-4.94-1.46-1.16-3.34-1.75-5.64-1.75-1.81 0-3.5 0.43-5.03 1.28-1.56 0.85-2.72 2.14-3.47 3.84zM494.96 778.71c-2.92 0-5.3 0.98-7.12 2.94-1.83 1.97-2.75 4.73-2.75 8.28 0 3.43 0.91 6.11 2.71 8.01 1.82 1.9 4.26 2.85 7.35 2.85 2.46 0 4.48-0.6 6.05-1.79 1.58-1.19 2.66-2.87 3.25-5.03l-3.7-0.45c-0.54 1.51-1.28 2.62-2.21 3.3-0.92 0.7-2.04 1.04-3.36 1.04-1.75 0-3.23 0.64-4.41-0.6-1.18-1.23-1.83-4.07-1.97-4.07h15.76c0.01 0 0.02-2 0.02-2.21 0-3.48-0.89-6.82-2.68-8.75-1.8-1.93-4.12-3.52-6.94-3.52z m5.82 9.02h-11.81c0.13-1.84 0.74-3.32 1.87-4.41 1.12-1.1 2.49-1.66 4.14-1.66 1.82 0 3.3 0.7 4.45 2.07 0.74 0.88 1.2 2.21 1.35 4zM434.8 831.1c2.31 0 4.26-0.68 5.85-2.06 1.57-1.38 2.56-3.27 2.95-5.7l-3.52-0.46c-0.25 1.79-0.85 3.12-1.79 3.98-0.94 0.86-2.12 1.29-3.52 1.29-1.75 0-3.17-0.64-4.26-1.93-1.09-1.29-1.63-3.36-1.63-6.2 0-2.8 0.57-4.84 1.69-6.14 1.13-1.28 2.6-1.93 4.4-1.93 1.19 0 2.21 0.36 3.05 1.07 0.84 0.71 1.43 1.78 1.76 3.2l3.48-0.54c-0.41-2.14-1.35-3.79-2.8-4.94-1.46-1.16-3.33-1.75-5.63-1.75-1.81 0-3.5 0.43-5.04 1.28-1.55 0.86-2.7 2.15-3.45 3.86-0.76 1.71-1.13 3.7-1.13 5.99 0 3.53 0.87 6.24 2.64 8.13 1.73 1.91 4.06 2.85 6.95 2.85zM452.76 819.57c0-1.51-1.07-2.9-0.68-4.18 0.26-0.84 0.08-1.49 0.7-1.96s1-0.71 1.79-0.71c0.87 0 1.59 0.26 2.46 0.77l1.16-3.32c-1.25-0.77-2.52-1.16-3.73-1.16-0.83 0-0.14 0.24-0.85 0.72-0.69 0.48-0.85 1.47-0.85 2.97v-4.04h-7.74v23.22h7.74v-12.31zM475.15 829.32c1.58-1.19 2.67-2.87 3.25-5.03l-3.7-0.46c-0.54 1.51-1.29 2.61-2.2 3.3-0.94 0.7-2.06 1.04-3.37 1.04-1.76 0-3.23 0.97-4.42-0.26-1.18-1.23-1.83-3.75-1.97-3.75h15.76c0.01 0 0.01-2.33 0.01-2.54 0-3.48-0.89-6.98-2.68-8.91-1.78-1.93-4.1-3.28-6.92-3.28-2.92 0-5.3 0.78-7.12 2.74-1.84 1.97-2.75 4.63-2.75 8.18 0 3.43 0.91 6.05 2.71 7.96 1.82 1.91 4.26 2.83 7.35 2.83 2.46-0.01 4.48-0.63 6.05-1.82z m-10.35-15.71c1.12-1.1 2.49-1.65 4.14-1.65 1.82 0 3.3 0.69 4.44 2.07 0.73 0.88 1.19 2.22 1.35 4h-11.81c0.14-1.84 0.75-3.32 1.88-4.42zM499.2 817c0-1.59 0.35-2.69 0.23-3.3-0.21-0.98-0.39-1.79-0.91-2.44-0.54-0.63-1.25-1.17-2.39-1.6-1.13-0.42-2.55-0.64-4.35-0.64-1.83 0-3.39 0.25-4.77 0.76-1.38 0.48-2.43 1.2-3.16 2.12-0.73 0.92-1.24 2.13-1.56 3.64l3.51 0.47c0.38-1.5 0.98-2.54 1.78-3.13 0.79-0.59 2.04-0.89 3.72-0.89 1.81 0 3.17 0.41 4.09 1.22 0.67 0.59 1.01 1.62 1.01 3.08 0 0.13-0.01 0.44-0.01 0.94-1.37 0.47-3.5 0.88-6.39 1.22-1.41 0.18-2.48 0.35-3.18 0.54-0.96 0.26-1.82 0.65-2.58 1.16-0.76 0.53-1.38 1.21-1.85 2.07-0.48 0.85-0.71 1.8-0.71 2.83 0 1.77 0.64 3.22 1.87 4.35 1.25 1.13 3.04 1.69 5.35 1.69 1.41 0 2.73-0.23 3.95-0.7 1.23-0.46 2.52-0.63 3.83-1.75 0.12 0.99 0.36 3.24 0.72 3.24h3.74c-0.45 0-1.16-2.28-1.31-3.17-0.15-0.88-0.63-3.62-0.63-6.95V817z m-3.39 7.92c-0.51 1.04-1.29 1.87-2.37 2.48-1.08 0.6-2.3 0.9-3.69 0.9-1.38 0-2.45-0.31-3.16-0.96-0.74-0.63-1.1-1.42-1.1-2.38 0-0.63 0.17-1.19 0.51-1.7 0.33-0.51 0.8-0.89 1.41-1.16 0.61-0.27 1.66-0.5 3.12-0.72 2.61-0.37 4.56-0.82 5.86-1.35v1.32c0 1.56-0.19 2.76-0.58 3.57zM527.66 809.01c-2.68 0-4.84 1.24-6.52 3.7-0.41-1.16-1.12-2.07-2.12-2.72-1.01-0.65-2.29-0.98-3.85-0.98-1.41 0-3.58 0.32-4.68 0.95-1.1 0.63-3.56 1.45-3.56 2.49v-3.79 23.22-12.23c0-1.92 1.3-3.39 1.68-4.41 0.39-1.01 1.56-1.79 2.41-2.33 0.86-0.53 2.06-0.79 3.08-0.79 1.33 0 0.7 0.4 1.28 1.19 0.58 0.79-0.7 1.99-0.7 3.58v14.99h7.74v-13.55c0-2.16 0.14-3.75 1.12-4.73 0.98-1 2.03-1.49 3.51-1.49 0.82 0 1.45 0.19 2.06 0.58 0.61 0.38 0.74 0.89 0.98 1.52 0.23 0.63 0.06 1.66 0.06 3.09v14.57h7.74V816.1c0-2.41-2.41-4.2-3.54-5.36-1.12-1.14-4.58-1.73-6.69-1.73z" p-id="3618"></path><path d="M637.17 862.85l-4.01 1.48s-56.55 15.45-141.29 19.15c-52.18 1.41-100.83-8.04-141.72-20.64-50.7-15.62-89.45-36.07-107.92-46.83-0.06-0.04-0.15-0.09-0.21-0.12l3.87 25.23c0.1 0.04 0.21 0.1 0.31 0.14 9.42 4.42 22.01 10.06 38.87 17.06 3.67 1.53 7.64 3.03 11.74 4.52 51.26 18.61 131.93 33.73 154.03 36.12 23.87 2.59 85.14-0.63 138.67-7.09 27.06-3.27 69.26-17.05 103.68-29.03 15.87-5.52 30.1-10.65 40.41-14.18l0.67-4.35 2.86-18.49-99.96 37.03z" fill="#DF898C" p-id="3619"></path><path d="M296.79 312.78c19.43 0.14 52.87 0.32 62.76-0.13 14.2-0.64 36.61-7.73 53.38-7.74s69.9 15.48 86.03 16.77c16.12 1.28 30.44-3.24 30.44-3.24l29.73-13.54 10.35 8.5 10.98 4.4s32.26-2.12 50.32 4.1c13.52 4.66 42.56 12.68 56.33 16.43 1.55-9.95 2.37-20.14 2.37-30.53 0-11.63-1.07-23.02-3.01-34.1-0.08 0.08-0.14 0.15-0.21 0.23-8.39 9.03-25.8-5.81-32.25-11.61-6.45-5.81-14.2-4.51-20.64-13.55-6.45-9.03-9.68-39.99-12.25-45.15-2.58-5.16-4.52 3.22-7.74 32.25s-7.74 65.79-15.48 69.02c-7.74 3.23-5.16-7.74-7.1-28.06-1.93-20.32-9.68-58.38-18.71-74.5-4.52-17.42-14.19-19.35-24.51-15.2-10.32 4.14-13.55 25.52-28.38 52.61s-14.19 16.13-33.54 21.29c-19.35 5.15-39.99 5.16-49.03 1.94-9.03-3.23-21.29-12.25-31.6-5.81-10.32 6.45-14.84 19.35-22.58 16.77-7.74-2.58-25.16-28.38-30.31-28.38-5.15 0-14.2 12.9-26.45 28.38-11.91 15.03-17.76 19.06-28.13 15.31-0.57 6.11-0.9 12.29-0.9 18.56 0 13.4 1.35 26.49 3.91 39.14a0.37 0.37 0 0 0 0.11-0.05c-2.24-11.05-3.6-22.45-3.89-34.11zM683.05 357.71c0.17-0.6 0.32-1.21 0.47-1.83-0.15 0.6-0.38 1.19-0.53 1.78 0.02 0.02 0.05 0.04 0.06 0.05zM687.09 338.38z" fill="#FEE380" p-id="3620"></path><path d="M580.45 317.82l-10.98-4.4-10.35-8.5-29.73 13.54s-14.32 4.52-30.44 3.24c-16.12-1.29-69.26-16.78-86.03-16.77s-39.18 7.1-53.38 7.74c-9.89 0.45-43.33 0.27-62.76 0.13 0.29 11.66 1.65 23.05 3.89 34.12 45.71-21.13 109.03-26.83 109.03-26.83 43.18-1.46 66.45 8.89 86.42 21.35 16.91-4.38 40.42-8.78 68.23-9.41 53.52-1.2 96.36 10.49 118.65 25.66 0.15-0.6 0.38-1.18 0.53-1.78 0.05-0.21-0.97-0.42-0.91-0.64 1.37-5.53 2.35-11.15 2.35-16.86v-0.03c0-3.75-41.74-11.78-55.25-16.43-18.08-6.25-49.27-4.13-49.27-4.13z" fill="#F2CF52" p-id="3621"></path><path d="M767.52 492.61c-9.68 0-12.25-1.94-18.06-5.81-5.81-3.87-18.79-21.37-23.14-13.87-4.35 7.5-3.63 15-5.81 18.63-2.18 3.63-8.22 6.05-15.24 2.42-7.01-3.63-37.73-24.35-47.89-22.33-5.32 1.53-3.06-0.97-5.32 9.35s-4.83 68.05-10.32 67.73-8.72-0.98-10.33-9.03c-1.61-8.06-3.23-43.21-5.81-40.95-2.58 2.25-5.16 16.12-8.71 15.48-3.54-0.65-9.35-1.93-10.32-6.13-0.6-2.6-0.7-7.54-1.39-10.7-0.34 17.95-4.9 29.95-4.9 35.53 0 5.28-1.62 4.13-3.95 1.35-0.77 15.74-3.42 30.98-7.7 45.53 0.47 12.09 0.72 25.25-1.05 31.43-2.9 10.16-3.08 27.36-3.08 27.36s33.77-8.81 46.83-12.2 22.69-2.96 22.69-2.96l8.21-2.44 15.95-13.56 24.17-0.02h13.55l15.48-11.13V584.2l15-7.74-14.03-29.99 34.83 20.8 3.82 2.21a197.95 197.95 0 0 1-5.06 20.4 196.47 196.47 0 0 0 6.09-25.99c1.67-10.29 2.56-20.84 2.56-31.6 0-14.37-1.59-28.36-4.51-41.85-0.55 1.37-1.38 2.17-2.56 2.17zM765.82 590.36zM758.56 610.11z" fill="#AAEDB0" p-id="3622"></path><path d="M551.3 649.87c-0.33 0.41-0.68 0.8-1.02 1.21-3.05 3.61-6.18 7.14-9.48 10.52h-53.21c-12.17 0-36.04-0.08-57.64-0.63 0.12 0.15 0.23 0.32 0.36 0.46 28.46 1.92 108.24 6.33 155.32-0.76 58.05-8.74 125.78-26.15 125.78-26.15l47.15-24.41a191.2 191.2 0 0 0 3.85-9.63c0.14-0.39 0.27-0.79 0.41-1.19 1.07-2.94 2.09-5.91 3.01-8.92 0.05-0.16 0.09-0.33 0.14-0.48a197.95 197.95 0 0 0 5.06-20.4l-3.82-2.21-34.83-20.8 14.03 29.99-15 7.74v12.09l-15.48 11.13h-13.55l-24.17 0.02L662.25 621l-8.21 2.44s-9.63-0.43-22.69 2.96-46.83 12.2-46.83 12.2 0.18-17.2 3.08-27.36c1.77-6.18 1.52-19.34 1.05-31.43-7.62 25.99-20.47 49.74-37.35 70.06z" fill="#84D48C" p-id="3623"></path><path d="M710.05 416.75c-0.18 3.54-1.57 7.2-4.29 10.48-5.81 7.03-15.48 3.13-19.83 0-4.35-3.13-2.9-10.9-8.22-17.87-5.32-6.98 0-10.93 0-10.93 6.36-1.35 11.16-1.36 15.03-0.55 4.37-5.12 10.11-11.81 16.49-19.24-8.35-6.86-16.09-13.07-21.68-17.61-1.38-1.13-2.89-2.23-4.49-3.32-0.01-0.02-0.05-0.03-0.06-0.05-22.29-15.17-65.13-26.86-118.65-25.66-27.81 0.63-51.32 5.03-68.23 9.41 13.14 8.21 24.86 17.31 39.84 24.61 37.73 18.38 53.21 57.57 64.34 95.78 3.99 13.7 5.09 25.55 4.9 35.58 0.69 3.16 0.79 8.1 1.39 10.7 0.97 4.2 6.77 5.48 10.32 6.13 3.54 0.64 6.13-13.23 8.71-15.48 2.58-2.26 4.2 32.9 5.81 40.95 1.61 8.06 4.84 8.71 10.33 9.03s8.06-57.41 10.32-67.73 0-7.82 5.32-9.35c10.16-2.02 40.88 18.7 47.89 22.33 7.01 3.63 13.06 1.21 15.24-2.42 2.18-3.63 1.45-11.13 5.81-18.63 4.35-7.5 17.34 10 23.14 13.87 5.81 3.87 8.38 5.81 18.06 5.81 1.18 0 2.01-0.8 2.58-2.18 4.09-9.96-6.19-51.47-9.02-61.67-1.39-5-11.43-15.18-24.04-26.46-11.11 6.13-20.75 11.22-27.01 14.47z" fill="#D5FFD9" p-id="3624"></path><path d="M220.74 604.37c-2.35-5.28-4.44-10.69-6.32-16.2 1.89 5.5 3.97 10.92 6.32 16.2zM246.76 602.71c25.48 17.1 54.46 26.88 64.14 26.23 9.68-0.65 41.91-4.31 54.48-1.09 12.58 3.23 26.76 13.33 29.34 13.65 2.58 0.33 56.12 0.06 56.12 0.06l26.12-20.94s24.18 14.45 25.8 16.71 22.25 1.05 22.25 1.05h35.16c-2.81 3.94-5.77 7.76-8.85 11.49 16.88-20.32 29.74-44.07 37.36-70.07a196.13 196.13 0 0 0 7.7-45.53c-1.52-1.81-3.33-4.28-5.24-6.18-4.84-4.84-8.71-27.57-13.06-29.03-4.35-1.45-3.39 2.42-10.64 19.83-7.26 17.42-16.45 30.96-27.57 32.9-11.13 1.94 0-18.87 0-29.51s-2.42-16.45-5.32-17.9c-2.9-1.45-20.32-13.55-23.7-15-3.39-1.45-6.29 1.45-14.51 9.68-13.55 7.26-23.22 1.45-30.48-7.26-7.26-8.71-8.71-6.29-12.58 1.94-3.87 8.22-11.61 85.14-14.03 96.75s-12.09 3.87-14.95-2.9c-2.86-6.77-0.53-89.98-0.05-98.2 0.48-8.22-3.39-8.71-3.39-8.71s-8.22 6.77-15.96 14.51-20.8 1.45-26.61-4.84c-5.81-6.29-15.48-15.96-18.87-15-3.39 0.97-18.38 10.64-36.77 16.45-18.38 5.81-27.57-2.9-30.96-14.03-3.39-11.13-11.61-6.77-17.42-4.84s-37.25 49.34-44.02 57.57c-6.77 8.22-6.77 3.39-18.87-5.32-3.59-2.59-5.81-5.97-7.35-9.93-0.14 3.08-0.23 6.17-0.23 9.29 0 14.21 1.52 28.06 4.4 41.41 0.33 1.52 0.74 3.02 1.1 4.53 6.97 7.5 20.37 20.77 37.46 32.23zM214.2 587.56a200.98 200.98 0 0 1-4.9-17c1.4 5.77 3.01 11.43 4.9 17zM550.28 651.08c-3.04 3.61-6.18 7.14-9.48 10.52 3.3-3.38 6.43-6.91 9.48-10.52z" fill="#FEC1C5" p-id="3625"></path><path d="M540.8 661.6c3.3-3.38 6.44-6.91 9.48-10.52 0.34-0.41 0.69-0.8 1.02-1.21 3.08-3.73 6.04-7.55 8.85-11.49h-35.16s-20.64 1.21-22.25-1.05-25.8-16.71-25.8-16.71l-26.12 20.94s-53.54 0.27-56.12-0.06c-2.58-0.32-16.76-10.42-29.34-13.65-12.58-3.22-44.81 0.44-54.48 1.09-9.68 0.65-36.89-9.13-62.37-26.23-17.09-11.46-35.71-24.72-35.71-32.23v-0.02c0 0.03-1.75 0.06-1.74 0.1 1.39 5.77 2.14 11.44 4.01 17 0.07 0.2-0.29 0.41-0.22 0.61 1.87 5.51 3.75 10.92 6.1 16.2 14.99 9.8 54.83 35.71 59.53 36.76 5.81 1.29 92.59 15.07 110.64 17.65 7.74 1.11 22.64 1.78 38.84 2.19 21.6 0.56 45.45 0.63 57.62 0.63h53.22z" fill="#FD989E" p-id="3626"></path><path d="M211.36 525.18c12.09 8.71 12.09 13.55 18.87 5.32 6.77-8.22 38.22-55.63 44.02-57.57s14.03-6.29 17.42 4.84c3.39 11.13 12.58 19.83 30.96 14.03 18.38-5.81 33.38-15.48 36.77-16.45 3.39-0.97 13.06 8.71 18.87 15 5.81 6.29 18.87 12.58 26.61 4.84 7.74-7.74 15.96-14.51 15.96-14.51s3.87 0.48 3.39 8.71c-0.48 8.22-2.81 91.43 0.05 98.2 2.86 6.77 12.53 14.51 14.95 2.9s10.16-88.53 14.03-96.75c3.87-8.22 5.32-10.64 12.58-1.94 7.26 8.71 16.93 14.51 30.48 7.26 8.22-8.22 11.13-11.13 14.51-9.68 3.39 1.45 20.8 13.55 23.7 15 2.9 1.45 5.32 7.26 5.32 17.9 0 10.64-11.13 31.44 0 29.51 11.13-1.93 20.32-15.48 27.57-32.9 7.26-17.42 6.29-21.29 10.64-19.83 4.35 1.45 8.22 24.19 13.06 29.03 1.9 1.9 3.72 4.38 5.24 6.18 2.34 2.78 3.95 3.93 3.95-1.35 0-5.59 4.56-17.58 4.9-35.53 0.2-10.03-0.91-21.88-4.9-35.58-11.13-38.22-26.61-77.4-64.34-95.78-14.98-7.3-26.7-16.4-39.84-24.61-19.97-12.46-43.24-22.8-86.42-21.35 0 0-63.32 5.71-109.03 26.83a0.37 0.37 0 0 1-0.11 0.05c-10.75 4.98-20.52 10.8-28.25 17.62-40.64 35.8-45.96 57.57-46.44 61.92-0.48 4.35-29.03 28.54-26.61 50.79 1.7 15.65 1.1 28.58 4.75 37.96 1.54 3.97 3.75 7.36 7.34 9.94z" fill="#FEE0E1" p-id="3627"></path><path d="M677.7 398.44s-5.32 3.95 0 10.93c5.32 6.97 3.87 14.74 8.22 17.87 4.35 3.13 14.03 7.03 19.83 0 2.71-3.28 4.1-6.94 4.29-10.48-4.82 2.5-7.67 3.94-7.67 3.94s-4.84 2.9-12.58 0-5.81-12.58-5.81-12.58 3.36-3.95 8.74-10.23c-3.86-0.81-8.65-0.8-15.02 0.55z" fill="#A9EBAF" p-id="3628"></path><path d="M325.69 273.95c12.25-15.48 21.29-28.38 26.45-28.38 5.15 0 22.57 25.81 30.31 28.38 7.74 2.58 12.26-10.33 22.58-16.77 10.32-6.45 22.57 2.58 31.6 5.81 9.03 3.23 29.68 3.22 49.03-1.94 19.35-5.15 18.7 5.81 33.54-21.29s18.07-48.47 28.38-52.61c10.32-4.15 19.98-2.21 24.51 15.2 9.03 16.12 16.77 54.18 18.71 74.5 1.94 20.32-0.64 31.29 7.1 28.06 7.74-3.23 12.26-39.99 15.48-69.02s5.16-37.41 7.74-32.25c2.58 5.15 5.81 36.12 12.25 45.15 6.45 9.03 14.2 7.74 20.64 13.55 6.45 5.81 23.86 20.64 32.25 11.61 0.08-0.08 0.14-0.16 0.21-0.23 8.21-8.9 10.74-14.69 9.46-24.92-1.28-10.32-32.89-78.69-43.86-90.3s-63.86-52.89-107.08-59.34c-43.21-6.46-68.38-19.35-75.47-18.71-7.09 0.64-14.48-3.66-22.57 3.23-8.75 7.44-32.9 30.31-40.64 31.6-7.74 1.29-43.87 23.22-58.7 41.93-14.83 18.7-52.25 84.49-56.76 103.2-4.51 18.71-5.16 24.23 5.81 28.56 0.32 0.12 0.59 0.17 0.89 0.29 10.39 3.75 16.24-0.27 28.14-15.31z" fill="#FFF7BA" p-id="3629"></path><path d="M825.25 292.01c-14.51-2.9-41.04 0.97-66 29.03-13.3 14.97-33.78 38.68-50.03 57.61-6.39 7.44-12.12 14.13-16.49 19.24-5.37 6.28-8.74 10.23-8.74 10.23s-1.94 9.68 5.81 12.58 12.58 0 12.58 0 2.86-1.44 7.67-3.94c6.27-3.26 15.9-8.34 26.99-14.46 33.92-18.71 81.47-47.08 88.21-62.59 10.64-24.48 14.51-44.79 0-47.7z" fill="#FFFFFF" p-id="3630"></path></svg>