<?xml version="1.0" standalone="no"?><!DOCTYPE svg PUBLIC "-//W3C//DTD SVG 1.1//EN" "http://www.w3.org/Graphics/SVG/1.1/DTD/svg11.dtd"><svg t="1607840036583" class="icon" viewBox="0 0 1024 1024" version="1.1" xmlns="http://www.w3.org/2000/svg" p-id="3142" xmlns:xlink="http://www.w3.org/1999/xlink" width="200" height="200"><defs><style type="text/css"></style></defs><path d="M201.47 832.93s42.7 44.07 129.46 41.32 194.19-39.94 229.99-56.46c35.8-16.53 114.31-61.98 143.23-73 28.92-11.01 122.58-79.87 141.86-110.17 19.28-30.3 50.96-97.79 67.49-137.72 16.53-39.94 26.17-93.65 28.92-125.32 2.75-31.68-9.64-68.87-9.64-68.87L835 254.51l-93.66 19.28-71.61 38.56L617.7 459.7l-102.23 73-93.65 64.73-198.32 35.8-74.37 112.93 52.34 86.77z" fill="#FED8A1" p-id="3143"></path><path d="M913.99 290.31L835 252.94 741.34 273l-71.61 38.95-52.03 147.56-102.23 73.09-93.65 64.77L223.5 633.2l-74.37 112.95 52.33 86.76s13.73 14.14 41.37 25.9c2.49-14.25 4.75-31.84 4.08-46.55-1.38-30.3-9.64-67.49 6.88-64.73 16.53 2.75 90.9 26.16 99.16 20.66 8.26-5.51 20.66-13.77 20.66-13.77s30.29-57.84 44.07-64.73c13.77-6.89 45.46-13.78 73-6.89s41.71 17.7 55.28-2.86c13.57-20.55 21.83-31.57 45.25-35.7s55.1 22.03 73 22.03 49.58 0 52.33-30.29c2.75-30.3 0-88.14 0-88.14s8.26-28.93 20.66-30.3c12.39-1.37 44.07 4.13 52.33-6.88 8.26-11.01 22.04-27.54 22.04-27.54l-12.39-125.33s5.51-31.67 12.39-27.54c6.88 4.13 30.3 15.14 49.58 17.9 19.28 2.76 44.07-4.33 44.07-4.33l8.77-53.52z" fill="#FEC573" p-id="3144"></path><path d="M890.77 226.96c-43.38-44.42-112.59-88.83-153.9-89.86-41.32-1.03-149.77 17.56-149.77 17.56s-89.86 17.56-132.21 34.09-127.6 70.82-173.53 106.39c0 0-150.8 105.36-175.59 196.25s-41.32 192.12 0 258.23 78.5 111.55 92.96 90.9c14.46-20.66 12.39-22.04 15.84-30.99 3.45-8.96 6.21-79.2 19.29-84.7 13.08-5.51 22.71-13.09 47.51 0 24.8 13.08 47.52 24.79 72.31 25.48 24.79 0.69 37.18 1.37 42-30.3s10.33-77.12 18.59-81.94c4.82-6.2 11.71-7.58 15.84-6.2 4.13 1.37 32.36 14.46 44.07 16.53 11.71 2.07 37.88 1.37 46.83-5.51 8.95-6.88 24.1-33.74 30.99-37.87 6.88-4.13 19.96-4.83 50.27 5.5 30.3 10.33 60.59 20.66 78.5 17.22 17.91-3.45 30.98 2.07 35.8-22.72 4.83-24.79-3.44-101.22-3.44-101.22s-4.55-29.62 4.95-31.68c9.51-2.07 15.01-6.88 35.67-0.69s51.65 22.03 58.54 21.34 22.72-4.13 20.66-25.48c-2.07-21.34-25.48-88.83-25.48-88.83s-17.2-70.92-15.83-75.06 2.07-6.89 13.08-3.45c11.01 3.45 39.24 22.04 52.33 22.04s17.22 1.37 21.35 7.57c4.13 6.2 8.96 25.48 24.79 15.15s38.21-28.92 38.21-39.25-7.25-34.08-50.63-78.5zM543.03 466.6s-65.42 57.15-81.95 68.86-79.88 22.04-79.88 22.04l33.75-39.25s61.97-68.87 87.45-88.83c25.48-19.98 77.82-15.15 77.82-15.15-4.14 15.14-37.19 52.33-37.19 52.33z" fill="#4E3625" p-id="3145"></path><path d="M736.87 137.1c-41.32-1.03-149.77 17.56-149.77 17.56s-89.86 17.56-132.21 34.09-127.6 70.82-173.53 106.39c0 0-150.8 105.36-175.59 196.25s-41.32 192.12 0 258.23c0.58 0.92 1.15 1.8 1.73 2.72 11.38-1.33 23.98-5.96 36.14-17.18 35.81-33.05 95.04-115.69 114.31-115.69s74.37 13.77 103.29 6.88 206.57-64.73 241.01-121.2c19.29-12.39 52.34-31.68 81.26-63.35 28.92-31.68 53.7-70.24 59.21-110.18 5.51-39.94 11.01-53.71 24.79-57.84s52.34 0 71.62-12.39c19.27-12.39 30.28-29.29 37.86-47.69-43.21-39.59-102.94-75.68-140.12-76.6zM580.21 414.26c-4.13 15.15-37.18 52.34-37.18 52.34s-65.42 57.15-81.95 68.86c-12.62 8.93-52.54 17.08-70.71 20.42a534.21 534.21 0 0 1-9.17 1.61l2.65-3.08c-4.68 0.82-9.6 0.97-14.35-0.36-15.77-4.41-41.32-26.17-38.56-39.25 2.75-13.08 2.06-16.53 13.08-32.37 11.02-15.83 63.35-71.61 70.24-81.25s39.25-35.12 50.96-44.07c11.71-8.96 21.35-19.97 40.63-20.66 19.28-0.69 33.75 0.69 45.45 6.88 11.7 6.2 37.18 6.88 37.18 17.91 0 11.01-0.69 37.87-8.96 49.58-0.6 0.85-1.61 1.97-2.82 3.21 2.17 0.11 3.51 0.23 3.51 0.23z" fill="#7C553C" p-id="3146"></path><path d="M589.33 385.85c-1.29-4.65 0.26-11.1-15.49-6.71s-19.37 9.04-32.28 9.81c-12.91 0.78-24.27-0.69-39.51 8.57-15.24 9.25-69.2 39.46-79.02 64.25-17.56 23.24-44.42 43.9-44.93 60.43-0.52 16.53-11.49 31.33-3.74 32.8 4.78 0.9 6.84 2.5 6.84 2.5l33.75-39.25s61.97-68.87 87.45-88.83c25.48-19.98 77.82-15.15 77.82-15.15-0.06 0.23-0.19 0.52-0.27 0.76 1.18-0.86 2.36-1.97 3.19-3.34 2.32-3.89 7.48-21.19 6.19-25.84z" fill="#FEC475" p-id="3147"></path><path d="M954.15 318.86c2.32-4.45 3.76-8.96 3.76-13.4 0-22.18-18.61-52.47-55.32-90.05-4.5-4.61-9.37-9.25-14.41-13.87-0.01-0.02-0.02-0.02-0.02-0.03-0.07-0.06-0.15-0.14-0.23-0.21-2.47-2.26-5-4.5-7.57-6.75-0.33-0.29-0.66-0.57-0.99-0.86-2.57-2.23-5.19-4.44-7.86-6.63-0.34-0.29-0.69-0.57-1.03-0.84a459.75 459.75 0 0 0-8.26-6.62c-0.25-0.19-0.51-0.39-0.77-0.58-9.05-7.02-18.45-13.78-28.03-20.04-0.07-0.06-0.15-0.1-0.23-0.15-1.23-0.81-2.48-1.57-3.71-2.36-2.41-1.53-4.82-3.06-7.24-4.53-0.94-0.56-1.86-1.09-2.8-1.64-2.75-1.64-5.5-3.24-8.26-4.77-0.77-0.44-1.54-0.84-2.32-1.26-2.91-1.6-5.83-3.13-8.73-4.59-0.69-0.35-1.36-0.68-2.05-1.01-2.97-1.47-5.92-2.86-8.86-4.18-0.65-0.29-1.3-0.57-1.95-0.86-2.93-1.28-5.83-2.47-8.72-3.58-0.66-0.26-1.32-0.52-1.99-0.77-2.82-1.05-5.59-1.99-8.35-2.87-0.7-0.23-1.41-0.47-2.11-0.69-2.65-0.8-5.26-1.48-7.85-2.11-0.75-0.18-1.52-0.39-2.26-0.56-2.53-0.57-5.01-0.99-7.46-1.37-0.72-0.1-1.46-0.28-2.17-0.36-3.09-0.41-6.12-0.67-9.06-0.75-1.24-0.02-2.55-0.04-3.91-0.04-44.5 0-144.82 17.11-149.45 17.91-3.73 0.73-91.82 18.04-135.05 34.91-42.98 16.77-129.23 71.24-176.98 108.24-6.36 4.45-156.01 109.88-182.07 205.45-2.74 10.02-5.5 20.59-8.13 31.57-18.51 76.82-31.39 173.43 10.06 239.76v0.01c0.02 0.02 0.02 0.04 0.04 0.06l1.73 2.72c0.01 0.02 0.03 0.03 0.04 0.05 55.62 88.44 79.14 100.85 96.2 100.85 5.21 0 10-1.57 14.22-4.25 19.6 14.17 59.21 35.72 119.2 35.72h0.02c2.72 0 5.46-1.36 8.27-1.44 89.01-2.82 199.6-42.31 236.39-59.3 16.01-7.38 39.41-19.91 64.19-33.17 30.79-16.49 62.64-33.53 78-39.38 31.33-11.93 128.41-82.95 149.92-116.75 21.01-33.01 53.48-103.23 68.81-140.27 16.45-39.73 26.98-94.02 30.12-130.21 1.61-19.03-1.52-39.36-4.77-54.15z m-458 166.37c-0.64 0.55-1.28 0.94-1.92 1.49-17.75 15.14-35.64 26.69-42.7 34.96h-0.02c-0.65 0-1.55 1.11-2.65 1.65-0.06 0.03-0.13 0.14-0.19 0.17-4.37 2.11-12.21 4.81-23.11 7.7l1.67-1.92c0.04-0.05 0.31-0.34 0.8-0.87 0.7-0.78 1.98-2.19 3.51-3.87 1.82-1.99 4.09-4.49 6.85-7.49 2.41-2.62 5.14-5.58 8.1-8.76 1.16-1.26 2.35-2.53 3.58-3.86 2.78-2.98 5.7-6.09 8.73-9.3 11.66-12.36 24.72-25.87 35.98-36.73 3.98-3.84 7.68-7.28 11.06-10.26 2.44-2.16 4.76-4.16 6.75-5.71 1.11-0.88 2.4-1.69 3.75-2.49 0.42-0.25 0.89-0.48 1.33-0.71 1.01-0.55 2.07-1.07 3.2-1.55 0.54-0.24 1.08-0.48 1.64-0.69 1.27-0.52 2.61-0.98 3.99-1.44 0.44-0.15 0.86-0.31 1.33-0.45 1.86-0.57 3.83-1.09 5.87-1.57 0.5-0.11 1.03-0.2 1.54-0.31 1.62-0.35 3.28-0.68 5.01-0.96 0.74-0.12 1.51-0.23 2.27-0.35 1.65-0.24 3.35-0.46 5.08-0.65 0.73-0.08 1.46-0.17 2.2-0.24 0.35-0.03 0.71-0.05 1.06-0.08-0.06 0.09-0.13 0.18-0.19 0.26-2.65 3.52-5.58 7.23-8.64 11.01-0.24 0.3-0.48 0.6-0.72 0.89-3.21 3.93-6.57 7.9-9.97 11.75-3.49 3.05-8.04 7-13.19 11.46-3.44 2.97-7.15 6.17-11 9.49-3.57 3.07-7.27 6.25-11 9.43z" p-id="3148"></path><path d="M657.95 318.04c1.42 5.97-1.13 11.69-5.7 12.78l-1.92 0.46c-4.58 1.08-9.44-2.86-10.86-8.83l-15.95-66.82c-1.44-5.96 1.14-11.69 5.7-12.77l1.92-0.47c4.58-1.08 9.44 2.86 10.86 8.83l15.95 66.82z" fill="#FEEB8F" p-id="3149"></path><path d="M700.71 285.68c-4.32-4.36-5.12-10.57-1.78-13.88l1.4-1.39c3.34-3.32 9.55-2.47 13.86 1.89l48.37 48.77c4.33 4.34 5.11 10.58 1.77 13.88l-1.4 1.39c-3.35 3.31-9.55 2.47-13.86-1.89l-48.36-48.77z" fill="#53FFD3" p-id="3150"></path><path d="M710.25 306.62c-5.83 1.91-11.74-0.14-13.21-4.61l-0.62-1.87c-1.47-4.47 2.06-9.65 7.88-11.56l65.24-21.49c5.82-1.94 11.74 0.14 13.21 4.6l0.61 1.88c1.47 4.48-2.06 9.64-7.88 11.56l-65.23 21.49z" fill="#FFFFFF" p-id="3151"></path><path d="M575.96 510.27c-4.52-4.15-5.61-10.31-2.44-13.77l1.33-1.46c3.19-3.46 9.43-2.91 13.94 1.23l50.62 46.43c4.53 4.13 5.6 10.32 2.44 13.77l-1.35 1.45c-3.18 3.47-9.42 2.92-13.93-1.23l-50.61-46.42z" fill="#FDE98C" p-id="3152"></path><path d="M637.91 494.24c-3.4 5.1-9.32 7.13-13.23 4.53l-1.65-1.08c-3.91-2.61-4.34-8.86-0.94-13.97l38.02-57.21c3.37-5.12 9.32-7.14 13.23-4.54l1.65 1.1c3.92 2.61 4.34 8.85 0.95 13.96l-38.03 57.21z" fill="#FC6E72" p-id="3153"></path><path d="M573.43 197.5c-6.13 0.06-11.14-3.71-11.18-8.4l-0.02-1.99c-0.04-4.7 4.9-8.55 11.03-8.61l70.1-0.62c6.13-0.07 12.6 3.71 12.6 8.4v1.98c0 4.71-6.29 8.56-12.43 8.62l-70.1 0.62z" fill="#FD8ADA" p-id="3154"></path><path d="M454.09 339.67c-5.83 1.91-11.74-0.14-13.21-4.61l-0.62-1.87c-1.47-4.47 2.06-9.65 7.88-11.56l65.24-21.49c5.82-1.94 11.74 0.14 13.21 4.6l0.61 1.88c1.47 4.48-2.06 9.64-7.88 11.56l-65.23 21.49z" fill="#FC6E72" p-id="3155"></path><path d="M302.64 331.35c-6.12 0.34-9.88-3.28-10.14-7.96l-0.11-1.98c-0.27-4.7 3.09-8.7 9.22-9.03l69.29-3.82c6.12-0.35 11.98 3.16 12.25 7.84l0.11 1.98c0.28 4.7-5.2 8.81-11.31 9.15l-69.31 3.82z" fill="#FC9368" p-id="3156"></path><path d="M185.62 569.25c-3.07 5.31-8.85 7.72-12.92 5.38l-1.71-0.98c-4.07-2.36-4.91-8.57-1.84-13.88l34.27-59.53c3.05-5.32 8.85-7.71 12.91-5.38l1.72 0.99c4.08 2.36 4.9 8.56 1.84 13.87l-34.27 59.53z" fill="#FFFFFF" p-id="3157"></path><path d="M199.56 430.1c-3.64-4.95-3.52-11.21 0.26-13.98l1.59-1.18c3.79-2.79 9.81-1.05 13.44 3.89l40.74 55.31c3.65 4.92 3.51 11.2-0.27 13.98l-1.6 1.17c-3.79 2.79-9.8 1.05-13.44-3.89l-40.72-55.3z" fill="#81CFF1" p-id="3158"></path><path d="M197.84 678.87c-4.87 3.73-11.13 3.73-13.98 0l-1.2-1.57c-2.86-3.73-1.24-9.78 3.62-13.51l54.51-41.81c4.86-3.74 11.14-3.73 13.99-0.01l1.19 1.57c2.86 3.74 1.23 9.79-3.62 13.52l-54.51 41.81z" fill="#A8FD6B" p-id="3159"></path><path d="M239.25 661.94c-5.83 1.91-11.74-0.14-13.21-4.61l-0.62-1.87c-1.47-4.47 2.06-9.65 7.88-11.56l65.24-21.49c5.82-1.94 11.74 0.14 13.21 4.6l0.61 1.88c1.47 4.48-2.06 9.64-7.88 11.56l-65.23 21.49z" fill="#FA8BD6" p-id="3160"></path><path d="M201.47 832.93s42.7 44.07 129.46 41.32 194.19-39.94 229.99-56.46c35.8-16.53 114.31-61.98 143.23-73 28.92-11.01 122.58-79.87 141.86-110.17 19.28-30.3 50.96-97.79 67.49-137.72 16.53-39.94 26.17-93.65 28.92-125.32 2.75-31.68-9.64-68.87-9.64-68.87L835 254.51l-93.66 19.28-71.61 38.56L617.7 459.7l-102.23 73-93.65 64.73-198.32 35.8-74.37 112.93 52.34 86.77z" fill="#FED8A1" p-id="3161"></path><path d="M913.99 290.31L835 252.94 741.34 273l-71.61 38.95-52.03 147.56-102.23 73.09-93.65 64.77L223.5 633.2l-74.37 112.95 52.33 86.76s13.73 14.14 41.37 25.9c2.49-14.25 4.75-31.84 4.08-46.55-1.38-30.3-9.64-67.49 6.88-64.73 16.53 2.75 90.9 26.16 99.16 20.66 8.26-5.51 20.66-13.77 20.66-13.77s30.29-57.84 44.07-64.73c13.77-6.89 45.46-13.78 73-6.89s41.71 17.7 55.28-2.86c13.57-20.55 21.83-31.57 45.25-35.7s55.1 22.03 73 22.03 49.58 0 52.33-30.29c2.75-30.3 0-88.14 0-88.14s8.26-28.93 20.66-30.3c12.39-1.37 44.07 4.13 52.33-6.88 8.26-11.01 22.04-27.54 22.04-27.54l-12.39-125.33s5.51-31.67 12.39-27.54c6.88 4.13 30.3 15.14 49.58 17.9 19.28 2.76 44.07-4.33 44.07-4.33l8.77-53.52z" fill="#FEC573" p-id="3162"></path><path d="M890.77 226.96c-43.38-44.42-112.59-88.83-153.9-89.86-41.32-1.03-149.77 17.56-149.77 17.56s-89.86 17.56-132.21 34.09-127.6 70.82-173.53 106.39c0 0-150.8 105.36-175.59 196.25s-41.32 192.12 0 258.23 78.5 111.55 92.96 90.9c14.46-20.66 12.39-22.04 15.84-30.99 3.45-8.96 6.21-79.2 19.29-84.7 13.08-5.51 22.71-13.09 47.51 0 24.8 13.08 47.52 24.79 72.31 25.48 24.79 0.69 37.18 1.37 42-30.3s10.33-77.12 18.59-81.94c4.82-6.2 11.71-7.58 15.84-6.2 4.13 1.37 32.36 14.46 44.07 16.53 11.71 2.07 37.88 1.37 46.83-5.51 8.95-6.88 24.1-33.74 30.99-37.87 6.88-4.13 19.96-4.83 50.27 5.5 30.3 10.33 60.59 20.66 78.5 17.22 17.91-3.45 30.98 2.07 35.8-22.72 4.83-24.79-3.44-101.22-3.44-101.22s-4.55-29.62 4.95-31.68c9.51-2.07 15.01-6.88 35.67-0.69s51.65 22.03 58.54 21.34 22.72-4.13 20.66-25.48c-2.07-21.34-25.48-88.83-25.48-88.83s-17.2-70.92-15.83-75.06 2.07-6.89 13.08-3.45c11.01 3.45 39.24 22.04 52.33 22.04s17.22 1.37 21.35 7.57c4.13 6.2 8.96 25.48 24.79 15.15s38.21-28.92 38.21-39.25-7.25-34.08-50.63-78.5zM543.03 466.6s-65.42 57.15-81.95 68.86-79.88 22.04-79.88 22.04l33.75-39.25s61.97-68.87 87.45-88.83c25.48-19.98 77.82-15.15 77.82-15.15-4.14 15.14-37.19 52.33-37.19 52.33z" fill="#4E3625" p-id="3163"></path><path d="M736.87 137.1c-41.32-1.03-149.77 17.56-149.77 17.56s-89.86 17.56-132.21 34.09-127.6 70.82-173.53 106.39c0 0-150.8 105.36-175.59 196.25s-41.32 192.12 0 258.23c0.58 0.92 1.15 1.8 1.73 2.72 11.38-1.33 23.98-5.96 36.14-17.18 35.81-33.05 95.04-115.69 114.31-115.69s74.37 13.77 103.29 6.88 206.57-64.73 241.01-121.2c19.29-12.39 52.34-31.68 81.26-63.35 28.92-31.68 53.7-70.24 59.21-110.18 5.51-39.94 11.01-53.71 24.79-57.84s52.34 0 71.62-12.39c19.27-12.39 30.28-29.29 37.86-47.69-43.21-39.59-102.94-75.68-140.12-76.6zM580.21 414.26c-4.13 15.15-37.18 52.34-37.18 52.34s-65.42 57.15-81.95 68.86c-12.62 8.93-52.54 17.08-70.71 20.42a534.21 534.21 0 0 1-9.17 1.61l2.65-3.08c-4.68 0.82-9.6 0.97-14.35-0.36-15.77-4.41-41.32-26.17-38.56-39.25 2.75-13.08 2.06-16.53 13.08-32.37 11.02-15.83 63.35-71.61 70.24-81.25s39.25-35.12 50.96-44.07c11.71-8.96 21.35-19.97 40.63-20.66 19.28-0.69 33.75 0.69 45.45 6.88 11.7 6.2 37.18 6.88 37.18 17.91 0 11.01-0.69 37.87-8.96 49.58-0.6 0.85-1.61 1.97-2.82 3.21 2.17 0.11 3.51 0.23 3.51 0.23z" fill="#7C553C" p-id="3164"></path><path d="M589.33 385.85c-1.29-4.65 0.26-11.1-15.49-6.71s-19.37 9.04-32.28 9.81c-12.91 0.78-24.27-0.69-39.51 8.57-15.24 9.25-69.2 39.46-79.02 64.25-17.56 23.24-44.42 43.9-44.93 60.43-0.52 16.53-11.49 31.33-3.74 32.8 4.78 0.9 6.84 2.5 6.84 2.5l33.75-39.25s61.97-68.87 87.45-88.83c25.48-19.98 77.82-15.15 77.82-15.15-0.06 0.23-0.19 0.52-0.27 0.76 1.18-0.86 2.36-1.97 3.19-3.34 2.32-3.89 7.48-21.19 6.19-25.84z" fill="#FEC475" p-id="3165"></path><path d="M657.95 318.04c1.42 5.97-1.13 11.69-5.7 12.78l-1.92 0.46c-4.58 1.08-9.44-2.86-10.86-8.83l-15.95-66.82c-1.44-5.96 1.14-11.69 5.7-12.77l1.92-0.47c4.58-1.08 9.44 2.86 10.86 8.83l15.95 66.82z" fill="#FEEB8F" p-id="3166"></path><path d="M700.71 285.68c-4.32-4.36-5.12-10.57-1.78-13.88l1.4-1.39c3.34-3.32 9.55-2.47 13.86 1.89l48.37 48.77c4.33 4.34 5.11 10.58 1.77 13.88l-1.4 1.39c-3.35 3.31-9.55 2.47-13.86-1.89l-48.36-48.77z" fill="#53FFD3" p-id="3167"></path><path d="M710.25 306.62c-5.83 1.91-11.74-0.14-13.21-4.61l-0.62-1.87c-1.47-4.47 2.06-9.65 7.88-11.56l65.24-21.49c5.82-1.94 11.74 0.14 13.21 4.6l0.61 1.88c1.47 4.48-2.06 9.64-7.88 11.56l-65.23 21.49z" fill="#FFFFFF" p-id="3168"></path><path d="M575.96 510.27c-4.52-4.15-5.61-10.31-2.44-13.77l1.33-1.46c3.19-3.46 9.43-2.91 13.94 1.23l50.62 46.43c4.53 4.13 5.6 10.32 2.44 13.77l-1.35 1.45c-3.18 3.47-9.42 2.92-13.93-1.23l-50.61-46.42z" fill="#FDE98C" p-id="3169"></path><path d="M637.91 494.24c-3.4 5.1-9.32 7.13-13.23 4.53l-1.65-1.08c-3.91-2.61-4.34-8.86-0.94-13.97l38.02-57.21c3.37-5.12 9.32-7.14 13.23-4.54l1.65 1.1c3.92 2.61 4.34 8.85 0.95 13.96l-38.03 57.21z" fill="#FC6E72" p-id="3170"></path><path d="M573.43 197.5c-6.13 0.06-11.14-3.71-11.18-8.4l-0.02-1.99c-0.04-4.7 4.9-8.55 11.03-8.61l70.1-0.62c6.13-0.07 12.6 3.71 12.6 8.4v1.98c0 4.71-6.29 8.56-12.43 8.62l-70.1 0.62z" fill="#FD8ADA" p-id="3171"></path><path d="M454.09 339.67c-5.83 1.91-11.74-0.14-13.21-4.61l-0.62-1.87c-1.47-4.47 2.06-9.65 7.88-11.56l65.24-21.49c5.82-1.94 11.74 0.14 13.21 4.6l0.61 1.88c1.47 4.48-2.06 9.64-7.88 11.56l-65.23 21.49z" fill="#FC6E72" p-id="3172"></path><path d="M302.64 331.35c-6.12 0.34-9.88-3.28-10.14-7.96l-0.11-1.98c-0.27-4.7 3.09-8.7 9.22-9.03l69.29-3.82c6.12-0.35 11.98 3.16 12.25 7.84l0.11 1.98c0.28 4.7-5.2 8.81-11.31 9.15l-69.31 3.82z" fill="#FC9368" p-id="3173"></path><path d="M185.62 569.25c-3.07 5.31-8.85 7.72-12.92 5.38l-1.71-0.98c-4.07-2.36-4.91-8.57-1.84-13.88l34.27-59.53c3.05-5.32 8.85-7.71 12.91-5.38l1.72 0.99c4.08 2.36 4.9 8.56 1.84 13.87l-34.27 59.53z" fill="#FFFFFF" p-id="3174"></path><path d="M199.56 430.1c-3.64-4.95-3.52-11.21 0.26-13.98l1.59-1.18c3.79-2.79 9.81-1.05 13.44 3.89l40.74 55.31c3.65 4.92 3.51 11.2-0.27 13.98l-1.6 1.17c-3.79 2.79-9.8 1.05-13.44-3.89l-40.72-55.3z" fill="#81CFF1" p-id="3175"></path><path d="M197.84 678.87c-4.87 3.73-11.13 3.73-13.98 0l-1.2-1.57c-2.86-3.73-1.24-9.78 3.62-13.51l54.51-41.81c4.86-3.74 11.14-3.73 13.99-0.01l1.19 1.57c2.86 3.74 1.23 9.79-3.62 13.52l-54.51 41.81z" fill="#A8FD6B" p-id="3176"></path><path d="M239.25 661.94c-5.83 1.91-11.74-0.14-13.21-4.61l-0.62-1.87c-1.47-4.47 2.06-9.65 7.88-11.56l65.24-21.49c5.82-1.94 11.74 0.14 13.21 4.6l0.61 1.88c1.47 4.48-2.06 9.64-7.88 11.56l-65.23 21.49z" fill="#FA8BD6" p-id="3177"></path></svg>