<?xml version="1.0" standalone="no"?><!DOCTYPE svg PUBLIC "-//W3C//DTD SVG 1.1//EN" "http://www.w3.org/Graphics/SVG/1.1/DTD/svg11.dtd"><svg t="1607840056993" class="icon" viewBox="0 0 1024 1024" version="1.1" xmlns="http://www.w3.org/2000/svg" p-id="3913" xmlns:xlink="http://www.w3.org/1999/xlink" width="200" height="200"><defs><style type="text/css"></style></defs><path d="M953.8 496.51c0-2.53-0.7-4.88-1.83-6.96-3.79-27.08-27.89-51.3-71.8-72.15v-16.61c0-0.36-0.09-0.7-0.12-1.06 0.04-0.56 0.12-1.13 0.12-1.7 0-28.43-24.35-53.24-72.28-73.79-13.78-18.91-34.77-34.72-62.63-46.92-24.2-10.61-57.84-21.95-84.86-31.06-18.48-6.23-35.92-12.12-42.81-15.3-7.78-3.59-31.25-14.42-35.75-19.85-3.67-8.24-14.14-30.78-34.21-31.65-0.68-0.03-1.34-0.04-2-0.04-10.72 0-19.1 3.75-23.73 6.15-0.95-0.32-2.34-0.86-4.22-1.81-5.4-2.7-11.91-5.58-20.74-5.58-3.96 0-7.99 0.58-12.3 1.77-2.37 0.65-4.58 1.3-6.61 1.91-2.58 0.76-5.7 1.69-7.22 2-1.98-0.48-4.21-0.71-6.85-0.71-6.47 0-15.07 1.4-16.03 1.56-0.61 0.1-1.21 0.24-1.8 0.42-2.55 0.77-25.2 8.06-34.11 28.45-5.82 13.28-17.76 30.13-30.26 35.72-4.25 1.9-15.91 5.72-28.26 9.77-49.43 16.2-91.64 30.88-107.65 46.53-3.36 3.29-6.64 6.34-9.81 9.28l-0.51 0.47c-62.35 21.69-95.34 50.24-95.34 82.69 0 6.04 1.29 12.09 3.67 18.05v2.54c-40.07 19.49-63.03 41.87-68.55 66.84-3.09 2.7-5.08 6.62-5.08 11.05v228.26c0 0.23 0.06 0.44 0.07 0.66-0.02 0.35-0.07 0.7-0.07 1.05 0 91.65 226.44 141.11 439.5 141.11 215.28 0 444.07-49.46 444.07-141.11 0-0.43-0.01-0.86-0.04-1.26 0-0.15 0.04-0.29 0.04-0.45V496.51z m-14.73 228.26h-0.15c0.03 0.58 0.15 1.14 0.15 1.71 0 52.56-110.4 97.6-265.07 116.66v0.01l-7.36 0.88v-0.04c-48.77 5.7-101.71 8.87-156.91 8.87-234.6 0-424.77-56.57-424.77-126.38 0-0.58 0.12-1.14 0.14-1.71h-0.14V496.51h3.74c0.42-25.31 26.09-48.84 69.89-68.53v-14.82c-2.38-4.94-3.67-10-3.67-15.14 0-26.77 33.42-51.2 88.43-69.84 4.09-3.82 8.38-7.74 12.81-12.07 20.71-20.25 114.13-45.56 131.61-53.38 17.49-7.82 31.29-28.53 37.74-43.26s24.85-20.25 24.85-20.25 13.81-2.3 17.49-0.92c3.68 1.38 10.58-1.38 20.71-4.17 10.12-2.79 16.11-0.43 22.55 2.79s11.97 4.6 14.73 3.22c2.76-1.38 10.58-6.44 21.17-5.98 10.58 0.46 17.95 15.19 21.63 23.47 3.68 8.28 24.85 18.41 42.8 26.69 17.95 8.28 86.98 28.53 127.93 46.48 30.8 13.5 48.59 29.6 59.04 45.37 42.14 17.4 67.05 38.76 67.05 61.85 0 0.93-0.16 1.84-0.23 2.76h0.23v26.06c45.34 19.9 71.93 43.87 72.35 69.66h1.28v228.27z" p-id="3914"></path><path d="M85.1 724.77c-0.02 0.58-0.14 1.14-0.14 1.71 0 69.81 190.17 126.38 424.77 126.38 55.2 0 108.15-3.16 156.91-8.87V724.77H85.1z m543.34 17.48c4.32 0 7.82 3.5 7.82 7.82s-3.5 7.82-7.82 7.82-7.82-3.5-7.82-7.82c0-4.31 3.5-7.82 7.82-7.82z m0 67.19c-4.32 0-7.82-3.5-7.82-7.82s3.5-7.82 7.82-7.82 7.82 3.5 7.82 7.82-3.5 7.82-7.82 7.82zM674 843.14c154.67-19.06 265.07-64.1 265.07-116.66 0-0.58-0.12-1.14-0.15-1.71H674v118.37z m28.07-48.42c-4.32 0-7.82-3.5-7.82-7.82s3.5-7.82 7.82-7.82 7.82 3.5 7.82 7.82c0.01 4.31-3.49 7.82-7.82 7.82z m0-67.19c4.32 0 7.82 3.5 7.82 7.82s-3.5 7.82-7.82 7.82-7.82-3.5-7.82-7.82 3.5-7.82 7.82-7.82zM666.64 614.81l4.36-0.9c-48.79 5.79-101.99 9-157.76 9-234.5 0-424.59-56.31-424.59-125.78 0-0.21 0.05-0.41 0.05-0.62h-3.74v228.26h581.68V614.81z m-38.2 31.72c4.32 0 7.82 3.5 7.82 7.82s-3.5 7.82-7.82 7.82-7.82-3.5-7.82-7.82c0-4.31 3.5-7.82 7.82-7.82z m0 67.19c-4.32 0-7.82-3.5-7.82-7.82s3.5-7.82 7.82-7.82 7.82 3.5 7.82 7.82c0.01 4.32-3.5 7.82-7.82 7.82zM937.84 497.13c0 52.61-109.07 97.65-263.84 116.43v111.21h265.07V496.51h-1.28c0 0.21 0.05 0.41 0.05 0.62zM702.07 699c-4.32 0-7.82-3.5-7.82-7.82s3.5-7.82 7.82-7.82 7.82 3.5 7.82 7.82c0.01 4.31-3.49 7.82-7.82 7.82z m0-51.55c-4.32 0-7.82-3.5-7.82-7.82s3.5-7.82 7.82-7.82 7.82 3.5 7.82 7.82-3.49 7.82-7.82 7.82z" fill="#E9CB9F" p-id="3915"></path><path d="M513.24 622.91c55.77 0 108.97-3.21 157.76-9l3.01-0.63v0.27c154.78-18.77 263.84-63.82 263.84-116.43 0-0.21-0.05-0.41-0.05-0.62-0.42-25.79-27.01-49.76-72.35-69.66V489.13h-0.23c-4.9 57.18-161.1 103.08-353.2 103.08s-348.29-45.9-353.2-103.08h-0.23v-61.16c-43.8 19.69-69.47 43.21-69.89 68.53 0 0.21-0.05 0.41-0.05 0.62 0 69.48 190.09 125.79 424.59 125.79z" fill="#FFEFD6" p-id="3916"></path><path d="M808.03 515.84c-18.41 7.36-55.88 21.17-95.91 29.45-40.04 8.28-107.76 17.95-107.76 17.95s127.78-27.61 174.72-42.34c22.63-7.1 43.45-20.13 59.01-31.75h-37.1c-19.97 7.69-53.4 19.36-88.87 26.69-40.04 8.28-107.76 17.95-107.76 17.95s127.78-27.61 174.72-42.34c2.21-0.69 4.39-1.5 6.58-2.3h-94.74c-52.97 9.35-114.73 14.73-180.74 14.73s-127.78-5.38-180.73-14.73H158.82c4.9 57.18 161.1 103.08 353.2 103.08s348.29-45.9 353.2-103.08h-8.62c-12.61 7.76-35.64 21.52-48.57 26.69zM690.91 489.15h94.74c43.98-16.19 79.79-52.76 79.79-52.76V400.8h-0.23c-3.25 37.63-72.33 70.36-174.3 88.35zM158.82 489.15h170.62c-90.61-15.99-155.29-43.62-170.85-75.98V489.15h0.23zM800.99 489.15h37.1c16.72-12.48 27.35-23.31 27.35-23.31v-11.66s-39 24.85-57.41 32.21c-2.1 0.84-4.47 1.77-7.04 2.76zM865.21 489.15h0.23v-5.52s-3.51 2.23-8.85 5.52h8.62z" fill="#EFD6AF" p-id="3917"></path><path d="M329.44 489.15c52.96 9.35 114.72 14.73 180.73 14.73 66.01 0 127.77-5.38 180.74-14.73 101.96-17.99 171.05-50.72 174.3-88.36 0.07-0.92 0.23-1.83 0.23-2.76 0-23.1-24.91-44.45-67.05-61.85a88.64 88.64 0 0 1 8.15 15.37c0.78 1.9 1.52 4.13 2.26 6.47 20.95 11.63 32.72 23.15 32.72 36.94 0 48.79-147.1 86.82-328.58 86.82h-0.18c-181.47 0-328.76-38.02-328.76-86.82 0-14.35 12.43-27.12 35-39.1-0.09 0.18-0.18 0.77-0.27 0.96 0.35-0.19 0.64-0.19 0.99-0.38 5.41-10.88 13.83-19.23 23.61-28.34-55.01 18.64-88.43 43.11-88.43 69.88 0 5.14 1.29 10.22 3.67 15.16 15.58 32.37 80.26 60.02 170.87 76.01z" fill="#FFF2DF" p-id="3918"></path><path d="M841.43 394.97c0-13.78-11.71-27.6-32.62-39.23 1.5 4.84 2.9 15.6 4.19 15.6h0.01c0.96 7.36 1.86 10.53 2.66 15.01 0.04 0.23 0.09 1.24 0.13 1.47 0.24 1.37 0.48 3.11 0.71 4.44 0.07 0.42 0.14 1.01 0.22 1.43 0.21 1.23 0.41 2.55 0.6 3.74 0.06 0.35 0.11 0.74 0.17 1.09 0.24 1.46 0.46 2.9 0.68 4.28 0.06 0.41 0.12 0.8 0.18 1.2 0.15 0.96 0.29 1.92 0.43 2.83 0.07 0.53 0.15 1.04 0.22 1.55 0.11 0.75 0.21 1.46 0.31 2.15 0.07 0.47 0.14 0.93 0.2 1.37 0.09 0.65 0.17 1.24 0.26 1.84 0.11 0.82 0.22 1.57 0.31 2.28 0.06 0.45 0.12 0.93 0.18 1.33 0.06 0.41 0.09 0.73 0.14 1.08 0.04 0.32 0.08 0.63 0.11 0.89 0.04 0.3 0.06 0.53 0.09 0.76 0.04 0.32 0.07 0.55 0.09 0.76 0.03 0.17 0.04 0.25 0.05 0.35 0.02 0.19 0.04 0.31 0.04 0.31L801.46 433c-33.13 15.65-114.13 31.29-146.8 34.97-22.49 2.53-73.12 8.33-145.11 8.25-32.8-0.02-70.02-1.25-111.02-4.57-130.69-10.58-186.18-46.02-186.18-46.02s-2.23-16.41-2.23-40.47v-0.01c0-2.69 1.9-5.44 2.23-8.3 0.85-7.6 3.56-13.94 6.38-19.66 0.09-0.19 0.17-0.39 0.27-0.57-22.57 11.98-35 23.98-35 38.33 0 48.79 147.29 86.82 328.76 86.82h0.09c181.43 0.02 328.58-38.01 328.58-86.8z" fill="#D8AF75" p-id="3919"></path><path d="M785.66 489.15c-2.19 0.81-4.36 1.61-6.58 2.3-46.94 14.73-174.72 42.34-174.72 42.34s67.73-9.66 107.76-17.95c35.47-7.33 68.9-19 88.87-26.69 2.57-0.99 4.95-1.92 7.05-2.76 18.41-7.36 57.41-32.21 57.41-32.21v-17.79c-0.01-0.01-35.82 36.57-79.79 52.76zM838.09 489.15c-15.56 11.62-36.38 24.66-59.01 31.75-46.94 14.73-174.72 42.34-174.72 42.34s67.73-9.66 107.76-17.95c40.04-8.28 77.51-22.09 95.91-29.45 12.93-5.17 35.95-18.93 48.56-26.69 5.34-3.29 8.85-5.52 8.85-5.52v-17.79s-10.63 10.83-27.35 23.31z" fill="#E9CB9F" p-id="3920"></path><path d="M219.73 356.63c-2.91 5.86-5.03 12.38-5.92 20.23-0.32 2.86-0.57 5.61-0.77 8.3 25.7 17.89 89.31 56.93 160.92 61.65 93.27 6.14 189.61 11.66 201.87 11.66 12.27 0 93.27-4.91 134.38-23.93 41.11-19.03 78.53-33.75 87.74-41.12 4.67-3.72 10.46-11.86 15.05-18.98l-1.14-0.01c-1.28-5.9 2.04-11.55-5.32-16.39v-0.03c0-2.34-0.35-4.57-1.13-6.47-2.06-5.02-4.13-10.18-7.59-15.37-10.44-15.77-27.95-31.87-58.75-45.37-40.96-17.95-109.85-38.2-127.8-46.48-17.95-8.28-39.04-18.41-42.73-26.69-3.68-8.28-11.01-23.01-21.59-23.47-10.58-0.46-18.39 4.6-21.15 5.98-2.76 1.38-8.28 0-14.72-3.22-6.44-3.22-12.43-5.58-22.55-2.79-10.12 2.79-17.02 5.55-20.7 4.17-3.68-1.38-17.49 0.92-17.49 0.92s-18.41 5.52-24.85 20.25-20.25 35.43-37.74 43.26c-17.49 7.82-110.91 33.13-131.61 53.38-4.43 4.34-8.72 8.25-12.81 12.07-9.77 9.13-18.19 17.58-23.6 28.45zM561.1 231.44s19.33 21.46 23.31 25.06c3.98 3.6 30.99 17.24 30.99 17.24s-7.98-0.65-19.95-4.33c-11.97-3.68-12.89-6.51-19.33-12.73-6.44-6.22-18.41-25.23-18.41-25.23h3.39z m-81.76 74.55s-2.76-9.2-2.3-14.73c0.46-5.52 4.6-57.06 4.6-57.06l6.9 18.87-9.2 52.92z m44.64-24.85c-7.82-10.12-7.82-46.94-7.82-46.94l1.38-3.22 1.38 3.22c-0.46 12.86 24.85 65.35 24.85 65.35s-11.97-8.28-19.79-18.41z m-55.68-67.19c3.68-2.76 13.81-4.6 18.87-5.98 0 0-14.27 5.06-8.28 6.9 5.98 1.84 18.41-5.06 30.37-3.45 11.97 1.61 12.89 5.46 25.31 3.77 12.43-1.7 11.5 0.42 11.5 0.42l-16.57 6.16s-23.47-1.38-30.83 0c-7.36 1.38-13.52 4.6-21.25 2.3-7.74-2.29-12.81-7.36-9.12-10.12z m-78.98 71.35c4.29 1.16 17.41-6.53 26.06-13.36 8.74-6.9 36.82-42.8 36.82-42.8-0.92 9.2-5.98 29.91-22.09 47.4-13.83 15-37.07 9.69-40.79 8.76-0.05-0.01-0.13 0-0.17-0.01-0.6-0.21-0.45-0.15 0.17 0.01z" fill="#FFFAEF" p-id="3921"></path><path d="M212.95 386.88c-0.94-0.58-1.94-1.19-2.82-1.72v0.01c0 24.06 2.23 40.47 2.23 40.47s55.49 35.43 186.18 46.02c41 3.32 78.22 4.55 111.02 4.57 71.76 0.05 122.32-5.73 144.75-8.25 32.67-3.68 113.85-19.33 146.98-34.97 19.33-11.5 19.42-11.5 19.42-11.5s0.03-0.11 0.01-0.31c-0.01-0.08-0.01-0.24-0.03-0.35-0.02-0.21-0.04-0.45-0.08-0.76-0.03-0.23-0.06-0.47-0.09-0.76-0.04-0.27-0.08-0.57-0.11-0.89-0.05-0.34-0.09-0.67-0.14-1.08-0.06-0.4-0.11-0.88-0.18-1.33-0.09-0.71-0.2-1.46-0.31-2.28-0.09-0.6-0.17-1.19-0.26-1.84-0.06-0.45-0.13-0.91-0.2-1.37-0.1-0.69-0.2-1.4-0.31-2.15-0.07-0.5-0.15-1.01-0.22-1.54-0.14-0.91-0.28-1.85-0.43-2.82-0.06-0.4-0.12-0.78-0.18-1.19-0.22-1.37-0.44-2.79-0.68-4.25-0.06-0.34-0.12-0.7-0.17-1.04-0.19-1.19-0.4-2.41-0.6-3.64-0.07-0.42-0.14-0.82-0.22-1.24-0.23-1.34-0.47-2.69-0.71-4.05-0.04-0.24-0.09-0.47-0.13-0.71-0.8-4.47-1.7-9.03-2.66-13.46l-0.01 0.01c-4.59 7.12-10.38 15.26-15.05 18.98-9.2 7.36-46.63 22.09-87.74 41.12-41.11 19.02-122.11 23.93-134.38 23.93-12.27 0-110.06-5.52-203.33-11.66-69.47-4.59-129.15-41.42-159.55-59.95z" fill="#F7EEDD" p-id="3922"></path><path d="M477.41 224.08c7.74 2.3 13.89-0.92 21.25-2.3 7.36-1.38 30.83 0 30.83 0l16.57-6.16s0.92-2.12-11.5-0.42c-12.43 1.7-13.35-2.16-25.31-3.77-11.96-1.61-24.39 5.29-30.37 3.45-5.98-1.84 8.28-6.9 8.28-6.9-5.06 1.38-15.19 3.22-18.87 5.98-3.68 2.75 1.39 7.82 9.12 10.12zM389.32 285.3c-0.62-0.16-0.76-0.22-0.17-0.01 0.04 0.01 0.12-0.01 0.17 0.01z" fill="#E8DABE" p-id="3923"></path><path d="M430.1 276.54c16.11-17.49 21.17-38.2 22.09-47.4 0 0-28.07 35.89-36.82 42.8-8.65 6.83-21.77 14.53-26.06 13.36 3.73 0.93 26.97 6.24 40.79-8.76zM477.04 291.27c-0.46 5.52 2.3 14.73 2.3 14.73l9.2-52.92-6.9-18.87c0-0.01-4.14 51.53-4.6 57.06zM517.54 230.98l-1.38 3.22s0 36.82 7.82 46.94c7.82 10.12 19.79 18.41 19.79 18.41s-25.31-52.48-24.85-65.35l-1.38-3.22zM595.46 269.41c11.96 3.68 19.95 4.33 19.95 4.33s-27.01-13.63-30.99-17.24c-3.98-3.6-23.31-25.06-23.31-25.06h-3.38s11.97 19.01 18.41 25.23c6.44 6.22 7.36 9.06 19.32 12.74z" fill="#E8DABE" p-id="3924"></path><path d="M674 613.56v-0.27l-3 0.62-4.36 0.9V844.04l7.36-0.89V724.77zM628.44 662.18c4.32 0 7.82-3.5 7.82-7.82s-3.5-7.82-7.82-7.82-7.82 3.5-7.82 7.82 3.5 7.82 7.82 7.82zM628.44 698.08c-4.32 0-7.82 3.5-7.82 7.82s3.5 7.82 7.82 7.82 7.82-3.5 7.82-7.82c0.01-4.32-3.5-7.82-7.82-7.82zM628.44 757.9c4.32 0 7.82-3.5 7.82-7.82s-3.5-7.82-7.82-7.82-7.82 3.5-7.82 7.82 3.5 7.82 7.82 7.82zM628.44 793.8c-4.32 0-7.82 3.5-7.82 7.82s3.5 7.82 7.82 7.82 7.82-3.5 7.82-7.82-3.5-7.82-7.82-7.82zM702.07 631.81c-4.32 0-7.82 3.5-7.82 7.82s3.5 7.82 7.82 7.82 7.82-3.5 7.82-7.82-3.49-7.82-7.82-7.82zM702.07 683.35c-4.32 0-7.82 3.5-7.82 7.82s3.5 7.82 7.82 7.82 7.82-3.5 7.82-7.82c0.01-4.32-3.49-7.82-7.82-7.82zM702.07 743.17c4.32 0 7.82-3.5 7.82-7.82s-3.5-7.82-7.82-7.82-7.82 3.5-7.82 7.82 3.5 7.82 7.82 7.82zM702.07 779.07c-4.32 0-7.82 3.5-7.82 7.82s3.5 7.82 7.82 7.82 7.82-3.5 7.82-7.82c0.01-4.32-3.49-7.82-7.82-7.82z" fill="#C0A175" p-id="3925"></path></svg>