<?xml version="1.0" standalone="no"?><!DOCTYPE svg PUBLIC "-//W3C//DTD SVG 1.1//EN" "http://www.w3.org/Graphics/SVG/1.1/DTD/svg11.dtd"><svg t="1607840069613" class="icon" viewBox="0 0 1024 1024" version="1.1" xmlns="http://www.w3.org/2000/svg" p-id="4503" xmlns:xlink="http://www.w3.org/1999/xlink" width="200" height="200"><defs><style type="text/css"></style></defs><path d="M840.69 273.48l-0.02-0.05 0.02 0.05zM728.1 611.81c0 1.62 0.37 3.12 0.39 4.57 0.01 0.17 0.09 0.36 0.18 0.55-0.05-0.18-0.11-0.37-0.11-0.55-0.04-1.44-0.46-2.96-0.46-4.57z m0.7 6.67c-0.01 1.01-0.05 2.04-0.03 2.95 0 0.29-0.11 0.55-0.17 0.81 0.11-0.26 0.33-0.52 0.32-0.81-0.02-0.91-0.08-1.94-0.12-2.95z m17.27 95.41a62.42 62.42 0 0 0 5.38-0.06c1.62-0.08 3.33-0.2 5.13-0.36l0.6-0.06c1.96-0.18 4.01-0.43 6.1-0.7l1.06-0.14c4.32-0.58 8.77-1.31 13.02-2.09l0.68-0.13c2.12-0.39 4.18-0.8 6.14-1.21l0.5-0.11c1.97-0.42 3.85-0.84 5.56-1.24a79.64 79.64 0 0 0 7.97-2.22c9.04-3.25 42.94-27.29 42.94-27.29s15.59-58.47 19.49-76.01c3.9-17.54-8.44-73.41-11.05-82.5-2.6-9.1-23.39-13-37.68-17.54-10.66-3.39-39.02 5.87-52.75 10.79L745.8 713.88l0.27 0.01z m22.92-190.52l1.92-0.49c1.92-0.49 38.07-13.16 46.26-10.67 8.19 2.48 20.87 13.11 20.87 13.11s2.12 24.36 7 42.39 0.97 46.77 0 56.04-16.57 49.69-33.62 61.92c-17.05 12.22-53.73 19.93-53.73 19.93l11.3-182.23z m-56.25 199.72l-0.02 0.22a94.06 94.06 0 0 1 12.11-15.75l-0.05-0.02s-6.47 6.47-12.04 15.55z m-18.75-133.5c0-8.77-3.41-46.26-3.9-58.45-0.49-12.18-10.23-15.1-18.52-19.97-8.28-4.87-15.1-21.19-13.16-40.66 1.95-19.48-7.8-28.39-12.18-36.18 4.39 7.8 14.12 16.53 12.17 36.01-1.95 19.47 4.86 35.52 13.15 40.39 8.28 4.87 18.02 7.29 18.51 19.47 0.49 12.18 3.87 50.61 3.87 59.38 0 8.77 0.93 49.74 6.29 49.74h0.08c-5.34 0.01-6.31-40.96-6.31-49.73z m197.91 91.97c-8.44-26.8 0.59-63.3 5.49-97.74-4.9 34.44-13.93 70.94-5.49 97.74z m-436.09-95.34l-1.96-67.73 1.96 67.73z m65.05-18.68l0.01 0.08a4.05 4.05 0 0 1 4.04-3.97c0.15 0 0.27 0.07 0.42 0.08v-0.05c-0.14-0.02-0.27-0.12-0.42-0.12a4 4 0 0 0-4.05 3.98z m0 119.22c0 0.11 0.06 0.21 0.07 0.33a7.76 7.76 0 0 1 7.73-7.48l0.04 0.01-0.04-1.31c-4.31 0-7.8 4.14-7.8 8.45z m238.37 86.27c0.01-0.02 0.01-0.04 0.04-0.05l-0.06 0.06 0.02-0.01z m138.63-80.96a5.71 5.71 0 0 0-0.75 2.45c0.27-0.76 0.49-1.64 0.75-2.45z" p-id="4504"></path><path d="M912.86 494.39c-17.94-24.67-40.43-44-63.33-54.4-12.68-5.77-30.69-8.69-53.5-8.69-1.44 0-2.83 0.01-4.16 0.03l0.24-0.2 0.04-0.04a56.5 56.5 0 0 0 4.31-4.15c0.59-0.61 1.16-1.22 1.7-1.86l0.03-0.03a42.92 42.92 0 0 0 5.05-7.38c5.82-10.92 12.17-30.8 16.38-43.96l1.38-4.3c10.38-5.69 26-17.21 31.58-37.04 5.77-20.52 9.3-34.39 6.72-49.42 0.17-0.67 0.31-1.35 0.4-2.03 0.46-1.41 0.93-3.41 0.93-5.79 0-4.51-1.93-8.63-5.06-11.5a16.39 16.39 0 0 0-2.66-3.78c-0.42-1-0.95-1.93-1.57-2.82-6.41-16.45-11.57-24.09-14.84-27.73-19.31-41.67-50.12-67.61-91.59-77.13l-19.33-4.45-0.84-0.4c-9.46-14.17-13.03-16.98-14.08-17.8l-1.13-1.04c-6.56-6.08-26.5-24.57-59.79-30.03-32.58-5.35-77.94-9.54-103.25-9.54-2.12 0-4.1 0.03-5.96 0.08-28.06 0.85-42.47 3.89-53.19 11.26l-0.18 0.12c-10.27-10.51-26.33-24.71-41.35-28.66-13.83-3.64-40.57-7.51-62.9-7.51-8.7 0-16.03 0.59-21.78 1.79-14.32 2.96-32.93 10.64-46.52 16.24-5.3 2.18-10.31 4.25-12.58 4.98l-6.58 2.08c-47.06 14.81-67.99 22.06-74.66 25.86-34.95 19.96-53.57 37.84-56.93 54.65a298.46 298.46 0 0 0-4.42 32.36c-9.2 6.87-54.05 42.01-57.36 77.33-3.29 35.04 9.04 73.41 22.01 91.72 6.11 8.6 11.54 13.69 11.54 16.47v0.17c0 0.38-0.37 0.75-0.35 1.13-0.08 1.06-0.21 2.14-0.05 3.23 0.01 0.05-0.07 0.08-0.06 0.11 0.03 0.27 0.08 0.52 0.13 0.79l0.24 1.66c0.01 0.07-0.01 0.14 0.01 0.21a23 23 0 0 0 0.27 1.4l0.08 0.28c0.16 0.69 0.32 1.41 0.46 1.91l0.05 0.2 0.01 0.09c0.03 0.12-0.37 0.44-0.34 0.56 0 0.01-0.47 0.02-0.47 0.04v0.01c0 1.04 1.16 2.1 1.48 2.97 0.11 0.31 0.59 0.94 0.72 1.25 0.01 0.02 0.15 0.03 0.15 0.05 0.39 0.96 0.87 1.89 1.18 2.5 0.1 0.23 0.34 0.69 0.46 0.91l0.04 0.03 0.08 0.17a41.25 41.25 0 0 0 2.1 3.57l0.3 0.48c0.66 0.99 1.41 1.95 2.02 2.7 0.01 0.02 0.01 0.04 0.03 0.05l0.46 0.59 0.02 0.03 0.33 0.41 0.02 0.02 0.12 0.15a41.6 41.6 0 0 0 2.5 2.61l0.94 0.91 0.12 0.12h0.01l0.04 0.05c0.89 0.81 1.9 1.58 2.88 2.31l0.02 0.02 0.48 0.37 0.66 0.5 0.23 0.17 0.01 0.01 0.03 0.02c1.07 0.74 2.25 1.43 3.26 1.99l0.88 0.51 0.09 0.05 0.7 0.38 0.05 0.03 0.09 0.05 0.13 0.05c1.62 0.82 3.33 1.58 5.21 2.27a414.05 414.05 0 0 0 16.43 5.54l3.09 23.69 51.5 394.79a15.7 15.7 0 0 0 3.5 7.99c3.17 3.79 78.62 92.86 162.27 92.86l1.96-0.02c6.28-0.1 12.52-0.43 18.73-0.76 5.04-0.26 9.87-0.52 14.61-0.64 0.87 0.26 1.64 0.49 2.53 0.64 1.07 0.22 2.14 0.36 3.21 0.36a15.3 15.3 0 0 0 4.77-0.82c0.33-0.1 0.66-0.16 0.97-0.28h52.51c1.2 0 2.38 0.15 3.56 0.29l1 0.07c1.9 0.81 3.97 1.29 6.16 1.29l3.08-0.06a15 15 0 0 0 3.3-0.44l2.66 0.01c0.73 0.11 1.46 0.22 2.22 0.22l3.56-0.1c0.41-0.02 0.8-0.11 1.2-0.15l6.27-0.18c0.14 0.01 0.26 0.05 0.4 0.05l3.09-0.11c0.1-0.01 0.18-0.04 0.28-0.04 6.78-0.3 13.2-0.67 19.26-1.15 0.18-0.01 0.36 0.27 0.55 0.25l2.41 0.06h6.62l2.32-0.85 0.74-0.38c1.9-0.22 3.75-0.6 5.54-0.85l2.97-0.51c1.88-0.29 3.66-0.63 6.11-1.09l1.74-0.35c2.56-0.52 5.01-1.08 7.25-1.69 34.61-9.32 80.75-24.1 104.04-41.57 21.69-16.26 51.53-48.62 52.79-49.99a15.56 15.56 0 0 0 4.08-9.53l3.27-49.23a28.2 28.2 0 0 0 5.77-0.99 16.2 16.2 0 0 0 4.02-0.8c0.16-0.02 0.33 1.03 0.49 1.01 0.79 0 1.58 0.9 2.39 0.9h0.1c0.39 0 0.74-0.94 0.74-0.94l2.12-0.26c1.59-0.02 3.09-0.6 4.53-1.04 0.83-0.06 1.77-0.23 2.49-0.31 19-2.28 75.96-24.11 92.96-38.9 1.14-1 2.42-2.1 3.97-3.4a388.3 388.3 0 0 0 4.44-3.83l0.94-0.87a148 148 0 0 0 4.24-3.92l1.11-1.13c1.41-1.4 2.82-2.88 4.23-4.45l1.6-1.83c0.57-0.67 1.14-1.26 1.71-1.97a81.9 81.9 0 0 0 3.06-3.99l0.31-0.39 0.05-0.09a105.59 105.59 0 0 0 11.77-21.13 15.56 15.56 0 0 0 6.11-12.26c0-0.65 0.12-1.89 0.67-3.91 0.59-2.06 0.72-4.33 0.37-6.59 0.15-0.68-0.43-2.13-0.18-3.36 0.01-0.03-0.87-0.06-0.87-0.11v-0.02c0-0.98 1.27-1.81 1.27-1.81 0.49-2.58-0.44-5.32-0.05-8.12l-1.23-0.97v-0.08l2.19-2.38c0.48-3.93 1.79-4.46 2.08-12.26h0.46c0.46 0 1.18-14.36 1.69-21.57 5.1-71.73 7.25-117.02-8.69-138.93zM150.22 385.14l0.02-0.5-0.02 0.5z m0.08 2.88l0.02 0.4-0.02-0.4z m0.21 2.09l0.05 0.36-0.05-0.36z m0.38 2.26z m0.57 2.4l0.11 0.4-0.11-0.4z m358.83 542.45c0.92-0.01 1.83-0.04 2.74-0.06l-2.74 0.06z m11.26-0.27l3.08-0.09-3.08 0.09z m11.12-0.38l2.71-0.11-2.71 0.11z m22.2-1.28l2.33-0.21-2.33 0.21zM904.8 653.63c-0.27 4.04-0.64 7.86-1.09 11.5-0.11 0.82-0.24 1.58-0.35 2.38-0.4 2.86-0.82 5.66-1.32 8.3-0.11 0.58 0.11 1.81 0 2.38-0.58 2.83 0.34 3.15-0.35 5.73l-0.83 2.48c-0.53 1.96-2.06 3.85-3 5.68-0.26 0.81-0.48 1.68-0.75 2.45l-0.17-0.3 0.16 0.34a92.07 92.07 0 0 1-12.52 24.24l0.07 0.03c-0.43 0.59-0.86 1.06-1.29 1.61a77.53 77.53 0 0 1-4.49 5.45 101.3 101.3 0 0 1-3.14 3.32c-0.48 0.48-0.94 0.97-1.42 1.42a114.57 114.57 0 0 1-3.52 3.28l-0.98 0.89c-1.04 0.91-2.04 1.77-3.04 2.6l-1.2 1.03c-1.45 1.22-2.89 2.42-4.18 3.54-14.19 12.35-68.32 33.15-84.56 35.1-1.17 0.14-2.55 0.24-4.02 0.3-0.45 0.02-0.94 0.07-1.41 0.07-1.1 0.02-2.25 0.12-3.48 0.1-0.55-0.01-1.1 0.17-1.67 0.15-1.32-0.04-1.55-0.25-2.96-0.33-0.49-0.02-2.11-0.24-2.61-0.27a274.5 274.5 0 0 1-5.95-0.4l-0.02 1.48-0.02 1.48 0.02-1.48 0.02-1.48 0.01-0.06-0.06 0.06c-4.27-0.34-8.67-0.75-12.97-1.21l-4.51 67.83s-29.88 32.49-50.67 48.08c-20.79 15.59-64.96 29.87-98.74 38.98-1.96 0.53-4.08 1-6.3 1.45-0.71 0.15-1.47 0.27-2.2 0.4-1.58 0.3-3.21 0.59-4.91 0.85-0.89 0.14-1.82 0.27-2.75 0.4-1.69 0.24-3.43 0.46-5.21 0.67l-2.91 0.33 2.91-0.33-2.91 0.32c-2.04 0.22-4.15 0.41-6.3 0.6l-2.33 0.2c-6.09 0.49-12.61 0.86-19.49 1.16-0.88 0.03-1.8 0.04-2.71 0.08-2.63 0.11-5.31 0.14-8.04 0.23-1.02 0.03-2.05-0.05-3.08-0.02-2.79 0.08-5.63-0.08-8.52-0.02-0.91 0.02-1.82-0.42-2.74-0.4-3.52 0.08-7.09-0.73-10.72-0.73h-58.03l-1.89 1.1v-1.06c-12.36 0.11-24.96 1.25-37.68 1.46-77.96 1.3-152.02-87.25-152.02-87.25l-51.5-394.78-4.39-33.63a479.92 479.92 0 0 1-25.27-8.24 33.2 33.2 0 0 1-3.7-1.61c-0.34-0.17-0.6-0.36-0.91-0.53-0.79-0.44-1.58-0.88-2.28-1.36-0.27-0.19-0.5-0.4-0.77-0.6-0.67-0.5-1.35-1-1.94-1.54l-0.6-0.6a29.74 29.74 0 0 1-1.67-1.71c-0.16-0.2-0.29-0.4-0.45-0.59-0.5-0.62-0.98-1.24-1.41-1.87l-0.31-0.51c-0.42-0.67-0.83-1.34-1.18-2.02-0.08-0.15-0.14-0.31-0.21-0.46a31.77 31.77 0 0 1-1.1-2.51c-0.26-0.7-0.5-1.39-0.7-2.07-0.05-0.14-0.07-0.27-0.11-0.4-0.19-0.69-0.36-1.37-0.5-2.03-0.03-0.12-0.03-0.24-0.05-0.37-0.13-0.65-0.21-1.29-0.3-1.9-0.01-0.12 0.04-0.24 0.02-0.36-0.08-0.59-0.02-1.16-0.06-1.69-0.01-0.14 0.23-0.27 0.22-0.4-0.03-0.5 0.42-0.96 0.42-1.39v-1.49c0-0.18-0.48-0.34-0.48-0.5 0.01-0.24-0.48-0.45-0.46-0.63l0.03-0.51 0.02-0.2 0.05-0.43s-2.8-5.06-13.86-20.65-21.83-50.06-18.91-81.25c2.92-31.18 52.13-67 52.13-67l4.87-3.41v-1.95s0.97-17.86 4.54-35.74c3.57-17.86 40.28-38.98 49.38-44.17 9.1-5.19 69.19-23.71 78.28-26.63 9.09-2.92 38.66-16.9 57.49-20.8 18.83-3.9 59.04 0.65 77.56 5.53 18.52 4.87 43.36 34.59 43.36 34.59s3.17-2.92 10.96-8.28c7.8-5.36 20.46-7.8 44.83-8.53 24.36-0.73 73.57 3.9 106.22 9.26 32.64 5.36 50.19 25.09 53.6 27.77 3.41 2.68 13.32 17.96 13.32 17.96l5.52 2.58s-37.68-8.44 21.77 5.21 77.63 62.03 82.18 71.14c4.39 3.55 10.13 15.73 14.43 27.33-3.24 22.7-9.69 62.52-15.9 68.73-8.77 8.77-31.43 24.24-35.32 29.11 3.9-4.87 26.68-20.34 35.45-29.11 6.17-6.17 12.69-45.48 15.95-68.26l-0.15-0.43 0.15 0.43 0.07-0.47c0.01 0.02 0.24 0.03 0.26 0.05 0.58 1.56 1.61 3.11 2.12 4.63 0.01 0.05 0.98 0.08 1 0.13 0.32 0.95-1.42 1.88-0.98 2.8l0.02 0.05c0.31 0.56 1.44 1.1 4.35 1.64v0.05c0 1.29-1.13 2.53-0.79 3.72 0.08 0.26-1.76 0.51-1.69 0.76 0.33 1.19 0.62 2.33 0.86 3.35 2.92 12.67 0 24.36-5.85 45.16-5.85 20.78-28.1 29.55-29.07 30.04-0.97 0.49-11.21 37.52-19 52.13a28.8 28.8 0 0 1-3.27 4.74c-0.42 0.5-0.91 0.96-1.36 1.45a40.5 40.5 0 0 1-8.03 6.59c-0.77 0.5-1.52 1.01-2.33 1.49a96.5 96.5 0 0 1-9.79 4.91l-1.37 20.65 2.38-0.5 0.42-0.08c2.05-0.41 4-0.79 5.72-1.11l0.83-0.14 1.65-0.28 0.71-0.11c0.67-0.11 1.29-0.18 1.78-0.24 6.49-0.65 44.83-3.25 66.26 6.49 21.44 9.74 41.58 27.94 57.17 49.38 15.55 21.4 8.41 90.26 4.51 150.03z" p-id="4505"></path><path d="M490.98 902.6l-0.86 0.05-31.81 22.63-16.86 10.29h0.09l16.77-9.74 32.67-23.23z" p-id="4506"></path><path d="M678.79 583.13L663.2 696.58a13.58 13.58 0 0 1 11.64-6.61 13.66 13.66 0 1 1 0 27.32 13.61 13.61 0 0 1-13.11-10.03l-7.51 54.65c10.35 6.74 18.04 14.15 22.53 22.04 3.74-8.31 7.84-18.74 12.86-32.07 11.08-24.72 10.62-69.69 8.31-102.9-5.49-5.92-8.17-28.56-9.52-50.14l-9.61-15.71z" fill="#FDAF40" p-id="4507"></path><path d="M464.7 874.65a5.77 5.77 0 0 1-5.56 4.4 5.77 5.77 0 0 1-5.68-5.02c-91.43-6.12-160.96-36.87-160.96-73.91 0-15.77 12.64-30.41 34.18-42.48l-39.42-216.29c-3.22-17.66 9.62-34.81 28.68-38.28 19.07-3.47 37.12 8.03 40.34 25.7l37.45 205.48c20.14-4.25 42.45-7.16 66.12-8.43l-3.74-128.76a9.86 9.86 0 0 1-8.38 4.84 10.03 10.03 0 1 1 0-20.06c3.4 0 6.26 1.8 8.07 4.39l-1.96-67.73v-0.01c-0.53-17.94 14.75-32.96 34.11-33.52 19.37-0.56 35.53 13.53 36.05 31.47l1.4 47.25v0.05c0 0.22 3.61 1.88 3.61 3.97 0 2.01-1.5 3.59-3.41 3.93l3.09 106.67h-0.04l0.04 1.31a7.75 7.75 0 1 1 0.46 15.49l0.92 31.86a412.47 412.47 0 0 1 56.92 8.82l27.09-197.04c-3.29-23.46-4.86-53.37-4.86-53.37l-50.02 0.67-37.66-16.86-46.1 14.35s-49.96 18.96-77.9 16.37c-27.93-2.6-36.91-15.35-51.85-22.5-14.94-7.15-60.82 3.08-93.31-2.76-9.3-1.67-18.8-4.64-27.69-7.99l52.94 338.59s29.36 43.24 32.28 43.24 53.66 23.08 63.4 25.52c9.74 2.44 70.68 16.66 70.68 16.66l29.25 4.92 30.7-2.45 3.26-2.38c6.84-5.74 15.77-11.74 25.85-17.74a494.16 494.16 0 0 1-68.35 1.63z m98.34-270.64a2.15 2.15 0 1 1 0-4.3 2.15 2.15 0 0 1 0 4.3z m8.05 47.26a5.9 5.9 0 1 1 0-11.8 5.9 5.9 0 0 1 0 11.8z m14.25-69.43a10.07 10.07 0 1 1-20.13 0 10.07 10.07 0 0 1 20.13 0z m-21.5-84.13a7.25 7.25 0 1 1 0 14.5 7.25 7.25 0 0 1 0-14.5z m-25.11 89.65a6.17 6.17 0 1 1 0 12.35 6.17 6.17 0 0 1 0-12.35z m-111.09-49.37a4.22 4.22 0 1 1 0 8.44 4.22 4.22 0 0 1 0-8.44z m-18.84 179.3a6.83 6.83 0 1 1 0-13.67 6.83 6.83 0 0 1 0 13.67z m-4.5-94.2a10.11 10.11 0 1 1 0 20.22 10.11 10.11 0 0 1 0-20.22z m-11.1-63.01c1.97 0 3.58 1.6 3.58 3.57a3.58 3.58 0 0 1-7.15 0c0-1.97 1.6-3.57 3.57-3.57z m-66.5-74.23a5.93 5.93 0 1 1 0 11.86 5.93 5.93 0 0 1 0-11.86z m-68.62 15.11a10.06 10.06 0 1 1-0.01-20.13 10.06 10.06 0 0 1 0.01 20.13z" fill="#FDAF40" p-id="4508"></path><path d="M441.45 935.57l16.86-10.29 31.81-22.63-33.9 1.74h-63.34s-40.44-3.41-72.11-29.72-47.26-36.06-50.67-49.7c-3.04-12.15-38.17-296.55-45.8-358.47a268.8 268.8 0 0 1-25.83-11.47l51.5 394.78s74.06 88.56 152.02 87.25c12.72-0.21 25.32-1.35 37.68-1.46v-0.04c-0.02 0.01 1.73 0.01 1.78 0.01z m-72.61-14.93l-63.02-25.99s-23.38-12.34-32.48-25.98c-9.1-13.64-25.99-58.47-22.74-89.32l19.49 70.97s44.82 30.29 55.22 34.19c10.4 3.9 59.12 26.52 64.32 29.11 5.2 2.6 11.69 7.08 26.64 6.43 14.94-0.65 39.63 1 39.63 1l-3.9 6.73h-35.73l-47.43-7.14z" fill="#FDAF40" p-id="4509"></path><path d="M654.22 761.91l-3.79 27.6c-2.45 17.8-19.98 30.09-39.18 27.45-19.2-2.64-32.77-19.2-30.31-36.99l6.07-44.17a412.47 412.47 0 0 0-56.92-8.82l1.23 42.29c0.53 17.95-14.74 32.95-34.11 33.51-19.38 0.56-35.49-13.53-36.02-31.49l-1.32-45.46c-23.67 1.27-45.98 4.18-66.12 8.43l7.89 43.33c3.23 17.67-9.61 34.8-28.67 38.28-19.07 3.48-37.12-8.03-40.35-25.7l-5.92-32.52c-21.55 12.07-34.18 26.71-34.18 42.48 0 37.04 69.53 67.79 160.96 73.91-0.05-0.28-0.17-0.53-0.17-0.82a5.85 5.85 0 0 1 11.7 0c0 0.52-0.17 0.97-0.29 1.45a490.76 490.76 0 0 0 68.36-1.65c43.52-25.91 108.52-51.94 120-58.27 9.58-5.28 15.8-13.29 23.68-30.79-4.51-7.9-12.19-15.31-22.54-22.05z m-333.45 48.28a5.85 5.85 0 1 1 0-11.7 5.85 5.85 0 0 1 0 11.7z m94.85 50.68a7.8 7.8 0 1 1 0-15.6 7.8 7.8 0 0 1 0 15.6z m24.84-35.09a8.6 8.6 0 1 1 0-17.2 8.6 8.6 0 0 1 0 17.2z m68.71 31.83a4.56 4.56 0 1 1 0-9.12 4.56 4.56 0 0 1 0 9.12z m41.57-72.13a5.85 5.85 0 1 1 0-11.7 5.85 5.85 0 0 1 0 11.7z m10.15 40.3a4.3 4.3 0 1 1 0-8.6 4.3 4.3 0 0 1 0 8.6z" fill="#F59F2B" p-id="4510"></path><path d="M222.83 454.67l1.87 11.98c8.88 3.36 18.39 6.32 27.69 7.99 32.49 5.85 78.36-4.39 93.31 2.76 14.94 7.15 23.92 19.89 51.85 22.5 27.93 2.6 77.9-16.37 77.9-16.37l46.1-14.35 37.66 16.86 50.02-0.67s1.57 29.91 4.86 53.37l1.28-9.33c1.2-8.71 6.04-16.05 12.88-21.02-0.63-29.16 0.46-66.88 0.46-66.88s-41.9 2.92-76.01-2.44c-34.11-5.36-71.14-35.57-71.14-35.57s-10.72 10.71-36.06 32.15c-25.34 21.44-48.72 24.35-99.39 28.25-50.67 3.9-84.77-32.16-84.77-32.16s0.01-0.02-13.63 0.95c-9.35 0.67-32.86-5.09-53.63-11.29l4.39 33.63c6.97 3.52 16 7.73 25.83 11.47l-1.47-11.83zM709.6 762.72c-2.54 31.38-4.7 56-5.38 57.86-1.95 5.36-24.36 23.39-24.36 23.39l-14.13 5.85h-19s9.84-4.29 24.45-13.55c14.62-9.26 20.56-18.42 20.56-18.42l18.21-133.81 4.37-26.37c-4.64 2.68-6.87 0.42-16.1-8.27-0.11-0.1-0.2-0.3-0.3-0.41 2.31 33.21 2.78 78.18-8.31 102.9-5.02 13.33-9.12 23.75-12.86 32.07-7.88 17.49-14.11 25.5-23.68 30.79-11.47 6.33-76.48 32.36-120 58.27-10.08 6-19 12-25.85 17.74l-3.26 2.38 30.21-2.4c30.7-2.44 63.84-8.76 63.84-8.76L541.48 900l-50.51 2.6-32.67 23.23-16.77 9.74h58.03c3.63 0 7.2 0.81 10.72 0.73 0.92-0.02 1.83 0.42 2.74 0.4 2.89-0.06 5.73 0.09 8.52 0.02 1.04-0.03 2.06 0.05 3.08 0.02 2.73-0.08 5.41-0.12 8.04-0.23 0.91-0.04 1.83-0.05 2.71-0.08 6.88-0.3 13.4-0.68 19.49-1.16l2.33-0.2c2.15-0.19 4.26-0.38 6.3-0.6l2.91-0.32c1.78-0.21 3.52-0.43 5.21-0.67 0.93-0.13 1.86-0.26 2.75-0.4 1.7-0.27 3.33-0.55 4.91-0.85 0.73-0.14 1.49-0.26 2.2-0.4 2.22-0.45 4.35-0.93 6.3-1.45 33.78-9.11 77.95-23.39 98.74-38.98 20.79-15.59 50.67-48.08 50.67-48.08l4.51-67.83c-15.05-1.61-28.55-3.63-28.55-3.63s-0.03-0.11-3.54-9.14z" fill="#EF9221" p-id="4511"></path><path d="M441.45 935.57h-1.8v1.1l1.89-1.1h-0.09z m320.94-505.05c-1.69 0.71-3.46 1.38-5.24 2.05l-1.47 0.56c-2.03 0.75-4.08 1.47-6.18 2.18a511.65 511.65 0 0 1-13.12 4.27c0 21.93-10.72 50.67-10.72 50.67s2.09 74.46 3 114.73l0.01 0.38 0.13 6.03-0.13-6.03-0.01-0.38c-0.15-6.5-0.32-13.89-0.52-21.73l-0.32 1.45c0.23 9.97 0.27 19.19 0.27 26.68v0.43c0 1.61 0.43 3.13 0.45 4.57 0.01 0.18-0.3 0.36-0.24 0.55 0.06 0.16-0.21 0.31-0.21 0.46v1.09c0 1.01 0.45 2.04 0.46 2.95 0.01 0.29-0.03 0.55-0.14 0.81-0.02 0.08 0.03 0.17 0.03 0.25 0.02 0.91-0.35 1.76-0.35 2.52v0.87c0 0.94 0.5 1.78 0.5 2.42 0 16.12-3.85 21.47-10.67 26.84-1.44 19.04-3.3 43.58-5.19 67.96 5.57-9.08 12.04-15.55 12.04-15.55l0.05 0.02 0.01-0.02 0.81 0.38a98.35 98.35 0 0 0 2.38 1.02c0.76 0.32 1.68 0.67 2.7 1.05l0.74 0.27c1.19 0.43 2.54 0.88 4.01 1.35l1 0.3c1.62 0.49 3.34 0.99 5.25 1.46 0.94 0.24 2.17 0.37 3.52 0.46l0.55 0.03 13.35-200.83c-4.67 1.67-7.67 2.85-7.67 2.85s-6.49 1.95-14.29-21.44c-7.8-23.39 7.8-40.28 7.8-40.28s9.49-2.19 18.35-4.04l1.37-20.65-0.28 0.13c-0.68 0.31-1.33 0.62-2.03 0.91z m-33.58 181.29z m0.12 5.58l0.08 4.04-0.08-4.04z m0.09 5.09z m0.04 3.39l0.02 2.42-0.02-2.42z m-40.67-27.03c-1.29-20.6-1.38-40.17-1.54-43-0.33-5.85-2.6-8.12-2.6-8.12l-0.69 0.7-4.77 34.7 9.6 15.72z" fill="#EF9221" p-id="4512"></path><path d="M455.89 921.05s-24.68-1.65-39.63-1c-14.94 0.65-21.44-3.84-26.64-6.43-5.2-2.6-53.92-25.21-64.32-29.11-10.4-3.9-55.22-34.19-55.22-34.19l-19.49-70.97c-3.25 30.86 13.64 75.68 22.74 89.32 9.1 13.64 32.48 25.98 32.48 25.98l63.02 25.99 47.42 7.14h35.73l3.91-6.73z" fill="#EF9322" p-id="4513"></path><path d="M444.01 890.66s-60.94-14.22-70.68-16.66c-9.74-2.44-60.48-25.52-63.4-25.52s-32.28-43.24-32.28-43.24L224.7 466.65l-1.87-11.98 1.46 11.83c7.63 61.92 42.76 346.32 45.8 358.47 3.41 13.64 19 23.39 50.67 49.7 31.67 26.31 72.11 29.72 72.11 29.72h63.34l33.9-1.74 0.86-0.05 50.51-2.6L598 881.96s-33.14 6.33-63.84 8.76l-30.21 2.4-30.7 2.45-29.24-4.91z" fill="#FEE268" p-id="4514"></path><path d="M717.93 655.13c-0.19 0.14-0.36 0.3-0.55 0.45a28.64 28.64 0 0 1-3.07 2.09l-4.37 26.37-18.21 133.81s-5.94 9.17-20.56 18.42c-14.62 9.26-24.45 13.55-24.45 13.55h19l14.13-5.85s22.41-18.03 24.36-23.39c0.68-1.86 2.84-26.48 5.38-57.86l-1-2.56c-7.68-11.88-2.4-26.16 4.12-36.85l0.02-0.22c1.91-24.38 3.76-48.92 5.2-67.96z" fill="#F9BE41" p-id="4515"></path><path d="M315.95 503.07c-19.06 3.47-31.9 20.62-28.68 38.28l39.42 216.29c17.25-9.68 40.22-17.72 67.05-23.39l-37.45-205.48c-3.22-17.67-21.27-29.17-40.34-25.7z" fill="#FDAF40" p-id="4516"></path><path d="M315.95 503.07c-19.06 3.47-31.9 20.62-28.68 38.28l39.42 216.29c17.25-9.68 40.22-17.72 67.05-23.39l-37.45-205.48c-3.22-17.67-21.27-29.17-40.34-25.7z" fill="#FFFFFF" opacity=".35" p-id="4517"></path><path d="M332.61 790.15c3.23 17.67 21.28 29.18 40.35 25.7 19.06-3.48 31.9-20.61 28.67-38.28l-7.89-43.33c-26.83 5.66-49.8 13.7-67.05 23.39l5.92 32.52z" fill="#F59F2B" p-id="4518"></path><path d="M332.61 790.15c3.23 17.67 21.28 29.18 40.35 25.7 19.06-3.48 31.9-20.61 28.67-38.28l-7.89-43.33c-26.83 5.66-49.8 13.7-67.05 23.39l5.92 32.52z" fill="#FFFFFF" opacity=".35" p-id="4519"></path><path d="M528.66 695.2a7.8 7.8 0 0 1-7.8-7.8c0-0.11 0.06-0.21 0.07-0.32-0.01-0.11-0.07-0.22-0.07-0.33 0-4.31 3.49-8.45 7.8-8.45h0.04l-3.11-109.14h-0.02c-0.22 0-0.42 1.36-0.65 1.36-2.24 0-4.06-1.2-4.06-3.44l0.01 0.22-0.01 0.08c0-2.24 1.82-3.9 4.06-3.9 0.15 0 0.27 0.15 0.42 0.17l-1.37-47.25c-0.52-17.94-16.63-32.02-36.01-31.46-19.37 0.56-34.64 15.58-34.11 33.53l1.96 67.74a9.81 9.81 0 0 1 1.96 5.65 9.8 9.8 0 0 1-1.65 5.19l3.74 128.76a499.45 499.45 0 0 1 70.22 1.14l-0.92-31.86c-0.18 0.03-0.33 0.11-0.5 0.11z" fill="#FDAF40" p-id="4520"></path><path d="M528.66 695.2a7.8 7.8 0 0 1-7.8-7.8c0-0.11 0.06-0.21 0.07-0.32-0.01-0.11-0.07-0.22-0.07-0.33 0-4.31 3.49-8.45 7.8-8.45h0.04l-3.11-109.14h-0.02c-0.22 0-0.42 1.36-0.65 1.36-2.24 0-4.06-1.2-4.06-3.44l0.01 0.22-0.01 0.08c0-2.24 1.82-3.9 4.06-3.9 0.15 0 0.27 0.15 0.42 0.17l-1.37-47.25c-0.52-17.94-16.63-32.02-36.01-31.46-19.37 0.56-34.64 15.58-34.11 33.53l1.96 67.74a9.81 9.81 0 0 1 1.96 5.65 9.8 9.8 0 0 1-1.65 5.19l3.74 128.76a499.45 499.45 0 0 1 70.22 1.14l-0.92-31.86c-0.18 0.03-0.33 0.11-0.5 0.11z" fill="#FFFFFF" opacity=".35" p-id="4521"></path><path d="M459.86 725.82l1.32 45.46c0.53 17.96 16.64 32.05 36.02 31.49 19.37-0.56 34.64-15.56 34.11-33.51l-1.23-42.29a493.78 493.78 0 0 0-70.22-1.15z" fill="#F59F2B" p-id="4522"></path><path d="M459.86 725.82l1.32 45.46c0.53 17.96 16.64 32.05 36.02 31.49 19.37-0.56 34.64-15.56 34.11-33.51l-1.23-42.29a493.78 493.78 0 0 0-70.22-1.15z" fill="#FFFFFF" opacity=".35" p-id="4523"></path><path d="M654.22 761.91l7.51-54.65a13.55 13.55 0 0 1-0.55-3.62c0-2.59 0.76-4.99 2.02-7.05l15.59-113.45-12.66-20.74c-7.84 5.4-13.73 7.89-21.51 6.78-0.77-0.11-1.41-0.4-2.06-0.65-8.49 2.98-14.12 2.18-21-2.59-3.1-2.15-5.57-13.58-7.48-27.18L587 735.79c27.63 6.41 50.77 15.41 67.22 26.12z" fill="#FDAF40" p-id="4524"></path><path d="M654.22 761.91l7.51-54.65a13.55 13.55 0 0 1-0.55-3.62c0-2.59 0.76-4.99 2.02-7.05l15.59-113.45-12.66-20.74c-7.84 5.4-13.73 7.89-21.51 6.78-0.77-0.11-1.41-0.4-2.06-0.65-8.49 2.98-14.12 2.18-21-2.59-3.1-2.15-5.57-13.58-7.48-27.18L587 735.79c27.63 6.41 50.77 15.41 67.22 26.12z" fill="#FFFFFF" opacity=".35" p-id="4525"></path><path d="M580.93 779.96c-2.45 17.79 11.12 34.35 30.31 36.99 19.2 2.64 36.73-9.65 39.18-27.45l3.79-27.6c-16.45-10.71-39.59-19.71-67.22-26.12l-6.06 44.18z" fill="#F59F2B" p-id="4526"></path><path d="M580.93 779.96c-2.45 17.79 11.12 34.35 30.31 36.99 19.2 2.64 36.73-9.65 39.18-27.45l3.79-27.6c-16.45-10.71-39.59-19.71-67.22-26.12l-6.06 44.18z" fill="#FFFFFF" opacity=".35" p-id="4527"></path><path d="M683.56 548.43c-1.49 1.48-5.56 5.27-13.28 10.99a126.81 126.81 0 0 1-4.15 2.97l12.66 20.74 4.77-34.7z" fill="#EF9221" p-id="4528"></path><path d="M683.56 548.43c-1.49 1.48-5.56 5.27-13.28 10.99a126.81 126.81 0 0 1-4.15 2.97l12.66 20.74 4.77-34.7z" fill="#FFFFFF" opacity=".35" p-id="4529"></path><path d="M642.56 568.51c-7.2-2.76-8.66-13.87-12.23-30.53-1.19-5.56-1.8-16.75-2.09-29.59-6.84 4.97-11.69 12.31-12.88 21.02l-1.28 9.33c1.9 13.6 4.38 25.03 7.48 27.18 6.87 4.77 12.51 5.58 21 2.59z" fill="#EF9221" p-id="4530"></path><path d="M642.56 568.51c-7.2-2.76-8.66-13.87-12.23-30.53-1.19-5.56-1.8-16.75-2.09-29.59-6.84 4.97-11.69 12.31-12.88 21.02l-1.28 9.33c1.9 13.6 4.38 25.03 7.48 27.18 6.87 4.77 12.51 5.58 21 2.59z" fill="#FFFFFF" opacity=".35" p-id="4531"></path><path d="M896.06 692.41c-7.8-3.55-2.51-5.66-4.16-10.85-8.44-26.8 0.59-63.3 5.49-97.74 0.33-2.29 0.64-4.58 0.92-6.85 4.54-36.38-6.49-50.67-25.98-76.01-19.49-25.34-56.52-29.23-77.96-29.23-12.42 0-22.42-11.98-28.66-22.07l-2.38 0.5c-8.85 1.84-18.35 4.04-18.35 4.04s-15.59 16.89-7.8 40.28c7.8 23.39 14.29 21.44 14.29 21.44s2.99-1.18 7.67-2.85c13.73-4.92 42.09-14.18 52.75-10.79 14.29 4.54 35.07 8.44 37.68 17.54 2.6 9.1 14.94 64.96 11.05 82.5-3.9 17.54-19.49 76.01-19.49 76.01s-33.9 24.03-42.94 27.29a85.5 85.5 0 0 1-7.97 2.22v0.01c-0.24 11.63-3.65 12.07-7.23 15-3.58 2.92-18.19 5.19-24.36 5.19-6.17 0-11.69 7.14-14.62 12.35-2.92 5.19 7.48 13.31 13.64 17.21 6.17 3.9 20.46 4.23 28.26 3.26 7.8-0.97 61.39-25.34 67.57-30.21 6.17-4.87 21.44-13 27.61-12.67 1.7 0.08 2.79 0.4 3.49 0.86a92.67 92.67 0 0 0 12.52-24.24l-0.16-0.34-0.26-0.5-0.62-1.35z m-136.78-201.2v10.07s-9.82-11.53-12.42-19.65c-2.59-8.12 10.32-22.91 10.32-22.91s2.44-1.62 2.12 1.63 0 7.15-1.3 10.72c-1.3 3.57-2.28 8.93-2.28 8.93l3.58 1.46 5.85 1.3s54.89-4.23 61.06-2.76c6.17 1.46 23.39 12.51 23.39 12.51s-23.71-9.1-27.93-10.07c-4.23-0.97-62.39 8.77-62.39 8.77z m114.01 131.07c-3.9 27.29-8.51 55.55-19.12 63.83-10.61 8.28-55.43 35.08-55.43 35.08s47.51-37.27 53.11-47.99c5.6-10.72 14.13-43.12 14.13-62.37s0-62.37-4.14-76.74c-4.14-14.37-11.94-25.09-16.32-28.99-4.39-3.9-11.69-9.7-11.69-9.7s31.18 14.82 34.11 32.36c2.92 17.53 9.25 67.23 5.35 94.52z m10.07 98.17z m-4.49 5.45z m-9.08 8.91z m4.51-4.17z" fill="#ECDDC6" p-id="4532"></path><path d="M759.2 773.03l0.06-0.06c2.13-2.44 0.67-4.69 0.67-4.69l-15.92-1.61s4.87-1.95 5.2-3.9c0.33-1.95-18.84-12.03-23.71-15.93s9.43-19.15 11.69-20.78c2.27-1.63 0.65-1.95 2.28-3.9 1.62-1.95-2.92-4.55-9.42-8.45-2.23-1.33-3.57-3.52-4.44-5.8l0.05 0.01-0.81-0.38-0.01 0.02c-0.11 0.11-6.55 6.62-12.11 15.75-6.52 10.7-11.8 24.98-4.12 36.85l1 2.56 3.55 9.14s13.5 2.03 28.55 3.63c4.29 0.46 8.69 0.88 12.97 1.21l0.06-0.06c1-7.63 3.72-2.89 4.46-3.61z m-13.94-59.18l0.81 0.05-0.27-0.02-0.54-0.03z" fill="#ECDDC6" p-id="4533"></path><path d="M843.09 454.18c-21.44-9.74-59.77-7.14-66.26-6.49-0.49 0.05-1.11 0.13-1.78 0.24l-0.71 0.11-1.65 0.28-0.83 0.14c-1.72 0.32-3.67 0.7-5.72 1.11l-0.42 0.08c6.24 10.1 16.24 22.07 28.66 22.07 21.44 0 58.47 3.9 77.96 29.23 19.49 25.34 30.53 39.63 25.98 76.01-0.28 2.27-0.59 4.56-0.92 6.85-4.9 34.44-13.92 70.95-5.49 97.74 1.64 5.18-3.64 7.3 4.16 10.85l0.62 1.31 0.26 0.5 0.17 0.3c0-0.79 0.34-1.61 0.75-2.45 0.94-1.83 2.47-3.71 3-5.68l0.83-2.48c0.69-2.57-0.23-2.89 0.35-5.73 0.11-0.56-0.11-1.8 0-2.38 0.5-2.63 0.93-5.44 1.32-8.3 0.11-0.81 0.24-1.56 0.35-2.38 0.45-3.65 0.82-7.47 1.09-11.5 3.9-59.77 11.04-128.63-4.55-150.07-15.6-21.42-35.74-39.61-57.17-49.36z" fill="#FFFFFF" p-id="4534"></path><path d="M826.2 480c-6.17-1.46-61.06 2.76-61.06 2.76l-5.85-1.3-3.58-1.46s0.97-5.36 2.28-8.93c1.3-3.57 0.98-7.47 1.3-10.72s-2.12-1.63-2.12-1.63-12.9 14.78-10.32 22.91c2.6 8.12 12.42 19.65 12.42 19.65v-10.07s58.16-9.74 62.37-8.77c4.22 0.97 27.93 10.07 27.93 10.07s-17.2-11.04-23.37-12.51z m7.63 15.4s7.31 5.8 11.69 9.7c4.39 3.9 12.18 14.62 16.32 28.99 4.14 14.37 4.14 57.49 4.14 76.74 0 19.25-8.53 51.65-14.13 62.37-5.6 10.72-53.11 47.99-53.11 47.99s44.83-26.8 55.43-35.08c10.6-8.28 15.22-36.54 19.12-63.83 3.9-27.29-2.44-76.98-5.36-94.52-2.92-17.55-34.1-32.36-34.1-32.36z" fill="#A68A64" p-id="4535"></path><path d="M853.48 730.61c-6.17 4.87-59.77 29.23-67.57 30.21-7.8 0.97-22.09 0.64-28.26-3.26-6.17-3.9-16.57-12.01-13.64-17.21 2.92-5.21 8.44-12.35 14.62-12.35 6.17 0 20.78-2.27 24.36-5.19 3.58-2.92 6.99-3.37 7.23-15v-0.01c-1.7 0.4-3.59 0.82-5.56 1.24l-0.5 0.11c-1.96 0.41-4.02 0.82-6.14 1.21l-0.68 0.13c-4.25 0.78-8.7 1.51-13.02 2.09l-1.06 0.14c-2.09 0.27-4.13 0.52-6.1 0.7l-0.6 0.06a131.1 131.1 0 0 1-5.98 0.41c-1.65 0.06-3.16 0.06-4.53 0.01l-0.81-0.05a20.85 20.85 0 0 1-3.52-0.46 107.93 107.93 0 0 1-10.26-3.11l-0.74-0.27a72.68 72.68 0 0 1-2.7-1.05l-0.4-0.15c-0.84-0.36-1.52-0.65-1.98-0.87l-0.05-0.01c0.87 2.28 2.21 4.47 4.44 5.8 6.49 3.9 11.04 6.5 9.42 8.45-1.62 1.95-0.01 2.27-2.28 3.9s-16.57 16.89-11.69 20.78 24.04 13.98 23.71 15.93c-0.33 1.95-5.2 3.9-5.2 3.9l15.92 1.61s1.46 1.68-0.67 4.1c-0.02 0.02-0.02-0.53-0.04-0.53h-0.02c-0.75 0-3.46-3.43-4.48 4.2l-0.01 0.35c2.03 0.15 4.02 0.43 5.95 0.54 0.5 0.03 2.12 0.33 2.61 0.35 1.42 0.07 1.64 0.33 2.96 0.36 0.57 0.02 1.13-0.14 1.67-0.14 1.23 0.02 2.38-0.06 3.48-0.08l1.41-0.08a48.5 48.5 0 0 0 4.02-0.29c16.24-1.95 70.37-22.75 84.56-35.1 1.29-1.12 2.73-2.32 4.18-3.54l1.2-1.03 3.04-2.6 0.98-0.89c1.16-1.04 2.34-2.12 3.52-3.28 0.48-0.46 0.94-0.94 1.42-1.42a92.56 92.56 0 0 0 4.87-5.31 91 91 0 0 0 2.76-3.46c0.43-0.56 0.87-1.03 1.29-1.61l-0.07-0.03c-0.7-0.46-1.78-0.78-3.49-0.86-6.13-0.34-21.39 7.79-27.57 12.66z m-98.79 47.57l-0.02 1.48 0.02-1.48z m0.02-1.48l-0.02 1.48 0.02-1.48z" fill="#A68A64" p-id="4536"></path><path d="M161.47 389.38c6.79 5.36 37 3.41 48.21 0s45.8 1.95 63.83 9.26 74.55 15.1 109.63 11.21c35.08-3.9 72.11-15.1 86.73-29.72 14.62-14.62 26.31-24.57 44.34-10.83 18.03 13.75 42.88 38.11 60.9 38.11 18.03 0 45.31-6.82 53.6-1.95 8.28 4.87 13.16 20.95 17.54 28.75 4.39 7.8 14.13 16.59 12.18 36.07-1.95 19.47 4.87 35.55 13.16 40.43 8.28 4.87 18.03 7.31 18.52 19.49 0.49 12.18 3.9 48.72 3.9 57.49 0 8.77 0.97 47.91 6.33 47.84 5.34-0.09 11.07-0.17 17.37-14.71 3.5-8.09 7.27-24.51 10.1-37.58l0.03 1.45 0.32-1.45c0.2 7.83 0.37 15.23 0.52 21.73-0.91-40.27-3-114.73-3-114.73s10.72-28.75 10.72-50.67c4.51-1.41 8.89-2.85 13.19-4.32 6.79-4.62 9.67-15.05 14.71-26.81 5.85-13.64 18.64-39.89 22.54-44.77 3.9-4.87 26.55-20.34 35.32-29.11 6.21-6.21 12.67-46.03 15.9-68.73-4.31-11.6-10.04-23.78-14.43-27.33-4.55-9.11-22.74-57.49-82.18-71.14s-21.77-5.21-21.77-5.21l-5.52-2.58s-9.91-15.28-13.32-17.96c-3.41-2.68-20.95-22.41-53.6-27.77-32.65-5.36-81.86-9.99-106.22-9.26-24.36 0.73-37.03 3.17-44.83 8.53-7.8 5.36-10.96 8.28-10.96 8.28s-24.85-29.72-43.36-34.59c-18.52-4.87-58.72-9.43-77.56-5.53-18.83 3.9-48.4 17.88-57.49 20.8-9.09 2.92-69.18 21.44-78.28 26.63-9.1 5.19-45.81 26.31-49.38 44.17-3.57 17.88-4.54 35.74-4.54 35.74v1.95l-4.87 3.41s-49.21 35.81-52.13 67c-2.92 31.18 7.86 65.65 18.91 81.25s13.86 20.65 13.86 20.65-0.01 0.18-0.05 0.43l0.04-0.34c3.54 1.62 7.83 3.85 11.09 6.42z m186.69-25.83c-7.8 2.44-26.36 8.63-42.44 2.6-16.08-6.01-25.36-19.66-32.18-24.04-6.82-4.39-29.01-19.49-25.6-31.18 3.41-11.69 51.39-55.55 51.39-55.55v5.36s-30.45 29.23-27.04 40.44 10.35 29.72 28.87 38c18.52 8.28 33.68 9.26 47.81 9.74 14.13 0.49 36.33-2.92 36.33-2.92s-29.35 15.12-37.14 17.55z m450.1-108.16v14.64s-9.12 37.01-16.92 49.68c-7.8 12.67-12.04 12.67-17.4 12.67s-19.7 9.26-19.7 9.26 7.37-8.77 12.73-13.16c5.36-4.39 11.82-17.54 15.86-20.46 4.04-2.93 25.43-52.63 25.43-52.63z m-94.04-28.26c-12.18-16.08-64.8-29.23-64.8-29.23s16.08 0 28.75-2.44c12.67-2.44 38.98 3.41 50.19 8.77 11.21 5.36 24.85 26.8 29.23 36.54 4.39 9.74 18.03 13.16 25.82 24.36 7.8 11.21-27.29 51.16-40.44 63.83-13.16 12.67-24.85 17.05-38.98 16.08-14.13-0.97-21.44-9.26-32.65-14.13-11.21-4.87-48.72-9.26-48.72-9.26s7.8-1.95 21.44-7.31c13.64-5.36 31.18-7.31 39.47-6.33 8.28 0.97 19.98-0.97 31.67-4.87 11.69-3.9 19.98-19.98 24.36-29.23 4.38-9.26-13.16-30.7-25.34-46.78z m-219.25-74.55c11.21-2.92 38-13.16 49.21-17.05 11.21-3.9 23.39 3.9 43.85 12.67s43.85 9.74 43.85 9.74-9.74 4.87-17.05 6.82c-7.31 1.95-13.64 2.92-25.82 1.46s-24.85-4.87-38.49-6.33-16.57 3.9-25.34 10.72-16.08 9.74-45.8 5.36c-29.72-4.39-46.77-21.93-46.77-21.93s10.72 3.41 21.93 3.9c11.19 0.49 29.22-2.44 40.43-5.36zM145.36 302.65c1.46-13.64-1.95-32.16 4.39-42.39 6.33-10.23 0-15.1 11.21-25.34 11.21-10.23 22.41-20.95 34.11-28.26 11.69-7.31 19-11.21 19.49-18.52 0.49-7.31-7.31-23.32 5.36-31.88 12.67-8.56 19.98-17.33 30.21-17.81 10.23-0.49 20.95 1.84 30.7-3.96 9.74-5.79 24.36-12.12 37.52-14.56 13.16-2.44 25.82-8.77 31.67-9.26 5.85-0.49 28.75 0.97 37.52 2.44 8.77 1.46 35.08 7.31 43.85 8.28 8.77 0.97 33.62 3.9 33.62 3.9s-20.95 13.53-42.39 9.2c-21.44-4.32-43.36-4.99-49.21-4.17-5.85 0.82-25.34 12.52-33.13 14.95s-31.18 4.39-39.95 5.85c-8.77 1.46-35.57 18.03-42.39 35.08-6.82 17.05-15.1 50.67-24.85 52.13-9.74 1.46-23.87 2.92-29.72 9.74-5.85 6.82-11.69 65.29-11.69 65.29s11.69 34.11 29.23 47.75l17.54 13.64s-33.62 1.95-44.34-9.74c-10.72-11.69-34.59-47.75-34.59-47.75s-15.62-0.97-14.16-14.61z m583.3 302.32l0.01 0.38-0.01-0.38z m0.02 0.38l0.13 6.03-0.13-6.03z" fill="#FFF7E8" p-id="4537"></path><path d="M764.71 429.49a96.5 96.5 0 0 0-0.29 0.13l0.29-0.13z" fill="#FFF7E8" p-id="4538"></path><path d="M261.34 431.75s34.1 36.06 84.77 32.16c50.67-3.9 74.05-6.81 99.39-28.25 25.34-21.44 36.06-32.15 36.06-32.15s37.03 30.21 71.14 35.57c34.11 5.36 76.01 2.44 76.01 2.44s-1.09 37.72-0.46 66.88c0.28 12.84 0.9 24.03 2.09 29.59 3.57 16.66 5.02 27.76 12.23 30.53 0.65 0.26 1.29 0.55 2.06 0.65 7.78 1.11 13.67-1.37 21.51-6.78 1.32-0.91 2.7-1.89 4.15-2.97 7.72-5.73 11.78-9.52 13.28-10.99 0.46-0.45 0.69-0.7 0.69-0.7s2.27 2.27 2.6 8.12c0.16 2.83 0.25 22.4 1.54 43 1.35 21.58 4.03 44.22 9.52 50.14 0.11 0.11 0.2 0.31 0.3 0.41 9.23 8.69 11.47 10.95 16.1 8.27 0.91-0.53 1.89-1.18 3.07-2.09l0.55-0.45c6.81-5.37 10.67-10.72 10.67-26.84 0-0.64-0.5-1.48-0.5-2.42V625c0-0.76 0.46-1.61 0.44-2.52 0-0.08 0.03-0.17 0.05-0.25 0.06-0.26-0.18-0.52-0.18-0.81-0.02-0.91-0.32-1.93-0.32-2.95v-1.09c0-0.15 0.27-0.3 0.21-0.46-0.09-0.18 0.01-0.37 0-0.55-0.02-1.45-0.21-2.95-0.21-4.57v-0.43c0-7.49-0.05-16.72-0.27-26.68l-0.03-1.45c-2.83 13.07-6.6 31.4-10.1 39.48-6.3 14.54-12.04 16.61-17.37 16.61h-0.08c-5.36 0-6.29-40.97-6.29-49.74 0-8.77-3.39-46.26-3.87-58.45-0.49-12.18-10.22-15.1-18.51-19.97-8.28-4.87-15.1-21.19-13.15-40.67 1.95-19.47-7.79-28.38-12.17-36.18-4.39-7.8-9.26-23.94-17.54-28.81-8.28-4.87-35.57 1.92-53.6 1.92s-42.88-24.38-60.9-38.13c-18.03-13.74-29.72-3.8-44.34 10.82-14.62 14.62-51.65 25.82-86.73 29.71-35.08 3.9-91.6-3.9-109.63-11.21-18.03-7.31-52.62-12.67-63.83-9.26s-41.42 5.36-48.21 0c-3.26-2.57-7.54-4.8-11.12-6.43l-0.04 0.34-0.02 0.2-0.03 0.51c-0.01 0.18 0.48 0.4 0.46 0.63 0 0.16 0.48 0.33 0.48 0.5v1.49c0 0.43-0.45 0.9-0.42 1.39 0.01 0.13-0.23 0.27-0.22 0.4 0.05 0.53-0.02 1.1 0.06 1.69 0.02 0.12-0.03 0.24-0.02 0.36 0.09 0.61 0.18 1.25 0.3 1.9 0.02 0.13 0.02 0.25 0.05 0.37 0.14 0.65 0.3 1.33 0.5 2.03 0.04 0.13 0.06 0.26 0.11 0.4a31.56 31.56 0 0 0 1.8 4.58c0.08 0.15 0.14 0.31 0.21 0.46 0.35 0.68 0.76 1.35 1.18 2.02l0.31 0.51c0.43 0.63 0.91 1.26 1.41 1.87 0.16 0.19 0.29 0.39 0.45 0.59 0.51 0.59 1.09 1.15 1.67 1.71l0.6 0.6c0.59 0.53 1.27 1.04 1.94 1.54 0.27 0.2 0.5 0.41 0.77 0.6 0.7 0.48 1.49 0.92 2.28 1.36 0.31 0.18 0.58 0.37 0.91 0.53 1.14 0.59 2.38 1.13 3.7 1.61 6.75 2.45 15.72 5.4 25.27 8.24 20.78 6.2 44.29 11.96 53.63 11.29 13.65-0.93 13.64-0.9 13.64-0.9z m488.23 3.5a0.3 0.3 0 0 1-0.07 0.05 222.5 222.5 0 0 0 12.89-4.79c0.7-0.29 1.36-0.6 2.04-0.9a111.9 111.9 0 0 0 10.08-5.04c0.81-0.48 1.56-0.99 2.33-1.49a45.42 45.42 0 0 0 5.13-3.8 40.5 40.5 0 0 0 2.9-2.79c0.46-0.49 0.94-0.95 1.36-1.45a28.4 28.4 0 0 0 3.27-4.74c7.8-14.62 18.03-51.65 19-52.13 0.97-0.49 23.23-9.26 29.07-30.04 5.85-20.8 8.77-32.49 5.85-45.16a88.66 88.66 0 0 0-0.86-3.35c-0.07-0.25 1.77-0.5 1.69-0.76-0.33-1.19 0.79-2.42 0.79-3.72v-0.05c-2.91-0.53-4.04-1.08-4.35-1.64l-0.02-0.05c-0.43-0.92 1.3-1.85 0.98-2.8-0.01-0.05-0.98-0.08-1-0.13-0.52-1.52-1.55-3.07-2.12-4.63-0.01-0.01-0.25-0.03-0.26-0.05l-0.07 0.47c-3.26 22.78-9.78 62.09-15.95 68.26-8.77 8.77-31.55 24.24-35.45 29.11-3.9 4.87-16.69 31.12-22.54 44.77-5.03 11.8-7.9 22.23-14.69 26.85z m-400.61-86.31c-14.13-0.49-29.3-1.46-47.81-9.74-18.52-8.28-25.46-26.8-28.87-38s27.04-40.44 27.04-40.44v-5.36s-47.98 43.85-51.39 55.55c-3.41 11.69 18.77 26.8 25.6 31.18 6.82 4.39 16.1 18.03 32.18 24.04 16.08 6.02 34.65-0.17 42.44-2.6s37.14-17.54 37.14-17.54-22.2 3.39-36.33 2.91z m356.24-45.8c-11.69 3.9-23.39 5.85-31.67 4.87-8.28-0.97-25.82 0.97-39.47 6.33-13.64 5.36-21.44 7.31-21.44 7.31s37.52 4.39 48.72 9.26c11.21 4.87 18.52 13.16 32.65 14.13 14.13 0.97 25.82-3.41 38.98-16.08 13.16-12.67 48.24-52.62 40.44-63.83-7.8-11.21-21.44-14.62-25.82-24.36-4.39-9.74-18.03-31.18-29.23-36.54-11.21-5.36-37.52-11.21-50.19-8.77-12.67 2.44-28.75 2.44-28.75 2.44s52.62 13.16 64.8 29.23c12.18 16.08 29.72 37.52 25.34 46.77-4.39 9.26-12.67 25.34-24.36 29.24z m51.77 25.33c-5.36 4.39-12.73 13.16-12.73 13.16s14.34-9.26 19.7-9.26 9.61 0 17.4-12.67c7.8-12.67 16.92-49.68 16.92-49.68v-14.64s-21.39 49.7-25.44 52.62c-4.04 2.93-10.49 16.09-15.85 20.47z" fill="#F8EACC" p-id="4539"></path><path d="M444.52 157.94c-11.21-0.49-21.93-3.9-21.93-3.9s17.05 17.54 46.77 21.93c29.72 4.39 37.03 1.46 45.8-5.36 8.77-6.82 11.69-12.18 25.34-10.72 13.64 1.46 26.31 4.87 38.49 6.33 12.18 1.46 18.52 0.49 25.82-1.46 7.31-1.95 17.05-6.82 17.05-6.82s-23.39-0.97-43.85-9.74-32.65-16.57-43.85-12.67c-11.21 3.9-38 14.13-49.21 17.05-11.19 2.92-29.22 5.85-40.43 5.36z" fill="#FFFFFF" p-id="4540"></path><path d="M194.08 365.02c10.72 11.69 44.34 9.74 44.34 9.74l-17.54-13.64c-17.54-13.64-29.23-47.75-29.23-47.75s5.85-58.47 11.69-65.29c5.85-6.82 19.98-8.28 29.72-9.74 9.74-1.46 18.03-35.08 24.85-52.13 6.82-17.05 33.62-33.62 42.39-35.08 8.77-1.46 32.16-3.41 39.95-5.85s27.29-14.13 33.13-14.95c5.85-0.81 27.77-0.15 49.21 4.17 21.44 4.33 42.39-9.2 42.39-9.2s-24.85-2.92-33.62-3.9c-8.77-0.97-35.08-6.82-43.85-8.28-8.77-1.46-31.67-2.92-37.52-2.44-5.85 0.49-18.52 6.82-31.67 9.26-13.16 2.44-27.77 8.77-37.52 14.56-9.74 5.79-20.46 3.47-30.7 3.96-10.23 0.49-17.54 9.26-30.21 17.81-12.67 8.56-4.87 24.57-5.36 31.88-0.49 7.31-7.8 11.21-19.49 18.52-11.69 7.31-22.9 18.03-34.11 28.26s-4.87 15.1-11.21 25.34c-6.33 10.23-2.92 28.75-4.39 42.39-1.46 13.64 14.13 14.62 14.13 14.62s23.9 36.04 34.62 47.74z" fill="#FFFFFF" p-id="4541"></path><path d="M320.77 804.35m-5.85 0a5.85 5.85 0 1 0 11.7 0 5.85 5.85 0 1 0-11.7 0Z" fill="#FFFFFF" p-id="4542"></path><path d="M415.62 853.07m-7.8 0a7.8 7.8 0 1 0 15.6 0 7.8 7.8 0 1 0-15.6 0Z" fill="#FFFFFF" p-id="4543"></path><path d="M432.524594 820.46114a8.6 8.6 0 1 0 15.890728-6.582155 8.6 8.6 0 1 0-15.890728 6.582155Z" fill="#FFFFFF" p-id="4544"></path><path d="M459.14 879.05a5.78 5.78 0 0 0 5.56-4.4c0.12-0.47 0.29-0.93 0.29-1.45a5.85 5.85 0 0 0-11.7 0c0 0.29 0.12 0.54 0.17 0.82a5.78 5.78 0 0 0 5.68 5.03z m50.03-30.56a4.56 4.56 0 1 0 0 9.12 4.56 4.56 0 0 0 0-9.12z m51.72-31.31a4.3 4.3 0 1 0 0 8.6 4.3 4.3 0 0 0 0-8.6z" fill="#FFFFFF" p-id="4545"></path><path d="M550.74 779.63m-5.85 0a5.85 5.85 0 1 0 11.7 0 5.85 5.85 0 1 0-11.7 0Z" fill="#FFFFFF" p-id="4546"></path><path d="M661.73 707.26a13.61 13.61 0 0 0 26.77-3.63c0-7.54-6.11-13.66-13.66-13.66-4.96 0-9.25 2.66-11.64 6.61a13.43 13.43 0 0 0-2.02 7.05c0.01 1.27 0.23 2.47 0.55 3.63z m-96.54-125.42a10.07 10.07 0 1 0 20.13 0 10.07 10.07 0 0 0-20.13 0z m5.9 57.64a5.9 5.9 0 1 0 0 11.8 5.9 5.9 0 0 0 0-11.8z m-50.16 47.61c-0.01 0.11-0.07 0.21-0.07 0.32a7.8 7.8 0 0 0 7.8 7.8c0.18 0 0.32-0.08 0.49-0.1a7.74 7.74 0 0 0-0.46-15.49l-0.04-0.01a7.76 7.76 0 0 0-7.72 7.48zM408.8 703.63a6.83 6.83 0 1 0 0 13.67 6.83 6.83 0 0 0 0-13.67z m-4.5-60.31a10.11 10.11 0 1 0 0-20.24 10.11 10.11 0 0 0 0 20.24z m-11.1-76.1c1.97 0 3.58-1.6 3.58-3.57a3.58 3.58 0 0 0-7.15 0c0 1.97 1.6 3.57 3.57 3.57z m34.44-20.79a4.23 4.23 0 1 0-0.02-8.46 4.23 4.23 0 0 0 0.02 8.46z m-169.56-65.61a10.07 10.07 0 1 0 0 20.13 10.07 10.07 0 0 0 0-20.13z m68.62 16.89a5.94 5.94 0 1 0-0.01-11.87 5.94 5.94 0 0 0 0.01 11.87z m129.11 88.51a9.86 9.86 0 0 0-8.07-4.39 10.03 10.03 0 1 0 0 20.06c3.6 0 6.62-1.99 8.38-4.84a9.8 9.8 0 0 0 1.65-5.19 9.8 9.8 0 0 0-1.96-5.64z m65.07-18.6l-0.01 0.08a4.07 4.07 0 0 0 4.06 4.07c0.23 0 0.43-0.1 0.65-0.14h0.02a4.02 4.02 0 0 0 3.4-3.93 4.02 4.02 0 0 0-3.65-3.97c-0.14-0.01-0.27-0.08-0.42-0.08a4.04 4.04 0 0 0-4.05 3.97z m17.85 32.08a6.17 6.17 0 1 0 0-12.35 6.17 6.17 0 0 0 0 12.35z m24.31 0a2.15 2.15 0 1 0 0 4.3 2.15 2.15 0 0 0 0-4.3z" fill="#FFFFFF" p-id="4547"></path><path d="M561.067737 511.672376a7.25 7.25 0 1 0 5.495089-13.41842 7.25 7.25 0 1 0-5.495089 13.41842Z" fill="#FFFFFF" p-id="4548"></path></svg>