<?xml version="1.0" standalone="no"?><!DOCTYPE svg PUBLIC "-//W3C//DTD SVG 1.1//EN" "http://www.w3.org/Graphics/SVG/1.1/DTD/svg11.dtd"><svg t="1607840064274" class="icon" viewBox="0 0 1024 1024" version="1.1" xmlns="http://www.w3.org/2000/svg" p-id="4246" xmlns:xlink="http://www.w3.org/1999/xlink" width="200" height="200"><defs><style type="text/css"></style></defs><path d="M869.01 496.32c-0.05-1.86-1.72-4.43-1.72-6.49v-0.12c0-23.69-16.76-62.99-36.95-85.18-9.23-10.15-21.04-18.18-32.64-25.31-0.04-0.03 0.25-0.07 0.2-0.1l-3.28-2.1c-0.13-0.08-0.19-0.17-0.32-0.25l-1.54-0.96-1.31-0.82-6.56-4.11-4.89-3.34-0.17-0.13h-0.01c-0.59-0.44-2.48-1.93-2.48-1.93-0.4-0.32-1.69-0.66-2.5-1.41-0.03-0.03-1.45-0.56-1.45-0.61v-3.39h0.95l-0.29-0.37-1.21-2.93c-0.03-0.06 0.08 0.29 0.06 0.22l-0.49-1.22c-0.02-0.05-0.03 0.02-0.04-0.02l-1.28-3.3-0.18-0.44-0.48-1.21-0.05-0.08-1.56-3.82c-0.03-0.08-0.04-0.17-0.08-0.25l-0.66-1.65c-0.03-0.07-0.09-0.13-0.12-0.2l-2.47-6.05-1.04-2.47c-0.01-0.04-0.04-0.06-0.06-0.08l-1.64-3.84c-0.05-0.11-0.06-0.23-0.11-0.32l-1.5-3.47c-0.01-0.04-0.35-0.07-0.37-0.11l-1.82-3.55v-0.01l-1.4-3.82c-0.03-0.07 0.06-0.11 0.03-0.18l-1.21-2.86c-0.06-0.12-0.03-0.25-0.08-0.37l-1.87-4.16c-0.04-0.08-0.73-0.13-0.75-0.22l-1.93-2.87v-0.04l0.27-0.76c-0.52-1.1-0.92-2.59-1.65-4.15l-1.5-3.47c-0.01-0.03 0.05 1.54 0.03 1.52-0.77-1.61-2.8-1.22-2.83-1.22h-1.55v-3.19l-0.62-4.33c0-0.01 0.75-0.02 0.75-0.04l-1.11-2.98 0.16-0.08-2.05-4.1c-0.02-0.04 0-0.06-0.01-0.09l-1.49-2.87c-0.75-1.38-1.48-2.73-2.23-4.06l-1.67-2.92c-0.71-1.24-1.43-2.5-2.14-3.67l-0.01-0.02c-4.68-7.73-8.85-13.51-12.74-17.65-20.79-22.13-68.66-45.24-89.55-49.42-3.58-0.72-7.57-1.61-11.81-2.55-15.33-3.4-34.41-7.64-50.52-7.64-2.58 0-5.07 0.11-7.45 0.34-1 0.08-2.32 0.11-3.91 0.11-1.06 0-2.37-0.04-3.61-0.07-5.68-13.97-13.11-23.33-22.63-28.34a110.43 110.43 0 0 0-19.18-7.65c4.11-5.14 9.78-10.97 17-17.47 4.72-4.25 15.9-10.74 24.06-15.48l0.92-0.54c6.48-3.77 31.39-8.93 38.14-9.18 6.7-0.26 12.5-2.68 18.11-5.01 3.77-1.57 7.32-3.05 10.63-3.63 11.4-2.01 25.12-7.09 25.7-7.31 5.1-1.9 8.7-6.5 9.32-11.9l1.21-10.53a14.41 14.41 0 0 0-14.36-16.08h-3.61c-1.54 0-3.08 0.25-4.54 0.73-0.78 0.25-19.23 6.38-33.03 11.89-10.76 4.3-27.1 8.11-41.52 11.47l-6.69 1.57c-18.59 4.39-22.51 7.61-44.31 25.5l-5.45 4.46c-8.7 7.12-16.67 17.03-23.83 29.56-7.05-2.99-15.76-5.74-24.71-5.74-2.48 0-4.78 0.68-6.81 1.78-3.96 0.39-7.74 1.11-11.08 2.51-13.14 5.54-37.2 21.31-50.57 46.62-29.38 6.48-53.01 15.43-70.17 26.7-27.78 18.25-48.09 33.53-62.07 46.62-1.68 0.7-3.24 1.7-4.59 3.03-11.62 11.41-18.06 20.96-20.26 30.06-2.31 9.56-2.36 20.96-2.42 32-0.03 6.88-0.08 17.1-1.15 20.67-1.45 1.47-5.94 5.27-19.79 14.45a14.34 14.34 0 0 0-3.1 2.91l-7.87 5.11c-13.16 8.51-18.4 11.95-21.34 15.01-0.56 0.44-1.35 0.99-2.28 1.65-11.62 8.32-46.98 33.66-42.16 86.84 0.09 1.04 0.22 2.05 0.33 3.06a14.48 14.48 0 0 0-0.68 6.35c0.87 7.29 2.05 14.61 3.5 21.77 0.44 2.2 1.34 4.25 2.62 6.01 0.35 1.52 0.71 3 1.11 4.64l0.8 3.13c0.43 1.6 0.88 3.15 1.37 4.82l0.92 3.07c0.46 1.46 0.93 2.89 1.41 4.3l0.01 0.03c0.36 1.07 0.73 2.13 1.11 3.17 0.49 1.37 1.47 2.69 1.95 3.89 0.01 0.04 0.52 0.07 0.52 0.11v-3.06h-0.48c0.4 7.22 0.56 3.54 0.98 4.55 0.53 1.26 0.95 3.26 1.5 4.46 0.01 0.01-0.05 0.4-0.04 0.41 0.44 1 0.87 2.17 1.36 3.2 0.55 1.12 1.09 2.33 1.65 3.41 0.51 0.98 1.04 1.97 1.55 2.91 0.59 1.06 1.18 2.13 1.78 3.13l0.04 0.07c0.49 0.82 0.99 1.61 1.5 2.38l0.45 0.7c0.35 0.54 1.99 1.07 2.35 1.59 0.17 0.26 1.8 0.54 1.8 0.79v0.01c0 0.82 0.05 1.6 0.64 2.38 0 0-0.64 0.28-0.64 0.63v0.01c0 0.04-0.1 0.06-0.07 0.1 0.49 0.64 1.09 1.52 1.43 1.93 0.69 0.82 1.33 1.59 2.02 2.36l0.06-0.06c0.18 0.23 0.3 0.5 0.51 0.73 0.51 0.56 1.02 1.14 1.45 1.58l0.03 0.03 0.05 0.05 0.03 0.03c0.78 0.8 1.6 1.57 2.83 2.69 0.5 0.48 1.01 0.95 1.52 1.4l0.03 0.01a62.6 62.6 0 0 0 3.27 2.56c0.51 0.4 1.03 0.8 1.48 1.1 0.02 0.01 0.04-0.92 0.06-0.91 0.01 0.01 0.01-0.93 0.02-0.93h0.01c1.64 0 3.31 3.09 5.01 3.99 12.73 6.74 22.48 11.88 38.03 14.98l8.54 38.38 49.01 218.94a14.8 14.8 0 0 0 2.12 4.97c0.39 0.58 9.72 14.39 26.01 30.64a224.96 224.96 0 0 0 9.29 8.77c0.01 0.01-0.6 0.01-0.6 0.01 0.06 0.05-0.44 0.1-0.44 0.15v-3.03h0.62l0.34 1.55c3.2 2.85 6.74 6.47 10.29 9.3 0.02 0.02 0.13 1.73 0.15 1.76 0.06 0.04 0.15 1.84 0.22 1.84h0.03c0.01 0 0.01-1.31 0.02-1.3a173.35 173.35 0 0 0 53.7 29.21c0.03 0.01 0.05-0.3 0.07-0.29 0.07 0.02 0.14-0.13 0.21-0.11 3.57 1.17 7.13 2.17 10.71 3.04h0.16c0.02 0.01 0.03-0.84 0.06-0.83 0.01 0.01 0.03-0.83 0.06-0.83h0.03c4.25 0 8.24 4.13 12.16 4.7l1.67 2.53h0.05l23.83 2.01c0.08 0.01 0.17-0.72 0.26-0.71 0.04 0.01 0.08-0.33 0.13-0.32l9.4-0.44 9.17-0.54h0.05c10.85 7.22 19.86 4.02 28.08 4.68 1.47 0.5 3.03 1.64 4.68 1.64 3.26 0 6.5 0.4 9.73 0.5 1.95 0.06 3.89 0.23 5.84 0.2 0.33 0.01 0.67 0.13 1.01 0.13l3.57 0.07h0.4c6.73 0 13.3-0.33 19.9-0.85 1.49 0.51 3.05 0.85 4.65 0.85 4.09 0 7.71-0.85 10.62-1.54 1.13-0.26 2.26-0.54 3.66-0.75 1.25-0.21 2.57-0.64 3.86-1.26 3.06-0.51 6.12-2.01 9.29-2.64l0.03-1.02h0.01c7.59 0 15.21-2.32 23.31-4.53 6.62-1.82 12.95-3.16 19.09-5.01 0.05-0.01 0.11 0.22 0.16 0.2l0.85-0.59c4.51-1.37 8.89-4.51 13.13-4.51h0.08c11.04 0 21.71-6.9 31.73-10.76 0.05-0.02 0.08 0.18 0.13 0.17 0.08-0.03 1.17 0.08 1.25 0.06 3.49-1.35 3.81-2.62 11.03-3.94v0.03l0.77-0.72c3.09-1.27 5.51-2.52 8.07-3.65 0.15-0.06 0.06-0.13 0.21-0.19l-0.11-0.01c0.09-0.04 0.1-0.07 0.19-0.11l0.02-0.02c14.19-6.27 25.33-12.15 31.4-16.55 0.06-0.04 0.09-0.1 0.15-0.14 0.03-0.03 0.07-0.03 0.11-0.06 0.46-0.33 0.91-0.66 1.3-0.97l3.23-2.5 3.2-2.41 7.83-5.73c7.27-5.24 13.87-9.85 13.9-9.87 3.13-2.19 7.06-5.53 7.74-9.29l8.68-38.43v-0.02l2.05-21.05c0.03-0.18-1.52-0.35-1.5-0.52l6.67-45.78v-0.01l1.42-0.87h0.32l21.82-122.38 5.83-32.9c14.22-4.43 22.73-10.31 30.87-15.64l1.16-0.96c13.84-9.03 53.9-56.59 61.15-87.43 1.61-2.56 1.96-5.74 1.87-8.91z" p-id="4247"></path><path d="M531.7 824.13l10.6-136.07a598.12 598.12 0 0 1-32.24 6.7l-6.19 125.71 27.83 3.66z m112.29-10.22l6.88-10.97 26.26-163.41c-10.9 5.22-22.75 11.19-33.74 16.08-1.36 0.61-2.93 1.27-4.55 1.95l-20.06 145.4 25.21 10.95z m-61.39 4.81l3.81-2.41 14.4-144.76a734.8 734.8 0 0 1-28.88 8.86l-12.78 133.32 23.45 4.99z m60.47 91.39z m46.66-127.51l12.53-12.87 22.59-139.25c-5.41-1.38-9.76-2.5-11.95-3.08-2.68-0.71-7.05 0.18-12.47 2.05l-25.88 153.49 15.18-0.34z m-369.01-3.61h34.12l-27.87-159.97a2665.32 2665.32 0 0 0-36.56 7.86l21.53 143.31 8.78 8.8z m70.47 21.67h28.21l-7.18-121.11c-23.33-25.36-28.62-64.94-31.57-68.49-0.92-1.11-8.31-0.39-19.43 1.44l24.02 182.37 5.95 5.79z m303.91 80.49z m-41.54 24.52z m33.62-18.63l-0.58 0.44 0.58-0.44z m3.96-2.98l-0.83 0.62 0.83-0.62z m-213.88-59.93v-124.7c-3.63 0.38-7.24 0.75-10.83 1.02-8.4 0.63-15.92-0.08-22.71-1.78l1.3 117.01 32.24 8.45z m-145.48 78.15z m56.47-84.6l3.39 25.72 7.63 7.82h23.14l-2.11-35.45z m58.12 123.55z m-1.2-111.68l0.36 32.5 4.86 4.2 26.87 7.4v-32.74z m-123.38 64.32z m225.18 46.33zM318.36 800.66l-2.23-2.62 2.58 17.14 13.62 14.37h31.33l-5.04-28.89z m215.92 141.77z m137.47-142.86l-5.73 33.99 16.82-0.4 11.06-11.97 3.44-21.17-25.59-0.45z m-89.16 38.4l-25.01-7.98-3.19 33.3 26.68 5.98 0.07-0.04 3.22-32.37z m-79.49-2.16l-1.7 34.54 26.41 3.66 2.58-33.1z m143.29-5l-29.72-12.62-4.66 33.76 27.38 12.51 2.18-3.66 4.82-29.99z m69.2-61.71l7.25-0.34 9.52-10.19 21.65-120.66-17.49-4.45-20.93 135.64z m-348.16 82.12h-37.35l-7.33-9.08 9.04 60.17c16.19 12.87 36.29 24.86 59.35 30.43-3.41-0.85-6.74-1.83-10.03-2.93l-13.68-78.59z m-88.1-36.6l-3.93-17.55 22.2 5.59-6.32-33.9-23.25-4.6-3.95-17.65 24.24 6.38-22.48-120.48c-9.61 2.19-18.52 4.25-25.98 6l49.01 218.82s8.75 13 24.22 28.44l-12.51-67.07-21.25-3.98z m433.63-28.51l-5.17 33.53 6.5-0.32 8.98-10.12 8.31-46.33-4.31 23.99z m-7.66 49.69l-6.6 42.74-0.53 0.39c7.52-5.43 14.42-10.25 14.42-10.25l6.9-38.43-0.61 3.37-13.58 2.18z m-39.54 14.32l-3.24 4.21-8.63 51.2c14.49-6.4 24.26-11.76 28.77-15.03l6.48-39.94-23.38-0.44z m-270.5 18.2l-0.39-0.32 8.84 67.13c8.39 1.21 16.32 2.38 23.86 3.47l-4.27-72.04-28.04 1.76z m105.4 17.09l-2.95 59.81a257.9 257.9 0 0 0 24.66-1.3l4.16-53.44-25.87-5.07z m111.28-17.33l-2.36 1.57-7.66 55.5a638.68 638.68 0 0 0 31.09-11.02l5.49-34.17-26.56-11.88z m-161.4 12.03l-4.85-3.36 0.72 64.49a503.71 503.71 0 0 0 30.84 3.27v-54.44l-26.71-9.96z m128.74 7.83l-25.08-8.44-1.44 0.76-5.74 59.93c7.1-1.42 14.5-3.17 22.33-5.31a737.7 737.7 0 0 0 18.89-5.47 759.33 759.33 0 0 1-13.47 3.93l4.51-45.4z" fill="#FEC1C3" p-id="4248"></path><path d="M318.71 815.18l-2.58-17.14-24.85-29.28 6.32 33.9 12.14 3.06z m-14.34 4.14l-3.79-0.71 12.51 67.07a213.95 213.95 0 0 0 8.91 8.38c3.08 2.74 6.35 5.49 9.78 8.22l0.02 0.02-9.04-60.17-18.39-22.81z m7.58-49.12l-21.53-143.31c-8.44 1.87-16.75 3.75-24.57 5.53l22.48 120.48 8.63 2.26 14.99 15.04z m300.14 29.85l6.69 2.91 20.06-145.4a531.22 531.22 0 0 1-38.03 13.98L586.4 816.3l25.69-16.25z m29.58 81.31l-3.17-1.42-5.5 34.18v0.01l0.34-0.13c3.4-1.31 6.63-2.61 9.73-3.88l1.76-0.72a384.15 384.15 0 0 0 9.05-3.85l8.63-51.2-20.84 27.01z m63.63-45.56l-4.17 0.68-11.06 14.11-0.93-0.02-6.48 39.94 1.05-0.76c0.87-0.69 1.85-1.47 2.89-2.26a815.87 815.87 0 0 1 4.54-3.42l3.36-2.47 0.6-0.44 3.07-2.23 0.53-0.39 6.6-42.74z m-95.73 33.84l-28.51 18.89-1.78-0.59-4.51 45.41a759.33 759.33 0 0 0 27.15-8.21l7.65-55.5z m-114.25-35.28l-18.06 6.55v32.74l3.76 1.04 12.58-5.42 7.8 1.08 1.7-34.54z m5.34 51.05l-2.49-0.49-17.15 6.55-3.76-1.4v55.04h0.02c6.86 0 13.63 0.42 20.43 0.42l2.95-60.12z m30.83 6.05l-4.96-0.38-4.16 54.03h0.01c3.9 0 7.86-1.5 11.9-2.09 0.06-0.01 0.13-1.47 0.19-1.48 4.07-0.61 8.23-3.65 12.5-3.65h2.52v1.15l4.51-59.35-22.51 11.77z m170.77-121.72l13.33-0.63 20.93-135.64-11.67-2.98-22.59 139.25z m-257.09 59.81l-21.18-13.99-3.69 0.21 2.11 35.45h10.58l12.54 10.83-0.36-32.5z m-14.74 36.56l-7.11 0.44 4.27 72.04c0.13 0.03 0.25-1.63 0.39-1.61 6.36 0.92 12.49 0.9 18.4 0.9h0.05l-0.72-62.82-15.28-8.95z m184.66-48.59l-30.73 19.34-3.22 32.37 27.95-18.62 2.92 1.34 4.66-33.76z m31.3 13.29l-4.82 29.99 16.12-27.03 8.33-0.21 5.73-33.99z m-92.09-1.87l-23.91 11.97-2.58 33.1 4.92 0.68 13.47-13.24 8.19 1.84 3.19-33.3z m143.04-28.92l-3.44 21.17 0.84-0.9 13.05-0.65 5.17-33.53-3.97-0.19z m-34.09-16.81l11.3-0.26 25.88-153.49c-6.51 2.24-14.59 5.9-23.3 10.07l-26.26 163.41 12.38-19.73z m-172.74 35.51l13.36 1.76 6.19-125.71a473.15 473.15 0 0 1-32.8 4.68v124.7l13.25-5.43z m-63.81-18.06l18.32 15.03-1.3-117.01c-13.1-3.28-23.4-10.33-31.49-19.13l7.18 121.11h7.29z m119.18 10.23l13.25 2.83 12.78-133.32a697.87 697.87 0 0 1-29.62 7.66l-10.6 136.07 14.19-13.24z m-176.96-31.9l16.33 15.88-24.03-182.37a927.05 927.05 0 0 0-34.24 6.52l27.87 159.97h14.07z m18.06 38.77l-21.37-17.1h-6.99l5.04 28.89h14.45l13.53 13.85-3.39-25.72z m-12.02 33.46h-7.53l13.69 78.58a143.1 143.1 0 0 0 10.03 2.93c3.55 0.88 7.17 1.62 10.87 2.16l1.7 0.24-8.84-67.13-19.92-16.78z" fill="#DA8688" p-id="4249"></path><path d="M759.02 361.29l0.51 1.3-0.51-1.3z m9.01 15.23c0.43 0.37 0.9 0.73 1.35 1.09-0.46-0.35-0.92-0.72-1.35-1.09z m-7.41-11.06l0.36 0.95-0.36-0.95z m-498.88-84.37c-0.54 0.53-1.02 1.04-1.53 1.57l-0.01 0.06c0.54-0.56 0.99-1.08 1.54-1.63z m501.5 90.44c0.18 0.28 0.45 0.56 0.67 0.83-0.22-0.27-0.49-0.55-0.67-0.83z m3.1 3.48c-0.36-0.33-0.73-0.67-1.05-1.01 0.32 0.34 0.7 0.68 1.05 1.01z m-588.82 67.68a5.22 5.22 0 0 1 2.87-0.42c4.46-0.63 10.67 4.3 18.35 10.35 8.58 6.77 32.05 41.53 46.5 51.91 8.84 6.36 23.78 8.13 38.38 8.03 8.78-0.12 17.37-0.88 24.36-1.71 16.62-1.97 34.28-3.61 45.68-3.37 2.11 0.01 4.1 0.07 5.78 0.21 10.83 0.9 37.02 24.38 48.3 31.15 2.76 1.65 7.17 2.33 12.24 2.42 14.26-0.04 32.97-4.3 36.06-5.02l-5.88 0.35c-0.18 0.01-0.42-0.04-0.61-0.04l-0.75 0.04c-7.67 0.45-23.47-8.13-37.92-16.7-14.45-8.58-22.57-18.06-36.56-26.63-6.84-4.19-14.66-5.67-22.28-5.78-7.48 0.04-14.73 1.32-20.6 2.62a57.5 57.5 0 0 1-11.64 1.13c-11.46 0.32-25-1.79-32.15-5.19-9.48-4.51-36.11-22.57-62.3-50.56-26.18-27.99-19.41-37.02-17.15-42.17 1.11-2.52 3.6-7.56 5.87-12.1-13.33 8.76-27.1 17.25-29.33 19.81-4.22 4.82-45.14 24.07-40.33 77.04 0.23 2.57 0.51 5.06 0.8 7.55 4.04-4.61 7.23-11.44 10.63-18.54 4.98-10.39 17.16-22.13 21.68-24.38z m86.67-142.2c9.03 5.42 80.8 15.35 94.8 27.09 13.99 11.74 34.76 18.96 38.82 27.99 3.54 7.86 32.78 37.62 88.29 37.71 7.83-0.06 16.15-0.68 25.01-2.05 30.7-1.81 44.24-9.93 51.91-14.9 7.67-4.97 52.36-27.09 62.75-30.24 10.38-3.16 21.67-11.74 21.67-11.74l-33.86-46.5 1.95 0.82-0.59-0.82 64.55 27.09s0.92 0.19 2.48 0.27c5.27 0.03 15.21-1.38 24.61-11.1 6.52-6.74 10.93-15.45 13.77-22.68l0.78 1.33c0.18-0.44 0.41-0.9 0.58-1.33-3.82-6.31-7.53-11.64-10.91-15.24-18.66-19.86-63.8-41.53-81.85-45.14-18.06-3.61-46.34-11.44-65.6-9.64-3.65 0.35-10.49 0.19-19.15-0.28 3.21 10.52 5.28 22.34 6.66 33.39 1.19 9.47 0.97 15.95-0.51 21.34 8.27-0.02 14.4-0.37 16.61-1.47 8.43-4.22 24.67-6.02 37.31-3 12.64 3 57.78 3 57.78 3l13.25 4.82-19.26 3.61c-19.26 3.61-22.27-0.6-37.92-3.61-15.65-3.01-31.3-2.41-38.52-1.21-7.22 1.2-7.83 4.82-14.45 15.05-6.62 10.23-11.44 19.26-17.46 25.88s-13.85 4.82-34.91 18.06c-21.06 13.24-31.3 12.64-66.21 5.42-34.91-7.22-40.32-28.89-39.72-36.99a6.3 6.3 0 0 1 1.25-2.91c-16.96-15.91-18.18-40.01-15.69-66.94a63.96 63.96 0 0 1 4.65-18.61c-23.02 4.63-51.52 12.64-72.06 26.13-25.22 16.56-48.32 33.36-63.11 47.89-1.66 8.12-2.16 16.84 2.3 19.51zM148.58 507.22c0.18 0.92 0.39 1.82 0.58 2.73l-0.56-2.74-0.02 0.01z m622.79-128.1z m23.69 23.84c6.32 14.45 21.67 32.95 24.83 38.82 3.16 5.87 8.58 16.25 4.51 20.31-4.06 4.06-19.86 10.38-30.7 10.38-10.83 0-49.33 1.81-61.68 10.83-12.35 9.03-14.46 12.64-18.67 28.74-13.69 15.95-20.01 20.02-25.28 20.47-1.1 0.1-4.03 0.13-7.98 0.13-10.74 0.03-31.18-0.26-44.23-0.25-3.82 0.01-6.89 0.04-8.73 0.13-9.93 0.45-32.5 0-45.59 4.51a128.27 128.27 0 0 0-21.12 9.53c4.95-1.4 15.82-4 27.52-3.74 7.54 0.03 15.5 1.17 22.49 4.59 15.84 7.74 34.43 15.49 54.86 15.92 6.52 0.04 13.22-0.66 20.07-2.38 28.89-7.22 24.83-9.03 41.53-17.61 10.18-5.23 22.36-10.93 33.39-15.12l-1.15 0.99c8.01-3.16 15.57-5.64 21.48-6.63 13.54-2.26 38.37-8.13 51.01-14.9 8.47-4.54 15.93-7.42 23.87-16.36-2.53-22.39-17.75-58.59-34.55-77.08-9.63-10.59-24.52-19.28-37-26.93l6.72 4.12c-0.14 0.32 0.42 2.43 4.4 11.53z m-19.82-21.15l1.76 1.16-1.76-1.16z m4.31 2.78l1.93 1.22-1.93-1.22z m75.95 106.79z m-119.51-183.1z m-10.68-20.63zM175.25 567.91c-0.51-0.52-1.02-1.11-1.52-1.66 0.5 0.55 1 1.14 1.52 1.66z m-22.34-42.97c-0.42-1.45-0.84-2.89-1.24-4.39 0.4 1.5 0.82 2.95 1.24 4.39z m19 39.23c-0.51-0.63-1.02-1.31-1.53-1.98 0.51 0.66 1.02 1.35 1.53 1.98z m549.81-282.72c0.7 1.16 1.4 2.39 2.1 3.61-0.71-1.22-1.41-2.46-2.1-3.61zM150.93 517.64z m31.34 56.27c-0.42-0.28-0.82-0.63-1.23-0.92 0.41 0.3 0.82 0.64 1.23 0.92z m-3.57-2.75c-0.49-0.42-0.96-0.89-1.44-1.33 0.48 0.44 0.95 0.92 1.44 1.33z m-13.03-15.92z m-2.9-5.17z m5.95 9.87c-0.52-0.74-1.02-1.52-1.53-2.3 0.5 0.78 1 1.56 1.53 2.3z m-11.24-21.57z m-2.38-6.52c-0.44-1.31-0.88-2.62-1.31-3.97 0.42 1.35 0.86 2.67 1.31 3.97z m4.94 12.59z m572.5-243.15l2.11 4.2c-0.7-1.42-1.41-2.8-2.11-4.2z m12.12 25.69l1.66 3.75c-0.54-1.24-1.09-2.49-1.66-3.75z m-3.38-7.5l1.84 4.07-1.84-4.07z m6.62 14.87l1.45 3.36-1.45-3.36z m9.12 21.87l0.66 1.66-0.66-1.66z m-2.34-5.8l0.66 1.64-0.66-1.64z m-3.54-8.5l1.02 2.4c-0.33-0.78-0.69-1.59-1.02-2.4z m-22.19-47.6l2.12 4.05-2.12-4.05z" fill="#B4724E" p-id="4250"></path><path d="M587.94 542.82c7.13 0.16 14.57 1.38 21.13 4.59 16.18 7.92 35.26 15.81 56.22 15.92-20.43-0.43-39.03-8.17-54.86-15.92-6.99-3.42-14.95-4.56-22.49-4.59z m160.33-204.47c-5.41 1.64-10.74 3.08-14.61 3.67-11.74 1.81-14.45 4.51-22.57 10.83-8.13 6.32-14.9 16.25-18.06 23.02-3.16 6.77-13.54 14.9-18.06 18.96-4.51 4.06-26.18 6.77-39.27 13.09-13.09 6.32-41.08 22.12-41.08 22.12l-9.93 11.74c-4.97 5.87-13.54 4.06-49.66-4.51-36.11-8.58-55.07-2.26-55.07-2.26 5.87-1.35 26.18 3.16 32.5 5.87s42.43 21.22 61.39 28.64c18.96 7.43 43.79-3.82 58.23-11.49 14.45-7.67 48.3-34.31 58.23-43.79 9.93-9.48 28.89-17.15 32.95-19.41 4.06-2.26 22.57 0.9 36.11-3.16 5.76-1.73 12.4-4.68 18.15-7.5 3.66 2.32 7.64 4.72 11.76 7.26-0.13 0.31 0.42 2.43 4.4 11.53 6.32 14.45 21.67 32.95 24.83 38.82 3.16 5.87 8.58 16.25 4.51 20.31-4.06 4.06-19.86 10.38-30.7 10.38s-49.33 1.81-61.68 10.83c-12.35 9.03-14.46 12.64-18.67 28.74-13.69 15.95-20.01 20.02-25.28 20.47-0.97 0.08-3.36 0.12-6.62 0.13 3.94 0 6.88-0.03 7.98-0.13 5.27-0.45 11.59-4.51 25.28-20.47 4.21-16.1 6.32-19.71 18.67-28.74 12.35-9.03 50.85-10.83 61.68-10.83 10.83 0 26.63-6.32 30.7-10.38 4.06-4.06-1.35-14.45-4.51-20.31-3.16-5.87-18.51-24.38-24.83-38.82-3.98-9.1-4.54-11.21-4.4-11.53l-6.72-4.12-2.45-1.5-1.93-1.22c-0.87-0.54-1.72-1.09-2.55-1.62l-1.76-1.16a97.43 97.43 0 0 1-7.2-5.28c-0.61-0.51-1.15-1.02-1.69-1.52-0.35-0.33-0.73-0.67-1.05-1.01a18.2 18.2 0 0 1-1.38-1.64c-0.22-0.28-0.49-0.56-0.67-0.83-0.56-0.82-1-1.62-1.28-2.43l-0.98-2.69-0.36-0.95a187.89 187.89 0 0 0-1.6-4.17l-1.34-3.41-0.66-1.66a630.8 630.8 0 0 0-1.68-4.15l-0.66-1.64-2.53-6.1-1.02-2.4-1.78-4.2-1.45-3.36-1.57-3.62-1.66-3.75c-0.5-1.14-1.02-2.28-1.54-3.43l-1.84-4.07-1.4-3.01a612.88 612.88 0 0 0-3.89-8.19l-1.35-2.79c-0.7-1.42-1.4-2.81-2.11-4.2l-1.47-2.92c-0.7-1.37-1.41-2.71-2.12-4.05a363.48 363.48 0 0 0-3.64-6.67c-0.5-0.89-0.99-1.74-1.5-2.6-0.7-1.22-1.4-2.45-2.1-3.61l-0.01-0.02c-0.17 0.43-0.4 0.9-0.58 1.33 9.44 15.86 19.49 37.62 27.15 55.58z" fill="#4F2B24" p-id="4251"></path><path d="M614.94 287.85l0.59 0.82 62.61 26.27s1.51 0.26 3.83 0.27c-1.56-0.08-2.48-0.27-2.48-0.27l-64.55-27.09z m12.19 244.67c1.84-0.08 4.92-0.12 8.73-0.13-4.42 0-8.04 0.04-10.09 0.13-9.93 0.45-32.5 0-45.59 4.51-13.09 4.51-22.57 10.38-22.57 10.38s1.03-0.35 2.81-0.85c3.1-1.77 11-6.04 21.12-9.53 13.09-4.51 35.66-4.06 45.59-4.51zM262.84 300.49c9.03 5.42 80.8 15.35 94.8 27.09 13.99 11.74 34.76 18.96 38.82 27.99 3.57 7.93 33.26 38.11 89.65 37.71-55.51-0.09-84.75-29.85-88.29-37.71-4.06-9.03-24.83-16.25-38.82-27.99-13.99-11.74-85.77-21.67-94.8-27.09-4.46-2.67-3.96-11.38-2.32-19.52v-0.01l-0.13 0.13c-0.56 0.55-1.01 1.07-1.54 1.62-1.36 7.61-1.51 15.3 2.63 17.78z m590 190.89v-1.3h1.33c-7.94 7.22-14.73 12.44-23.21 16.98-12.64 6.77-37.14 12.95-50.68 15.21-5.9 0.99-13.31 3.63-21.31 6.79-13.46 11.45-30.16 26.86-33.07 34.53a270.47 270.47 0 0 1-11.54 8.02l51.78-1.5-4.8 26.8c18.49-4.33 26.88-10.13 36.72-16.55 13.84-9.03 57.06-62.6 56.46-84.27-0.04-1.48-1.68-3.06-1.68-4.71zM590.57 573.6c-2.25 0.58-4.27 1.2-6.2 1.83l39.28-1.14c-11.15-2.41-22.38-3.47-33.08-0.69zM198.74 452.62c-7.67-6.06-13.89-10.99-18.35-10.35 4.33 0.37 10.06 4.88 16.99 10.35 8.58 6.77 32.05 41.53 46.5 51.91 9.12 6.55 24.71 8.24 39.74 8.03-14.61 0.09-29.54-1.68-38.38-8.03-14.45-10.38-37.93-45.14-46.5-51.91z m257.31 83.61c0.29-0.06 0.44-0.11 0.44-0.11l-6.93 0.41c0.19 0 0.43 0.06 0.61 0.04 2.97-0.16 4.77-0.27 5.88-0.34z m-124.6-46.15c5.88-1.31 13.12-2.58 20.6-2.62-7.96-0.12-15.73 1.24-21.96 2.62-3 0.66-6.54 1.03-10.28 1.13 4.25-0.04 8.29-0.38 11.64-1.13z m125.43 89.05c-12.95-6.1-28.29-12.16-45.52-13.66-31.15-2.71-38.37-5.87-60.94-0.45s-60.04 8.58-83.96 0c-23.93-8.58-33.86-2.26-54.17-26.18-20.31-23.93-26.18-37.92-53.72-34.31a41.2 41.2 0 0 0-9.96 2.68l0.56 2.74 0.61 2.86c0.37 1.64 0.77 3.23 1.16 4.82l0.74 2.92c0.4 1.5 0.82 2.94 1.24 4.39l0.88 2.94c0.42 1.35 0.86 2.67 1.31 3.97 0.33 0.97 0.66 1.95 1.01 2.89a118.97 118.97 0 0 0 2.51 6.42 168.56 168.56 0 0 0 2.69 5.96c0.49 0.99 0.97 1.98 1.47 2.93a100.68 100.68 0 0 0 2.9 5.17c0.49 0.83 1.01 1.61 1.52 2.41 0.51 0.78 1.01 1.56 1.53 2.3 0.55 0.78 1.11 1.51 1.66 2.24 0.51 0.67 1.02 1.35 1.53 1.98 0.6 0.73 1.21 1.4 1.81 2.08 0.51 0.56 1.01 1.14 1.52 1.66 0.66 0.68 1.33 1.3 2.01 1.92 0.48 0.44 0.95 0.92 1.44 1.33 0.77 0.66 1.56 1.23 2.35 1.83 0.41 0.3 0.81 0.64 1.23 0.92 1.21 0.83 2.43 1.58 3.67 2.24 13.86 7.34 23.06 11.91 43.26 14.66l-1.13-5.03 228.79-6.63z m42.39-161.27s-6.66-2.71-13.43-6.32c-6.77-3.61-23.47-9.93-44.24-11.41-20.77-1.47-29.79 5.09-37.02 7.35-7.22 2.26-70.42-14.9-70.42-14.9 4.51 6.32 46.95 24.83 59.59 27.99s27.54-1.35 43.34-2.71c15.79-1.36 62.18 0 62.18 0z m-139.83 89.83c-1.69-0.14-3.67-0.2-5.78-0.21 1.61 0.03 3.09 0.1 4.43 0.21 10.83 0.9 37.02 24.38 48.3 31.15 3 1.8 7.96 2.43 13.6 2.42-5.08-0.09-9.49-0.77-12.24-2.42-11.29-6.77-37.48-30.25-48.31-31.15z" fill="#4F2B24" p-id="4252"></path><path d="M158.56 504.53c27.54-3.61 33.4 10.38 53.72 34.31 20.31 23.93 30.25 17.61 54.17 26.18 23.93 8.58 61.39 5.42 83.96 0 22.57-5.42 29.79-2.26 60.94 0.45 17.23 1.5 32.57 7.55 45.52 13.66l127.49-3.7c1.93-0.63 3.95-1.25 6.2-1.83 10.71-2.78 21.94-1.72 33.08 0.68l90.76-2.64c3.76-2.45 7.58-5.06 11.58-7.98 2.91-7.66 19.69-23 33.14-34.45l1.15-0.99c-11.03 4.19-23.21 9.9-33.39 15.12-16.7 8.58-12.64 10.38-41.53 17.61a80.95 80.95 0 0 1-20.07 2.38c-20.96-0.11-40.04-8-56.22-15.92-6.57-3.22-14-4.43-21.13-4.59-11.7-0.26-22.57 2.33-27.52 3.74-1.78 0.5-2.81 0.85-2.81 0.85s9.48-5.87 22.57-10.38c13.09-4.51 35.66-4.06 45.59-4.51 2.05-0.09 5.66-0.13 10.09-0.13 13.05-0.01 33.49 0.28 44.23 0.25 3.27-0.01 5.65-0.04 6.62-0.13 5.27-0.45 11.59-4.51 25.28-20.47 4.21-16.1 6.32-19.71 18.67-28.74 12.35-9.03 50.85-10.83 61.68-10.83s26.63-6.32 30.7-10.38c4.06-4.06-1.35-14.45-4.51-20.31-3.16-5.87-18.51-24.38-24.83-38.82-3.98-9.1-4.54-11.21-4.4-11.53-4.12-2.54-8.1-4.94-11.76-7.26-5.75 2.82-12.39 5.77-18.15 7.5-13.54 4.06-32.05 0.9-36.11 3.16-4.06 2.26-23.02 9.93-32.95 19.41-9.93 9.48-43.79 36.11-58.23 43.79-14.45 7.67-39.27 18.92-58.23 11.49-18.96-7.43-55.07-25.94-61.39-28.64-6.32-2.71-26.63-7.22-32.5-5.87 0 0 18.96-6.32 55.07 2.26s44.69 10.38 49.66 4.51l9.93-11.74s27.99-15.8 41.08-22.12 34.76-9.03 39.27-13.09c4.51-4.06 14.9-12.19 18.06-18.96 3.16-6.77 9.93-16.7 18.06-23.02 8.13-6.32 10.83-9.03 22.57-10.83 3.87-0.59 9.2-2.02 14.61-3.67-7.67-17.96-17.71-39.72-27.15-55.6l-0.78-1.33c-2.84 7.23-7.25 15.94-13.77 22.68-9.4 9.72-19.34 11.13-24.61 11.1-2.32-0.01-3.83-0.27-3.83-0.27l-62.61-26.27-1.95-0.82 33.86 46.5s-11.29 8.58-21.67 11.74c-10.38 3.16-55.07 25.28-62.75 30.24-7.67 4.97-21.22 13.09-51.91 14.9-8.86 1.38-17.18 2-25.01 2.05-56.39 0.4-86.08-29.79-89.65-37.71-4.06-9.03-24.83-16.25-38.82-27.99-13.99-11.74-85.77-21.67-94.8-27.09-4.14-2.48-3.99-10.17-2.64-17.77l0.01-0.06c0.1-0.56 0.19-1.14 0.3-1.7-8.87 8.71-14.76 16.6-16.34 23.14-4.21 17.46 0.6 48.15-5.42 57.18-2.66 3.99-12.98 11.28-24.02 18.59l-0.66 1.33a376.03 376.03 0 0 0-5.87 12.1c-2.26 5.15-9.03 14.18 17.15 42.17 26.18 27.99 52.82 46.04 62.3 50.56 7.15 3.4 20.69 5.52 32.15 5.19 3.74-0.1 7.28-0.47 10.28-1.13 6.23-1.38 13.99-2.74 21.96-2.62 7.62 0.11 15.44 1.59 22.28 5.78 13.99 8.58 22.12 18.06 36.56 26.63 14.45 8.58 30.25 17.15 37.92 16.7l0.75-0.04 6.93-0.41-0.44 0.11c-3.09 0.73-21.8 4.99-36.06 5.02-5.64 0.01-10.6-0.62-13.6-2.42-11.29-6.77-37.47-30.24-48.3-31.15a70.6 70.6 0 0 0-4.43-0.21c-11.4-0.24-29.06 1.4-45.68 3.37-6.99 0.83-15.58 1.59-24.36 1.71-15.03 0.2-30.62-1.48-39.74-8.03-14.45-10.38-37.92-45.14-46.5-51.91-6.93-5.47-12.66-9.99-16.99-10.35-1.03-0.08-2-0.01-2.87 0.42-4.51 2.26-16.7 13.99-21.67 24.38-3.4 7.1-6.59 13.94-10.63 18.54-0.4 0.47-0.78 1.02-1.2 1.43 0.87 7.29 2 14.14 3.32 20.63 0.4-0.17 0.84-0.29 1.24-0.44l0.02-0.01a41.61 41.61 0 0 1 9.98-2.68z m278.52-86.67c-15.8 1.35-30.7 5.87-43.34 2.71-12.64-3.16-55.07-21.67-59.59-27.99 0 0 63.2 17.15 70.42 14.9 7.22-2.26 16.25-8.82 37.02-7.35 20.77 1.48 37.47 7.8 44.24 11.41 6.77 3.61 13.43 6.32 13.43 6.32s-46.38-1.36-62.18 0z" fill="#74453A" p-id="4253"></path><path d="M470.94 315.84c-29.34 3.61-37.92-4.92-45.14-11.24-2.41-0.99-4.63-2.3-6.74-2.3h-0.01c-4.25 0-7.85-5.94-10.96-8.85-0.71 1.04-1.19 1.55-1.25 2.43-0.6 8.1 4.82 29.53 39.72 36.76 34.91 7.22 45.15 7.71 66.21-5.54 21.06-13.25 28.89-11.5 34.91-18.11 6.02-6.63 10.84-15.69 17.46-25.91 6.62-10.23 7.22-13.87 14.45-15.07 7.22-1.2 22.87-1.81 38.52 1.2s18.66 7.22 37.92 3.61l19.26-3.61-13.25-4.82s-45.14 0-57.78-3c-12.64-3.01-28.88-1.21-37.31 3-2.21 1.1-8.34 1.45-16.61 1.47-2.48 9.01-8.51 14.93-17.55 26.51-14.45 18.5-32.51 19.86-61.85 23.47z" fill="#7E5036" p-id="4254"></path><path d="M486.41 169.07c-5.42-2.85-18.53-9.03-30.69-9.76 12.2 0.73 25.31 6.95 30.69 9.76z m-78.32 123.42a53.66 53.66 0 0 0 10.96 7.9c8.56-5.49 18.05-8.48 27.97-9.83 9.93-1.35 16.25-3.16 18.51-6.32 2.26-3.16 0-22.12 5.98-32.5 5.98-10.38 9.82-9.93 17.49-9.48 7.67 0.45 8.13-5.42 13.99-15.8 5.87-10.38 8.13-26.18 4.51-30.7-2.18-2.72-11.94-6.45-22.61-11.15a702 702 0 0 0-5.23 13.86s-3.91 8.42-4.81 2.71c0 0 1.94-7.77 5.9-18.42-5.69-2.61-11.4-5.5-16.14-8.66-5.9-3.94-8.24-9.5-8.93-14.79-4.35-0.26-8.58 0.14-12.29 1.7-13.83 5.83-36.45 21.94-46.36 45.95a64.12 64.12 0 0 0-4.65 18.61c-2.47 26.91-1.26 51.01 15.71 66.92zM427 185.83c0.9-4.81 8.72-8.73 8.72-8.73s5.42 0 9.63 2.12c4.21 2.1 3.61 8.13 2.11 13.54-1.5 5.42-7.82 3.61-16.1 3.19-8.26-0.43-5.26-5.31-4.36-10.12z m-7.94 114.57z" fill="#C8001A" p-id="4255"></path><path d="M507.5 195.76c3.61 4.51 1.35 20.31-4.51 30.7-5.87 10.38-6.32 16.25-13.99 15.8-7.67-0.45-11.51-0.9-17.49 9.48-5.98 10.38-3.72 29.34-5.98 32.5-2.26 3.16-8.58 5.92-18.51 7.27-9.92 1.35-19.4 3.56-27.97 10.78h0.01c2.11 0 4.32 1.31 6.74 2.3 7.22 6.32 15.8 15.33 45.14 11.72 29.34-3.61 47.4-5.2 61.84-23.71 9.04-11.58 15.07-17.63 17.55-26.63 1.48-5.39 1.69-11.93 0.51-21.4-1.38-11.04-3.45-22.9-6.66-33.42-4.14-13.57-10.17-24.96-19.07-29.64-13.22-6.95-29.55-9.98-34.55-10.78a419.32 419.32 0 0 0-5.67 13.89c10.67 4.69 20.44 8.42 22.61 11.14z m-42.88-22.4a119.81 119.81 0 0 0 16.14 9.03c1.57-4.21 3.43-9.39 5.65-14.23-5.38-2.81-18.49-10.32-30.69-10.32h-0.03c0.69 0 3.03 11.58 8.93 15.52z" fill="#880010" p-id="4256"></path><path d="M480.76 182.75a193.59 193.59 0 0 0-5.9 18.42c0.9 5.71 4.81-2.71 4.81-2.71s2.24-6.18 5.23-13.86c1.74-4.44 3.71-9.35 5.67-13.89 1-2.33 2-4.56 2.95-6.56 6.02-12.64 20.46-25.88 26.49-31.3 6.02-5.42 18.06-12.34 27.38-17.75s37.02-10.83 44.85-11.14c7.83-0.3 16.55-6.62 26.78-8.43 10.23-1.81 23.17-6.62 23.17-6.62l1.21-10.54h-3.61s-18.66 6.17-32.2 11.59c-13.54 5.42-33.71 9.78-50.26 13.69-16.55 3.91-17.45 5.42-43.94 27.09-11.78 9.64-20.69 24.63-26.97 38.31a197.1 197.1 0 0 0-5.66 13.7z" fill="#3C8031" p-id="4257"></path><path d="M431.37 195.94c8.27 0.42 14.59 2.23 16.1-3.19 1.5-5.42 2.1-11.44-2.11-13.54-4.21-2.12-9.63-2.12-9.63-2.12s-7.82 3.92-8.72 8.73c-0.91 4.82-3.91 9.7 4.36 10.12z" fill="#FFFFFF" p-id="4258"></path><path d="M732.35 758.58l-0.77 4.29z" fill="#A6FFEE" opacity=".7" p-id="4259"></path><path d="M674.55 782.95l-2.8 16.62 25.59 0.45 4.92-30.28-12.53 12.86z" fill="#FEC1C3" p-id="4260"></path><path d="M674.55 782.95l-2.8 16.62 25.59 0.45 4.92-30.28-12.53 12.86z" fill="#A6FFEE" opacity=".7" p-id="4261"></path><path d="M420.3 815.77l-0.89-15.11h-28.22l-5.94-5.78 3 22.8z" fill="#FEC1C3" p-id="4262"></path><path d="M420.3 815.77l-0.89-15.11h-28.22l-5.94-5.78 3 22.8z" fill="#A6FFEE" opacity=".7" p-id="4263"></path><path d="M646.39 830.81l4.47-27.87-6.87 10.97-25.22-10.95-2.1 15.23z" fill="#FEC1C3" p-id="4264"></path><path d="M646.39 830.81l4.47-27.87-6.87 10.97-25.22-10.95-2.1 15.23z" fill="#A6FFEE" opacity=".7" p-id="4265"></path><path d="M264.08 746.52l3.95 17.65 23.25 4.59-2.96-15.87z" fill="#FEC1C3" p-id="4266"></path><path d="M264.08 746.52l3.95 17.65 23.25 4.59-2.96-15.87z" fill="#A6FFEE" opacity=".7" p-id="4267"></path><path d="M530.39 840.91l1.31-16.78-27.83-3.66-0.77 15.34z" fill="#FEC1C3" p-id="4268"></path><path d="M530.39 840.91l1.31-16.78-27.83-3.66-0.77 15.34z" fill="#A6FFEE" opacity=".7" p-id="4269"></path><path d="M715.59 769.1l-2.63 17.01 14.31 0.75 4.31-23.99 0.77-4.29-9.51 10.18z" fill="#FEC1C3" p-id="4270"></path><path d="M715.59 769.1l-2.63 17.01 14.31 0.75 4.31-23.99 0.77-4.29-9.51 10.18z" fill="#A6FFEE" opacity=".7" p-id="4271"></path><path d="M582.59 837.97l1.77-1.11 2.04-20.56-3.8 2.42-23.46-5.01-1.56 16.28z" fill="#FEC1C3" p-id="4272"></path><path d="M582.59 837.97l1.77-1.11 2.04-20.56-3.8 2.42-23.46-5.01-1.56 16.28z" fill="#A6FFEE" opacity=".7" p-id="4273"></path><path d="M358.62 800.66l-3.77-21.67h-34.13l-8.77-8.79 4.18 27.84 2.23 2.62z" fill="#FEC1C3" p-id="4274"></path><path d="M358.62 800.66l-3.77-21.67h-34.13l-8.77-8.79 4.18 27.84 2.23 2.62z" fill="#A6FFEE" opacity=".7" p-id="4275"></path><path d="M477.26 840.91v-16.78l-32.24-8.44 0.15 13.86z" fill="#FEC1C3" p-id="4276"></path><path d="M477.26 840.91v-16.78l-32.24-8.44 0.15 13.86z" fill="#A6FFEE" opacity=".7" p-id="4277"></path><path d="M316.13 798.04l-4.18-27.84-15-15.04-8.63-2.27 2.96 15.87z" fill="#DA8688" p-id="4278"></path><path d="M316.13 798.04l-4.18-27.84-15-15.04-8.63-2.27 2.96 15.87z" fill="#A6FFEE" opacity=".7" p-id="4279"></path><path d="M423.99 815.56l21.18 13.99-0.15-13.86-18.32-15.03h-7.29l0.89 15.11z" fill="#DA8688" p-id="4280"></path><path d="M423.99 815.56l21.18 13.99-0.15-13.86-18.32-15.03h-7.29l0.89 15.11z" fill="#A6FFEE" opacity=".7" p-id="4281"></path><path d="M702.26 769.74l-4.92 30.28 11.65-14.1 3.97 0.19 2.63-17.01-13.33 0.63z" fill="#DA8688" p-id="4282"></path><path d="M702.26 769.74l-4.92 30.28 11.65-14.1 3.97 0.19 2.63-17.01-13.33 0.63z" fill="#A6FFEE" opacity=".7" p-id="4283"></path><path d="M495.32 834.36l7.78 1.45 0.77-15.34-13.36-1.75-13.25 5.41v16.78z" fill="#DA8688" p-id="4284"></path><path d="M495.32 834.36l7.78 1.45 0.77-15.34-13.36-1.75-13.25 5.41v16.78z" fill="#A6FFEE" opacity=".7" p-id="4285"></path><path d="M615.09 817.52l1.58 0.67 2.1-15.23-6.68-2.91-25.69 16.25-2.04 20.56z" fill="#DA8688" p-id="4286"></path><path d="M615.09 817.52l1.58 0.67 2.1-15.23-6.68-2.91-25.69 16.25-2.04 20.56z" fill="#A6FFEE" opacity=".7" p-id="4287"></path><path d="M671.75 799.57l2.8-16.62-11.3 0.26-12.39 19.73-4.47 27.87z" fill="#DA8688" p-id="4288"></path><path d="M671.75 799.57l2.8-16.62-11.3 0.26-12.39 19.73-4.47 27.87z" fill="#A6FFEE" opacity=".7" p-id="4289"></path><path d="M530.39 840.91l23.91-11.97 3.28 1.05 1.56-16.28-13.26-2.82-14.18 13.24-1.31 16.78z" fill="#DA8688" p-id="4290"></path><path d="M530.39 840.91l23.91-11.97 3.28 1.05 1.56-16.28-13.26-2.82-14.18 13.24-1.31 16.78z" fill="#A6FFEE" opacity=".7" p-id="4291"></path><path d="M365.61 800.66l21.37 17.1 1.27-0.08-3-22.8-16.33-15.89h-14.07l3.77 21.67z" fill="#DA8688" p-id="4292"></path><path d="M365.61 800.66l21.37 17.1 1.27-0.08-3-22.8-16.33-15.89h-14.07l3.77 21.67z m357.71 8.48l-0.05 0.06-3.78 21.04z" fill="#A6FFEE" opacity=".7" p-id="4293"></path><path d="M639.39 864.46l-27.38-12.51-2.44 17.69 2.37-1.56 26.55 11.87 3.08-19.15z" fill="#FEC1C3" p-id="4294"></path><path d="M639.39 864.46l-27.38-12.51-2.44 17.69 2.37-1.56 26.55 11.87 3.08-19.15z" fill="#A6FFEE" opacity=".7" p-id="4295"></path><path d="M682.84 833.16l-16.82 0.4-3.5 20.78 3.24-4.22 23.38 0.44 4.76-29.37z" fill="#FEC1C3" p-id="4296"></path><path d="M682.84 833.16l-16.82 0.4-3.5 20.78 3.24-4.22 23.38 0.44 4.76-29.37z" fill="#A6FFEE" opacity=".7" p-id="4297"></path><path d="M450.39 866.25l-4.86-4.2 0.17 14.69 4.84 3.37 26.72 9.96v-16.42z" fill="#FEC1C3" p-id="4298"></path><path d="M450.39 866.25l-4.86-4.2 0.17 14.69 4.84 3.37 26.72 9.96v-16.42z" fill="#A6FFEE" opacity=".7" p-id="4299"></path><path d="M275.4 797.08l3.93 17.54 21.25 3.99-2.98-15.95z" fill="#FEC1C3" p-id="4300"></path><path d="M275.4 797.08l3.93 17.54 21.25 3.99-2.98-15.95z" fill="#A6FFEE" opacity=".7" p-id="4301"></path><path d="M707.79 819.64l-2.49 16.16 13.58-2.19 0.61-3.37 3.78-21.04-8.98 10.12z" fill="#FEC1C3" p-id="4302"></path><path d="M707.79 819.64l-2.49 16.16 13.58-2.19 0.61-3.37 3.78-21.04-8.98 10.12z" fill="#A6FFEE" opacity=".7" p-id="4303"></path><path d="M399.27 851.22l-7.63-7.82 3.24 24.59 0.38 0.33 28.06-1.76-0.91-15.34z" fill="#FEC1C3" p-id="4304"></path><path d="M399.27 851.22l-7.63-7.82 3.24 24.59 0.38 0.33 28.06-1.76-0.91-15.34z" fill="#A6FFEE" opacity=".7" p-id="4305"></path><path d="M501.4 870.35l-0.74 15.06 25.87 5.08 1.28-16.48z" fill="#FEC1C3" p-id="4306"></path><path d="M501.4 870.35l-0.74 15.06 25.87 5.08 1.28-16.48z" fill="#A6FFEE" opacity=".7" p-id="4307"></path><path d="M332.33 829.55l-13.62-14.37 4.05 26.95 7.32 9.09h37.35l-3.77-21.67z" fill="#FEC1C3" p-id="4308"></path><path d="M332.33 829.55l-13.62-14.37 4.05 26.95 7.32 9.09h37.35l-3.77-21.67z" fill="#A6FFEE" opacity=".7" p-id="4309"></path><path d="M581.07 869.27l-26.68-5.98-1.63 16.97 1.44-0.76 25.08 8.44 1.86-18.71z" fill="#FEC1C3" p-id="4310"></path><path d="M581.07 869.27l-26.68-5.98-1.63 16.97 1.44-0.76 25.08 8.44 1.86-18.71z" fill="#A6FFEE" opacity=".7" p-id="4311"></path><path d="M309.74 805.72l-12.14-3.06 2.98 15.95 3.79 0.71 18.39 22.81-4.05-26.95z" fill="#DA8688" p-id="4312"></path><path d="M309.74 805.72l-12.14-3.06 2.98 15.95 3.79 0.71 18.39 22.81-4.05-26.95z" fill="#A6FFEE" opacity=".7" p-id="4313"></path><path d="M493.6 869.27l-12.58 5.42-3.76-1.04v16.42l3.76 1.39 17.15-6.54 2.49 0.49 0.74-15.06z" fill="#DA8688" p-id="4314"></path><path d="M493.6 869.27l-12.58 5.42-3.76-1.04v16.42l3.76 1.39 17.15-6.54 2.49 0.49 0.74-15.06z" fill="#A6FFEE" opacity=".7" p-id="4315"></path><path d="M693.9 821.19l-4.76 29.37 0.93 0.02 11.06-14.1 4.17-0.68 2.49-16.16-13.05 0.65z" fill="#DA8688" p-id="4316"></path><path d="M693.9 821.19l-4.76 29.37 0.93 0.02 11.06-14.1 4.17-0.68 2.49-16.16-13.05 0.65z" fill="#A6FFEE" opacity=".7" p-id="4317"></path><path d="M432.99 851.22h-10.58l0.91 15.34 7.11-0.45 15.27 10.63-0.17-14.69z" fill="#DA8688" p-id="4318"></path><path d="M432.99 851.22h-10.58l0.91 15.34 7.11-0.45 15.27 10.63-0.17-14.69z" fill="#A6FFEE" opacity=".7" p-id="4319"></path><path d="M609.09 850.61l-27.95 18.62-1.86 18.71 1.78 0.59 28.51-18.89 2.44-17.69z" fill="#DA8688" p-id="4320"></path><path d="M609.09 850.61l-27.95 18.62-1.86 18.71 1.78 0.59 28.51-18.89 2.44-17.69z" fill="#A6FFEE" opacity=".7" p-id="4321"></path><path d="M657.69 833.77l-16.12 27.03-3.08 19.15 3.18 1.41 20.85-27.02 3.5-20.78z" fill="#DA8688" p-id="4322"></path><path d="M657.69 833.77l-16.12 27.03-3.08 19.15 3.18 1.41 20.85-27.02 3.5-20.78z" fill="#A6FFEE" opacity=".7" p-id="4323"></path><path d="M546.2 861.45l-13.47 13.24-4.92-0.68-1.28 16.48 4.96 0.97 21.27-11.2 1.63-16.97z" fill="#DA8688" p-id="4324"></path><path d="M546.2 861.45l-13.47 13.24-4.92-0.68-1.28 16.48 4.96 0.97 21.27-11.2 1.63-16.97z" fill="#A6FFEE" opacity=".7" p-id="4325"></path><path d="M378.11 829.55h-14.45l3.77 21.67h7.53l19.92 16.77-3.24-24.59z" fill="#DA8688" p-id="4326"></path><path d="M378.11 829.55h-14.45l3.77 21.67h7.53l19.92 16.77-3.24-24.59z" fill="#A6FFEE" opacity=".7" p-id="4327"></path><path d="M229.21 590.81l10.65 47.61-10.65-47.61z m524.8 47.11l7.35-40.99z" fill="#D1848A" opacity=".4" p-id="4328"></path><path d="M258.54 593.25a336.96 336.96 0 0 1-29.33-2.43l10.66 47.6c7.46-1.75 16.36-3.81 25.98-6l-7.31-39.17z" fill="#FEC1C3" p-id="4329"></path><path d="M258.54 593.25a336.96 336.96 0 0 1-29.33-2.43l10.66 47.6c7.46-1.75 16.36-3.81 25.98-6l-7.31-39.17z" fill="#D1848A" opacity=".4" p-id="4330"></path><path d="M380.66 611.06c2.96 3.55 8.24 43.12 31.57 68.49l-3.24-54.83c-17.29-15.74-23.21-31.11-23.21-31.11s-10.84 0.28-26.97 0.51l2.42 18.38c11.12-1.82 18.51-2.54 19.43-1.44z" fill="#FEC1C3" p-id="4331"></path><path d="M380.66 611.06c2.96 3.55 8.24 43.12 31.57 68.49l-3.24-54.83c-17.29-15.74-23.21-31.11-23.21-31.11s-10.84 0.28-26.97 0.51l2.42 18.38c11.12-1.82 18.51-2.54 19.43-1.44z" fill="#D1848A" opacity=".4" p-id="4332"></path><path d="M600.8 671.54l2.86-28.78c-6.96 2.47-16 4.82-28.84 7.23l-2.91 30.41a730.31 730.31 0 0 0 28.89-8.86z" fill="#FEC1C3" p-id="4333"></path><path d="M600.8 671.54l2.86-28.78c-6.96 2.47-16 4.82-28.84 7.23l-2.91 30.41a730.31 730.31 0 0 0 28.89-8.86z" fill="#D1848A" opacity=".4" p-id="4334"></path><path d="M542.3 688.06l2.59-33.28c-6.13 0.85-12.79 1.73-20.08 2.63-4.47 0.34-8.74 0.51-12.94 0.59l-1.81 36.76a598.12 598.12 0 0 0 32.24-6.7z" fill="#FEC1C3" p-id="4335"></path><path d="M542.3 688.06l2.59-33.28c-6.13 0.85-12.79 1.73-20.08 2.63-4.47 0.34-8.74 0.51-12.94 0.59l-1.81 36.76a598.12 598.12 0 0 0 32.24-6.7z" fill="#D1848A" opacity=".4" p-id="4336"></path><path d="M712.9 627.41c2.19 0.58 6.54 1.69 11.95 3.08l4.66-28.67c-8.37 0.93-16.76 2.03-24.98 3.33l-4.1 24.31c5.42-1.86 9.79-2.75 12.47-2.05z" fill="#FEC1C3" p-id="4337"></path><path d="M712.9 627.41c2.19 0.58 6.54 1.69 11.95 3.08l4.66-28.67c-8.37 0.93-16.76 2.03-24.98 3.33l-4.1 24.31c5.42-1.86 9.79-2.75 12.47-2.05z" fill="#D1848A" opacity=".4" p-id="4338"></path><path d="M643.38 655.61c10.99-4.89 22.85-10.86 33.74-16.08l4.86-30.23c-14.47 3.1-27.59 6.9-38.07 11.4l-5.09 36.86c1.63-0.68 3.2-1.34 4.56-1.95z" fill="#FEC1C3" p-id="4339"></path><path d="M643.38 655.61c10.99-4.89 22.85-10.86 33.74-16.08l4.86-30.23c-14.47 3.1-27.59 6.9-38.07 11.4l-5.09 36.86c1.63-0.68 3.2-1.34 4.56-1.95z" fill="#D1848A" opacity=".4" p-id="4340"></path><path d="M466.43 700.46c3.59-0.28 7.21-0.64 10.83-1.02v-43.63a147.63 147.63 0 0 1-34.12-9.5l0.59 52.37a70.86 70.86 0 0 0 22.7 1.78z" fill="#FEC1C3" p-id="4341"></path><path d="M466.43 700.46c3.59-0.28 7.21-0.64 10.83-1.02v-43.63a147.63 147.63 0 0 1-34.12-9.5l0.59 52.37a70.86 70.86 0 0 0 22.7 1.78z" fill="#D1848A" opacity=".4" p-id="4342"></path><path d="M326.98 619.02l-4.29-24.62c-12.11 0.01-24.83-0.06-37.2-0.3l4.92 32.78a2860.4 2860.4 0 0 1 36.57-7.86z" fill="#FEC1C3" p-id="4343"></path><path d="M326.98 619.02l-4.29-24.62c-12.11 0.01-24.83-0.06-37.2-0.3l4.92 32.78a2860.4 2860.4 0 0 1 36.57-7.86z" fill="#D1848A" opacity=".4" p-id="4344"></path><path d="M741.61 600.41l-5.1 33.05 17.49 4.45 7.35-40.99a197.89 197.89 0 0 1-19.74 3.49z" fill="#FEC1C3" p-id="4345"></path><path d="M741.61 600.41l-5.1 33.05 17.49 4.45 7.35-40.99a197.89 197.89 0 0 1-19.74 3.49z" fill="#D1848A" opacity=".4" p-id="4346"></path><path d="M290.42 626.88l-4.92-32.78c-6.24-0.12-12.39-0.28-18.29-0.49-3.03-0.11-5.91-0.23-8.66-0.37l7.3 39.17c7.82-1.78 16.12-3.66 24.57-5.53z" fill="#DA8688" p-id="4347"></path><path d="M290.42 626.88l-4.92-32.78c-6.24-0.12-12.39-0.28-18.29-0.49-3.03-0.11-5.91-0.23-8.66-0.37l7.3 39.17c7.82-1.78 16.12-3.66 24.57-5.53z" fill="#D1848A" opacity=".4" p-id="4348"></path><path d="M700.43 629.46l4.1-24.31c-7.73 1.21-15.3 2.6-22.54 4.15l-4.86 30.23c8.71-4.17 16.79-7.84 23.3-10.07z" fill="#DA8688" p-id="4349"></path><path d="M700.43 629.46l4.1-24.31c-7.73 1.21-15.3 2.6-22.54 4.15l-4.86 30.23c8.71-4.17 16.79-7.84 23.3-10.07z" fill="#D1848A" opacity=".4" p-id="4350"></path><path d="M443.72 698.68l-0.59-52.37a118.87 118.87 0 0 1-34.15-21.58l3.24 54.83c8.11 8.79 18.4 15.84 31.5 19.12z" fill="#DA8688" p-id="4351"></path><path d="M443.72 698.68l-0.59-52.37a118.87 118.87 0 0 1-34.15-21.58l3.24 54.83c8.11 8.79 18.4 15.84 31.5 19.12z" fill="#D1848A" opacity=".4" p-id="4352"></path><path d="M736.51 633.47l5.1-33.05c-2.71 0.36-5.52 0.7-8.55 1.02l-3.56 0.4-4.66 28.67c3.54 0.88 7.51 1.9 11.67 2.96z" fill="#DA8688" p-id="4353"></path><path d="M736.51 633.47l5.1-33.05c-2.71 0.36-5.52 0.7-8.55 1.02l-3.56 0.4-4.66 28.67c3.54 0.88 7.51 1.9 11.67 2.96z" fill="#D1848A" opacity=".4" p-id="4354"></path><path d="M510.06 694.76l1.81-36.76c-12.69 0.27-24.21-0.54-34.6-2.19v43.63a474.6 474.6 0 0 0 32.79-4.68z" fill="#DA8688" p-id="4355"></path><path d="M510.06 694.76l1.81-36.76c-12.69 0.27-24.21-0.54-34.6-2.19v43.63a474.6 474.6 0 0 0 32.79-4.68z" fill="#D1848A" opacity=".4" p-id="4356"></path><path d="M571.92 680.4l2.91-30.41a655 655 0 0 1-29.93 4.78l-2.59 33.28a690.35 690.35 0 0 0 29.61-7.65z" fill="#DA8688" p-id="4357"></path><path d="M571.92 680.4l2.91-30.41a655 655 0 0 1-29.93 4.78l-2.59 33.28a690.35 690.35 0 0 0 29.61-7.65z" fill="#D1848A" opacity=".4" p-id="4358"></path><path d="M638.83 657.56l5.09-36.86a79.87 79.87 0 0 0-12.58 6.62c-9.41 6.27-15.31 11.06-27.68 15.45l-2.86 28.78a535.45 535.45 0 0 0 38.03-13.99z" fill="#DA8688" p-id="4359"></path><path d="M638.83 657.56l5.09-36.86a79.87 79.87 0 0 0-12.58 6.62c-9.41 6.27-15.31 11.06-27.68 15.45l-2.86 28.78a535.45 535.45 0 0 0 38.03-13.99z" fill="#D1848A" opacity=".4" p-id="4360"></path><path d="M361.22 612.5l-2.42-18.38c-10.33 0.16-22.79 0.27-36.11 0.28l4.29 24.62a927.05 927.05 0 0 1 34.24-6.52z" fill="#DA8688" p-id="4361"></path><path d="M361.22 612.5l-2.42-18.38c-10.33 0.16-22.79 0.27-36.11 0.28l4.29 24.62a927.05 927.05 0 0 1 34.24-6.52z" fill="#D1848A" opacity=".4" p-id="4362"></path><path d="M714.41 571.64c-16.58 10.77-31.41 16.55-49.81 13.24-12.65-2.28-26.73-7.53-40.95-10.6l-39.28 1.14c-18.97 6.19-23.66 14.18-37.59 16.23-15.35 2.26-48.3 5.87-63.65 0-6.86-2.62-15.79-7.59-26.25-12.53l-228.8 6.66 1.13 5.03c7.82 1.07 17.28 1.87 29.33 2.43 2.75 0.13 5.63 0.25 8.66 0.37 5.9 0.21 12.05 0.37 18.29 0.49 12.37 0.24 25.09 0.32 37.2 0.3 13.32-0.01 25.79-0.13 36.11-0.28 16.12-0.23 26.97-0.51 26.97-0.51s5.92 15.38 23.21 31.11a118.44 118.44 0 0 0 34.15 21.58c9.78 4.1 21.1 7.44 34.12 9.5a195.32 195.32 0 0 0 34.6 2.19c4.2-0.08 8.48-0.25 12.94-0.59 7.29-0.9 13.95-1.78 20.08-2.63a664.57 664.57 0 0 0 29.93-4.78c12.84-2.41 21.88-4.76 28.84-7.23 12.36-4.39 18.27-9.18 27.68-15.45a79.43 79.43 0 0 1 12.58-6.62c10.47-4.5 23.6-8.3 38.07-11.4a423.67 423.67 0 0 1 22.54-4.15c8.22-1.3 16.6-2.4 24.98-3.33l3.56-0.4c3.03-0.31 5.84-0.66 8.55-1.02a204.68 204.68 0 0 0 19.74-3.48l4.81-26.79-51.74 1.52z" fill="#4F2B24" p-id="4363"></path><path d="M714.41 571.64c-16.58 10.77-31.41 16.55-49.81 13.24-12.65-2.28-26.73-7.53-40.95-10.6l-39.28 1.14c-18.97 6.19-23.66 14.18-37.59 16.23-15.35 2.26-48.3 5.87-63.65 0-6.86-2.62-15.79-7.59-26.25-12.53l-228.8 6.66 1.13 5.03c7.82 1.07 17.28 1.87 29.33 2.43 2.75 0.13 5.63 0.25 8.66 0.37 5.9 0.21 12.05 0.37 18.29 0.49 12.37 0.24 25.09 0.32 37.2 0.3 13.32-0.01 25.79-0.13 36.11-0.28 16.12-0.23 26.97-0.51 26.97-0.51s5.92 15.38 23.21 31.11a118.44 118.44 0 0 0 34.15 21.58c9.78 4.1 21.1 7.44 34.12 9.5a195.32 195.32 0 0 0 34.6 2.19c4.2-0.08 8.48-0.25 12.94-0.59 7.29-0.9 13.95-1.78 20.08-2.63a664.57 664.57 0 0 0 29.93-4.78c12.84-2.41 21.88-4.76 28.84-7.23 12.36-4.39 18.27-9.18 27.68-15.45a79.43 79.43 0 0 1 12.58-6.62c10.47-4.5 23.6-8.3 38.07-11.4a423.67 423.67 0 0 1 22.54-4.15c8.22-1.3 16.6-2.4 24.98-3.33l3.56-0.4c3.03-0.31 5.84-0.66 8.55-1.02a204.68 204.68 0 0 0 19.74-3.48l4.81-26.79-51.74 1.52z" fill="#D1848A" opacity=".4" p-id="4364"></path><path d="M483.13 591.65c15.35 5.87 48.3 2.26 63.65 0 13.93-2.05 18.61-10.04 37.59-16.23l-127.49 3.7c10.46 4.94 19.39 9.91 26.25 12.53z" fill="#74453A" p-id="4365"></path><path d="M483.13 591.65c15.35 5.87 48.3 2.26 63.65 0 13.93-2.05 18.61-10.04 37.59-16.23l-127.49 3.7c10.46 4.94 19.39 9.91 26.25 12.53z" fill="#D1848A" opacity=".4" p-id="4366"></path><path d="M664.6 584.88c18.4 3.32 33.23-2.47 49.81-13.24l-90.76 2.64c14.22 3.07 28.29 8.32 40.95 10.6z" fill="#74453A" p-id="4367"></path><path d="M664.6 584.88c18.4 3.32 33.23-2.47 49.81-13.24l-90.76 2.64c14.22 3.07 28.29 8.32 40.95 10.6z" fill="#D1848A" opacity=".4" p-id="4368"></path></svg>