<?xml version="1.0" standalone="no"?><!DOCTYPE svg PUBLIC "-//W3C//DTD SVG 1.1//EN" "http://www.w3.org/Graphics/SVG/1.1/DTD/svg11.dtd"><svg t="1607840060788" class="icon" viewBox="0 0 1024 1024" version="1.1" xmlns="http://www.w3.org/2000/svg" p-id="4060" xmlns:xlink="http://www.w3.org/1999/xlink" width="200" height="200"><defs><style type="text/css"></style></defs><path d="M834.59 236.64l2.19-8.44c1.52-5.84-0.81-12-5.81-15.37-3.78-2.55-37.73-24.88-64.45-24.88-6.38 0-11.5 1.27-15.66 3.07 0.28-1.98 0.24-4.01-0.33-5.94l-8.88-30.19c-1.42-4.8-5.24-8.51-10.09-9.75l-58.61-15.1a14.73 14.73 0 0 0-3.54-0.44c-2.67 0-5.31 0.75-7.6 2.21-3.32 2.1-5.61 5.48-6.35 9.33l-0.59 3.07-11.49-25.94a14.196 14.196 0 0 0-11.28-8.35l-60.08-7.31a14.246 14.246 0 0 0-10.82 3.2 14.21 14.21 0 0 0-5.08 10.08l-1.75 30.1c-2.16 0.02-4.32 0.1-6.43 0.29l1.07-10.84c0.46-4.58-1.34-9.1-4.81-12.12-2.56-2.23-25.74-21.75-51.39-21.75-6.72 0-13.08 1.33-18.88 3.98a14.22 14.22 0 0 0-8.26 11.5l-0.28 2.77h-7.03l-0.32-9.37a14.25 14.25 0 0 0-4.16-9.56l-5.33-5.33a14.223 14.223 0 0 0-10.05-4.16h-11.92l-0.54-8.85a14.212 14.212 0 0 0-11.23-13.04c-0.82-0.17-20.24-4.26-40.45-4.26-12.82 0-23.49 1.67-31.73 4.96-5.64 2.26-9.23 7.87-8.91 13.93l2.88 55.24c-0.08 0-0.16-0.03-0.24-0.03-0.37 0-0.74 0.11-1.12 0.14a14.23 14.23 0 0 0-7.29-10.01c-1.09-0.58-10.98-5.65-24.45-5.65-11.08 0-27.33 3.46-41.76 19.92a14.232 14.232 0 0 0-3.32 11.77l6.69 39.1c-12.47 1.76-23.22 7.28-31.36 16.33a14.207 14.207 0 0 0-3.41 12.08l26.59 144.68c-2.3 4.54-4.08 8.38-5.39 11.22-5.83 12.62-10.68 34.62-13.28 47.93-0.36 0.98-0.65 1.99-0.76 3.03-0.33 2.97 0.37 5.89 1.77 8.42 0.01 0.01 0.01 0.03 0.02 0.04 0.14 0.25 0.24 0.51 0.39 0.75l1.35 40.42c-0.9 2.03-1.39 4.25-1.26 6.54l1.12 19.42 18.73 322.63c0 0.01 0.01 0.03 0.01 0.06l0.1 1.72c0.25 4.32 2.46 8.29 6 10.78l14.66 10.32c0.03 0.01 0.07-0.1 0.1-0.08 0.51 0.37 1.03 0.64 1.05 0.64h0.01l13.81 9.84c5.86 8.62 24.6 30.61 75.42 55 61.11 29.33 245.18 37.78 252.98 38.12 0.21 0.01 0.42 0.03 0.62 0.03 2.32 0 4.62-0.56 6.67-1.66l27.75-14.77c0.09-0.05 0.2-0.06 0.29-0.1l45.42-24.19a14.2 14.2 0 0 0 5.81-5.86l0.01-0.01c0.37-0.71 0.67-1.46 0.92-2.23 0.04-0.12 0.1-0.24 0.14-0.35 0.05-0.17 0.14-0.31 0.18-0.49l91.2-348.29c0.4-0.8 0.72-1.65 0.97-2.55l7.07-25.72c0.37-1.34 0.5-2.71 0.42-4.07l17.51-66.95c0.7-2.69 0.5-5.47-0.36-8.04 1.32-34.08 2.15-49.44 2.46-51.87 0.05-0.39 4.37-39.64 1.53-61.26 18.37-68.91 18.84-72.32 19.11-74.32 1.39-9.97-4.37-18.4-16.89-25.17z" p-id="4061"></path><path d="M251.11 435.59v-0.02zM268.02 396.23l6.69-10.53-2.89-15.74c-3.44 6.45-5.87 11.75-7.35 14.96-5.76 12.47-10.81 37.19-12.63 46.74 2.07 0.87 7.69 3.21 16.19 6.57v-42zM813.9 458.1v0.01zM811.91 357.83l3.14 19.86-14.94 79.46c5.39-2.07 9.02-3.41 9.02-3.41h4.93c0.5-13.13 2.03-52.16 2.76-57.51 0.82-5.96 4.29-44.75 0.94-60.24-1.9 7.09-3.86 14.39-5.85 21.84z" fill="#EBE1C8" p-id="4062"></path><path d="M281.37 421.92l-6.66-36.22-6.69 10.53v41.99c3.05 1.21 6.5 2.54 10.26 3.99-1.03-5.47-1.99-15.37 3.09-20.29zM788.83 443.47l-0.02 0.07c-1.95 7.21-3.8 14.03-5.49 20.26 6.22-2.55 12.15-4.87 16.78-6.65l14.94-79.46-3.14-19.86c-7.8 29.12-16.13 59.98-23.07 85.64z" fill="#D0C3A0" p-id="4063"></path><path d="M363.38 379.68l-11.36-218.1-15.62-7.99-11.87 6.67zM427.87 158.91c2.28-0.01 4.51 0.36 6.66 0.87l-1.33-25.74h11.44l-0.78-23.09-5.33-5.33h-25.29l3.32 54.57c4.41-0.75 8.44-1.26 11.31-1.28zM461.39 308.02l11.31 140.84c7.65 0.87 14.76 2.11 15.55 3.68 0.46 0.91 3.14 2.37 6.84 4.04l23.35-284.35c4.41-3.34 8.91-5.75 13.39-7.58l3.04-30.6s-30.64-26.67-55.06-15.55l-1.57 15.55h2.9l-19.75 173.97z" fill="#FEEC8E" p-id="4064"></path><path d="M556.32 467.94h1.43l22.85-262.85h35.52L606.1 279.1l23.35-109.53c3.84 0 7.89 0.33 11.93 0.85l1.75-17.62-12.74-28.77-60.08-7.31-2.59 44.54c8.34 1.48 13.78 3.87 13.78 3.87l-25.18 302.81zM622.96 467.94h20.17l53.81-259.77c11.52-1.64 23.87 2.36 33.84 7.12l6.12-26.18-8.88-30.19-58.61-15.1-5.95 31.06c8.69 2.3 14.83 4.46 14.83 4.46l-55.33 288.6z" fill="#FEC445" p-id="4065"></path><path d="M340.79 441.98c4.12 2.76 6.72 4.65 6.72 4.65h19.36l-3.49-66.95-38.84-219.42-3.23-18.22s-26.64-14.21-48.84 11.1l9.52 55.6c11.52 1.56 20.38 5.83 20.38 5.83l38.42 227.41z" fill="#FEC345" p-id="4066"></path><path d="M281.37 421.92c2.21-2.13 5.51-3.34 10.49-2.8 15.52 1.71 37.89 15.49 48.92 22.87l-38.42-227.42s-8.86-4.27-20.38-5.83c-11.96-1.61-26.79-0.32-37.64 11.74l27.48 149.48 2.89 15.74 6.66 36.22zM363.38 379.68l3.49 66.95h29.03l10.99 0.11-19.87-279.84s16.47-4.44 29.54-6.7l-3.32-54.57-1.35-22.2s-41.74-8.88-63.94 0l4.07 78.15 11.36 218.1z" fill="#FDAE3F" p-id="4067"></path><path d="M472.7 448.86l-11.31-140.84-4.22 37.16 5.54 102.72c3.11 0.26 6.58 0.58 9.99 0.96zM449.37 447.19l-14.84-287.4c-2.15-0.51-4.38-0.89-6.66-0.87-2.87 0.01-6.9 0.53-11.31 1.29-13.07 2.26-29.54 6.7-29.54 6.7l19.87 279.84 42.48 0.44z" fill="#FEC345" p-id="4068"></path><path d="M434.53 159.79l14.84 287.4 3.36 0.04s4.34 0.23 9.98 0.68l-5.54-102.72 4.22-37.16 19.76-173.98H433.2l1.33 25.74zM495.09 456.59c10.72 4.82 30.15 11.36 30.15 11.36h31.08l25.17-302.81s-5.44-2.39-13.78-3.87c-9.39-1.67-22.48-2.08-35.88 3.39-4.48 1.83-8.98 4.25-13.39 7.58l-23.35 284.35zM705.21 465.32c6.88-4.63 20.81-13.58 22.81-11.59 0.69 0.69 3.98 0.6 8.44 0.08 17.91-69.64 56.99-212.67 75.47-210.99 0 0 2.48 0.68 5.88 1.89l5.22-20.09s-54.17-36.47-72.37-16.46l2.22 3.55-3.23 14.8c0.62 0.46 1.01 0.76 1.01 0.76l-45.45 238.05z" fill="#FDCD5F" p-id="4069"></path><path d="M606.1 279.1l-25.61 188.84h42.48l55.33-288.61s-6.14-2.16-14.83-4.46c-6.43-1.7-14.24-3.46-22.08-4.46-4.04-0.52-8.09-0.85-11.93-0.85L606.1 279.1z" fill="#FDAE3F" p-id="4070"></path><path d="M580.48 467.94L606.1 279.1l10.03-74.01h-35.52l-22.86 262.85zM696.94 208.17l-53.81 259.77h58.25s1.52-1.07 3.83-2.62l45.46-238.03s-0.39-0.31-1.01-0.76c-2.5-1.85-9.64-6.84-18.87-11.24-9.99-4.76-22.34-8.76-33.85-7.12z" fill="#FED67D" p-id="4071"></path><path d="M783.03 463.92c0.1-0.04 0.2-0.08 0.3-0.13 1.69-6.22 3.54-13.04 5.49-20.26l-5.79 20.39zM736.46 453.82c12.71-1.44 35.07-6.3 35.07-6.3l17.3-4.05c6.94-25.66 15.27-56.51 23.07-85.64 2-7.45 3.95-14.75 5.85-21.84 10.68-40.03 19.22-72.54 19.69-76.06 0.92-6.81-11.81-12.42-19.63-15.21-3.39-1.21-5.88-1.89-5.88-1.89-18.48-1.68-57.56 141.35-75.47 210.99z" fill="#FDAE3F" p-id="4072"></path><path d="M788.83 443.47c-0.01 0.02-0.01 0.04-0.02 0.07l0.02-0.07z" fill="#D0C3A0" p-id="4073"></path><path d="M788.83 443.47c-0.01 0.02-0.01 0.04-0.02 0.07l0.02-0.07z" fill="#FFAA39" opacity=".4" p-id="4074"></path><path d="M278.29 442.21c2.32 0.9 4.77 1.82 7.33 2.78l-4.25-23.07c-5.08 4.92-4.12 14.82-3.08 20.29z" fill="#D0C3A0" p-id="4075"></path><path d="M278.29 442.21c2.32 0.9 4.77 1.82 7.33 2.78l-4.25-23.07c-5.08 4.92-4.12 14.82-3.08 20.29z" fill="#FFAA39" opacity=".4" p-id="4076"></path><path d="M495.09 456.59c-3.7-1.67-6.38-3.13-6.84-4.04-0.79-1.57-7.9-2.81-15.55-3.68l3.98 49.65c4.95 0.78 9.89 1.47 14.79 2.11l3.62-44.04z" fill="#FEEC8E" p-id="4077"></path><path d="M495.09 456.59c-3.7-1.67-6.38-3.13-6.84-4.04-0.79-1.57-7.9-2.81-15.55-3.68l3.98 49.65c4.95 0.78 9.89 1.47 14.79 2.11l3.62-44.04z" fill="#FFAA39" opacity=".4" p-id="4078"></path><path d="M556.32 467.94l-3 36.02c0.44-0.01 0.86-0.05 1.3-0.07l3.13-35.95h-1.43z" fill="#FEC445" p-id="4079"></path><path d="M556.32 467.94l-3 36.02c0.44-0.01 0.86-0.05 1.3-0.07l3.13-35.95h-1.43z" fill="#FFAA39" opacity=".4" p-id="4080"></path><path d="M622.96 467.94l-5.99 31.24c7.31-0.58 13.97-1.1 20.01-1.58l6.15-29.66h-20.17z" fill="#FEC445" p-id="4081"></path><path d="M622.96 467.94l-5.99 31.24c7.31-0.58 13.97-1.1 20.01-1.58l6.15-29.66h-20.17z" fill="#FFAA39" opacity=".4" p-id="4082"></path><path d="M366.87 446.63H347.5s-2.59-1.89-6.72-4.65l4 23.68c7.55 2.44 15.38 4.88 23.44 7.29l-1.35-26.32z" fill="#FEC345" p-id="4083"></path><path d="M366.87 446.63H347.5s-2.59-1.89-6.72-4.65l4 23.68c7.55 2.44 15.38 4.88 23.44 7.29l-1.35-26.32z" fill="#FFAA39" opacity=".4" p-id="4084"></path><path d="M291.86 419.12c-4.98-0.54-8.28 0.67-10.49 2.8l4.25 23.07c15.82 5.97 36.14 13.25 59.17 20.67l-4-23.68c-11.04-7.37-33.41-21.15-48.93-22.86z" fill="#FDAE3F" p-id="4085"></path><path d="M291.86 419.12c-4.98-0.54-8.28 0.67-10.49 2.8l4.25 23.07c15.82 5.97 36.14 13.25 59.17 20.67l-4-23.68c-11.04-7.37-33.41-21.15-48.93-22.86z" fill="#FFAA39" opacity=".4" p-id="4086"></path><path d="M395.9 446.63h-29.03l1.37 26.32c13.29 3.97 27.14 7.87 41.33 11.48l-2.68-37.69-10.99-0.11z" fill="#FDAE3F" p-id="4087"></path><path d="M395.9 446.63h-29.03l1.37 26.32c13.29 3.97 27.14 7.87 41.33 11.48l-2.68-37.69-10.99-0.11z" fill="#FFAA39" opacity=".4" p-id="4088"></path><path d="M449.37 447.19l-42.48-0.44 2.68 37.69c13.88 3.53 28.03 6.79 42.22 9.61l-2.42-46.86z" fill="#FEC345" p-id="4089"></path><path d="M449.37 447.19l-42.48-0.44 2.68 37.69c13.88 3.53 28.03 6.79 42.22 9.61l-2.42-46.86z" fill="#FFAA39" opacity=".4" p-id="4090"></path><path d="M472.7 448.86c-3.41-0.39-6.88-0.71-9.99-0.96l2.62 48.68c3.79 0.67 7.58 1.33 11.35 1.92l-3.98-49.64z" fill="#FEC345" p-id="4091"></path><path d="M472.7 448.86c-3.41-0.39-6.88-0.71-9.99-0.96l2.62 48.68c3.79 0.67 7.58 1.33 11.35 1.92l-3.98-49.64z" fill="#FFAA39" opacity=".4" p-id="4092"></path><path d="M462.71 447.91c-5.63-0.45-9.98-0.68-9.98-0.68l-3.36-0.04 2.42 46.86c4.51 0.9 9.03 1.75 13.54 2.55l-2.62-48.69z" fill="#FDCD5F" p-id="4093"></path><path d="M462.71 447.91c-5.63-0.45-9.98-0.68-9.98-0.68l-3.36-0.04 2.42 46.86c4.51 0.9 9.03 1.75 13.54 2.55l-2.62-48.69z" fill="#FFAA39" opacity=".4" p-id="4094"></path><path d="M552.19 467.94h-26.95s-19.43-6.54-30.15-11.36l-3.62 44.03c21.52 2.8 42.46 4.13 61.86 3.34l3-36.02h-4.14z" fill="#FDCD5F" p-id="4095"></path><path d="M552.19 467.94h-26.95s-19.43-6.54-30.15-11.36l-3.62 44.03c21.52 2.8 42.46 4.13 61.86 3.34l3-36.02h-4.14z" fill="#FFAA39" opacity=".4" p-id="4096"></path><path d="M700.31 493.54c0.19 0.01 0.4 1.4 0.61 1.41 0.38 0.02 0.79 1.41 1.22 1.41h0.61c0.67 0 1.39-1.4 2.17-1.46 0.13-0.01 0.29-0.71 0.43-0.72 0.69-0.05 1.42-0.46 2.21-0.56 0.27-0.03 0.55-0.24 0.84-0.27 0.76-0.1 1.56-0.31 2.4-0.45 0.28-0.04 0.53-0.13 0.82-0.18 1.14-0.2 2.36-0.46 3.66-0.75 0.11-0.03 0.24-0.07 0.35-0.1 1.18-0.26 2.44-0.58 3.75-0.93 0.4-0.11 0.82-0.23 1.23-0.35 1.14-0.31 2.34-0.67 3.58-1.05 0.43-0.13 0.84-0.25 1.28-0.39 0.74-0.23 1.54-0.51 2.3-0.77 1.26-5.16 4.36-17.73 8.69-34.58-4.46 0.51-7.75 0.61-8.44-0.08-2-2-15.93 6.96-22.81 11.59l-5.38 28.17c0.16 0.03 0.3 0.05 0.48 0.06z" fill="#FDCD5F" p-id="4097"></path><path d="M700.31 493.54c0.19 0.01 0.4 1.4 0.61 1.41 0.38 0.02 0.79 1.41 1.22 1.41h0.61c0.67 0 1.39-1.4 2.17-1.46 0.13-0.01 0.29-0.71 0.43-0.72 0.69-0.05 1.42-0.46 2.21-0.56 0.27-0.03 0.55-0.24 0.84-0.27 0.76-0.1 1.56-0.31 2.4-0.45 0.28-0.04 0.53-0.13 0.82-0.18 1.14-0.2 2.36-0.46 3.66-0.75 0.11-0.03 0.24-0.07 0.35-0.1 1.18-0.26 2.44-0.58 3.75-0.93 0.4-0.11 0.82-0.23 1.23-0.35 1.14-0.31 2.34-0.67 3.58-1.05 0.43-0.13 0.84-0.25 1.28-0.39 0.74-0.23 1.54-0.51 2.3-0.77 1.26-5.16 4.36-17.73 8.69-34.58-4.46 0.51-7.75 0.61-8.44-0.08-2-2-15.93 6.96-22.81 11.59l-5.38 28.17c0.16 0.03 0.3 0.05 0.48 0.06z" fill="#FFAA39" opacity=".4" p-id="4098"></path><path d="M580.48 467.94l-4.67 34.48c15.64-1.23 29.27-2.3 41.16-3.24l5.99-31.24h-42.48z" fill="#FDAE3F" p-id="4099"></path><path d="M580.48 467.94l-4.67 34.48c15.64-1.23 29.27-2.3 41.16-3.24l5.99-31.24h-42.48z" fill="#FFAA39" opacity=".4" p-id="4100"></path><path d="M557.75 467.94l-3.13 35.95c2.66-0.12 5.34-0.22 7.93-0.43 4.59-0.36 8.97-0.71 13.26-1.04l4.67-34.48h-22.73z" fill="#FED67D" p-id="4101"></path><path d="M557.75 467.94l-3.13 35.95c2.66-0.12 5.34-0.22 7.93-0.43 4.59-0.36 8.97-0.71 13.26-1.04l4.67-34.48h-22.73z" fill="#FFAA39" opacity=".4" p-id="4102"></path><path d="M699.82 493.49l5.38-28.17c-2.31 1.55-3.83 2.62-3.83 2.62h-58.25l-6.15 29.66c52.29-4.14 59.52-4.79 59.52-4.79s0.73 0.35 2.45 0.6c0.13 0.01 0.29 0.03 0.44 0.04 0.14 0.02 0.3 0.02 0.44 0.04z" fill="#FED67D" p-id="4103"></path><path d="M699.82 493.49l5.38-28.17c-2.31 1.55-3.83 2.62-3.83 2.62h-58.25l-6.15 29.66c52.29-4.14 59.52-4.79 59.52-4.79s0.73 0.35 2.45 0.6c0.13 0.01 0.29 0.03 0.44 0.04 0.14 0.02 0.3 0.02 0.44 0.04z" fill="#FFAA39" opacity=".4" p-id="4104"></path><path d="M788.83 443.47l-17.3 4.05s-22.36 4.86-35.07 6.3c-4.33 16.85-7.43 29.42-8.69 34.58 1-0.33 1.94-0.62 3-1 0.08-0.03 0.18-0.07 0.27-0.1 1.75-0.62 3.6-1.32 5.52-2.05 0.58-0.22 1.18-0.47 1.77-0.7 1.55-0.62 3.16-1.27 4.81-1.96 0.65-0.28 1.29-0.54 1.96-0.83 1.08-0.46 2.23-0.99 3.34-1.48 1.26-0.56 2.46-1.07 3.77-1.67 5.61-3.92 18.63-9.69 30.81-14.68l5.79-20.38c0.01-0.04 0.02-0.06 0.02-0.08z" fill="#FDAE3F" p-id="4105"></path><path d="M788.83 443.47l-17.3 4.05s-22.36 4.86-35.07 6.3c-4.33 16.85-7.43 29.42-8.69 34.58 1-0.33 1.94-0.62 3-1 0.08-0.03 0.18-0.07 0.27-0.1 1.75-0.62 3.6-1.32 5.52-2.05 0.58-0.22 1.18-0.47 1.77-0.7 1.55-0.62 3.16-1.27 4.81-1.96 0.65-0.28 1.29-0.54 1.96-0.83 1.08-0.46 2.23-0.99 3.34-1.48 1.26-0.56 2.46-1.07 3.77-1.67 5.61-3.92 18.63-9.69 30.81-14.68l5.79-20.38c0.01-0.04 0.02-0.06 0.02-0.08z" fill="#FFAA39" opacity=".4" p-id="4106"></path><path d="M462.65 906.18c25.75 6.22 157.33 17.32 157.33 17.32l66.03-359.8-11.86 4.88s-110.11 11.84-182.33 0c-72.23-11.84-161.02-26.7-191.81-41.76-16.57-8.11-33.11-16.3-44.88-22.15l18.72 322.63 14.76 12.08 1.17 0.82c4.08 1.98 46.93 22.88 68.91 35.56 23.08 13.32 78.2 24.2 103.96 30.42z m-25.33-205.04c-1.06 7.23-1.94 12.61-2.64 16.16-0.14 0.69-0.37 1.08-0.7 1.19-0.15 0.07-0.62 0.07-1.43-0.03-2.04-0.19-4.88-0.65-8.53-1.37-5.15-1.01-8.17-1.71-9.03-2.08-0.87-0.38-1.23-0.91-1.1-1.6 0.51-2.59 1.4-6.47 2.67-11.63 1.27-5.16 2.16-9.03 2.67-11.63 0.25-1.28 0.04-2.09-0.65-2.44-1.07-0.48-5.02-1.39-11.85-2.73-6.86-1.35-10.9-2-12.1-1.97-0.76 0.03-1.26 0.69-1.52 2.01-0.5 2.56-1.17 6.41-2.01 11.55-0.84 5.14-1.51 9-2.02 11.56-0.19 0.99-0.75 1.48-1.67 1.46-1.09-0.01-4.2-0.52-9.32-1.53-4.43-0.87-7.24-1.53-8.42-1.96-0.92-0.35-1.3-0.96-1.13-1.82 0.7-3.54 1.92-8.87 3.67-15.96 1.76-7.1 2.98-12.44 3.69-16.02 0.75-3.81 1.71-9.57 2.88-17.27 1.17-7.71 2.13-13.46 2.88-17.27 0.15-0.72 0.56-1.03 1.25-0.89 1.02 0.2 2.55 0.55 4.58 1.05 2.04 0.5 3.57 0.85 4.58 1.05 1.05 0.21 2.65 0.47 4.79 0.79 2.14 0.31 3.73 0.58 4.79 0.78 0.56 0.11 0.78 0.46 0.67 1.05-0.49 2.47-1.39 6.12-2.72 10.96-1.32 4.84-2.23 8.49-2.72 10.96-0.22 1.15-0.04 1.88 0.54 2.2 0.8 0.44 4.98 1.39 12.54 2.88 7.03 1.37 11.14 2.05 12.3 2 0.83-0.04 1.35-0.63 1.58-1.78 0.46-2.37 1.05-5.96 1.76-10.79s1.3-8.44 1.77-10.84c0.2-1.02 0.71-1.45 1.53-1.29 0.96 0.19 2.4 0.53 4.34 1.01s3.39 0.82 4.38 1.01c0.95 0.18 2.41 0.42 4.39 0.71 1.97 0.28 3.46 0.53 4.44 0.72 0.95 0.18 1.35 0.67 1.19 1.46-0.74 3.78-2.02 9.45-3.83 17.01-1.81 7.56-3.09 13.25-3.84 17.07-0.7 3.62-1.58 9.03-2.65 16.26z m33.31-13.01c-0.76 3.87-1.82 9.73-3.15 17.55-1.33 7.83-2.38 13.68-3.14 17.55-0.13 0.66-0.35 1.04-0.69 1.15-0.06 0.01-0.51 0-1.32-0.06-2.19-0.16-5.07-0.59-8.65-1.29-4.8-0.94-7.83-1.68-9.09-2.2-0.91-0.38-1.29-0.98-1.13-1.81-0.1 0.53 0.61-2.33 2.15-8.58 3.21-13.19 5.22-21.87 6.04-26.05 0.69-3.51 1.61-8.81 2.76-15.89 1.16-7.08 2.08-12.38 2.77-15.89 0.15-0.72 0.59-1.01 1.35-0.86 1.02 0.19 2.55 0.55 4.58 1.05 2.03 0.5 3.57 0.85 4.58 1.05 1.02 0.2 2.53 0.45 4.54 0.74 2.01 0.29 3.51 0.53 4.53 0.74 0.96 0.19 1.36 0.65 1.22 1.37-0.69 3.52-1.92 8.75-3.68 15.71-1.76 6.96-2.98 12.2-3.67 15.72z m60.29 25.31c-5.5 4.34-12.17 5.74-20.02 4.2-1.32-0.26-3.28-0.72-5.9-1.39-2.62-0.67-4.59-1.14-5.9-1.39-1.41-0.28-2.24 0.19-2.48 1.41-0.3 1.51-0.59 3.79-0.88 6.84-0.29 3.05-0.59 5.31-0.87 6.78-0.15 0.76-0.57 1.07-1.26 0.93-2-0.39-4.99-1.04-8.98-1.94-3.99-0.9-6.98-1.55-8.98-1.94-0.96-0.18-1.34-0.76-1.15-1.71 0.72-3.65 1.85-9.12 3.41-16.4 1.55-7.29 2.68-12.77 3.4-16.41 2.03-10.32 3.72-21.25 5.06-32.79l0.08-0.69c0.06-0.64 0.62-0.92 1.71-0.85 2.62 0.18 8.3 1.12 17.05 2.84 5.16 1.01 10.09 2.05 14.8 3.12 7.73 1.76 13.53 5.44 17.39 11.04 3.92 5.74 5.12 12.5 3.59 20.26-1.58 7.94-4.93 13.97-10.07 18.09zM549 689.66c1.18-6.02 4.93-10.46 11.27-13.35 5.18-2.4 11.16-3.44 17.97-3.12 0.37 0.03 0.65 0.07 0.85 0.11 0.49 0.1 0.81 0.57 0.94 1.42 0.39 2.57 1.53 7.3 3.41 14.18 0.07 0.22 0.08 0.39 0.06 0.53-0.11 0.55-0.46 0.78-1.05 0.67-0.27-0.06-0.7-0.19-1.3-0.42-0.6-0.22-1.07-0.36-1.4-0.43-2.37-0.46-4.54-0.33-6.53 0.41-2.39 0.83-3.79 2.37-4.22 4.59-0.4 2 0.3 4.7 2.09 8.1 3.14 6.08 4.78 9.27 4.93 9.56 1.62 4.08 2.08 7.91 1.38 11.49-1.31 6.67-5.24 11.84-11.8 15.49-5.75 3.24-12.28 4.74-19.57 4.5-0.27-0.02-0.49-0.04-0.65-0.08-0.76-0.15-1.98-2.78-3.66-7.91-1.7-5.13-2.44-8.2-2.23-9.21 0.07-0.36 0.36-0.55 0.87-0.55 4.98-0.14 8.31-0.44 10-0.89 3.75-1.04 5.96-3.24 6.62-6.59 0.42-2.14-0.23-4.74-1.94-7.81-3-5.23-4.62-8.12-4.85-8.68-1.61-3.88-2-7.88-1.19-12.01z m-211.55 11.92c-10.25-2.01-17.88-7.15-22.87-15.39-4.88-7.99-6.31-17.15-4.29-27.46 1.96-9.99 6.67-17.87 14.12-23.64 7.77-6.05 16.56-8.11 26.34-6.19 10.65 2.1 18.36 7 23.12 14.73 0.51 0.85 0.71 1.56 0.61 2.12-0.13 0.62-1.72 2.72-4.79 6.28-3.07 3.56-4.95 5.53-5.63 5.9-0.32 0.21-0.67 0.28-1.06 0.19-0.17-0.03-0.86-0.85-2.08-2.45-1.46-1.92-2.97-3.5-4.5-4.72-2.34-1.83-4.9-3.01-7.69-3.56-4.83-0.95-9.05 0.1-12.65 3.14-3.32 2.83-5.47 6.72-6.43 11.64-0.99 5-0.47 9.45 1.52 13.35 2.17 4.25 5.67 6.85 10.5 7.8 2.86 0.56 5.69 0.47 8.5-0.28 1.84-0.49 3.77-1.3 5.8-2.44 1.69-0.96 2.62-1.43 2.78-1.4 0.33 0.07 0.62 0.32 0.88 0.74 0.41 0.7 1.44 3.03 3.08 7.01 1.68 4.12 2.48 6.35 2.41 6.72-0.1 0.52-0.58 1.14-1.44 1.87-7.47 5.99-16.21 8.01-26.23 6.04z" fill="#E3001E" p-id="4107"></path><path d="M512.21 678.58c-5.25-1.03-8.07-1.28-8.45-0.74-0.31 0.38-1.18 4.15-2.58 11.32-0.2 1.01-0.46 2.53-0.76 4.53-0.31 2-0.56 3.52-0.76 4.53-0.13 0.67 2.76 1.57 8.68 2.73 7.13 1.4 11.4-1.5 12.81-8.69 1.51-7.64-1.47-12.21-8.94-13.68zM417.22 534.25c118.4 22.49 198.91 24.86 264.03 11.84 3.09-1.37 5.96-1.17 8.71-2.39l8.96-47.34h0.03c-1.72 0-2.45-2.07-2.45-2.07s-7.23-0.09-59.52 4.06c-6.04 0.47-12.7 0.64-20.01 1.21-11.89 0.94-25.52 1.83-41.16 3.05-4.29 0.34-8.66 0.6-13.26 0.96-2.59 0.2-5.27 0.26-7.93 0.37-0.44 0.03-0.86 0.04-1.3 0.06-19.4 0.78-40.34-0.55-61.86-3.36-4.9-0.64-9.84-1.33-14.79-2.12-3.77-0.6-7.56-1.25-11.35-1.91-4.52-0.8-9.03-1.65-13.54-2.55-14.19-2.82-28.35-6.08-42.22-9.61-14.19-3.61-28.05-7.51-41.33-11.48-8.06-2.41-15.89-4.86-23.44-7.29-23.03-7.42-43.35-14.7-59.17-20.67-2.57-0.96-5.01-1.89-7.33-2.78-3.76-1.45-7.21-2.78-10.26-3.99-8.5-3.36-14.12-5.7-16.19-6.57-0.58-0.24 0.37-0.41 0.37-0.41l1.6 4.33v0.01l1.82 54.61-0.96-4.93c21.37 10.08 74.1 32.16 162.55 48.97zM719.37 490.93c-1.32 0.35-2.57 0.67-3.75 0.94 1.18-0.27 2.43-0.58 3.75-0.94zM710.8 492.82zM724.19 489.55zM715.27 491.95zM730.76 487.4c-1.05 0.37-2 0.67-3 1-0.76 0.26-1.57 0.54-2.3 0.77 1.68-0.54 3.44-1.11 5.3-1.77zM707.56 493.29zM704.92 493.53c-0.78 0.06-1.51 0.08-2.17 0.08 0.67-0.01 1.39-0.03 2.17-0.08zM702.14 493.6c-0.43-0.01-0.85-0.01-1.22-0.03 0.37 0.03 0.79 0.03 1.22 0.03zM699.39 493.45c0.28 0.04 0.59 0.07 0.92 0.1-0.17-0.01-0.32-0.03-0.49-0.06-0.14-0.02-0.3-0.02-0.43-0.04zM748.44 480.29v-0.02c-1.12 0.49-2.27 1.02-3.34 1.48 1.08-0.46 2.2-0.96 3.34-1.46zM738.33 484.54a275.954 275.954 0 0 1 0 0zM731.03 487.3c1.76-0.62 3.6-1.32 5.52-2.05-1.91 0.73-3.77 1.42-5.52 2.05z" fill="#E3001E" p-id="4108"></path><path d="M273.85 827.3l0.1 1.77 14.66 10.31h-0.01l-14.75-12.08zM743.14 482.58c-1.66 0.69-3.26 1.35-4.81 1.96-0.59 0.23-1.19 0.48-1.77 0.7-1.92 0.74-3.77 1.43-5.52 2.05-0.09 0.03-0.19 0.07-0.27 0.1-1.87 0.66-3.62 1.23-5.3 1.77-0.44 0.14-0.85 0.26-1.28 0.39-1.24 0.38-2.44 0.73-3.58 1.05-0.42 0.11-0.83 0.24-1.23 0.33-1.32 0.35-2.57 0.67-3.75 0.94-0.11 0.02-0.24 0.06-0.35 0.08-1.3 0.29-2.51 0.53-3.66 0.74-0.28 0.06-0.54 0.1-0.82 0.14-0.85 0.14-1.64 0.26-2.4 0.36-0.28 0.03-0.57 0.07-0.84 0.1-0.78 0.09-1.52 0.16-2.21 0.22-0.14 0.01-0.3 1.39-0.43 1.4-0.78 0.06-1.51 1.46-2.17 1.46h-0.61c-0.43 0-0.85-1.39-1.22-1.41-0.21-0.01-0.42-0.71-0.61-0.72-0.33-0.03-0.64 1.08-0.92 1.05-0.15-0.02-0.31 1.08-0.44 1.08h-0.03l-8.96 47.34c44.53-19.8 44.57-20.56 44.57-20.56l4.78-0.2 9.13-42.47c-1.14 0.5-2.26 0.91-3.34 1.37-0.67 0.29-1.31 0.45-1.96 0.73zM734.75 543.74l-0.22-0.03-48.52 19.98-66.03 359.8s-131.58-11.1-157.33-17.32c-25.75-6.22-80.88-17.09-103.97-30.41-21.98-12.68-64.83-33.58-68.91-35.56h-0.01l16.16 11.36s11.84 23.69 71.04 52.1 247.46 36.7 247.46 36.7l73.41-39.07-45.46 24.2 82.38-381.75z" fill="#9B0012" p-id="4109"></path><path d="M800.11 457.14c-4.63 1.78-10.56 4.1-16.78 6.65-0.1 0.04-0.2 0.08-0.3 0.13-12.18 4.99-23.87 10.76-29.48 14.68-1.32 0.6-2.44 1.11-2.44 1.67v0.02l-10.46 42.28 56.51 2-7.07 25.72-55.17-6.55-82.46 381.75 45.42-22.84 116.05-441.82h-0.01l1.14-7.1h-5.92c-0.02 0-3.64 1.34-9.03 3.41z" fill="#B30017" p-id="4110"></path><path d="M491.81 568.58c72.23 11.84 182.33 0 182.33 0L686 563.7l48.52-19.98 0.22 0.03 55.01 6.55 6.74-25.72-57.18-2-4.78-0.17s-0.04 0.02-44.57 19.81c-2.75 1.22-5.62 2.5-8.71 3.87-65.12 13.03-145.63 10.66-264.03-11.84-88.45-16.81-141.85-38.89-163.22-48.99l0.28 4.93 0.84 14.48c11.77 5.85 28.31 14.03 44.88 22.15 30.79 15.06 119.58 29.92 191.81 41.76zM365.11 693.66c0.07-0.37-0.74-2.6-2.41-6.72-1.64-3.98-2.67-6.31-3.08-7.01-0.26-0.42-0.55-0.67-0.88-0.74-0.16-0.03-1.09 0.44-2.78 1.4-2.03 1.14-3.96 1.96-5.8 2.44-2.81 0.75-5.64 0.84-8.5 0.28-4.84-0.95-8.33-3.55-10.5-7.8-1.99-3.9-2.5-8.35-1.52-13.35 0.96-4.93 3.12-8.81 6.43-11.64 3.6-3.04 7.82-4.09 12.65-3.14 2.79 0.55 5.36 1.73 7.69 3.56 1.53 1.22 3.04 2.8 4.5 4.72 1.22 1.6 1.92 2.42 2.08 2.45 0.39 0.08 0.74 0.01 1.06-0.19 0.68-0.37 2.56-2.35 5.63-5.9 3.07-3.56 4.67-5.65 4.79-6.28 0.1-0.55-0.1-1.26-0.61-2.12-4.76-7.73-12.47-12.63-23.12-14.73-9.78-1.92-18.57 0.14-26.34 6.19-7.44 5.77-12.15 13.65-14.12 23.64-2.03 10.31-0.6 19.47 4.29 27.46 5 8.25 12.62 13.38 22.87 15.39 10.02 1.97 18.76-0.05 26.22-6.06 0.87-0.71 1.35-1.33 1.45-1.85zM447.64 650.85c0.16-0.78-0.24-1.28-1.19-1.46-0.98-0.19-2.47-0.44-4.44-0.72-1.98-0.28-3.44-0.53-4.39-0.71-0.99-0.19-2.45-0.53-4.38-1.01-1.94-0.49-3.38-0.82-4.34-1.01-0.82-0.16-1.33 0.27-1.53 1.29-0.47 2.4-1.06 6.01-1.77 10.84s-1.29 8.42-1.76 10.79c-0.23 1.15-0.76 1.74-1.58 1.78-1.17 0.05-5.27-0.62-12.3-2-7.56-1.48-11.74-2.44-12.54-2.88-0.58-0.32-0.76-1.05-0.54-2.2 0.49-2.47 1.39-6.12 2.72-10.96 1.33-4.84 2.23-8.49 2.72-10.96 0.12-0.59-0.1-0.94-0.67-1.05-1.05-0.2-2.65-0.46-4.79-0.78s-3.73-0.58-4.79-0.79c-1.01-0.2-2.54-0.55-4.58-1.05-2.03-0.5-3.56-0.85-4.58-1.05-0.69-0.14-1.1 0.17-1.25 0.89-0.75 3.81-1.71 9.56-2.88 17.27-1.17 7.71-2.13 13.47-2.88 17.27-0.71 3.58-1.93 8.91-3.69 16.02-1.75 7.09-2.97 12.42-3.67 15.96-0.17 0.86 0.21 1.46 1.13 1.82 1.18 0.43 3.98 1.08 8.42 1.96 5.13 1.01 8.23 1.51 9.32 1.53 0.92 0.01 1.48-0.48 1.67-1.46 0.51-2.56 1.18-6.42 2.02-11.56 0.84-5.14 1.51-8.99 2.01-11.55 0.26-1.32 0.76-1.98 1.52-2.01 1.2-0.03 5.24 0.62 12.1 1.97 6.83 1.35 10.78 2.25 11.85 2.73 0.69 0.35 0.9 1.15 0.65 2.44-0.51 2.6-1.4 6.47-2.67 11.63-1.27 5.16-2.16 9.03-2.67 11.63-0.13 0.69 0.23 1.22 1.1 1.6 0.87 0.37 3.88 1.07 9.03 2.08 3.65 0.71 6.49 1.17 8.53 1.37 0.8 0.1 1.28 0.1 1.43 0.03 0.33-0.11 0.56-0.5 0.7-1.19 0.69-3.55 1.57-8.94 2.64-16.16 1.07-7.24 1.95-12.64 2.65-16.22 0.75-3.82 2.03-9.5 3.84-17.07 1.81-7.6 3.09-13.27 3.83-17.05zM476.76 655.34c-1.02-0.2-2.52-0.44-4.53-0.74-2.01-0.29-3.52-0.54-4.54-0.74-1.01-0.2-2.55-0.55-4.58-1.05-2.03-0.51-3.56-0.86-4.58-1.05-0.76-0.15-1.2 0.14-1.35 0.86-0.69 3.51-1.61 8.81-2.77 15.89-1.15 7.08-2.07 12.38-2.76 15.89-0.82 4.18-2.83 12.86-6.04 26.05-1.54 6.25-2.25 9.11-2.15 8.58-0.16 0.83 0.22 1.43 1.13 1.81 1.26 0.52 4.29 1.26 9.09 2.2 3.58 0.7 6.47 1.13 8.65 1.29 0.81 0.06 1.26 0.07 1.32 0.06 0.33-0.11 0.55-0.49 0.69-1.15 0.76-3.87 1.81-9.73 3.14-17.55 1.33-7.83 2.39-13.68 3.15-17.55 0.69-3.52 1.91-8.76 3.67-15.71 1.76-6.96 2.98-12.19 3.68-15.71 0.14-0.73-0.27-1.19-1.22-1.38zM537.38 675.09c-3.85-5.61-9.65-9.28-17.39-11.04-4.71-1.06-9.64-2.1-14.8-3.12-8.74-1.71-14.42-2.66-17.05-2.84-1.08-0.07-1.64 0.21-1.71 0.85l-0.08 0.69c-1.35 11.54-3.04 22.48-5.06 32.79-0.71 3.64-1.85 9.12-3.4 16.41-1.55 7.28-2.68 12.75-3.41 16.4-0.19 0.95 0.19 1.53 1.15 1.71 2 0.4 4.99 1.04 8.98 1.94 3.99 0.9 6.99 1.55 8.98 1.94 0.69 0.14 1.11-0.17 1.26-0.93 0.28-1.47 0.58-3.73 0.87-6.78 0.29-3.05 0.58-5.33 0.88-6.84 0.24-1.21 1.07-1.69 2.48-1.41 1.31 0.26 3.28 0.72 5.9 1.39 2.62 0.67 4.58 1.12 5.9 1.39 7.85 1.54 14.53 0.14 20.02-4.2 5.14-4.11 8.49-10.14 10.05-18.09 1.55-7.76 0.35-14.52-3.57-20.26z m-16.23 17.18c-1.42 7.19-5.69 10.09-12.81 8.69-5.92-1.17-8.8-2.07-8.68-2.73 0.2-1.01 0.45-2.53 0.76-4.53 0.31-2 0.56-3.52 0.76-4.53 1.4-7.17 2.27-10.94 2.58-11.32 0.38-0.54 3.2-0.29 8.45 0.74 7.47 1.46 10.45 6.03 8.94 13.68zM555.02 710.34c1.71 3.07 2.37 5.67 1.94 7.81-0.66 3.35-2.87 5.55-6.62 6.59-1.69 0.44-5.02 0.75-10 0.89-0.51 0.01-0.8 0.19-0.87 0.55-0.2 1.01 0.53 4.09 2.23 9.21 1.69 5.13 2.91 7.76 3.66 7.91 0.16 0.04 0.38 0.06 0.65 0.08 7.29 0.24 13.82-1.26 19.57-4.5 6.56-3.66 10.49-8.82 11.8-15.49 0.7-3.58 0.24-7.41-1.38-11.49-0.15-0.29-1.79-3.48-4.93-9.56-1.8-3.39-2.49-6.09-2.09-8.1 0.44-2.23 1.84-3.77 4.22-4.59 1.99-0.74 4.16-0.87 6.53-0.41 0.33 0.07 0.8 0.21 1.4 0.43 0.6 0.22 1.03 0.36 1.3 0.42 0.59 0.11 0.94-0.11 1.05-0.67 0.03-0.14 0.01-0.31-0.06-0.53-1.88-6.88-3.02-11.61-3.41-14.18-0.13-0.85-0.45-1.32-0.94-1.42-0.19-0.04-0.48-0.08-0.85-0.11-6.81-0.32-12.79 0.72-17.97 3.12-6.34 2.89-10.09 7.33-11.27 13.35-0.81 4.13-0.42 8.14 1.17 12 0.25 0.56 1.87 3.46 4.87 8.69z" fill="#FFFFFF" p-id="4111"></path></svg>