<?xml version="1.0" standalone="no"?><!DOCTYPE svg PUBLIC "-//W3C//DTD SVG 1.1//EN" "http://www.w3.org/Graphics/SVG/1.1/DTD/svg11.dtd"><svg t="1607839968186" class="icon" viewBox="0 0 1024 1024" version="1.1" xmlns="http://www.w3.org/2000/svg" p-id="1712" xmlns:xlink="http://www.w3.org/1999/xlink" width="200" height="200"><defs><style type="text/css"></style></defs><path d="M931.97 348.5c-0.36-2.35 0.42-4.59-0.93-6.55 0 0-0.2-2.49-0.2-2.62v-0.01l-1.85-0.25c-0.01-0.01-0.85-0.03-0.86-0.05l-1.48-1.45c-0.02-0.03-0.26-0.05-0.29-0.09l-0.69-0.79c-0.03-0.04-0.09-0.08-0.12-0.12l-1.34-1.77-0.1-0.11-0.03-1.05-0.02-1.05h-0.02l-0.12 0.85c-0.01 0-0.01 0.08-0.02 0.07l-0.78-0.93h0.81l-0.9-1.38v-0.01l-2.04-1.57c0-0.01-0.41-0.01-0.42-0.02l-1.9-2.12-0.3-0.26-0.24-0.23-1.33-1.61c-0.05-0.05-0.11-0.08-0.15-0.13l-0.03-0.04c-0.05-0.06-0.09-0.13-0.14-0.2l-1.92-2.31c-0.03-0.04-0.07-0.06-0.1-0.1-0.03-0.03-0.05-0.08-0.08-0.11 0-0.01-0.82-0.99-1.16-1.39l-0.15-0.18-0.53-0.61-2.17-2.52c-0.01-0.02-0.05-0.04-0.06-0.06l-0.32-0.37c-0.02-0.02-0.03-0.05-0.05-0.07l-1-1.14v-0.01c-0.09-0.1-0.18-0.19-0.26-0.28-0.99-1.12-2.07-2.3-3.24-3.58-0.31-0.34-0.6-0.67-0.92-1.02-0.02-0.03-0.06-0.05-0.08-0.08-0.1-0.1-0.17-0.18-0.27-0.29-1.42-1.53-2.89-3.06-4.39-4.59-0.01-0.01-0.02-0.01-0.02-0.02l-1.69-1.68h-0.01c-0.22-0.22-0.44-0.43-0.66-0.65-1.04-1.03-2.14-2.11-2.65-2.6 0 0-0.93-0.86-2.01-1.85-0.03-0.03-0.05-0.06-0.08-0.1l-1.86-1.69c-0.18-0.16-0.27-0.25-0.43-0.39l-0.98-0.9c-0.01 0-0.02-0.48-0.02-0.48l-2.26-2.42h-0.01c-1.1 0-3.1-1.38-3.1-2.27v0.22l-0.02 0.08 0.02 0.05v0.02l-2.48 1.89h-0.08c-0.03 0-0.09-1.9-0.11-1.91-1.01-0.78-2.09-3.19-3.39-4.12-0.06-0.05-0.14-1.78-0.21-1.78h-0.02c-0.14 0 0.14 0.51-0.01 0.4l-1.51-1v0.27c0-0.92-3.13-3.56-4.97-4.7l-2.04-2.79h-0.03-0.02c-2.15 0-4.32-0.61-6.5-1.63-32.59-15.23-58.34-21.73-78.76-21.73-1.94 0-3.83 0.51-5.67 0.65-13.25-2.72-77.79-15.12-132.15-15.12-17.87 0-33.11 1.51-45.29 4.28-59.41 13.5-135.65 45.75-169.94 71.82-10.61 8.06-28.25 22.43-48.67 39.03-41.1 33.4-97.4 79.16-120.29 92.73-15.75 9.34-48.8 23.66-80.76 37.49-45.47 19.69-73.86 32.21-84.03 40.81-20.69 17.51-38.3 50.88-25.66 91.99 0.44 1.41 0.85 3.08 1.27 4.76 0.08 0.31 0.17 0.62 0.27 0.93 2.79 11.51 5.51 28.82 8.37 47.11 6.97 44.52 14.87 94.99 31.31 118.2 0.67 0.95 1.44 1.81 2.3 2.58 14.15 12.75 27.91 15.17 33.12 15.62 12.44 2.44 139.46 27.44 164.99 33.51 16.13 3.84 56.41 6.32 102.63 6.32h0.01c43.13 0 83.98-2.14 115.02-6.02 73.29-9.16 156.35-19.55 215.87-56.92 58.07-36.46 84.17-70.6 101.7-93.53 17.33-22.66 94.36-177.54 103.08-195.13 1.42-2.87 1.93-6.11 1.45-9.27L931.97 348.5z" p-id="1713"></path><path d="M882.04 310.9c0.64 0.59 1.28 1.17 1.91 1.77-0.63-0.59-1.27-1.17-1.91-1.77zM910.68 342.88c0.3 0.4 0.62 0.81 0.91 1.19-0.29-0.39-0.6-0.79-0.91-1.19zM897.28 326.56c0.46 0.51 0.88 1.01 1.33 1.52-0.45-0.51-0.88-1-1.33-1.52zM907.89 339.28c0.4 0.51 0.79 1.01 1.17 1.49-0.38-0.49-0.77-0.98-1.17-1.49zM901.16 331.05c0.49 0.58 0.96 1.14 1.43 1.71-0.46-0.57-0.93-1.12-1.43-1.71zM887.06 315.73c0.53 0.52 1.06 1.03 1.57 1.56-0.51-0.53-1.04-1.04-1.57-1.56zM912.95 345.89c0.24 0.32 0.5 0.67 0.72 0.96-0.22-0.29-0.47-0.63-0.72-0.96zM892.74 321.58c0.11 0.12 0.24 0.24 0.34 0.35-0.1-0.12-0.23-0.24-0.34-0.35zM904.72 335.32c0.47 0.57 0.92 1.13 1.36 1.68-0.45-0.55-0.89-1.1-1.36-1.68zM876.98 306.4c0.69 0.59 1.37 1.17 2.06 1.78-0.69-0.6-1.37-1.19-2.06-1.78zM866.6 298.42c0.69 0.47 1.36 0.96 2.05 1.45-0.68-0.49-1.36-0.98-2.05-1.45zM871.82 302.22c0.72 0.55 1.42 1.11 2.12 1.67-0.7-0.56-1.4-1.12-2.12-1.67zM861.31 295.07c0.6 0.35 1.2 0.74 1.79 1.11-0.59-0.37-1.19-0.76-1.79-1.11zM916.52 350.83s-0.62-0.9-1.69-2.38c0.11 0.15 0.25 0.34 0.35 0.47-0.24 13.18-1.63 26.14-4.83 34.44-7.98 20.67-37.09 82.95-37.09 82.95s-62.46 94.67-86.86 129.8-59.53 52.7-88.81 67.34-133.7 38.06-173.72 44.89c-40.01 6.83-220.56 0-281.07-4.88-60.51-4.88-63.44-8.78-98.57-32.21-19.72-13.15-41.29-35.21-56.41-52.04-0.5-1.95-0.98-3.89-1.49-5.54 10.4 33.83 16.91 135.33 39.04 166.56 13.01 11.71 24.72 11.71 24.72 11.71s139.24 27.33 166.56 33.83c27.33 6.5 139.22 9.11 212.1 0s153.55-19.52 209.51-54.65c55.95-35.13 80.67-67.66 97.59-89.79 16.91-22.12 101.5-192.59 101.5-192.59l-20.83-137.91z" fill="#991E24" p-id="1714"></path><path d="M913.67 346.85c0.44 0.61 0.82 1.12 1.16 1.6-0.35-0.48-0.71-0.99-1.16-1.6zM868.65 299.87zM888.63 317.28c1.4 1.43 2.77 2.86 4.11 4.29-1.34-1.42-2.71-2.86-4.11-4.29zM863.1 296.18c1.17 0.72 2.33 1.45 3.5 2.25-1.16-0.8-2.33-1.53-3.5-2.25zM879.04 308.18zM883.95 312.68c1.05 1.01 2.09 2.02 3.11 3.05-1.02-1.03-2.06-2.05-3.11-3.05zM856.01 292.27c1.77 0.83 3.54 1.77 5.3 2.8a69.388 69.388 0 0 0-5.3-2.8zM909.06 340.77c0.57 0.73 1.11 1.43 1.62 2.1-0.52-0.67-1.04-1.36-1.62-2.1zM902.6 332.76c0.72 0.87 1.44 1.73 2.12 2.56-0.69-0.83-1.39-1.69-2.12-2.56zM893.08 321.93zM906.07 337zM898.6 328.08c0.87 1 1.74 2 2.56 2.97-0.82-0.97-1.69-1.96-2.56-2.97zM911.59 344.06c0.5 0.66 0.94 1.25 1.36 1.83-0.43-0.58-0.87-1.16-1.36-1.83zM873.94 303.89z" fill="#EB888A" opacity=".8" p-id="1715"></path><path d="M144.23 671.26c35.13 23.42 38.06 27.33 98.57 32.21 60.51 4.88 241.06 11.71 281.07 4.88 40.01-6.83 144.44-30.25 173.72-44.89s64.41-32.21 88.81-67.34 86.86-129.8 86.86-129.8 29.11-62.29 37.09-82.95c3.2-8.3 4.6-21.26 4.83-34.44-0.1-0.13-0.24-0.33-0.35-0.47-0.33-0.48-0.72-0.99-1.16-1.6-0.21-0.29-0.47-0.64-0.72-0.96l-1.36-1.83c-0.28-0.38-0.6-0.79-0.91-1.19-0.51-0.67-1.05-1.37-1.62-2.1-0.37-0.48-0.77-0.98-1.17-1.49-0.58-0.73-1.19-1.49-1.81-2.28-0.44-0.55-0.89-1.11-1.36-1.68-0.68-0.83-1.4-1.69-2.12-2.56-0.47-0.57-0.95-1.13-1.43-1.71-0.82-0.97-1.69-1.97-2.56-2.97-0.44-0.51-0.87-1.01-1.33-1.52-1.36-1.52-2.75-3.07-4.19-4.63-0.11-0.12-0.23-0.24-0.34-0.35-1.33-1.43-2.71-2.86-4.11-4.29-0.51-0.52-1.04-1.04-1.57-1.56-1.02-1.03-2.06-2.04-3.11-3.05-0.62-0.6-1.27-1.18-1.91-1.77-0.99-0.92-2-1.83-3-2.73-0.69-0.6-1.37-1.19-2.06-1.78-1.01-0.85-2.01-1.69-3.03-2.51-0.7-0.56-1.4-1.13-2.12-1.67-1.05-0.81-2.11-1.59-3.17-2.35-0.69-0.49-1.36-0.98-2.05-1.45-1.17-0.79-2.33-1.52-3.5-2.25-0.59-0.37-1.19-0.76-1.79-1.11a66.01 66.01 0 0 0-5.3-2.8c-29.92-13.99-58.22-23.09-78.72-20.82 0 0-115.82-24.72-173.08-11.71-57.24 13.01-131.42 44.24-163.96 68.96-32.53 24.73-135.32 111.9-170.45 132.73-35.13 20.82-145.75 62.46-162.66 76.77-16.91 14.32-31.23 41.64-20.81 75.47 0.5 1.65 0.99 3.58 1.49 5.54 15.1 16.84 36.67 38.9 56.39 52.05z m2.93-124.92c11.71-4.88 125.9-59.53 147.37-69.29 21.47-9.76 134.68-102.47 134.68-102.47 19.52-29.28 57.58-49.77 73.12-55.63 15.53-5.86 58.63-22.45 91.81-32.21 33.18-9.76 96.62-4.88 124.92-4.88s77.1 22.45 117.11 34.16c40.01 11.71 39.04 47.82 40.01 77.1 0.98 29.28-54.65 105.4-89.79 157.13s-121.02 96.62-159.08 110.28S521.92 677.12 450.68 682c-71.24 4.88-159.08 0-191.28-4.88-32.21-4.88-107.35-46.84-123.94-78.07s-0.01-47.83 11.7-52.71z" fill="#991E24" p-id="1716"></path><path d="M144.23 671.26c35.13 23.42 38.06 27.33 98.57 32.21 60.51 4.88 241.06 11.71 281.07 4.88 40.01-6.83 144.44-30.25 173.72-44.89s64.41-32.21 88.81-67.34 86.86-129.8 86.86-129.8 29.11-62.29 37.09-82.95c3.2-8.3 4.6-21.26 4.83-34.44-0.1-0.13-0.24-0.33-0.35-0.47-0.33-0.48-0.72-0.99-1.16-1.6-0.21-0.29-0.47-0.64-0.72-0.96l-1.36-1.83c-0.28-0.38-0.6-0.79-0.91-1.19-0.51-0.67-1.05-1.37-1.62-2.1-0.37-0.48-0.77-0.98-1.17-1.49-0.58-0.73-1.19-1.49-1.81-2.28-0.44-0.55-0.89-1.11-1.36-1.68-0.68-0.83-1.4-1.69-2.12-2.56-0.47-0.57-0.95-1.13-1.43-1.71-0.82-0.97-1.69-1.97-2.56-2.97-0.44-0.51-0.87-1.01-1.33-1.52-1.36-1.52-2.75-3.07-4.19-4.63-0.11-0.12-0.23-0.24-0.34-0.35-1.33-1.43-2.71-2.86-4.11-4.29-0.51-0.52-1.04-1.04-1.57-1.56-1.02-1.03-2.06-2.04-3.11-3.05-0.62-0.6-1.27-1.18-1.91-1.77-0.99-0.92-2-1.83-3-2.73-0.69-0.6-1.37-1.19-2.06-1.78-1.01-0.85-2.01-1.69-3.03-2.51-0.7-0.56-1.4-1.13-2.12-1.67-1.05-0.81-2.11-1.59-3.17-2.35-0.69-0.49-1.36-0.98-2.05-1.45-1.17-0.79-2.33-1.52-3.5-2.25-0.59-0.37-1.19-0.76-1.79-1.11a66.01 66.01 0 0 0-5.3-2.8c-29.92-13.99-58.22-23.09-78.72-20.82 0 0-115.82-24.72-173.08-11.71-57.24 13.01-131.42 44.24-163.96 68.96-32.53 24.73-135.32 111.9-170.45 132.73-35.13 20.82-145.75 62.46-162.66 76.77-16.91 14.32-31.23 41.64-20.81 75.47 0.5 1.65 0.99 3.58 1.49 5.54 15.1 16.84 36.67 38.9 56.39 52.05z m2.93-124.92c11.71-4.88 125.9-59.53 147.37-69.29 21.47-9.76 134.68-102.47 134.68-102.47 19.52-29.28 57.58-49.77 73.12-55.63 15.53-5.86 58.63-22.45 91.81-32.21 33.18-9.76 96.62-4.88 124.92-4.88s77.1 22.45 117.11 34.16c40.01 11.71 39.04 47.82 40.01 77.1 0.98 29.28-54.65 105.4-89.79 157.13s-121.02 96.62-159.08 110.28S521.92 677.12 450.68 682c-71.24 4.88-159.08 0-191.28-4.88-32.21-4.88-107.35-46.84-123.94-78.07s-0.01-47.83 11.7-52.71z" fill="#EB888A" opacity=".8" p-id="1717"></path><path d="M259.4 677.12c32.21 4.88 120.04 9.76 191.28 4.88s138.58-7.81 176.64-21.47 123.94-58.56 159.08-110.28 90.76-127.85 89.79-157.13c-0.98-29.28 0-65.39-40.01-77.1-40.01-11.71-88.81-34.16-117.11-34.16s-91.74-4.88-124.92 4.88c-33.18 9.76-76.28 26.35-91.81 32.21-15.54 5.86-53.6 26.35-73.12 55.63 0 0-113.21 92.71-134.68 102.47-21.47 9.76-135.65 64.41-147.37 69.29-11.71 4.88-28.3 21.47-11.71 52.7s91.73 73.2 123.94 78.08z m371.83-314.25c17.57-20.82 47.5-27.65 61.81-31.23 14.31-3.58 42.61-4.55 77.43 4.88 34.81 9.43 30.9 31.23 26.02 45.87-4.88 14.64-36.11 31.56-62.79 40.67-26.68 9.11-58.56 11.39-58.56 11.39-65.07 8.46-57.58-18.87-60.18-30.91-2.6-12.04 16.27-40.67 16.27-40.67z m-97.11 77.58c-18.05-15.13-37.57-20.49-36.11-35.62 1.46-15.13 50.75-55.63 104.91-70.27 0 0-81 47.82-80.03 60.51 0.98 12.69-10.25 12.69 14.64 32.69 24.89 20.01 45.38 40.99 37.09 57.58-8.3 16.59-33.67 34.65-40.01 44.41-6.34 9.76-13.18 36.11-3.9 37.57 9.27 1.46 97.11 0.49 132.73-6.83 35.62-7.32 69.29-22.45 92.71-48.31 23.42-25.86 44.89-45.38 54.16-79.54 9.27-34.16 20.98-59.04 16.1-71.73s-18.54-29.77-25.86-33.67l-7.32-3.9s40.99 13.66 45.38 40.01c4.39 26.35-2.93 74.66-16.1 98.57-13.18 23.91-41.97 65.39-62.95 81.98-20.98 16.59-47.82 33.67-96.62 38.55-48.8 4.88-127.36 19.03-160.54 2.44-33.18-16.59-36.11-22.93-18.05-37.09 18.05-14.15 57.09-42.45 58.07-61.48 0.97-19.03 9.76-30.74-8.3-45.87z m-292.29 81.49c40.01-14.64 95.64-47.82 116.14-60.51 20.49-12.69 65.39-61.48 65.39-61.48 5.14-5.5 10.74-6.83 23.42 0s18.54 18.54 29.28 26.35c10.74 7.81-4.88 31.23-21.47 50.75s-40.99 47.82-50.75 70.27c-9.76 22.45 6.83 35.13 42.94 49.77s59.53 30.25 54.65 48.8c-4.88 18.54-111.26 11.71-184.45 8.78s-136.63-44.89-150.29-64.41c-13.67-19.52 35.13-53.68 75.14-68.32z" fill="#BD1D27" p-id="1718"></path><path d="M316.98 654.67c73.2 2.93 179.57 9.76 184.45-8.78 4.88-18.54-18.54-34.16-54.65-48.8s-52.7-27.33-42.94-49.77c9.76-22.45 34.16-50.75 50.75-70.27 16.59-19.52 32.21-42.94 21.47-50.75-10.74-7.81-16.59-19.52-29.28-26.35s-18.28-5.5-23.42 0c0 0-44.89 48.8-65.39 61.48-20.49 12.69-76.12 45.87-116.14 60.51s-88.81 48.8-75.15 68.32c13.66 19.52 77.1 61.48 150.3 64.41z" fill="#E54C4C" p-id="1719"></path><path d="M484.35 547.81c-18.05 14.15-15.13 20.49 18.05 37.09 33.18 16.59 111.74 2.44 160.54-2.44s75.64-21.96 96.62-38.55c20.98-16.59 49.77-58.07 62.95-81.98 13.18-23.91 20.49-72.22 16.1-98.57-4.39-26.35-45.38-40.01-45.38-40.01l7.32 3.9c7.32 3.9 20.98 20.98 25.86 33.67s-6.83 37.57-16.1 71.73c-9.27 34.16-30.74 53.68-54.16 79.54-23.42 25.86-57.09 40.99-92.71 48.31-35.62 7.32-123.46 8.3-132.73 6.83-9.27-1.46-2.44-27.81 3.9-37.57 6.34-9.76 31.72-27.81 40.01-44.41 8.3-16.59-12.2-37.57-37.09-57.58-24.89-20.01-13.66-20.01-14.64-32.69-0.98-12.69 80.03-60.51 80.03-60.51-54.16 14.64-103.45 55.14-104.91 70.27-1.46 15.13 18.05 20.49 36.11 35.62 18.05 15.13 9.27 26.84 8.3 45.87-0.98 19.02-40.02 47.32-58.07 61.48z" fill="#D6373F" p-id="1720"></path><path d="M675.14 434.44s31.88-2.28 58.56-11.39c26.68-9.11 57.91-26.03 62.79-40.67 4.88-14.64 8.78-36.44-26.02-45.87-34.81-9.43-63.12-8.46-77.43-4.88-14.31 3.58-44.24 10.41-61.81 31.23 0 0-18.86 28.63-16.26 40.67 2.59 12.04-4.89 39.37 60.17 30.91z m-42.61-61.49c6.85-11.55 28.63-24.4 40.34-29.93 11.71-5.53 46.84-7.81 66.36-6.51 19.52 1.3 43.59 12.36 53.35 21.79 9.76 9.43-2.93 28.95-16.26 39.37-13.34 10.41-72.55 27.97-105.4 29.6-32.86 1.63-40.67-5.53-48.15-18.22-7.48-12.68 9.76-36.1 9.76-36.1z" fill="#F6CED0" p-id="1721"></path><path d="M670.92 427.28c32.85-1.63 92.06-19.19 105.4-29.6 13.34-10.41 26.02-29.93 16.26-39.37-9.76-9.43-33.83-20.49-53.35-21.79-19.52-1.3-54.65 0.98-66.36 6.51-11.71 5.53-33.49 18.38-40.34 29.93 0 0-17.24 23.42-9.76 36.11 7.48 12.68 15.29 19.84 48.15 18.21z m6.18-61.81c6.51-6.83 22.77-10.09 39.94-12.36 17.17-2.28 27.72 0.32 34.55 2.93 6.83 2.6 11.07 3.9 4.24 15.29-6.83 11.39-23.42 19.52-42.62 21.14-19.2 1.62-30.91-7.81-36.11-14.64-5.2-6.83 0-12.36 0-12.36z" fill="#FFFFFF" p-id="1722"></path><path d="M713.21 392.47c19.2-1.62 35.79-9.76 42.62-21.14 6.83-11.39 2.59-12.69-4.24-15.29-6.83-2.6-17.38-5.2-34.55-2.93-17.17 2.28-33.43 5.53-39.94 12.36 0 0-5.2 5.53 0 12.36 5.2 6.83 16.91 16.26 36.11 14.64z m-27.33-25.7c2.93-1.95 17.08-5.61 24.4-6.1 7.32-0.49 29.03-1.71 36.84 0 7.81 1.71 4.39 7.08-4.39 14.15-8.78 7.08-20.25 11.47-34.4 11.22-14.15-0.24-26.84-9.27-27.57-15.13-0.74-5.85 5.12-4.14 5.12-4.14z" fill="#D28385" p-id="1723"></path><path d="M708.33 386.04c14.15 0.24 25.62-4.15 34.4-11.22 8.78-7.08 12.2-12.44 4.39-14.15-7.81-1.71-29.52-0.49-36.84 0-7.32 0.49-21.47 4.15-24.4 6.1 0 0-5.86-1.71-5.12 4.15 0.73 5.85 13.41 14.88 27.57 15.12z" fill="#912D31" p-id="1724"></path></svg>