<?xml version="1.0" standalone="no"?><!DOCTYPE svg PUBLIC "-//W3C//DTD SVG 1.1//EN" "http://www.w3.org/Graphics/SVG/1.1/DTD/svg11.dtd"><svg t="1607840074232" class="icon" viewBox="0 0 1024 1024" version="1.1" xmlns="http://www.w3.org/2000/svg" p-id="4683" xmlns:xlink="http://www.w3.org/1999/xlink" width="200" height="200"><defs><style type="text/css"></style></defs><path d="M954.93 507.05c0-3.47-1.16-6.64-3.06-9.24-0.6-3.15-1.32-5.92-2.24-8.27-0.69-1.81-1.52-4.64-2.59-8.2-6.85-22.77-21.11-70.16-56.04-93.02-2.13-1.39-4.45-2.89-6.87-4.43l-2.6-1.64c-0.02-0.02-0.05-0.02-0.07-0.03l-4.87-3.03c-0.05-0.04-0.09-0.58-0.15-0.61l-3.41-2.6h-0.02l-0.47 0.2-4.39-2.43c-0.05-0.03-0.08 0.05-0.13 0.02l-3.85-2.28c-0.04-0.03-0.09 0-0.13-0.03l-5.09-3.08c-0.01-0.01-0.02-0.01-0.02-0.02l-4-2.4c-0.07-0.04-0.15-0.05-0.22-0.09l-5.24-3.1c-0.14-0.08-0.25-0.21-0.4-0.29l-9.01-5.31c-0.08-0.05-0.17-0.06-0.25-0.11l-3.18-1.88c-0.08-0.05-0.14-0.12-0.21-0.16l-2.65-1.54-0.01-0.01c-0.03-0.02-0.28-0.16-0.49-0.28l-0.24-0.14-0.01-0.01-3.05-1.78c-0.02-0.01-0.03-0.01-0.05-0.02l-3.09-1.79c-0.04-0.02-0.07-0.05-0.12-0.08l-6.9-3.98h-0.01l-0.01-0.01-2.43-1.38c-0.03-0.02-0.05-0.04-0.08-0.05l-7.46-4.25c-0.05-0.03-0.09-0.04-0.14-0.06l-1.08-0.61c-0.06-0.03-0.11-0.08-0.17-0.12-1.05-0.6-2.04-1.14-3.09-1.73l-2.17-1.23c-0.08-0.05-0.16-0.1-0.25-0.15-2.42-1.36-4.74-2.64-7.11-3.97-1.85-1.03-3.71-2.08-5.53-3.09-0.56-0.31-1.16-0.64-1.71-0.95-0.03-0.01-5.23-2.87-9.74-5.33-0.67-0.36-1.39-0.77-2.06-1.13 0 0-0.21-0.11-0.51-0.28-0.7-0.38-1.33-0.72-1.89-1.03h-0.01l-6.64-3.56h-0.01c-0.31-0.18-0.54-0.29-0.54-0.29l-1.01-0.53a0.138 0.138 0 0 0-0.04-0.03l-6.12-3.2c-0.05-0.03-0.09-0.03-0.13-0.05-0.04-0.01-0.05-0.05-0.09-0.07-8.17-4.23-14.68-7.42-19.33-9.47-9.71-4.26-26.12-10.01-41.06-15-0.26-0.08-0.51 1.22-0.77 1.13-10.39-3.46-20-7.05-26.05-7.05h-0.02c-0.05 0-0.11-1.43-0.18-1.45-1.39-0.44-3.18-1.69-5.04-2.27-2.02-0.63-4.03-1.61-6.03-2.23-0.34-0.1-0.67-0.38-1.01-0.48-1.53-0.47-2.6-0.9-2.6-0.9-0.44-0.13-0.86-0.31-1.3-0.44-1.93-0.6-3.83-1.19-5.75-1.78-2.77-0.84-5.48-1.67-8.14-2.46-0.07-0.02-0.14-0.05-0.22-0.07-22.71-6.78-41.11-11.79-50.62-13.74-2.69-0.56-6.05-1.07-10.09-1.56-1.75-0.99-3.7-1.65-5.79-1.85-3.33-0.33-6.96-2.14-10.82-2.14h-0.03c-3.81 0-7.86 0.54-12.07 0.3-0.29-0.02-0.58 1.05-0.87 1.05-0.64 0-1.26 0.11-1.89 0.18-0.42-0.02-0.87-0.04-1.36-0.07-2.2-0.11-4.45-0.21-4.45-0.21l-1.58-0.07c-0.04-0.01-0.07-0.01-0.1-0.01l-4.07-0.16-3.44-0.54s-0.92-0.46-2.24-0.46h-0.06s-3.85 0.26-6.16 0.2c-3.94-0.13-7.82-0.18-7.99-0.18-1.88-0.05-3.71-0.02-5.56-0.02h-0.02c-1.49 0-2.93 0.03-4.4 0.01-1.74-0.02-3.52-0.01-5.24-0.01h-25.99c-0.35 0-0.68 0.06-1.03 0.09-0.62 0-1.21-0.05-1.21-0.05l-1.26-0.04h-5l-0.42-0.03c-1.16 0.03-2.73 0.03-2.82 0.03h-0.05c-1.61 0-4.49 0.3-4.49 0.3v0.08c0 0.02-0.8 0.07-0.93 0.08l-0.47-0.25s-0.26-0.21-0.72-0.21h-0.26l-4.1 0.52c-0.04 0-0.07 0.15-0.1 0.15-0.49 0.03-0.9 0.12-1.21 0.14-0.1 0.02-0.14-0.41-0.22-0.41-0.24 0.01-0.4-0.41-0.41-0.41H447.4c-0.64 0-1.38 0.92-2.56 1.13-0.06 0.01-0.11 0.4-0.18 0.41-0.08 0.02-0.16 0.18-0.24 0.2l-2.11-1.26-5.18-0.47h-0.02c-1.15 0 0.54 2.3-7.3 2.62v0.86l-0.03 0.95c-0.04 0.01 0.84 0.21 0.81 0.23l-3.89 1.3s0.09 0.1 0.02 0.12c-9.94 2.83-22.59 6.97-37.85 12.25-0.04 0.01-0.01-1.32-0.05-1.31-0.01 0.01 0.01-1.34-0.01-1.34h-0.05c-1.07 0-3.43 2.13-4.5 2.5-2.68 0.93-1.47 2.56-9.31 3.51v0.76c0 0.04 0.86 0.12 0.77 0.15-4.18 1.48-7.78 2.98-11.83 4.45-0.29 0.11-0.34 0.22-0.64 0.33 0 0.01-0.07 0.08-0.34 0.18-1.89 0.68-3.65 2.05-5.47 2.72-0.57 0.21-0.89 1.05-0.89 1.05h-0.01c-0.05 0-0.09-0.66-0.14-0.64-0.12 0.05-0.24-0.27-0.36-0.22l-1.05 0.21c-1.25 0.46-2.48 0.36-3.69 0.81l-1.05-0.16H342.51h-0.02l-0.51 2.1c-5.12 1.91-9.65 4.57-13.45 6.02-0.44 0.17-0.96 0.84-1.27 0.96-0.01 0.01-0.02 0.25-0.02 0.25-0.4 0.15-0.87-0.72-1.25-0.57l-0.34-0.91h-0.02c-3.08 0-7.99 3.79-12.15 5.41-0.02 0.01-1.22 1.22-1.22 1.22v1.21h2.31c-0.01 0-0.04-0.59-0.06-0.58-0.04 0.01-0.08-0.29-0.11-0.28-8.54 3.34-18.95 7.29-29.71 11.58-0.01 0.01-0.03-0.07-0.05-0.07-20.13 8.01-41.39 16.5-53.75 21.48l-4.06 1.61c-0.01 0.01-0.03 0.01-0.05 0.01l-6.56 2.63c-1.52 0.6-2.92 1.45-4.18 2.49-2.24 1.86-55.1 45.79-74.22 70.37-3.69 4.75-8.85 11.51-14.68 19.2-0.02 0.04-0.06 0.05-0.08 0.09l-3.64 4.82c-3.28 4.32-7.91 8.83-11.39 13.46l-3.55 3.07v0.02l-8.79 14.68h0.61c-16.55 23.51-30.82 40.95-30.82 40.95-1.32 1.78-2.1 3.47-2.58 5.63-1.22 5.52-11.31 54.55 9.2 82.95 3 4.16 5.69 7.96 8.13 11.56 11.96 17.56 22.3 32.68 46.98 37.03 3.31 0.58 6.35 1.19 9.3 1.81 0.59 0.12 1.19 0.2 1.77 0.32 4.76 23.48 14.54 49.91 34.63 61.81 16.95 10.04 27.13 14.85 33.04 17.16 5.24 5.89 16.07 16.27 30.05 20.13 14.24 3.93 66.17 4.7 86.23 4.85 5.76 2.28 17.3 6.33 26.94 6.33 4.59 0 8.66-0.88 12.15-2.63 7.69-3.84 36.8-13.91 44.36-14.6l6.18-0.55h0.01c4.68-0.41 10.02-0.84 14.17-0.84 1.94 0 3.03 0.09 3.33 0.09 0.08 0 0.11 0 0.08-0.01 2.76 0.99 9.07 3.1 14.88 5.02 2.17 5.43 7.54 11.53 20.5 13.33 7.14 0.99 18.6 1.56 31.44 1.56 12.03 0 35.67-0.52 58.79-4.02 27.35-4.15 46.49-8.96 52.71-10.61l74.37-0.47c1.44 0 2.87-0.2 4.26-0.6 29.11-8.42 46.87-15.19 52.8-20.19 3.55-3.02 12.06-10.47 19.14-16.78 1.98 0.63 4.15 1.12 6.49 1.12 7.33 0 22.38-5.36 44.73-16.52 9.74-4.88 22.06-9.81 26.77-11.91 2.1-0.32 5.46-0.29 9.18-0.29h0.03c1.74 0 3.57-3.41 5.38-3.8 2.03-0.44 3.87 3.8 5.49-4.03h0.18c0.17 0 0.31 1.38 0.48 1.33 1.91-0.51 3.73-0.33 4.85-0.73 0.2-0.06 0.59 0.17 0.79 0.1 1.16-0.41 2.22-0.65 3.2-1.09 0.99-0.44 1.89-0.8 2.72-1.28 0.12-0.07 0.2-0.11 0.31-0.18 11.08-6.57 25.48-27.42 28.73-41.72 0.41-1.81 0.85-3.51 1.29-5.2 1.82-7.1 3.8-15.01 3.54-26.74 24-5.3 38.36-14.53 42.85-27.54 0.15-0.34 0.28-0.69 0.41-1.05 0.1-0.32 0.28-0.61 0.37-0.93 0.15-0.37 0.34-0.8 0.53-1.29 0.49-0.82 0.91-1.68 1.26-2.55 1.09-1.88 3.07-5.49 3.07-10.56 0-2.21-0.36-4.1-0.72-5.73 0.34-4.21 0.72-8.94 0.72-13.92v-19.81z" p-id="4684"></path><path d="M839.34 645.85c1.3-6.02 20.25-19.73 13.72-37.37s-30.71-37.95-49.64-39.54c-18.94-1.61-75.12 0.35-94.05 4.93s-53.55 7.98-90.78 7.58c-37.23-0.4-73.4 0.26-100.34-3.66-26.94-3.92-52.9-8.33-66.13-10.78-13.23-2.45-23.61-4.16-28.98-0.64 0 0-43.68 28.64-55.44 35.18-11.76 6.54-86.51 34.76-113.28 44.42-26.77 9.66-45.53 13.52-43.57 21.35 1.96 7.84-1.87 21.52 67.36 30.02 69.24 8.5 80.38 11.08 98.02 13.7 17.63 2.62 28.83 0.16 38.59 8.24-0.19 0.02-0.36 0.03-0.55 0.05 9.55-0.85 19.94-1.57 24.38 0.05 5.39 1.96 26.45 8.81 26.45 8.81s-8.33 6.82 5.88 8.79c14.21 1.98 53.39 2.46 85.72-2.43 32.33-4.9 52.9-10.78 52.9-10.78l76.42-0.49s40.66-11.76 47.03-17.14c6.37-5.39 29.88-26.45 29.88-26.45s0.49 6.86 5.88 6.86 24.98-8.82 37.72-15.19 29.39-13.72 29.39-13.72 7.88-1.06 15.68-2.74c-1.67 0.37-3.35 0.7-4.95 0.99-3.92-2.89-8.02-6.77-7.31-10.04zM300 668.41c-1.96 0.98-6.37-4.41-6.37-4.41l10.78-5.88h7.84c-0.01 0.01-10.29 9.31-12.25 10.29z m52.41-3.67c-0.98 6.12-5.39 7.1-11.27 6.61-5.88-0.49-4.9-13.23-4.9-13.23s10.29-1.96 12.74 0c2.45 1.97 4.41 0.5 3.43 6.62z m83.77-1.41c-6.37 3.73-10.29 1.16-11.76 0-1.47-1.16-2.94-11.57-2.94-11.57l21.55-6.37s0.49 2.94 1.96 9.31c1.47 6.37-2.44 4.9-8.81 8.63z m46.53-67.9s-7.84-0.12-8.33-3.55c-0.49-3.43 2.94-2.57 2.94-2.57s5.39-1.71 8.82-0.09c3.43 1.62 6.37 6.22 6.37 6.22h-9.8z m37.23 116.09c-4.41 0.98-5.88 0.49-10.29 0-4.41-0.49-13.33-5.71-6.86-6.86 0 0 14.21-3.43 17.15 0 2.94 3.43 4.41 5.88 0 6.86z m33.8-79.85c-1.47 4.41-6.86 1.96-10.78 0-3.92-1.96 5.88-15.68 5.88-15.68s8.33 2.45 8.82 5.88c0.49 3.44-2.45 5.4-3.92 9.8z m21.07 56.83c-0.98 3.43-3.43 2.94-9.31 0-5.88-2.94 0-14.21 0-14.21 4.41-1.47 12.74 0 12.74 0s-2.45 10.78-3.43 14.21z m26.94-56.34c-4.9 2.45-10.78-11.27-10.78-11.27 2.45-2.45 10.29-0.49 14.7 0 4.41 0.5 0.98 8.83-3.92 11.27z m75.44 31.29c-0.98 1.29-4.9-3.12-5.88-7.87-0.98-4.75 5.88-13.13 5.88-13.13h3.92s4.9 2.27 5.88 6.18c0.97 3.92-8.82 13.54-9.8 14.82z m73.96-68.02s4.41 0.49 8.33 3.92c3.92 3.43 2.94 2.94-3.74 3.43-6.67 0.49-11.07-3.43-11.07-3.43l6.48-3.92z m15.68 74.35l-5.14-1.25s-11.51 2.82-16.41 0 21.55-11.28 21.55-11.28v12.53z m61.23-43.71c-2.94 1.26-11.76-3.7-11.76-3.7l8.33-6.37 3.43 3.69s2.94 5.13 0 6.38zM861.16 652.34a67.046 67.046 0 0 0 0 0zM864.8 650.78c-0.9 0.51-2.06 1.01-3.38 1.48 1.32-0.47 2.48-0.97 3.38-1.48zM856.55 653.72c-1.52 0.4-3.1 0.78-4.7 1.12 1.61-0.35 3.18-0.72 4.7-1.12z" fill="#FFFDF2" p-id="4685"></path><path d="M800.47 559.18c-19.59-9.8-54.7-11.76-72.34-12.25-17.63-0.49-62.21 4.9-101.4 9.8s-91.6 1.47-122.95 2.45c-31.35 0.98-56.33-10.78-56.33-10.78l-35.27 11.11c-45.07 18.94-147.61 55.51-196.59 65.31-31.27 6.25-46.83 6.11-59.77 4.18 2.58 17.34 9.89 50.38 29.07 61.74 26.45 15.68 34.29 17.24 34.29 17.24s10.78 14.51 24.98 18.43c14.21 3.92 85.23 4.3 85.23 4.3s21.06 9.26 28.9 5.34 39.19-15.21 49.97-16.19c1.91-0.18 3.94-0.36 5.99-0.54 0.19-0.02 0.36-0.03 0.55-0.05-9.76-8.07-20.96-5.62-38.59-8.24-17.63-2.62-28.78-5.2-98.02-13.7s-65.4-22.18-67.36-30.02c-1.96-7.84 16.8-11.7 43.57-21.35 26.77-9.66 101.52-37.89 113.28-44.42 11.76-6.54 55.44-35.18 55.44-35.18 5.37-3.51 15.75-1.81 28.98 0.64s39.19 6.86 66.13 10.78c26.94 3.92 63.11 3.26 100.34 3.66 37.23 0.4 71.85-3 90.78-7.58s75.12-6.54 94.05-4.93c18.94 1.59 43.11 21.91 49.64 39.54s-12.41 31.35-13.72 37.37c-0.7 3.27 3.39 7.15 7.29 10.04 1.6-0.3 3.28-0.63 4.95-0.99 0.09-0.02 0.18-0.03 0.28-0.06 1.6-0.34 3.18-0.72 4.7-1.12 0.14-0.03 0.28-0.06 0.41-0.1 1.51-0.41 2.93-0.83 4.2-1.28 0.08-0.03 0.18-0.05 0.26-0.08 1.32-0.47 2.49-0.96 3.38-1.48 6.86-3.92 19.1-21.06 21.55-31.84 2.45-10.78 5.88-18.54 3.92-36.17-0.12-1.12-0.67-2.83-1.58-5.05-7.23 0.95-14.87 1.57-22.66 1.79-34.28 0.99-45.96-10.53-65.55-20.32z" fill="#F3EEDB" p-id="4686"></path><path d="M232.66 345.87c1.21-0.48 2.57-1.03 4.06-1.63-1.49 0.59-2.85 1.15-4.06 1.63zM226.03 348.54s0.23-0.09 0.57-0.23c-0.34 0.14-0.57 0.23-0.57 0.23zM610.57 359.64c9.15 21.55 18.7 32.01 20.66 44.42 1.96 12.4 8.37 35.91 8.37 35.91s1.9-26.77-0.06-37.87c-1.96-11.11-10.48-22.21-18.32-45.73-7.84-23.51-14.39-37.89-13.08-47.68 1.3-9.72 2.46-20.05-2.41-32.98 16.54 4.43 39.56 11.24 61.96 18.32-32.09-10.12-65.45-19.75-79.16-22.56-3.47-0.7-8.26-1.34-13.87-1.91 3.48 10.58 8.65 25.31 12.24 31.3 5.87 9.79 14.52 37.22 23.67 58.78zM431.46 271.71c1.44-0.41 2.79-0.77 4.14-1.13-1.34 0.35-2.7 0.72-4.14 1.13zM443.19 268.7c0.75-0.16 1.52-0.34 2.2-0.47-0.69 0.13-1.45 0.31-2.2 0.47zM320.33 310.93c4.12-1.6 7.82-3.04 10.86-4.2-3.05 1.17-6.75 2.6-10.86 4.2zM437.49 270.07c1.12-0.29 2.2-0.55 3.23-0.8-1.04 0.24-2.12 0.51-3.23 0.8zM477.42 266.32c0.18 0 0.34-0.01 0.53-0.01-1.29 0.01-2.53 0.04-3.77 0.05 0.48-0.01 0.98-0.01 1.47-0.02 0.6-0.01 1.17-0.01 1.77-0.02zM348.98 300.03c1.66-0.61 3.38-1.25 5.14-1.9 0.52-0.2 1.04-0.39 1.58-0.59 1.88-0.7 3.78-1.4 5.74-2.12 0.18-0.06 0.35-0.12 0.52-0.18 6.51-2.4 13.36-4.87 20.33-7.35 0.15-0.05 0.31-0.11 0.47-0.17 3.71-1.32 7.44-2.63 11.14-3.92-23.87 8.27-48.77 17.62-62.71 22.93 4.54-1.73 10.33-3.92 16.79-6.32 0.33-0.13 0.65-0.24 1-0.38zM419.36 318.49c27.43 23.51 48.98 28.75 50.29 35.93 1.31 7.18 4.58 35.27 8.5 48.99 3.92 13.72 22.33 43.77 30.43 50.94l8.1 7.18s-30.04-36.43-28.08-52.51 10.45-31.09 1.96-44.15c-8.49-13.07-20.24-27.43-27.43-35.27-7.19-7.84-30.04-43.12-31.35-54.22-0.15-1.27-0.31-2.48-0.45-3.63-10.63 3.03-23.72 7.32-37.21 11.98 2.42 7.89 8.72 20.6 25.24 34.76zM482.66 266.27l4.32-0.03-4.32 0.03zM320.08 336.78s-10.12 5.66-24.3 13.56c4.68 18.89 12.32 40.1 24.46 52.25 25.47 25.47 37.15 29.76 39.1 45.69 1.96 15.94 8.45 32.88 12.37 40.72s3.9 7.81 3.9 7.81-9.15-37.24-9.15-44.42c0-7.19 5.88-22.87-1.32-33.33-7.18-10.45-31.69-52.25-32.66-60.74-0.97-8.49-12.41-32.65-12.41-32.65v-14.65c-8.53 3.32-18.92 7.43-29.67 11.71 0.93 6.44 2.43 15.17 4.65 24.65 13.95-5.88 25.03-10.6 25.03-10.6zM462.23 266.69c-0.36 0.02-0.76 0.02-1.12 0.04 0.31-0.01 0.68-0.02 1-0.04h0.12zM454.17 267.1l-0.33 0.03h0.05c0.11-0.01 0.17-0.02 0.28-0.03zM469.37 266.46h0.31c-1.12 0.02-2.2 0.05-3.26 0.08 0.17-0.01 0.34-0.01 0.51-0.02 0.8-0.02 1.6-0.03 2.44-0.06zM460.49 266.75c-0.34 0.01-0.61 0.03-0.93 0.05h0.17c0.27-0.02 0.47-0.04 0.76-0.05zM491.58 266.26zM832.13 370.69c3.02 1.78 6 3.53 8.94 5.27-2.94-1.74-5.91-3.5-8.94-5.27zM856.06 384.95c1.3 0.79 2.56 1.55 3.82 2.33-1.26-0.78-2.52-1.54-3.82-2.33zM846.91 379.43c1.35 0.81 2.63 1.59 3.95 2.37-1.32-0.79-2.61-1.56-3.95-2.37zM812.01 358.99c2.29 1.32 4.57 2.63 6.85 3.95-2.28-1.31-4.56-2.63-6.85-3.95zM825.73 366.94c0.92 0.54 1.85 1.08 2.77 1.61-2.12-1.24-4.26-2.47-6.4-3.72 1.01 0.59 2.01 1.17 3.02 1.75 0.21 0.13 0.42 0.24 0.61 0.36zM715.88 329.6c0.65 10.44 3.91 12.4 10.45 26.77 6.54 14.37 13.72 40.49 15.02 48.99s-2.62 30.17 4.57 42.85c5.38 9.49 6.73 17.73 7.07 21.26-0.47-7.91-2.16-39.36 0.11-53.01 2.61-15.68 0-26.12 0-43.75 0-12.76-1.16-33.34-0.52-46.49-7.46-3.86-13.85-7.03-18.42-9.03-12.34-5.42-38.83-14.44-66.29-23.1 17.43 5.5 34.47 11.14 47.76 15.94-0.07 6.61-0.07 14.43 0.25 19.57zM781.01 341.51c4.63 2.57 9.38 5.22 14.23 7.95 0.08 0.05 0.15 0.09 0.23 0.14 1.75 0.98 3.48 1.96 5.24 2.95-11.45-6.49-22.56-12.66-32.63-18.11 3.87 2.1 7.94 4.32 12.09 6.61 0.28 0.16 0.56 0.31 0.84 0.46zM873.18 395.52c0.83 0.53 1.71 1.07 2.51 1.58-0.8-0.51-1.67-1.05-2.51-1.58zM864.8 390.3c1.14 0.7 2.27 1.39 3.37 2.08-1.1-0.69-2.23-1.38-3.37-2.08zM524.94 266.78zM552.02 267.88c8.21 0.45 15.79 0.99 22.22 1.64-6.44-0.64-14-1.19-22.22-1.64zM543.79 267.47c2.53 0.12 5.04 0.24 7.47 0.37-2.43-0.14-4.93-0.25-7.47-0.37zM802.1 353.34zM752.82 326.34c1.92 0.99 3.93 2.05 5.99 3.14-2.05-1.09-4.07-2.14-5.99-3.14zM534.55 267.08c2.48 0.09 4.94 0.19 7.37 0.3-2.43-0.1-4.88-0.2-7.37-0.3zM515.15 266.53c2.43 0.05 4.85 0.11 7.29 0.17-2.44-0.06-4.86-0.12-7.29-0.17zM760.38 330.31c2.13 1.13 4.32 2.3 6.57 3.51-2.26-1.21-4.44-2.37-6.57-3.51zM753 469.47l0.11 1.85s0-0.65-0.11-1.85z" fill="#FC5036" p-id="4687"></path><path d="M936.55 546.63zM937.12 540.84zM348.98 300.03c1.66-0.61 3.38-1.25 5.14-1.9-1.77 0.64-3.48 1.28-5.14 1.9zM825.12 366.59c-1-0.58-2.01-1.16-3.02-1.75-1.08-0.64-2.16-1.26-3.24-1.89-2.28-1.32-4.56-2.63-6.85-3.95-0.85-0.48-1.69-0.96-2.54-1.45-2.46-1.41-4.92-2.82-7.37-4.2-0.46-0.27-0.92-0.53-1.39-0.79l-5.24-2.95c9.77 5.48 19.82 11.25 29.65 16.98zM466.92 266.53c-0.17 0.01-0.34 0.01-0.51 0.02-1.47 0.04-2.84 0.09-4.18 0.14h-0.12c1.53-0.06 3.12-0.12 4.81-0.16zM453.84 267.13c-1.69 0.12-3.21 0.26-4.44 0.41 1.24-0.15 2.77-0.29 4.49-0.41h-0.05zM355.69 297.54c1.88-0.7 3.79-1.4 5.74-2.12-1.96 0.72-3.86 1.42-5.74 2.12zM459.73 266.79h-0.17c-1.4 0.07-2.66 0.15-3.88 0.22 1.27-0.08 2.59-0.16 4.05-0.22zM475.65 266.34c-0.49 0.01-0.99 0.01-1.47 0.02-1.55 0.03-3.05 0.05-4.51 0.09h-0.31c2.02-0.04 4.11-0.07 6.29-0.11zM937.9 526.96c-0.11 4.52-0.37 9.01-0.72 13.2 0.35-4.2 0.6-8.68 0.72-13.2zM935.01 556.56zM183.86 412.59c-4.78-5.25-9.08-10.35-12.61-14.77 15.22-15.15 34.24-31.79 45.42-41.35 2.16 6.01 5.13 14.08 8.47 22.66 7.01-4.99 12.58-8.52 14.62-9.03 3.22-0.81 32.96-13.26 55.32-22.7-2.23-9.48-3.72-18.2-4.65-24.65-20.11 7.99-41.34 16.52-53.7 21.49-1.49 0.6-2.85 1.15-4.06 1.63a4662.728 4662.728 0 0 1-6.62 2.67s-53.56 44.42-71.85 67.93c-3.67 4.72-8.81 11.46-14.61 19.11 0.01 0.01 6.8 3.87 15.84 8.04 8.27-9.65 19.26-22.04 28.43-31.03zM125.06 454.8l13-17.22c-4.12 5.43-8.52 11.25-13 17.22zM937.91 526.9c0.18-6.93 0.05-13.85-0.54-19.81 0.59 5.95 0.72 12.9 0.54 19.81z" fill="#FD6A50" p-id="4688"></path><path d="M111.07 498.76c2.91-3.36 3.27 1.31 0 9.15-1.32 3.17-3.07 5.33-4.9 6.8-1.06 3.05-2.21 6.12-3.58 9.2 3.26 20.24 12.41 45.88 67.27 47.84s151.53-14.93 188.75-33.88c37.23-18.94 54.87-40.46 86.87-33.92 32 6.54 63.36 25.5 158.71 17.66 95.35-7.84 146.96-10.95 176.35-8.41 29.39 2.54 65.3 1.9 79.68 18.22 14.37 16.33 41.15 24.16 47.03 22.2 5.88-1.96 12.41-3.91 13.72-14.36 1.31-10.46 5.23-11.76 9.15-18.29 1.42-2.38 4.25-7.88 7.25-13.91-0.47-4.78-1.23-8.94-2.36-11.88-4.9-12.74-16.66-70.22-52.58-93.73-2.08-1.36-4.36-2.82-6.74-4.34-0.8-0.51-1.68-1.06-2.51-1.58-1.62-1.03-3.28-2.06-5.01-3.14-1.1-0.69-2.23-1.38-3.37-2.08-1.61-0.99-3.25-2-4.92-3.02-1.26-0.77-2.52-1.54-3.82-2.33-1.7-1.03-3.44-2.08-5.21-3.15-1.32-0.78-2.6-1.56-3.95-2.37-1.91-1.14-3.87-2.3-5.83-3.47-2.94-1.74-5.92-3.5-8.94-5.27a582.731 582.731 0 0 0-6.4-3.75c-1.1 12.2-2.74 26.51-5.02 37.44-4.9 23.51-9.8 49.97-15.68 66.62-4.33 12.28-9.71 19.2-12.25 22l7.36-0.15 28.76-4.62s20.26 7.1 30.06 10.36 26.83-2.12 37.93-5.38c11.1-3.27 5.95-13.39 6.61-21.89 0.66-8.49-26.62-49.43-26.62-49.43s16 16.46 18.62 20.7c2.62 4.24 11.1 27.94 11.1 27.94s2.62 12.55 6.54 25.63c3.92 13.06-2.62 9.14-9.01 15.02-6.39 5.88-15.81 10.46-29.53 6.54s-30.7-13.72-60.09-14.53c-29.39-0.81-71.19-9.64-71.19-9.64H759c7.11 0 21.97-0.28 31.75-0.49-1.45-3.75-5.3-14.63-5.3-24.98 0-12.74-0.98-17.63-6.86-32.33-5.88-14.7-7.84-29.39-11.76-42.13-3.92-12.74 0-41.15 0-41.15v-18.69a1739.598 1739.598 0 0 0 1.26 0.68c-0.38-0.2-0.76-0.41-1.13-0.61-2.25-1.21-4.44-2.38-6.57-3.51-0.53-0.28-1.04-0.56-1.57-0.83a1035.977 1035.977 0 0 0-6.22-3.26c-0.64 13.15 0.52 33.73 0.52 46.49 0 17.63 2.61 28.07 0 43.75-2.27 13.65-0.59 45.11-0.11 53.01 0.11 1.19 0.11 1.85 0.11 1.85s-0.05-0.67-0.11-1.85c-0.34-3.54-1.69-11.77-7.07-21.26-7.19-12.68-3.26-34.35-4.57-42.85s-8.49-34.61-15.02-48.99c-6.54-14.37-9.8-16.33-10.45-26.77-0.32-5.14-0.32-12.96-0.24-19.58-13.29-4.79-30.33-10.44-47.76-15.94-0.07-0.02-0.14-0.05-0.2-0.06-22.4-7.07-45.42-13.88-61.96-18.32 4.87 12.94 3.71 23.26 2.41 32.98-1.31 9.8 5.24 24.17 13.08 47.68 7.84 23.51 16.36 34.61 18.32 45.73 1.96 11.1 0.06 37.87 0.06 37.87s-6.41-23.51-8.37-35.91c-1.96-12.41-11.51-22.87-20.66-44.42s-17.8-48.99-23.67-58.78c-3.59-5.99-8.76-20.71-12.24-31.3-0.13-0.01-0.28-0.02-0.41-0.04-6.43-0.64-14.01-1.19-22.22-1.64-0.25-0.02-0.5-0.03-0.76-0.05-2.43-0.13-4.94-0.24-7.47-0.37-0.63-0.03-1.24-0.06-1.87-0.08-2.43-0.11-4.89-0.21-7.37-0.3-0.77-0.02-1.52-0.05-2.3-0.08-2.43-0.08-4.86-0.17-7.32-0.23-0.83-0.03-1.67-0.05-2.5-0.08-2.43-0.06-4.86-0.12-7.29-0.17-0.8-0.02-1.59-0.04-2.39-0.05-7.26-0.14-14.39-0.24-21.19-0.24h-14.15c12.11 0 26.43-0.02 40.86 0.32 1.85 10.13 4.09 22.1 5.58 29.05 2.94 13.72 25.47 31.36 31.35 48.99 5.88 17.63-3.92 38.22-5.88 53.89s15.68 62.7 15.68 62.7-6.86-12.74-18.61-30.16c-11.76-17.43-12.74-18.82-17.63-35.48-4.9-16.66-13.72-43.11-20.18-53.88-6.47-10.78-38.6-30.37-48.4-48.01-5.04-9.06-9.54-18.63-12.75-25.81-0.66 0.12-1.3 0.21-2.04 0.36-0.69 0.14-1.45 0.31-2.2 0.47-0.8 0.18-1.61 0.36-2.47 0.57-1.03 0.25-2.11 0.51-3.23 0.8-0.62 0.17-1.25 0.33-1.88 0.5-1.35 0.36-2.7 0.73-4.14 1.13-0.05 0.01-0.09 0.03-0.15 0.05 0.15 1.15 0.3 2.36 0.45 3.63 1.31 11.11 24.16 46.38 31.35 54.22 7.19 7.84 18.94 22.2 27.43 35.27 8.49 13.06 0 28.07-1.96 44.15s28.08 52.51 28.08 52.51l-8.1-7.18c-8.1-7.18-26.51-37.23-30.43-50.94-3.92-13.72-7.19-41.81-8.5-48.99-1.31-7.18-22.85-12.41-50.29-35.93-16.53-14.16-22.82-26.87-25.25-34.76-0.07 0.02-0.14 0.05-0.21 0.07-3.71 1.29-7.43 2.6-11.14 3.92 0 0.01 15.71 35.35 29.42 56.9s9.8 46.05 11.76 57.48c1.96 11.43 20.57 56.16 28.41 74.78 7.84 18.61-1.96 8.82-7.84 8.82s-13.72-28.41-28.41-42.13-23.51-23.51-28.41-41.47c-4.9-17.96-28.41-56.5-44.09-73.16-6.85-7.28-9.71-15.68-10.76-22.83 4.26-1.62 9.42-3.57 15.14-5.7-6.45 2.4-12.25 4.59-16.79 6.32-3.04 1.16-6.74 2.6-10.86 4.2-0.08 0.04-0.15 0.06-0.25 0.1v14.65s11.44 24.16 12.41 32.65c0.97 8.5 25.48 50.29 32.66 60.74 7.19 10.46 1.32 26.14 1.32 33.33 0 7.18 9.15 44.42 9.15 44.42s0.02 0.02-3.9-7.81-10.41-24.78-12.37-40.72c-1.96-15.94-13.63-20.22-39.1-45.69-12.15-12.15-19.78-33.36-24.46-52.25-18.88 10.51-44.98 24.99-64.19 35.43-1 0.54-2.07 1.21-3.11 1.82 5.17 12.8 10.85 25.7 15.81 34.14 13.07 22.2 83.57 101.92 83.57 101.92s-19.66-3.86-26.18-12.51c-6.53-8.65-39.31-47.4-73.28-62.69-14.23-6.4-28.44-18.86-40.2-31.2-11.63 9.78-22.55 19.67-30.75 27.31 10.03 4.5 22.3 9.05 31.35 9.29 18.12 0.49 43.6 0.49 51.43 13.23 7.84 12.74 16.66 27.43 26.45 35.27l9.8 7.84s-49.97-20.57-58.78-24c-8.82-3.43-48.5-6.86-67.11-17.14-18.6-10.28-27.13-12.11-27.14-12.11-3.35 4.45-6.71 8.91-10 13.3 0 7.93-0.7 18.15-3.07 29.31 0.42-0.51 0.67-0.8 0.67-0.8z m543.09-126.71c-13.72-22.53-33.31-69.56-35.27-79.36-0.96-4.85 0.22-9.45 1.67-12.86 21.55 6.14 48.56 14.45 71.63 22.12-0.6 1.78-1.19 3.58-1.78 5.43-4.9 15.68-0.98 44.09 2.94 67.6 3.92 23.51 9.8 52.9 7.84 73.22-1.96 20.32-12.74 21.81-12.74 21.81v-6.86c0-9.8 0.49-29.39-4.41-43.11s-16.16-25.46-29.88-47.99zM120.87 507.41s1.96 5.72 0.66 9.75c-1.3 4.03-2.62 22.1 3.26 31.89s54.86 8.49 71.85 9.14 99.93-6.53 99.93-6.53-37.23 12.41-100.58 13.72-63.36 0-79.04-13.72 0-34.5 0-34.5l3.92-9.75zM781.01 341.51c4.63 2.56 9.39 5.22 14.23 7.95-4.84-2.73-9.6-5.38-14.23-7.95zM361.95 295.24z" fill="#FD6A50" p-id="4689"></path><path d="M937.25 551.57c0.23-1.54 2.01-3.17 2.01-4.94v-0.08c0-1.81-0.95-3.73-0.78-5.71 0.01-0.22 0.04-0.44 0.06-0.67 0.34-4.19 0.72-8.69 0.72-13.2v-0.06-19.81 2.12h-0.95c-3 0-6.29 10.46-7.72 12.84-3.92 6.53-8.07 7.29-9.38 17.75-1.31 10.46-7.96 12.14-13.84 14.1-5.88 1.96-32.71-6.02-47.08-22.35-14.37-16.33-50.32-15.74-79.71-18.28-29.39-2.54-81.01 0.54-176.36 8.37-95.35 7.84-126.72-11.14-158.72-17.68-32-6.54-49.64 14.97-86.87 33.92-37.23 18.94-133.9 35.83-188.76 33.87-54.86-1.96-64.01-27.59-67.27-47.85 1.37-3.08 2.53-6.15 3.58-9.2-2.69 2.16-5.56 2.73-7.51 2.34-2.86-0.57 8.74-14.09 11.72-17.5 2.37-11.16 3.07-21.38 3.07-29.31v-0.01c-16.53 22.04-31.11 41.6-31.11 41.6s-10.46 47.03 6.53 70.54c16.98 23.51 22.86 38.53 45.07 42.45 8.03 1.42 14.53 3.08 21.87 4.18 12.94 1.93 28.5 2.07 59.77-4.18 48.99-9.8 151.53-46.37 196.59-65.31l35.27-11.11s24.98 11.76 56.33 10.78c31.35-0.98 83.77 2.45 122.95-2.45s83.77-10.29 101.4-9.8c17.63 0.49 52.74 2.45 72.34 12.25 19.59 9.8 31.27 21.31 65.56 20.33 7.79-0.22 15.44-0.84 22.66-1.79 24.55-3.24 44.05-10.55 46.32-21.16 0.25-1.18 1.17-2.57 1.42-4.05 0.04-0.31 0.77-0.62 0.82-0.94z" fill="#FC4F35" p-id="4690"></path><path d="M791.32 494.52s-0.24-0.6-0.58-1.47c-9.78 0.21-24.64 0.49-31.75 0.49h-15.68s41.8 8.83 71.19 9.64c29.39 0.81 46.38 10.61 60.09 14.53s23.14-0.66 29.53-6.54c6.39-5.88 12.93-1.96 9.01-15.02-3.92-13.07-6.54-25.63-6.54-25.63s-8.48-23.7-11.1-27.94c-2.62-4.24-18.62-20.7-18.62-20.7s27.28 40.94 26.62 49.43c-0.66 8.5 4.49 18.62-6.61 21.89-11.1 3.26-28.13 8.65-37.93 5.38s-30.06-10.36-30.06-10.36l-28.76 4.62-7.36 0.15c-0.88 1.02-1.45 1.53-1.45 1.53z" fill="#FC4F35" p-id="4691"></path><path d="M460.18 293.67c9.8 17.63 41.93 37.23 48.4 48.01 6.47 10.78 15.29 37.23 20.18 53.88 4.9 16.66 5.88 18.05 17.63 35.48C558.15 448.47 565 461.2 565 461.2s-17.63-47.03-15.68-62.7 11.76-36.25 5.88-53.88c-5.88-17.63-28.41-35.27-31.35-48.99-1.49-6.95-3.73-18.91-5.58-29.02-14.43-0.34-28.75-0.44-40.86-0.29-0.6 0.01-1.18 0.01-1.78 0.02-2.18 0.04-4.27 0.07-6.28 0.11-0.83 0.03-1.64 0.05-2.44 0.07-1.69 0.05-3.28 0.1-4.81 0.16-0.31 0.02-0.69 0.02-1 0.04-0.2 0.01-0.44 0.02-0.63 0.02-0.28 0.01-0.49 0.03-0.76 0.05-1.46 0.06-2.78 0.14-4.05 0.22-0.47 0.03-1.06 0.05-1.51 0.08-0.11 0.01-0.18 0.01-0.28 0.03-1.71 0.12-3.25 0.26-4.49 0.41-0.59 0.08-1.31 0.21-1.98 0.32 3.24 7.19 7.74 16.76 12.78 25.82zM825.12 366.59c-9.84-5.72-19.89-11.5-29.65-16.99-0.08-0.05-0.15-0.09-0.23-0.14-4.84-2.73-9.6-5.38-14.23-7.95-0.28-0.15-0.56-0.31-0.83-0.46-4.61-2.54-9.09-4.99-13.35-7.29v18.69s-3.92 28.41 0 41.15c3.92 12.74 5.88 27.43 11.76 42.13 5.88 14.7 6.86 19.59 6.86 32.33 0 10.36 3.84 21.23 5.3 24.98 0.34 0.87 0.58 1.47 0.58 1.47s0.57-0.51 1.47-1.52c2.54-2.8 7.91-9.72 12.25-22 5.88-16.66 10.78-43.11 15.68-66.62 2.28-10.94 3.92-25.24 5.02-37.44-0.21-0.11-0.42-0.22-0.63-0.34zM382.28 287.89c-6.96 2.47-13.83 4.96-20.33 7.35-0.17 0.06-0.34 0.12-0.52 0.18-1.95 0.72-3.86 1.42-5.74 2.12-0.54 0.2-1.06 0.39-1.58 0.59-1.75 0.64-3.48 1.29-5.14 1.9-0.34 0.14-0.67 0.25-1 0.38-5.72 2.13-10.88 4.08-15.14 5.7 1.06 7.15 3.91 15.55 10.76 22.83 15.68 16.66 39.19 55.19 44.09 73.16 4.9 17.96 13.72 27.75 28.41 41.47s22.53 42.13 28.41 42.13 15.68 9.8 7.84-8.82c-7.84-18.61-26.45-63.35-28.41-74.78-1.96-11.44 1.96-35.93-11.76-57.48s-29.42-56.89-29.42-56.9c-0.16 0.06-0.32 0.11-0.47 0.17zM225.13 379.12c-3.34-8.59-6.31-16.66-8.47-22.66-11.17 9.56-30.2 26.2-45.42 41.35 3.54 4.42 7.84 9.52 12.61 14.77 1.96-1.92 3.86-3.72 5.6-5.27 10.33-9.14 24.77-20.44 35.68-28.19zM228.39 448.45c33.97 15.29 66.75 54.04 73.28 62.69 6.53 8.65 26.18 12.51 26.18 12.51s-70.5-79.72-83.57-101.92c-4.96-8.43-10.64-21.34-15.81-34.14-12.2 7.13-26.68 18.25-40.28 29.67 11.77 12.33 25.98 24.79 40.2 31.19zM688.45 463.16v6.86s10.78-1.49 12.74-21.81c1.96-20.31-3.92-49.7-7.84-73.22-3.92-23.51-7.84-51.92-2.94-67.6 0.58-1.85 1.18-3.66 1.78-5.43-23.07-7.67-50.08-15.98-71.63-22.12-1.45 3.41-2.63 8.01-1.67 12.86 1.96 9.8 21.55 56.82 35.27 79.36 13.72 22.53 24.98 34.29 29.88 48.01s4.41 33.3 4.41 43.09z" fill="#FDB2A3" p-id="4692"></path><path d="M217.7 486.19c8.82 3.43 58.78 24 58.78 24l-9.8-7.84c-9.8-7.84-18.61-22.53-26.45-35.27-7.84-12.74-33.31-12.74-51.43-13.23-9.05-0.24-21.32-4.79-31.35-9.29-8.73 8.13-14.37 13.7-14.37 13.7s5.14-6.28 12.32-14.64c-9.04-4.17-15.82-8.04-15.84-8.04h-0.01l-1.51 2-13 17.22-1.62 2.14h0.01c0.02 0 8.54 1.83 27.14 12.11 18.64 10.28 58.31 13.71 67.13 17.14z" fill="#FC5C42" p-id="4693"></path><path d="M295.07 347.39c-22.36 9.45-52.1 21.89-55.32 22.7-2.04 0.51-7.61 4.04-14.62 9.03-10.91 7.75-25.34 19.05-35.68 28.2-1.74 1.55-3.64 3.35-5.6 5.27-9.17 8.99-20.16 21.39-28.45 31.04-7.19 8.37-12.32 14.64-12.32 14.64s5.64-5.57 14.37-13.7c8.2-7.64 19.11-17.53 30.75-27.31 13.6-11.42 28.08-22.54 40.28-29.67 1.04-0.61 2.11-1.28 3.11-1.82 19.21-10.44 45.31-24.92 64.19-35.43 14.18-7.89 24.3-13.56 24.3-13.56s-11.08 4.72-25.01 10.61zM111.07 507.91c3.27-7.84 2.91-12.51 0-9.15 0 0-0.25 0.28-0.69 0.78-2.98 3.41-14.57 16.94-11.72 17.5 1.94 0.39 4.81-0.18 7.51-2.34 1.84-1.46 3.58-3.62 4.9-6.79zM116.95 551.67c15.68 13.72 15.68 15.02 79.04 13.72s100.58-13.72 100.58-13.72-82.95 7.18-99.93 6.53-65.97 0.66-71.85-9.14-4.56-27.86-3.26-31.89c1.3-4.03-0.66-9.75-0.66-9.75l-3.92 9.75c0-0.01-15.67 20.78 0 34.5z" fill="#FFFFFF" p-id="4694"></path><path d="M293.63 664s4.41 5.39 6.37 4.41c1.96-0.98 12.25-10.29 12.25-10.29h-7.84L293.63 664zM348.98 658.13c-2.45-1.96-12.74 0-12.74 0s-0.98 12.74 4.9 13.23c5.88 0.49 10.29-0.49 11.27-6.61 0.98-6.13-0.98-4.66-3.43-6.62zM443.04 645.39l-21.55 6.37s1.47 10.41 2.94 11.57c1.47 1.16 5.39 3.73 11.76 0 6.37-3.74 10.29-2.27 8.82-8.63-1.48-6.37-1.97-9.31-1.97-9.31zM486.14 589.21c-3.43-1.62-8.82 0.09-8.82 0.09s-3.43-0.86-2.94 2.57c0.49 3.43 8.33 3.55 8.33 3.55h9.8c0 0.01-2.94-4.59-6.37-6.21zM548.84 616s-9.8 13.72-5.88 15.68c3.92 1.96 9.31 4.41 10.78 0 1.47-4.41 4.41-6.37 3.92-9.8-0.49-3.43-8.82-5.88-8.82-5.88zM565.5 674.29s-5.88 11.27 0 14.21c5.88 2.94 8.33 3.43 9.31 0 0.98-3.43 3.43-14.21 3.43-14.21s-8.33-1.47-12.74 0zM502.8 704.66c-6.48 1.15 2.45 6.37 6.86 6.86 4.41 0.49 5.88 0.98 10.29 0 4.41-0.98 2.94-3.43 0-6.86-2.95-3.43-17.15 0-17.15 0zM605.67 620.9c-4.41-0.49-12.25-2.45-14.7 0 0 0 5.88 13.72 10.78 11.27 4.9-2.45 8.33-10.78 3.92-11.27zM681.1 642.45h-3.92s-6.86 8.38-5.88 13.13c0.98 4.75 4.9 9.15 5.88 7.87 0.98-1.29 10.78-10.9 9.8-14.82-0.98-3.91-5.88-6.18-5.88-6.18zM745.28 668.54c4.9 2.82 16.41 0 16.41 0l5.14 1.25v-12.53c0-0.01-26.45 8.45-21.55 11.28zM759.48 599.34c-3.92-3.43-8.33-3.92-8.33-3.92l-6.48 3.92s4.4 3.92 11.07 3.43c6.68-0.49 7.66 0 3.74-3.43zM824.63 616l-8.33 6.37s8.82 4.97 11.76 3.7c2.94-1.26 0-6.38 0-6.38l-3.43-3.69z" fill="#FEEBBE" p-id="4695"></path></svg>