<?xml version="1.0" standalone="no"?><!DOCTYPE svg PUBLIC "-//W3C//DTD SVG 1.1//EN" "http://www.w3.org/Graphics/SVG/1.1/DTD/svg11.dtd"><svg t="1607839979417" class="icon" viewBox="0 0 1024 1024" version="1.1" xmlns="http://www.w3.org/2000/svg" p-id="2014" xmlns:xlink="http://www.w3.org/1999/xlink" width="200" height="200"><defs><style type="text/css"></style></defs><path d="M956.83 255.22c-0.13-0.81-0.22-1.63-0.47-2.41-0.06-0.15-0.04-0.31-0.09-0.47-0.2-0.54-0.54-0.97-0.79-1.48-0.36-0.77-0.71-1.53-1.19-2.23-0.42-0.62-0.94-1.14-1.45-1.69-0.54-0.59-1.06-1.17-1.69-1.68-0.61-0.5-1.3-0.87-1.98-1.27-0.5-0.29-0.91-0.69-1.45-0.93-0.23-0.1-0.47-0.14-0.7-0.23-0.37-0.15-0.75-0.25-1.12-0.37a15.79 15.79 0 0 0-3.31-0.66c-0.23-0.02-0.43-0.12-0.67-0.13l-9.79-0.49c0.38-0.35 0.72-0.72 1.06-1.1 0.16-0.18 0.36-0.31 0.52-0.5l21.12-25.65a16.07 16.07 0 0 0 3.63-11.34l-3.02-43.76c-0.01-0.16-0.09-0.31-0.1-0.47a16.1 16.1 0 0 0-0.66-3.03c-0.14-0.45-0.2-0.91-0.38-1.34-0.11-0.28-0.12-0.58-0.24-0.86-0.45-0.99-1.1-1.83-1.72-2.69-0.06-0.09-0.1-0.18-0.17-0.27a16 16 0 0 0-12.78-6.52l-416.48 11.76c-6.74 0-12.79-0.83-18.63-1.64-5.2-0.72-10.11-1.39-15.01-1.39-7.35 0-13.57 1.63-18.88 4.91l-163.2 4.67c-2.55 0.07-5.03 0.74-7.25 1.96l-16.6 9.05a16.03 16.03 0 0 0-8.34 14.1c-0.01 0.18-0.05 0.35-0.05 0.53v32.19c0 3.22 0.96 6.22 2.59 8.73a16.2 16.2 0 0 0-0.9 4.22c-0.02 0.18-0.08 0.35-0.09 0.54l-2.52 32.09a16.1 16.1 0 0 0 14.54 17.29l41.27 3.87c0.51 5.57 1.05 11.32 1.6 17.11-131.29 17.73-265.73 62.65-265.73 138.65 0 3.5 0.48 7.2 1.23 11.08a366.06 366.06 0 0 0-1.23 28.55c0 170.7 118.54 324.28 289.71 377.63v12.1c0 5.1 2.42 9.91 6.52 12.94 1.81 1.33 45.08 32.66 123.24 32.66 77.46 0 118.43-24.83 120.13-25.88a16.07 16.07 0 0 0 7.62-13.68v-15.9c175.63-51.22 297.26-205.7 297.26-379.87 0-8.79-0.41-17.96-1.23-28.54a59.15 59.15 0 0 0 1.23-11.09c0-52.24-63.91-90.81-151.93-115.55L916.11 341c0.49 0.05 0.99-0.48 1.48-0.48h0.06c1.05 0 2.09 0.44 3.1 0.24 0.21-0.04 0.42 0.15 0.63 0.09 0.79-0.19 1.56-0.27 2.31-0.57 0.33-0.13 0.63-0.26 0.96-0.41 0.6-0.29 1.19-0.55 1.74-0.91 0.35-0.22 0.66-0.47 0.99-0.72 0.49-0.39 0.98-0.77 1.43-1.21 0.13-0.12 0.28-0.2 0.4-0.33l23.07-23.92a16.07 16.07 0 0 0 4.51-11.01l0.42-43.86c0-0.15-0.06-0.29-0.06-0.44-0.02-0.76-0.2-1.49-0.32-2.25z" p-id="2015"></path><path d="M371.52 847.61v24.05s39.91 29.51 113.67 29.51c73.77 0 111.66-23.47 111.66-23.47v-28.07a430.99 430.99 0 0 1-225.33-2.02z" fill="#D3B98D" p-id="2016"></path><path d="M487.96 574.9c-213.69 0-388.71-53.89-404.82-122.32-0.8 9.69-1.34 19.46-1.34 29.34 0 172.76 122.16 318.63 289.71 365.69a430.2 430.2 0 0 0 116.44 16c37.74 0 74.22-4.94 108.89-13.99 171.4-44.74 297.26-192.36 297.26-367.7 0-9.89-0.53-19.65-1.34-29.34-16.09 68.43-191.11 122.32-404.8 122.32z m202.59 74.48c5.45 1.43 7.38 5.15 6.29 7.59-1.08 2.46-3.36 7.64-11.57 10-8.22 2.37-15.12 4.53-15.12 4.53s14.94-23.53 20.4-22.12z m-33.49-9.09c5.02-8.97 9.64-0.97 10.77 0.32 1.15 1.3 1.92 16.47-3.9 28.92 0 0-11.9-20.26-6.87-29.24zM503.17 705.7c6.08 4.66 6.52 10.33 3.87 12.82-2.66 2.5-8.24 7.78-19.76 6.4-11.53-1.38-21.3-2.32-21.3-2.32s31.13-21.55 37.19-16.9z m-38.99 30.16s31.04 21.24 27.48 30.37c-3.57 9.12-8.42 9.22-10.24 7.65-1.84-1.57-9.6-2.39-13.03-16.96-3.43-14.56-4.21-21.06-4.21-21.06z m1.91-59.21c11.02-8.57 12.57 3.87 13.31 6.09 0.75 2.23-6.3 21.61-20.15 34.11 0.01-0.01-4.18-31.63 6.84-40.2z m-18.88 101.34c-8.11 2.06-10.32 2.81-11.55-0.88-1.22-3.69-4.43-10.14 2.36-18.09L456.83 737s-1.5 38.92-9.62 40.99z m-25.64-89.48c1.01-2.84 1.71-8.4 12.31-6.77 10.59 1.64 16.82 36.25 16.82 36.25s-11.88-7.16-17.24-11.4c-5.39-4.23-12.92-15.24-11.89-18.08z m-13.42 49.74c2.87-10.78 40.5-8.25 40.5-8.25l-9.84 8.92c-7.89 9.01-19.38 12.14-22.43 12.19-3.04 0.04-11.08-2.08-8.23-12.86z m-117.11-98.47c3.52-17.1 15.09-6.54 17.6-5.03 2.51 1.51 11.57 25.65 8.55 48.79 0.01 0-29.67-26.65-26.15-43.76z m-32.69 47.45c-1.34-3.52-5.19-9.39 6.21-16.43 11.4-7.04 45.43 20.79 45.43 20.79s-17.1 2.85-25.65 3.19c-8.55 0.33-24.65-4.03-25.99-7.55z m57.34 33.91c-0.17 14.98-8.55 27.29-11.41 29.8-2.85 2.51-12.23 7.04-18.26-5.53-6.04-12.57 31.8-40.74 31.8-40.74l-2.13 16.47z m34.2-83.87c9.56-0.5 14.59 4.53 14.08 9.05-0.5 4.53-1.51 14.08-13.58 22.13-12.07 8.05-22.13 15.09-22.13 15.09s12.07-45.77 21.63-46.27z m5.53 114.17c-6.04 8.55-7.54 11.07-11.69 8.55-4.15-2.51-12.45-6.04-12.45-19.11v-36.21s30.18 38.22 24.14 46.77z m-18.1-53.81s46.78-5.03 50.8 6.54c4.02 11.57-0.5 15.59-3.52 15.59s-11.07 5.53-26.15-5.53c-15.1-11.07-21.13-16.6-21.13-16.6z m292.92-36.52c-0.13-2.22-1.24-6.2 6.41-8.12 7.65-1.92 21.8 19.78 21.8 19.78s-10.11-1.45-14.97-2.79c-4.86-1.34-13.12-6.66-13.24-8.87z m26.14 29.26c-2.77 8.38-9.67 13.79-11.73 14.7-2.05 0.9-8.12 1.77-9.27-6.36-1.15-8.14 25.12-17.21 25.12-17.21l-4.12 8.87z m16.9 24.11c-4.91 3.72-6.2 4.86-8.09 2.71-1.88-2.15-5.91-5.61-3.58-12.95l6.46-20.34s10.12 26.85 5.21 30.58z m22.04-12.59c-1.7-0.54-7.21 1.13-13.71-7.78-6.5-8.9-8.9-13.09-8.9-13.09s27.16 5.52 27.36 12.74c0.2 7.21-3.06 8.66-4.75 8.13z" fill="#FEEBC9" p-id="2017"></path><path d="M370.96 331.2l7.58-0.71-2.81-15.66c-2.3 0.22-4.61 0.41-6.89 0.64 0.6 6.77 1.3 12.45 2.12 15.73z m119.73-5.42c11.25 0.03 22.38 0.19 33.38 0.5l0.15-16.07c-11.26-0.33-22.63-0.52-34.13-0.54 0.19 5.87 0.4 11.31 0.6 16.11z m-27.26 0.23l4.89-0.11a178.2 178.2 0 0 0-1.23-8.52 232.1 232.1 0 0 1-1.19-7.51l-2.87 0.07c0.12 5.27 0.26 10.7 0.4 16.07z m-57.78 2.41c4.74-0.31 9.51-0.59 14.31-0.84-0.55-4.92-1.15-10.31-1.74-15.92-4.57 0.26-9.16 0.51-13.67 0.82 0.35 5.77 0.72 11.19 1.1 15.94z" fill="#FFF7EA" p-id="2018"></path><path d="M863.77 436.42c0 20.02-18.16 38.78-49.77 54.98l-0.19 0.09a292.06 292.06 0 0 1-30.51 13.28l-0.09 0.04-0.11 0.05-0.82 0.3c-2.66 0.99-5.37 1.96-8.14 2.92l-0.82 0.28a484.65 484.65 0 0 1-26.45 8.19l-2.47 0.69a594.9 594.9 0 0 1-19.96 5.13l-1.05 0.25a737.25 737.25 0 0 1-17.44 3.88c-1.66 0.35-3.29 0.7-4.97 1.04a728.84 728.84 0 0 1-13.67 2.65c-2.43 0.45-4.86 0.9-7.32 1.33-2.55 0.45-5.16 0.88-7.75 1.31a1081.38 1081.38 0 0 1-19.4 3.02l-6.52 0.91-8.68 1.16c-2.14 0.27-4.28 0.55-6.44 0.81-3.4 0.41-6.82 0.81-10.26 1.19-1.68 0.19-3.35 0.39-5.05 0.57-4.99 0.53-10.03 1.03-15.11 1.5-1.71 0.16-3.43-0.51-5.14-0.36-3.62 0.32-7.27 0.1-10.93 0.1h-0.03c-0.06 0-0.13 0.82-0.2 0.82-1.96 0.16-3.92 0.71-5.89 0.85-3.86 0.28-7.74 0.74-11.65 0.99-1.64 0.11-3.25 0.32-4.89 0.42-5.49 0.32-11 0.67-16.56 0.92l-3.38 0.16-6.03 0.26-0.83 0.04c-2.29 0.08-4.59 0.17-6.89 0.24l-5.56 0.16c-3.14 0.09-6.3 0.16-9.45 0.23l-2.24 0.04-0.75 0.01c-1.75 0.03-3.5 1.41-5.27 1.43-5.27 0.07-10.57 1.47-15.89 1.47h-1.64c-8.48 0-16.87-1.45-25.22-1.62-2.15-0.04-4.29-0.76-6.44-0.81-7.54-0.19-15.04-0.76-22.46-1.07-0.79-0.04-1.59-0.22-2.37-0.26-8.13-0.36-16.14-0.9-24.1-1.41-1.92-0.12-3.82-0.29-5.72-0.42-7.05-0.49-14.02-1.05-20.9-1.65-0.98-0.09-1.98-0.16-2.96-0.26-7.83-0.7-15.53-1.5-23.14-2.35l-4.32-0.5c-6.81-0.79-13.51-1.63-20.1-2.53l-2.75-0.37a913.4 913.4 0 0 1-22.07-3.34l-2.55-0.43a867.67 867.67 0 0 1-21.75-3.9 724.32 724.32 0 0 1-20.84-4.35l-0.41-0.09a639 639 0 0 1-20.66-4.99 506.04 506.04 0 0 1-36.39-10.84l-0.53-0.18a338.06 338.06 0 0 1-31.29-12.39l-0.17-0.08a203.43 203.43 0 0 1-25.36-13.72l-0.03-0.02c-21.57-13.95-33.68-29.43-33.68-45.75 0-46.93 99.36-87.01 239.55-103.09-0.63-4.81-1.24-10.1-1.84-15.69-155.92 18.5-267.25 67.31-267.25 124.63 0 3.47 0.53 6.89 1.34 10.29 16.1 68.43 191.12 122.32 404.82 122.32 213.69 0 388.71-53.89 404.82-122.32 0.8-3.4 1.34-6.83 1.34-10.29 0-67.06-152.41-122.45-350.25-131.34-0.4 5.25-0.71 10.59-0.95 16.02 181.5 7.87 320.84 53.86 320.84 109.45z" fill="#FFF7EA" p-id="2019"></path><path d="M406.73 339.08c1.38 10.04 6.4 32.21 9.89 52.73l10.11-1.15c-2.14-19.66-3.94-38.05-4.41-42.55-0.3-2.81-1.24-10.65-2.36-20.54-4.8 0.26-9.57 0.53-14.31 0.84 0.35 4.25 0.7 7.96 1.08 10.67z m-35.71-7.62c2.53 9.76 9.19 41.56 10.32 64.68l10.32-1.31c-0.29-8.17-1.34-16.7-4.04-24.13-3.27-8.99-6.24-24.46-9.08-40.2-2.54 0.22-5.05 0.47-7.58 0.71l0.06 0.25z m176.37 56.2c15.39 0.49 31.47 1.17 46.98 2.04h-0.01l0.34 0.02c3.47 0.2 6.91 0.4 10.31 0.62l2.25 0.15c3.4 0.22 6.74 0.45 10.04 0.69l2 0.15a1401.76 1401.76 0 0 1 10.17 0.81 782 782 0 0 1 9.21 0.85l1.93 0.19a556.12 556.12 0 0 1 9.52 1.06c2.48 0.3 4.86 0.61 7.11 0.93l1.33 0.19c2.37 0.35 4.59 0.71 6.68 1.08l1.25 0.23a130.3 130.3 0 0 1 13.01 3.06c1.63 0.45 3.4 0.99 5.16 1.5 0.88 0.26 1.73 0.5 2.64 0.78 2.38 0.72 4.89 1.52 7.43 2.35l0.83 0.26c2.77 0.9 5.6 0.53 8.53 1.53 0.09 0.03 0.16-1.24 0.26-1.24h0.01a1774.28 1774.28 0 0 1 66.71 27.33c0.7 0.3 1.41 1.27 2.11 1.58 2.25 0.98 4.42 2.28 6.59 3.25 1.09 0.49 2.19 1.15 3.25 1.63 1.89 0.86 3.71 1.78 5.52 2.63 1.26 0.59 2.48 1.2 3.7 1.78 1.6 0.76 3.14 1.52 4.65 2.26 1.31 0.64 2.57 1.28 3.82 1.91 1.3 0.65 2.58 1.31 3.81 1.94 1.34 0.69 2.56 1.35 3.79 2.01 0.99 0.54 2.01 1.08 2.93 1.6 1.33 0.74 2.49 1.44 3.64 2.13 0.66 0.39 1.38 0.8 1.98 1.18a56.81 56.81 0 0 1 4.32 2.93 78.12 78.12 0 0 1 16.94 17.52 140.78 140.78 0 0 1-8.99 6.17l-0.68 0.44a188.9 188.9 0 0 1-14.45 8.22c31.61-16.2 49.77-34.96 49.77-54.98 0-55.59-139.33-101.58-320.86-109.46-0.9 20.72-0.68 42.18-0.09 60.56l3.54 0.11c0.33-0.01 0.66 0 1.02 0.01z m-101.68-27.41c1.04 10.2 2.04 19.83 2.88 28.18l0.88-0.08-3.76-28.1z m19.11 9.56c0.19 3.95 0.64 10.02 1.26 17.25 2.18-0.13 4.24-0.22 6.04-0.28l1.91-0.04c-1.85-23.04-3.96-46.91-5.71-60.84l-4.89 0.11c0.48 18.18 1 35.66 1.39 43.8z m26.91-24.77c0.57 6.64 2.78 22.66 4.92 41.59l5.63 0.05c0.55 0 1.1 1 1.67 1 2.99 0.04 6.05 1.12 9.26 1.12h0.01c3.17 0 6.44-0.87 9.77-0.8 0.52 0.01 1.01-0.47 1.54-0.46l-0.6-19.61c-0.24-7.32-0.03-24.65 0.16-41.52-11-0.31-22.13-0.53-33.38-0.56 0.36 9.08 0.74 15.88 1.02 19.19zM223.3 515.09a458.04 458.04 0 0 1-17.1-5.32c-1.24-0.41-2.59-0.8-3.8-1.21a506.04 506.04 0 0 0 36.39 10.84c-1.75-0.46-3.38-0.95-5.09-1.42-3.53-0.94-7.01-1.9-10.4-2.89z m397.63 24.79c-1.68 0.19-3.35 0.39-5.05 0.57 1.7-0.18 3.37-0.38 5.05-0.57z m-293.88-3.37z m-40.23-6.56c-1.35-0.25-2.76-0.48-4.09-0.73a815.54 815.54 0 0 0 19.71 3.52c-2.48-0.41-4.86-0.88-7.31-1.3l-8.31-1.49z m385.41 2.86z m-71.46 9.15c-1.71 0.16-3.43 0.3-5.14 0.45 1.72-0.15 3.44-0.29 5.14-0.45z m-333.85-16c-2.34-0.5-4.79-0.96-7.08-1.48a759.99 759.99 0 0 0 20.84 4.35c-1.64-0.32-3.19-0.68-4.82-1.01-3.02-0.6-5.97-1.23-8.94-1.86z m370.72 11.93c-2.14 0.27-4.28 0.55-6.44 0.81l6.44-0.81z m15.2-2.06l-6.52 0.91 6.52-0.91zM240.79 519.9l-0.79-0.19a631.9 631.9 0 0 0 19.43 4.68c-0.77-0.17-1.49-0.37-2.26-0.55a648.1 648.1 0 0 1-16.38-3.94z m97.62 18.05c-2.86-0.37-5.78-0.7-8.61-1.08 6.59 0.9 13.3 1.74 20.1 2.52-1.32-0.15-2.59-0.33-3.91-0.49-2.54-0.3-5.06-0.63-7.58-0.95z m189.94 8.46l-5.56 0.16 5.56-0.16z m-18.01 0.44c-1.75 0.03-3.5 0.07-5.27 0.09 1.76-0.02 3.52-0.06 5.27-0.09z m-79.3-1.03z m135.88-1.24c-1.63 0.11-3.25 0.22-4.89 0.31l4.89-0.31z m17.55-1.24z m-425.13-52.93c-1.2-0.63-2.43-1.25-3.58-1.89-3.77-2.07-7.4-4.18-10.73-6.33a204.75 204.75 0 0 0 25.36 13.72c-0.82-0.37-1.51-0.77-2.29-1.14a246.73 246.73 0 0 1-8.76-4.36z m386.14 55.35l-3.38 0.13 3.38-0.13z m-399.21-67.65c0.27-0.82 0.44-1.56 0.76-2.42 4.36-11.87 13.64-26.82 33.36-33.58a1437.59 1437.59 0 0 1 49.75-15.83l0.66-0.2 0.61-0.19c-2.7-5.8-1.39-10.26 2.73-12.07 2.57-1.12 12.17 0.88 24.27 4.24a373.47 373.47 0 0 1 6.07-1.68l5.19-1.41 2.66-0.71 4.39-1.16 2.92-0.75 3.68-0.93 2.99-0.72 2.99-0.72 3.17-0.71 2.15-0.48c1.64-0.35 3.15-0.65 4.51-0.9 9.18-1.67 34.45-5.42 63.41-9.3-1.88-15.14-5.46-35.67-8.47-46.7-1.06-3.9-2.12-10.56-3.16-18.59-140.19 16.09-239.55 56.16-239.55 103.09 0 16.32 12.11 31.8 33.68 45.75 0.28-1.22 0.78-2.65 1.23-4.03zM186 502.54c-0.88-0.35-1.69-0.72-2.56-1.06a305.72 305.72 0 0 1-11.18-4.76c-0.54-0.25-1.16-0.48-1.7-0.73a338.06 338.06 0 0 0 31.29 12.39l-1.51-0.55a404 404 0 0 1-14.34-5.29z m544.39 18.34c-1.97 0.49-3.93 0.99-5.94 1.47a528.8 528.8 0 0 0 8.29-2.06l-0.9 0.22c-0.48 0.14-0.96 0.25-1.45 0.37z m30.7-8.03c-4.59 1.43-9.28 4.71-14.11 4.71h-0.02c9.24 0 18.04-5.84 26.36-8.7a451.27 451.27 0 0 1-11.25 3.68l-0.98 0.31z m-52.37 13.05l-0.11 0.02-2.66 0.57a748.52 748.52 0 0 0 2.77-0.59z m-21.41 4.27c-2.43 0.45-4.86 0.9-7.32 1.33l7.32-1.33z m-204.1 16.85c-7.01-0.02-13.98-0.09-20.89-0.23 8.35 0.16 16.74 0.28 25.22 0.28-1.45 0-2.88-0.05-4.33-0.05z m292.46-39.51l-0.03 0.01c-0.5 0.18-0.99 0.37-1.51 0.54a362.55 362.55 0 0 0 1.54-0.55z m36.93-15.43a293.71 293.71 0 0 1 1.21-0.6c-0.4 0.21-0.82 0.4-1.21 0.6z m-111.62 35.44z m43.42-10.29z m-384.56 23.23c-1.85-0.2-3.77-0.36-5.61-0.57 7.61 0.85 15.31 1.63 23.14 2.34-3.27-0.29-6.43-0.66-9.65-0.97-2.65-0.26-5.27-0.52-7.88-0.8z m79.28 5.64c-1.89-0.07-3.83-0.11-5.71-0.19 7.42 0.31 14.92 0.55 22.46 0.74-4.87-0.12-9.69-0.3-14.51-0.48l-2.24-0.07z m-56.8-3.46l-0.11-0.01-1.89-0.14a1192.06 1192.06 0 0 0 2 0.15z" fill="#F1DAB3" p-id="2020"></path><path d="M317.2 683.54c3.02-23.14-6.04-47.28-8.55-48.79-2.51-1.51-14.08-12.07-17.6 5.03-3.53 17.11 26.15 43.76 26.15 43.76z m46.77-37.22c0.5-4.53-4.53-9.56-14.08-9.05-9.56 0.5-21.63 46.27-21.63 46.27s10.06-7.04 22.13-15.09c12.08-8.04 13.08-17.6 13.58-22.13z m20.63 73.44c3.02 0 7.54-4.02 3.52-15.59s-50.8-6.54-50.8-6.54 6.04 5.53 21.12 16.6c15.09 11.06 23.14 5.53 26.16 5.53z m-53.32 21.12c0 13.08 8.3 16.6 12.45 19.11 4.16 2.51 5.66 0 11.69-8.55 6.04-8.55-24.14-46.78-24.14-46.78v36.22z m-45.27 4.53c6.04 12.57 15.41 8.05 18.26 5.53 2.86-2.51 11.24-14.82 11.41-29.8l2.12-16.47s-37.82 28.16-31.79 40.74z m-21.45-74.61c-11.4 7.04-7.55 12.91-6.21 16.43 1.34 3.52 17.44 7.88 25.99 7.54 8.55-0.33 25.65-3.19 25.65-3.19s-34.04-27.82-45.43-20.78z m214.85 11.93c-0.74-2.22-2.3-14.65-13.31-6.09-11.03 8.57-6.84 40.19-6.84 40.19 13.85-12.48 20.89-31.87 20.15-34.1z m7.87 42.19c11.52 1.38 17.09-3.91 19.76-6.4 2.66-2.48 2.22-8.16-3.87-12.82-6.07-4.65-37.19 16.9-37.19 16.9s9.77 0.94 21.3 2.32z m-5.86 48.96c1.82 1.57 6.67 1.47 10.24-7.65 3.56-9.13-27.48-30.37-27.48-30.37s0.79 6.5 4.21 21.07c3.42 14.56 11.19 15.38 13.03 16.95z m-45.76 3.23c1.23 3.69 3.43 2.94 11.55 0.88 8.12-2.07 9.63-40.98 9.63-40.98l-18.81 22.02c-6.8 7.94-3.58 14.4-2.37 18.08z m-19.28-26c3.05-0.05 14.54-3.17 22.43-12.19l9.84-8.92s-37.63-2.53-40.5 8.25c-2.85 10.78 5.19 12.9 8.23 12.86z m17.07-44.51c5.37 4.24 17.24 11.4 17.24 11.4s-6.23-34.61-16.82-36.25c-10.59-1.64-11.3 3.93-12.31 6.77-1.02 2.83 6.51 13.84 11.89 18.08z m234.38-65.99c-1.14-1.29-5.75-9.29-10.77-0.32-5.03 8.98 6.88 29.24 6.88 29.24 5.81-12.45 5.04-27.62 3.89-28.92z m29 16.36c1.09-2.44-0.83-6.17-6.29-7.59-5.45-1.41-20.4 22.12-20.4 22.12s6.9-2.16 15.12-4.53c8.22-2.36 10.49-7.54 11.57-10z m-24.11 24.05s2.4 4.18 8.9 13.09c6.5 8.9 12.01 7.23 13.71 7.78 1.68 0.53 4.94-0.92 4.75-8.13-0.2-7.22-27.36-12.74-27.36-12.74z m-11.11 23.22c-2.33 7.34 1.71 10.8 3.58 12.95 1.89 2.15 3.17 1.01 8.09-2.71 4.91-3.73-5.21-30.58-5.21-30.58l-6.46 20.34z m-26.22-5.53c1.15 8.13 7.21 7.26 9.27 6.36 2.05-0.9 8.96-6.32 11.73-14.7l4.13-8.87s-26.28 9.07-25.13 17.21z m23.06-25.94s-14.15-21.7-21.8-19.78c-7.65 1.93-6.54 5.9-6.41 8.12 0.13 2.21 8.39 7.53 13.24 8.87 4.86 1.33 14.97 2.79 14.97 2.79z" fill="#C13929" p-id="2021"></path><path d="M594.7 389.72zM451.95 416.2l-0.96-0.28v0.04c0 2.57 0.44 6.89 1.07 12.08l0.97 0.42-1.08-12.26z m-165.67-5.48l2.99-0.72-2.99 0.72z m-13.97 3.56l4.39-1.16-4.39 1.16z m270.5-26.76l3.54 0.11-3.54-0.11z m25.53 26.3a463.4 463.4 0 0 0-25.02-12.89c0.2 4.44 0.41 8.5 0.61 12.26 1.74 0.66 3.47 1.34 5.19 2.04 6.67-0.7 13.14-1.17 19.22-1.41z m-118.75-24.26c-0.28 0.1-0.6 0.18-0.86 0.28l0.02 0.16 0.9 0.12-0.06-0.56z m21.11 46.92a57.46 57.46 0 0 1 6.73-3.89l-0.46-6.62a334.7 334.7 0 0 0-7.67-3.83l1.4 14.34z m-208.51-19.46l-3.8 1.06 3.8-1.06z m234.69-28.16c0.39 3.44 0.75 6.96 1.12 10.54a426.62 426.62 0 0 1 27.1 7.37l-0.39-13.04c-0.42-0.11-0.89-0.29-1.3-0.39-6.14-1.5-15.89-3.22-26.53-4.48z m-30.79-1.68l0.49 5.68c2.48 0.44 5.19 0.94 8.05 1.49l-0.57-7.2c-2.76-0.07-5.41-0.05-7.97 0.03zM231.4 425.91l-0.61 0.19 0.61-0.19z m242.63-39.16l-1.92 0.04 1.92-0.04z m-217.68 61.7c-1.7-1.14-3.43-2.34-5.09-3.37a92.95 92.95 0 0 1-5.23-3.52c-23.72-1.93-46.86-2.7-62.17-0.62a1458.95 1458.95 0 0 1-1.38 0.47c6.82 0.51 38.13 2.94 73.87 7.04z m36.08-39.16l2.15-0.48-2.15 0.48z m480.75 25.17c2.25 0.98 4.42 1.95 6.59 2.92l-6.59-2.92z m-77.62-29.85c2.77 0.9 5.61 1.85 8.53 2.85-2.93-0.99-5.76-1.95-8.53-2.85z m-8.27-2.61z m-80.03-11.52z m72.24 9.24c1.64 0.46 3.4 0.98 5.16 1.5-1.76-0.51-3.54-1.05-5.16-1.5z m15.43 34.85c-11.07-7.04-50.67-29.51-67.9-36.72-6.48-2.71-18.8-5.66-32.66-8.16-15.51-0.87-31.59-1.54-46.98-2.04 29.78 6.95 95.57 23.26 116.36 36.35 13.75 8.65 29.16 20.14 42.86 30.81a355.84 355.84 0 0 1 24.25 7.66c-16.78-13.45-31.7-25.2-35.93-27.9zM264.46 416.4l5.19-1.41-5.19 1.41z m518.55 22.45z m-153.56-46.72z m37.04 4.53z m-25.9-3.48z m-21.3-1.86z m39.27 4.04z m-8.44-1.13z m-370.5 18.14l3.68-0.93c-1.19 0.29-2.44 0.62-3.68 0.93z m224.32-25.67c2.99 0.04 6.05 0.07 9.26 0.13-3.21-0.06-6.27-0.1-9.26-0.13z m-122.46 13.64c0.08 3.78-0.05 7.23-0.39 10.22 3.46 0.26 6.88 0.57 10.26 0.91 0.2-3.08 0.33-6.46 0.38-10.01a60.58 60.58 0 0 0-10.25-1.12z m131.74-13.51z m-16.57-0.19l5.63 0.05c-1.93-0.03-3.81-0.04-5.63-0.05zM363.6 409.51c-0.17-2.41-0.45-5.27-0.82-8.42-20.45 1.89-43.79 6.47-51.62 7.83 0 0 24.65-0.66 52.44 0.59z m56.24 6.51c2.31 0.57 4.5 1.19 6.51 1.85 1.16 0.38 2.48 0.93 3.69 1.36-0.38-3.01-0.76-6.11-1.14-9.34-3.3-0.85-6.63-1.69-9.93-2.49 0.38 3.05 0.66 5.91 0.87 8.62z m-154.06 4.19c2.41 0.71 4.84 1.45 7.32 2.22 25.24-0.38 65.67 0.05 79.8 6.11 0.79 0.34 1.9 0.85 3.17 1.44 0.87-1.26 1.75-2.57 2.61-3.89-23.9-5.9-58.38-11.39-92.9-5.88zM346 538.9c1.31 0.16 2.59 0.34 3.91 0.49l4.32 0.5c1.84 0.2 3.76 0.37 5.61 0.57A942.8 942.8 0 0 1 346 538.9z m-160-36.36c-0.88-0.35-1.69-0.72-2.56-1.06 0.87 0.34 1.68 0.71 2.56 1.06z m47.69 15.44c1.71 0.46 3.34 0.96 5.09 1.42l1.23 0.31 0.79 0.19c-2.43-0.62-4.75-1.28-7.11-1.92z m-10.39-2.89z m52.57 12.74c1.63 0.33 3.17 0.68 4.82 1.01l2.04 0.38c1.34 0.26 2.74 0.48 4.09 0.73-3.7-0.69-7.35-1.4-10.95-2.12z m-18.7-3.98l2.26 0.55 0.41 0.09c2.3 0.51 4.74 0.97 7.08 1.48-3.27-0.71-6.56-1.4-9.75-2.12z m37.96 7.58c2.45 0.43 4.83 0.89 7.31 1.3l2.55 0.43a965.93 965.93 0 0 0 22.07 3.34l2.75 0.37c2.82 0.39 5.75 0.72 8.61 1.08a917.33 917.33 0 0 1-43.29-6.52z m72.58 9.83c3.22 0.32 6.38 0.68 9.65 0.97l2.96 0.25 1.89 0.14c-4.89-0.41-9.7-0.88-14.5-1.36z m121.47 5.8c5.32-0.01 10.62-0.05 15.89-0.12 1.76-0.02 3.51-0.06 5.27-0.09l0.75-0.01c-7.24 0.13-14.55 0.21-21.91 0.22z m319.12-95.85c0.99 0.54 2.01 1.08 2.93 1.6-0.91-0.52-1.94-1.06-2.93-1.6z m6.57 3.73c0.66 0.39 1.38 0.81 1.98 1.18-0.59-0.38-1.32-0.79-1.98-1.18zM471 533.4c-3.64-0.16-7.12-1.02-10.45-1.21 9.93 6.8 18.12 13.4 22.67 16.52 1.45 0 2.88 1.05 4.33 1.05h1.49c-3.68-8.06-10.31-9.98-18.04-16.36z m325.89-88.03l-4.65-2.24c1.59 0.76 3.14 1.5 4.65 2.24z m-355.52 100.8c4.82 0.17 9.64 0.36 14.51 0.48l6.44 0.14a1272.22 1272.22 0 0 1-20.95-0.62z m-43.21-2.3c-4.34-2.53-9.98-5.8-16.33-9.46-4.78 0.11-9.26 0.17-13.37 0.16 3.25 1.7 5.6 2.99 6.58 3.61 1.84 1.18 4.45 2.77 7.28 4.45a1192.24 1192.24 0 0 0 48.73 3.19l2.37 0.09c1.88 0.08 3.81 0.11 5.71 0.19-13.9-0.53-27.58-1.27-40.97-2.23z m362.93-31.54z m39.62-65.06l3.81 1.93-3.81-1.93z m37.41 29.3z m-123.23 47.99c-2.22-1.89-4.84-4.09-7.62-6.42-2.14 0.68-4.32 1.34-6.66 1.94l8.11 5.82a769.3 769.3 0 0 0 14.67-3.29l1.05-0.25c2.01-0.48 3.97-0.98 5.94-1.47a758.14 758.14 0 0 1-15.49 3.67z m68.31-19.76l0.09-0.04a293.71 293.71 0 0 0-0.09 0.04z m-269.87 42c3.16-0.06 6.31-0.14 9.45-0.23l5.56-0.16a1287.6 1287.6 0 0 1-15.01 0.39z m241.11-65.29c-0.38 2.51-1.89 5.01-4.2 7.58 8.75 6.48 18.7 13.63 25.43 18.42a357.43 357.43 0 0 0 7.42-2.67c-6.54-5.34-17.07-13.94-28.65-23.33z m-81.28 51.14l-10.91-6.02c-4.24 0.49-8.74 0.95-13.28 1.41 5.08 2.34 9.74 4.49 13.73 6.3a1036.12 1036.12 0 0 1-67.07 8.07c1.71-0.15 3.43-0.29 5.14-0.45 5.08-0.47 10.12-0.97 15.11-1.5 1.7-0.18 3.36-0.38 5.05-0.57a1000 1000 0 0 0 25.38-3.16c2.18-0.3 4.36-0.59 6.52-0.91a800.72 800.72 0 0 0 19.4-3.02c2.59-0.43 5.19-0.86 7.75-1.31a644.75 644.75 0 0 0 13.4-2.48c2.55-0.49 5.09-0.99 7.59-1.5 1.68-0.34 3.32-0.69 4.97-1.04l2.66-0.57a765.13 765.13 0 0 1-35.44 6.75zM818 489.25c-8.8-12.93-32.32-45.34-54.9-59.12a951.53 951.53 0 0 0-58.74-22.57c18.24 8.75 41.09 20.08 53.2 27.51 20.28 12.45 46.54 45.57 55.04 57.01 0.39-0.2 0.82-0.39 1.21-0.6l0.19-0.09a187 187 0 0 0 14.45-8.22 189.84 189.84 0 0 1-10.45 6.08z m-617.65 18.57l1.51 0.55 0.53 0.18c1.22 0.42 2.56 0.8 3.8 1.21-1.95-0.64-3.93-1.28-5.84-1.94z m-54.41-28.65c3.87-1.14 7.8-2.35 7.8-2.35s82.49-6.04 112.16 7.54l1.43 0.66c9.02 0.52 20.06 1.52 30.84 2.68-11.58-6.06-20.95-10.63-25.73-12.22-21.63-7.21-84.5-11.9-118.7 0-3.07 1.07-5.42 1.9-7.47 2.63-0.44 1.38-0.94 2.81-1.27 4.06 0.24-0.92 0.64-2 0.94-3z m616.12 32.85c3.84-1.2 7.61-2.42 11.25-3.68l0.82-0.28 1.51-0.54a408.09 408.09 0 0 1-13.58 4.5z m-30.22 8.5l0.9-0.22 3.51-0.89a594.9 594.9 0 0 0 8.16-2.18l2.47-0.69c-4.89 1.37-9.91 2.7-15.04 3.98z m-165.83 12.39l-6.52 0.13a2487 2487 0 0 0 20.84 10.61 1208.08 1208.08 0 0 1-44.26 2.48l6.03-0.24 3.38-0.13c5.56-0.25 11.07-0.55 16.56-0.87l4.89-0.31a1364.25 1364.25 0 0 0 17.54-1.23l0.2-0.02c-4.57-2.56-11.18-6.27-18.66-10.42zM168.1 494.76c0.79 0.38 1.48 0.77 2.29 1.14l0.17 0.08c0.53 0.25 1.16 0.48 1.7 0.73-1.42-0.64-2.79-1.3-4.16-1.95z m-8.76-4.35c-1.2-0.63-2.43-1.25-3.58-1.89 1.15 0.63 2.38 1.26 3.58 1.89z" fill="#E2C18D" p-id="2022"></path><path d="M812.6 492.08c-8.5-11.43-34.76-45.89-55.04-58.34-12.11-7.44-34.96-20.8-53.2-28.85h-0.01c-0.09 0-0.17 1.27-0.26 1.24-2.92-1-5.76-1.29-8.53-2.19-0.28-0.09-0.55 0.16-0.83 0.07-2.56-0.82-5.05-1.45-7.43-2.18-0.91-0.28-1.76-0.44-2.64-0.7a276.28 276.28 0 0 0-12.36-3.3c-1.74-0.41-3.72-0.8-5.81-1.19l-1.25-0.22c-2.08-0.37-4.31-0.73-6.68-1.08l-1.33-0.19c-2.25-0.32-4.63-0.63-7.11-0.93l-1.02-0.13c-2.72-0.32-5.56-0.63-8.5-0.93l-1.93-0.19a782 782 0 0 0-19.38-1.66l-2-0.15c-3.29-0.24-6.64-0.47-10.04-0.69l-2.25-0.15-10.31-0.62-0.34-0.02h0.01c13.86 2.5 26.19 5.45 32.66 8.16 17.23 7.21 56.84 29.68 67.9 36.72 4.23 2.7 19.14 14.45 35.93 27.91 5.86 2.16 11 4.42 14.87 6.79 6.99 4.29 9.29 8.27 8.71 12.24a9261.3 9261.3 0 0 1 28.65 23.33l0.11-0.05c10.78-4 20.59-8.25 29.41-12.7z m5.4-2.83c3.68-1.99 7.16-4.02 10.44-6.07l0.68-0.44c3.2-2.02 6.22-4.08 8.99-6.17a78.13 78.13 0 0 0-16.94-17.52 61.14 61.14 0 0 0-4.32-2.93c-0.6-0.37-1.32-0.79-1.98-1.18-1.15-0.7-2.31-1.39-3.64-2.13l-2.93-1.6c-1.23-0.66-2.45-1.32-3.79-2.01l-3.81-1.93-3.82-1.9-4.65-2.24-3.7-1.74c-1.81-0.84-3.63-1.69-5.52-2.54l-3.25-1.46c-2.17-0.97-4.34-1.94-6.59-2.92l-2.11-0.91a794.74 794.74 0 0 0-7.97-3.42c22.6 13.77 46.11 46.18 54.91 59.11z m-523.42-80.44l-2.15 0.48-3.17 0.71-2.99 0.72-2.99 0.72-3.68 0.93c-0.97 0.25-1.91 0.48-2.92 0.75l-4.39 1.16-2.66 0.71-5.19 1.41-2.27 0.62-3.8 1.06c2.38 0.66 4.85 1.38 7.39 2.13 34.52-5.51 68.99-0.02 92.91 5.87 2.3-3.58 4.33-7.16 4.87-9.45 0.28-1.17 0.26-3.71 0.03-7.12-27.79-1.26-52.43-0.59-52.43-0.59 7.83-1.36 31.17-5.94 51.62-7.83l-0.28-2.48c-28.95 3.88-54.23 7.63-63.41 9.3-1.34 0.25-2.85 0.55-4.49 0.9z m378.58 123.84a796.3 796.3 0 0 0 35.45-6.73l0.11-0.02a4326.2 4326.2 0 0 1-8.11-5.82c-10.85 2.78-23.64 4.83-38.36 6.55l10.91 6.02zM419.84 416.02c0.49 6.56 0.45 12.02-0.53 15.4a914.92 914.92 0 0 0-4.24 15.1c5.89 2.2 12.62 4.45 19.62 6.63-0.02-3.72-0.24-6.89-0.79-9.03-1.05-4.07-2.42-13.49-3.85-24.9-1.21-0.42-2.53-0.97-3.69-1.36-2.02-0.65-4.21-1.26-6.52-1.84z" fill="#FFF1D9" p-id="2023"></path><path d="M273.11 422.43c23.4 7.28 49.28 16.72 53.49 18.96 7.37 3.93 12.27-1.97 27.97-9.27l1.52-2.15c-1.27-0.59-2.39-1.1-3.17-1.44-14.14-6.05-54.57-6.48-79.81-6.1z m145.86-15.03c3.3 0.81 6.62 1.64 9.93 2.49-0.74-6.26-1.47-12.8-2.17-19.23l-10.11 1.15c0.92 5.4 1.74 10.67 2.35 15.59z m30.56-18.56l-0.06-0.49-0.88 0.08 0.14 1.41c0.27-0.1 0.58-0.19 0.86-0.28l-0.06-0.72z m-58.9 31.65c0.23-2.49 0.49-5.59 0.72-9.01-3.38-0.34-6.81-0.65-10.26-0.91a27.48 27.48 0 0 1-1.52 6.9c-0.77 1.88-1.48 3.52-2.14 5.01a93.81 93.81 0 0 1-0.2 3.2 18.24 18.24 0 0 1-0.93 3.79c3.35 0.88 6.89 2.31 10.82 4.15a41.01 41.01 0 0 0 3.51-13.13z m-9.15-20.15a57.89 57.89 0 0 1 10.24 1.13c0.03-2.17 0-4.38-0.08-6.64l-10.32 1.31c0.09 1.43 0.15 2.84 0.16 4.2z m-135.44 41.22c-7.81-5.64-12.5-11.06-14.64-15.65l-0.61 0.18-0.66 0.2a1467.22 1467.22 0 0 0-46.27 14.65c15.32-2.09 38.46-1.31 62.18 0.62z m220.04-54.5l0.01 0.11c2.56-0.08 5.22-0.09 7.98-0.03a2.6 2.6 0 0 1-0.03-0.4l-1.92 0.04c-1.8 0.06-3.86 0.16-6.04 0.28z m-13.05 41.39l-0.97-0.42c0.93 7.61 2.25 17.13 3.25 26.13l-2.28-25.71z m-3.39-38.32l-0.9-0.12c1.34 13.27 2.24 23.02 2.25 25.91l0.96 0.28-2.31-26.07z m19.66 32.01c1.97 0.94 4.56 2.23 7.67 3.83-0.63-8.98-1.44-20-2.34-31.62a546.6 546.6 0 0 0-8.05-1.49c0.79 9.02 1.75 19.27 2.72 29.28z m74.63-8.95l0.14 2.59c1.7-0.2 3.36-0.37 5.05-0.55-1.72-0.7-3.45-1.38-5.19-2.04z m47.56 1.1c30.85 3.36 52.31 14.08 64.38 23.47 7.03 5.47 29.27 10.94 50.74 17.06-13.71-10.67-29.12-22.16-42.86-30.81-20.79-13.09-86.58-29.4-116.36-36.35l-1.04-0.03-3.54-0.1c0.15 4.69 0.31 9.19 0.5 13.4a459.7 459.7 0 0 1 25.02 12.89c8.83-0.35 16.83-0.22 23.16 0.47z m-91.36 9.91a267.36 267.36 0 0 1 25.32-5.67l-0.35-11.77a440.41 440.41 0 0 0-27.1-7.37c0.83 8.18 1.58 16.57 2.13 24.81z m13.09-35.4h-0.02c-3.21 0-6.27-1.08-9.26-1.12-0.57 0-1.12-0.5-1.67-0.51-1.95-0.02-3.79-0.28-5.63-0.29l0.24 2.09c10.63 1.26 20.39 2.92 26.53 4.41 0.41 0.1 0.88 0.25 1.3 0.36l-0.2-6.69c-0.53-0.01-1.02 0.96-1.54 0.95-3.33-0.06-6.6 0.8-9.75 0.8z m247.87 124.05c0.32-0.1 0.66 0.53 0.97 0.42 4.67-1.46 9.2-3.76 13.58-3.76h0.03c-6.73 0-16.68-12.94-25.43-19.42-4.86 5.41-13.06 10.6-20.61 17.24-5.46 4.81-13.11 8.15-22.37 11.05 2.77 2.33 5.39 4.41 7.62 6.3 5.29-1.18 10.44-2.48 15.51-3.74 0.49-0.12 0.97-0.27 1.45-0.39 5.12-1.29 10.15-2.11 15.03-3.48 0.02-0.01 0.05 0.48 0.09 0.48h0.02c4.83 0.01 9.52-3.27 14.11-4.7z m-180.76 30.8c-1.4-0.67-9.12-4.61-20.84-10.61-30.62 0.49-62.97 1.5-88.49 0.36 7.73 6.38 14.36 8.31 18.04 16.35h0.15c7.36 0 14.67-1.44 21.91-1.57 0.75-0.02 1.49-0.7 2.24-0.71 7.36-0.15 14.67-0.69 21.91-0.96 0.28-0.01 0.54-0.19 0.83-0.2 15.03-0.58 29.81-1.58 44.25-2.66z m82.37-10.12c-3.98-1.82-8.65-3.56-13.73-5.9-6.6 0.66-13.41 1.51-20.61 2.16-16.55 1.49-38.73 1.74-62.35 2.21 7.47 4.15 14.09 9.7 18.66 9.7h0.03c27.36 0 53.47-4.36 78-8.17z m-280.87 0.88c6.35 3.66 11.99 6.94 16.33 9.46a1228.56 1228.56 0 0 0 43.21 2.3c13.73 0.5 27.67 0.8 41.83 0.85h0.01l-22.67-15.51c-4.15-0.24-8.06-0.51-11.65-0.81-12.05 0.99-27.24 2.02-46.52 2.95-7.59 0.38-14.32 0.61-20.54 0.76z m-35.68-40.88l-0.8-0.14c-41.5-7.93-67.4-30.46-88.99-44.94-35.74-4.1-67.05-6.53-73.87-7.04l-2.1 0.71c-19.72 6.76-29 21.71-33.36 33.58-0.32 0.86-0.49 1.6-0.76 2.42 2.04-0.73 4.4-1.56 7.47-2.63 34.2-11.9 97.07-7.21 118.7 0 4.78 1.6 14.15 6.16 25.73 12.22 18.99 2.04 37.13 4.53 41.84 5.71 2.64 0.66 4.55 0.62 6.14 0.11z" fill="#FFF1D9" p-id="2024"></path><path d="M159.34 490.41c2.81 1.47 5.72 2.93 8.75 4.36 1.38 0.65 2.74 1.31 4.16 1.95 3.58 1.62 7.32 3.2 11.18 4.76 0.87 0.35 1.68 0.71 2.56 1.06 4.59 1.81 9.41 3.56 14.35 5.28 1.91 0.66 3.89 1.3 5.85 1.95 3.28 1.09 6.61 2.16 10.03 3.2a395.04 395.04 0 0 0 17.46 5c2.37 0.64 4.68 1.3 7.11 1.92 5.33 1.36 10.8 2.68 16.38 3.95 3.19 0.73 6.48 1.42 9.75 2.12a668.25 668.25 0 0 0 19.9 3.98c2.73 0.51 5.52 0.99 8.31 1.48a945.75 945.75 0 0 0 43.28 6.52c2.52 0.32 5.04 0.65 7.59 0.95 4.57 0.55 9.19 1.06 13.84 1.56 2.61 0.28 5.23 0.53 7.87 0.8 4.79 0.48 9.6 0.95 14.49 1.37l0.11 0.01a267.95 267.95 0 0 1-7.28-4.45c-0.97-0.62-3.33-1.91-6.58-3.61-39.15-0.12-49.97-5.81-80.77-15-38.23-11.4-41.59-28.84-40.24-33.62 0.42-1.49 8.55-1.59 19.87-0.93l-1.43-0.66c-29.68-13.58-112.16-7.54-112.16-7.54s-3.93 1.21-7.8 2.35c-0.3 0.99-0.69 2.07-0.94 2.99l0.03 0.02c3.32 2.15 6.96 4.25 10.73 6.33 1.17 0.64 2.4 1.27 3.6 1.9z" fill="#FFF1D9" p-id="2025"></path><path d="M524.23 310.22l-0.15 16.07c-0.19 16.87-0.39 34.06-0.16 41.39l0.6 19.37 0.2 6.68a5419.83 5419.83 0 0 1 0.74 24.81 333.1 333.1 0 0 1 18.62-2.76l-0.14-2.59c-0.2-3.76-0.42-7.82-0.61-12.26-0.19-4.22-0.35-8.71-0.5-13.4v-0.01c-0.59-18.37-0.8-39.84 0.09-60.56 0.24-5.43 0.55-10.77 0.95-16.02 0.21-2.74 0.42-5.49 0.68-8.15 0.39-4.01 0.61-8.09 0.73-12.2l-21.13-1.98c0.15 4.48 0.15 12.32 0.08 21.61z m-10.53-73.75l27.63 1.38a386 386 0 0 0-2.58-14.29l-28.07-0.42c0.88 3.77 1.91 8.34 3.02 13.33z m15.39-52.46l-0.09-0.31-20.9 0.3-0.02 0.33 21.01-0.32z m14.02 66.41c-0.02-0.1-0.02-0.2-0.03-0.31l-26.77-1.72 0.06 0.33 26.74 1.7z m-83.07 201.72c1.34-9.09 8.72-14.38 8.72-14.38 0.57-0.44 1.3-0.85 1.93-1.28-0.46-4.6-0.93-9.43-1.4-14.34-0.97-10.01-0.93-20.26-1.72-29.28-0.17-1.96 0.51-3.85 0.51-5.68v-0.11c0-7.23-2.07-13.31-2.26-17.25-0.39-8.14-1.41-25.63-1.89-43.8-0.14-5.38-0.53-10.8-0.66-16.08-0.25-10.2-0.61-19.76-0.78-27.13l-23.95-2.24c1.27 20.39 4.39 52 7.2 79.68l3.74 28.1 0.05 0.49 0.06 0.72 0.05 0.56 2.3 26.08 1.08 12.25 2.28 25.72c0.16 1.36 0.3 2.72 0.44 4.04 2.39-2.14 4.02-4.18 4.3-6.07z m-44.98-5.61c1.23-4.53 2.67-9.71 4.24-15.1 0.98-3.38 1.03-8.85 0.53-15.4-0.2-2.71-0.49-5.57-0.86-8.63a352.42 352.42 0 0 0-2.35-15.59c-3.5-20.53-8.51-42.69-9.89-52.73-0.38-2.71-0.73-6.42-1.08-10.66-0.38-4.75-0.75-10.17-1.09-15.95-0.71-11.99-1.3-25.1-1.71-35.25l-17.37-1.63a569.18 569.18 0 0 0 6.9 36.25c3.79 16.6 17.87 81.98 18.37 91.04 0.35 6.29 0.2 25.9-2.77 40.84 2.16 0.93 4.55 1.87 7.08 2.81z m-33.97-35.96c0.35-2.99 0.47-6.44 0.39-10.22-0.02-1.36-0.08-2.77-0.15-4.2-1.13-23.12-7.79-54.91-10.32-64.68l-0.05-0.26c-0.82-3.29-1.53-8.96-2.13-15.73-1.16-12.98-1.95-29.92-2.39-41.66l-7.5-0.7c1.73 13.47 3.94 31.48 4.62 38.57 1.1 11.4 4.61 38.56 9.64 60.02 4.46 19.05 4.7 40.93 4.23 50.78 0.66-1.49 1.37-3.13 2.14-5.01 0.74-1.82 1.21-4.2 1.52-6.91z" fill="#F7E3C0" p-id="2026"></path><path d="M522.88 171.52l-1.45 0.22c-4.65 0.22-19.41 1.84-26.66 12.35l13.32-0.14 20.9-0.28 393.28-5.63 17.1-18.28-416.46 11.76h-0.03z m-46.71 1.7l-168.53 4.83-16.6 9.05 176.56-2.53a47.82 47.82 0 0 1 8.57-11.35z" fill="#724B3B" p-id="2027"></path><path d="M529.09 184.01l-21.01 0.32-13.53 0.2a22.06 22.06 0 0 0-2.81 6.1c-1.46 5.05-2.25 17.02-2.6 32.17l21.56 0.33 28.07 0.42 382.51 5.8 1.01-51.3-393.2 5.96z m-70.05 23.72c1.24-5.12 3.71-14.23 8.37-22.79l-176.36 2.67v32.19l167.14 2.53c-0.08-6.58 0.16-11.77 0.85-14.6z" fill="#492B1E" p-id="2028"></path><path d="M921.27 229.36l21.12-25.65-3.01-43.76-17.1 18.1z" fill="#855F4E" p-id="2029"></path><path d="M348.62 228.26l-38.73-1.93-17.26 7.73 50.14 3.22c1.16-4 3.3-6.92 5.85-9.02z m93.53 15.39l17.02 1.09c-0.26-3.83-0.47-7.5-0.63-11.01l-7.31-0.36c0.01 0-5.18 2.06-9.08 10.28z m-85.39-10.43c-0.94 1.11-1.46 2.84-1.71 4.84l9.07 0.58c0.11-0.44 0.22-0.88 0.36-1.23 1.74-4.36 2.12-6.36 4.25-8.15l-4.4-0.22c-0.9-0.03-4.14 0.18-7.57 4.18z m26.12 6.62l37.83 2.43c2-4.6 4.26-8.2 6.64-9.39 0.37-0.18 0.79-0.4 1.21-0.64l-30.51-1.52c-5.17 0.17-12.7 1.78-15.17 9.12z m130.82-3.37l-24.76-1.23c-0.03 3.71-0.04 7.52-0.04 11.4l27.41 1.76 26.77 1.72 379.56 24.35 18.47-16.71-399.77-19.9-27.64-1.39z" fill="#724B3B" p-id="2030"></path><path d="M415.29 278.39c-0.55-8.85-0.68-15.91-0.01-18.86a104.46 104.46 0 0 1 5.25-16.88l-37.81-2.39a18.33 18.33 0 0 0-0.64 6.19c0.44 8.35 1.76 18.72 3.4 29.14l17.37 1.63 12.44 1.17z m-72.65-40.66l-50.05-3.17-2.52 32.09 54.57 5.12c-0.96-10.41-1.79-18.92-2.42-23.04-0.67-4.39-0.38-7.96 0.42-11z m24.66 36.16c-2.79-14.59-4.61-28.43-3.3-34.81l-9.03-0.57c-0.69 6.49 1.3 15.77 1.79 18.52 0.25 1.39 1.13 7.91 2.18 16.09l7.5 0.7 0.86 0.07z m95.27 8.94a968.96 968.96 0 0 1-3.36-37.72l-17.22-1.09c-2.15 4.68-3.9 11.27-4.07 20.55-0.07 3.72 0.15 9.27 0.57 16.01l23.89 2.24 0.19 0.01z m80.54-32.41l-26.74-1.69-27.48-1.74c0.03 12.51 0.22 25.73 0.51 38.36l34.73 3.26 21.13 1.98 372.34 34.94 5.02-51.06-379.51-24.05z" fill="#492B1E" p-id="2031"></path><path d="M917.61 325.53l23.07-23.92 0.43-43.86-18.47 16.71z" fill="#855F4E" p-id="2032"></path><path d="M459.2 245.11a968.96 968.96 0 0 0 3.36 37.72 769.44 769.44 0 0 0 3.32 27.04c0.43 2.96 0.84 5.59 1.19 7.51 0.38 2.05 0.79 5.04 1.23 8.52 1.74 13.93 3.86 37.8 5.71 60.84h0.01l0.03 0.4 0.57 7.2c0.9 11.62 1.71 22.64 2.34 31.62l0.46 6.62c6.32-3.14 14.07-5.96 22.7-8.38a859.47 859.47 0 0 0-3.25-35.35l-0.24-2.22c-2.14-18.94-4.35-34.95-4.92-41.59-0.28-3.31-0.66-10.18-1.04-19.26-0.2-4.81-0.41-10.25-0.6-16.1-0.25-7.55 1.17-15.79 0.98-24.34-0.29-12.62 1.16-25.84 1.16-38.36v-0.35c0-3.89-1.66-7.7-1.63-11.4 0.03-4.32-0.74-8.48-0.64-12.44 0.35-15.15 0.72-27.12 2.18-32.17a22.06 22.06 0 0 1 2.61-6.1c0.07-0.11 0.05-0.23 0.12-0.35 7.26-10.51 21.97-12.22 26.61-12.44 0.86-0.04 1.34-0.22 1.4-0.22h0.03c-22.42 0-37.09-7.76-46.75 1.53a48.1 48.1 0 0 0-8.57 11.44c-0.06 0.12-0.13 0.29-0.2 0.41-4.66 8.56-7.13 17.69-8.37 22.81-0.68 2.83-0.93 8.03-0.85 14.62 0.03 3.44 0.17 7.3 0.36 11.4 0.16 3.51 0.37 7.18 0.63 11.01 0.04 0.13 0.05 0.26 0.06 0.38z m-38.49-2.84l-0.18 0.39a104.15 104.15 0 0 0-5.25 16.88c-0.68 2.95-0.54 10 0.01 18.86 0.61 9.81 1.74 21.85 2.94 33.26 0.59 5.61 1.19 11 1.74 15.92 1.12 9.88 2.06 17.73 2.36 20.54 0.47 4.5 2.27 22.89 4.41 42.55a2122.58 2122.58 0 0 0 3.31 28.57c1.43 11.4 2.8 20.83 3.85 24.9 0.55 2.14 0.77 5.31 0.79 9.03a750.9 750.9 0 0 0 20.07 5.93c0.35-0.29 0.68-0.59 1.01-0.88-0.14-1.32-0.28-2.68-0.44-4.04-1.01-9-1.82-18.52-2.75-26.13-0.63-5.19-0.57-9.51-0.57-12.08v-0.04c0-2.9-1.41-12.64-2.75-25.91 0-0.05-0.26-0.11-0.27-0.16-0.05-0.46-0.22-0.94-0.27-1.41-0.84-8.35-1.89-17.99-2.94-28.18-2.81-27.68-5.99-59.29-7.26-79.68-0.42-6.74-0.65-12.28-0.58-16.01 0.17-9.28 1.91-15.86 4.07-20.55 0.05-0.12 0.1-0.26 0.16-0.37 3.91-8.21 9.09-10.28 9.09-10.28-7.11-10.42-17.23-4.11-22.68-1.13-0.42 0.24-0.84 0.46-1.21 0.64-2.4 1.18-4.67 4.78-6.66 9.38z m-56.23-4.86c-0.14 0.35-0.25 0.79-0.36 1.23-0.03 0.15-0.08 0.28-0.12 0.44-1.3 6.39 0.51 20.22 3.3 34.81a508.68 508.68 0 0 0 4.22 19.85 450 450 0 0 1 4.2 21.1c0.93 5.1 1.86 10.38 2.81 15.66 2.84 15.73 5.81 31.21 9.08 40.2 2.7 7.44 3.75 15.97 4.04 24.13 0.08 2.26 0.11 4.47 0.08 6.64-0.05 3.55-0.17 6.92-0.38 10.01-0.23 3.42-0.49 6.52-0.72 9.01a41.15 41.15 0 0 1-3.51 13.14c4.71 2.21 9.98 4.94 16.46 8.11 1.33 0.65 2.81 1.32 4.4 1.99 2.97-14.94 3.11-34.56 2.77-40.84-0.5-9.05-14.59-74.44-18.37-91.04a569.18 569.18 0 0 1-6.9-36.25c-1.63-10.41-2.96-20.78-3.4-29.14-0.13-2.41 0.12-4.46 0.64-6.19 0.04-0.15 0.12-0.28 0.16-0.42 2.47-7.34 10-8.95 15.17-9.12 2.96-0.1 5.14 0.26 5.14 0.26-4.53-1.51-14.08-10.76-25.64-6.14-4.78 1.91-7.26 3.12-8.83 4.42-2.12 1.78-2.5 3.78-4.24 8.14z" fill="#FEEDD0" p-id="2033"></path><path d="M354.02 351.91c3.01 11.03 6.59 31.56 8.47 46.7l0.28 2.48c0.37 3.15 0.64 6.01 0.82 8.42 0.23 3.41 0.25 5.95-0.03 7.12-0.54 2.29-2.57 5.87-4.87 9.45a154.63 154.63 0 0 1-4.13 6.04l1.04-0.5c7.89-3.58 14.01-3.9 20.69-2.14 0.46-1.37 0.82-2.68 0.93-3.79 0.07-0.83 0.14-1.95 0.2-3.2 0.47-9.86 0.24-31.74-4.23-50.78-5.03-21.46-8.54-48.62-9.64-60.02-0.68-7.09-2.89-25.09-4.62-38.57a665.58 665.58 0 0 0-2.18-16.09c-0.5-2.75-2.48-12.03-1.79-18.52l0.08-0.45c0.25-2 0.77-3.73 1.71-4.84 3.43-4 6.67-4.2 7.57-4.18l0.27 0.01s-3.26-7.11-10.05-4.35c-2 0.81-4.04 1.99-5.93 3.55a17.97 17.97 0 0 0-5.98 9.47 26.78 26.78 0 0 0-0.42 10.99c0.63 4.12 1.46 12.63 2.42 23.04 1.27 13.68 2.77 30.67 4.39 45.86 0.6 5.59 1.21 10.88 1.84 15.69 1.04 8.05 2.1 14.71 3.16 18.61z" fill="#FEEDD0" p-id="2034"></path><path d="M326.6 441.39c-4.21-2.25-30.08-11.69-53.49-18.96a570.25 570.25 0 0 0-14.71-4.35c-12.1-3.36-21.7-5.36-24.27-4.24-4.12 1.8-5.43 6.26-2.73 12.07 2.15 4.59 6.83 10.01 14.64 15.65a89.44 89.44 0 0 0 5.23 3.52c1.66 1.03 3.39 2.23 5.09 3.37 21.6 14.48 47.5 37.02 88.99 44.94l0.8 0.14c4.86-1.54 6.71-7.47 17.32-11.51 14.08-5.36 16.77-5.37 30.18 0 5.88 2.35 16.27 4.83 26.08 6.88a199.3 199.3 0 0 1 2.09-4.33c1.37-2.78 4.46-5.66 8.31-8.57l-123.5-31.75 132.64 25.47c5.66-3.66 11.43-7.26 15.47-10.63a789.86 789.86 0 0 1-20.07-5.93 378.4 378.4 0 0 1-19.62-6.63c-2.53-0.95-4.92-1.89-7.07-2.81a87.31 87.31 0 0 1-4.4-1.99c-6.48-3.17-11.76-5.9-16.46-8.11a65.81 65.81 0 0 0-10.82-4.15c-6.67-1.76-12.79-1.45-20.69 2.14-0.38 0.17-0.68 0.33-1.04 0.5-15.71 7.32-20.6 13.21-27.97 9.28z" fill="#3AB16E" p-id="2035"></path><path d="M393.65 482.02c-13.41-5.37-16.1-5.36-30.18 0-10.61 4.04-12.46 9.97-17.32 11.51-1.59 0.51-3.5 0.55-6.15-0.11-4.72-1.18-22.85-3.68-41.84-5.71a684.01 684.01 0 0 0-30.84-2.68c-11.32-0.66-19.45-0.57-19.87 0.93-1.35 4.78 2.01 22.22 40.24 33.62 30.79 9.18 41.62 14.88 80.77 15 4.11 0.01 8.59-0.05 13.37-0.16 6.22-0.15 12.95-0.38 20.54-0.75 19.28-0.94 34.47-1.96 46.52-2.95-2.71-0.22-5.29-0.46-7.63-0.71-16.21-1.74-23.29-7.71-25.74-14.9l-84.24-5.58h83.16c-0.32-7.29 2.67-15 5.28-20.62-9.8-2.06-20.19-4.54-26.07-6.89z" fill="#4EC962" p-id="2036"></path><path d="M331.28 509.51l84.24 5.58c-0.61-1.8-1-3.66-1.08-5.58h-83.16z" fill="#7FDF8D" p-id="2037"></path><path d="M306.64 444.25L430.13 476c2.77-2.09 5.93-4.19 9.15-6.27l-132.64-25.48z" fill="#75D5A2" p-id="2038"></path><path d="M477.43 432.58a60.43 60.43 0 0 0-6.73 3.89c-0.63 0.43-1.36 0.84-1.93 1.28 0 0-7.39 5.29-8.72 14.38-0.28 1.89-1.91 3.93-4.29 6.07-0.33 0.29-0.66 0.59-1.01 0.88-4.04 3.37-9.81 6.97-15.47 10.63a156.12 156.12 0 0 0-9.15 6.27c-3.85 2.9-6.95 5.79-8.31 8.57-0.6 1.21-1.33 2.7-2.09 4.33-2.61 5.62-5.6 13.33-5.28 20.62 0.08 1.91 0.47 3.77 1.08 5.58 2.44 7.19 9.53 13.16 25.74 14.9 2.34 0.25 4.92 0.49 7.63 0.71a581.73 581.73 0 0 0 22.1 1.35c25.52 1.14 57.87 1.48 88.49 0.99l6.52-0.13c23.62-0.48 45.8-1.44 62.35-2.92a1647.73 1647.73 0 0 0 33.89-3.37c14.72-1.72 27.51-3.77 38.36-6.55 2.33-0.6 4.52-1.27 6.66-1.94 9.26-2.91 16.9-6.5 22.37-11.3 7.54-6.64 15.74-12.33 20.61-17.74 2.31-2.57 3.82-5.07 4.2-7.58 0.58-3.97-1.71-7.95-8.71-12.24-3.87-2.37-9.01-4.63-14.87-6.79a350.33 350.33 0 0 0-24.25-7.66c-21.47-6.13-43.71-11.6-50.74-17.06-12.07-9.39-33.53-20.11-64.38-23.47-6.33-0.69-14.34-0.81-23.15-0.47a305.1 305.1 0 0 0-24.27 1.96 333.1 333.1 0 0 0-18.62 2.76 266.66 266.66 0 0 0-25.32 5.67c-8.65 2.43-16.4 5.24-22.71 8.38z m8.77 88c-13.41 0-42.92-6.04-49.62-12.07-6.71-6.04-9.4-14.75 3.35-19.45 0 0-11.4 8.72 0 14.75 11.4 6.04 33.53 13.08 65.72 12.74s40.58 0.01 40.58 0.01-46.63 4.02-60.03 4.02z m89.2-5.03c-1.34 2.68-5.71 1.34-8.72-2.01-3.02-3.35 5.36-2.35 5.36-2.35s4.69 1.68 3.36 4.36z m1.17-87.52c34.9 0 63.21 15.46 63.21 34.54 0 19.07-28.31 34.54-63.21 34.54-34.91 0-63.21-15.46-63.21-34.54s28.3-34.54 63.21-34.54z" fill="#FFFFFF" p-id="2039"></path><path d="M505.64 516.56c-32.19 0.33-54.32-6.71-65.72-12.74-11.4-6.04 0-14.75 0-14.75-12.75 4.7-10.06 13.41-3.35 19.45 6.7 6.04 36.21 12.07 49.62 12.07s60.03-4.01 60.03-4.01-8.39-0.36-40.58-0.02z m66.39-5.37s-8.38-1.01-5.36 2.35c3.02 3.35 7.38 4.7 8.72 2.01 1.34-2.68-3.36-4.36-3.36-4.36z" fill="#EBD4AB" p-id="2040"></path><path d="M513.36 462.57c0 19.07 28.3 34.54 63.21 34.54 34.9 0 63.21-15.46 63.21-34.54s-28.31-34.54-63.21-34.54c-34.91 0-63.21 15.46-63.21 34.54z m13.25-13.75c2.5 0 4.53 2.07 4.53 4.62a4.58 4.58 0 0 1-4.53 4.62 4.58 4.58 0 0 1-4.53-4.62 4.58 4.58 0 0 1 4.53-4.62z m3.85 26.49c-4.78-3.27 0-9.31 0-9.31 1.52-2.69 4.92-1.59 5.28-0.75 0.75 1.76-2.64 3.77-0.38 7.17 2.26 3.4 16.72 6.16 22.26 6.66 5.53 0.5 11.82-0.5 14.59 1.01 2.77 1.51-0.75 3.02-11.07 3.27-10.31 0.25-25.9-4.78-30.68-8.05z m42.5-42.14c8.17-3.13 18.19-1.54 29.13 1.15 10.94 2.68 26.83 11.69 29.97 19.87 2.89 7.53 1.68 15.09-3.35 20.79-5.03 5.7-22.48 11.74-29.85 9.05-7.37-2.68 4.7-16.43 5.71-22.8 1.01-6.37-18.78-10.39-29.85-16.43-11.07-6.04-1.76-11.63-1.76-11.63z" fill="#FDB34D" p-id="2041"></path><path d="M574.72 444.8c11.07 6.04 30.85 10.06 29.85 16.43-1.01 6.37-13.08 20.12-5.71 22.8 7.37 2.68 24.82-3.35 29.85-9.05 5.03-5.7 6.24-13.27 3.35-20.79-3.14-8.17-19.03-17.18-29.97-19.87-10.94-2.68-20.95-4.27-29.13-1.15 0 0-9.31 5.59 1.76 11.63z" fill="#FD872A" p-id="2042"></path><path d="M526.61 458.07c2.5 0 4.53-2.07 4.53-4.62a4.58 4.58 0 0 0-4.53-4.62 4.58 4.58 0 0 0-4.53 4.62 4.58 4.58 0 0 0 4.53 4.62z m45.6 22.02c-2.77-1.51-9.05-0.5-14.59-1.01-5.53-0.5-19.99-3.26-22.26-6.66-2.26-3.4 1.13-5.41 0.38-7.17-0.36-0.83-3.76-1.93-5.28 0.75 0 0-4.78 6.04 0 9.31 4.78 3.27 20.37 8.3 30.68 8.05 10.31-0.25 13.83-1.76 11.07-3.27z" fill="#FFFFFF" p-id="2043"></path></svg>