<?xml version="1.0" standalone="no"?><!DOCTYPE svg PUBLIC "-//W3C//DTD SVG 1.1//EN" "http://www.w3.org/Graphics/SVG/1.1/DTD/svg11.dtd"><svg t="1607839994123" class="icon" viewBox="0 0 1024 1024" version="1.1" xmlns="http://www.w3.org/2000/svg" p-id="2178" xmlns:xlink="http://www.w3.org/1999/xlink" width="200" height="200"><defs><style type="text/css"></style></defs><path d="M289.67 517.94s-10.79 29.09 7.47 43.22c18.26 14.13 49.81 17.45 68.89 24.94 19.09 7.48 72.22 59.01 138.61 68.99 66.4 9.97 181.77 31.59 224.1 20.78 42.33-10.81 102.09-58.18 116.2-61.51 14.11-3.32 71.38-1.66 87.15-11.64 15.77-9.97 17.43-13.3 6.64-28.26s-43.16-48.21-48.14-68.99c-4.97-20.78-9.96-50.7-30.7-52.36-20.75-1.66-53.12-9.14-63.91-31.59-10.79-22.44-18.26-44.88-48.98-50.7-30.7-5.82-58.09 11.64-75.52 5.82-17.44-5.82-70.55-43.22-94.63-43.22-24.07 0-67.22 9.97-86.31 24.94-19.09 14.96-59.76 6.65-75.53 12.47-15.77 5.82-47.31 45.72-43.16 83.95-7.47 17.45 0 12.47-7.47 17.45-7.48 4.99-62.26 5.82-74.71 45.71z" fill="#73C58A" p-id="2179"></path><path d="M890.58 505.48c-4.97-20.78-9.96-50.7-30.7-52.36-20.75-1.66-53.12-9.14-63.91-31.59-10.79-22.44-18.26-44.88-48.98-50.7-30.7-5.82-58.09 11.64-75.52 5.82-17.44-5.82-70.55-43.22-94.63-43.22-8.03 0-18.21 1.13-28.88 3.17 20.84 7.25 70.21 25.25 78.69 35.78 10.79 13.42 86.31 29.77 97.11 28.66 10.79-1.11 35.69 15.51 32.36 31.31-3.31 15.79-34.03 22.44-26.56 66.5 4.68 27.59 35.07 99.83 57.14 149.98 26.55-15.82 50.06-32.52 58.24-34.45 14.11-3.32 71.38-1.66 87.15-11.64 15.77-9.97 17.43-13.3 6.64-28.26-10.8-14.98-43.16-48.22-48.15-69z" fill="#68B578" p-id="2180"></path><path d="M821.85 557.01c-19.09-47.38-45.49-73.98-95.29-113.87-49.8-39.9-131.66-43.22-195.57-37.4s-123.87 69.82-130.51 83.12c-5.41 10.82-28.68 73.41-37.16 96.32 0.88 0.31 1.87 0.6 2.71 0.93 19.09 7.48 72.22 59.01 138.61 68.99 66.4 9.97 181.77 31.59 224.1 20.78 42.33-10.81 102.09-58.18 116.2-61.51 1.11-0.26 2.57-0.48 4.18-0.69-6.65-11.33-16.56-30.07-27.27-56.67z" fill="#FFFCED" p-id="2181"></path><path d="M452.76 378.3s30.08 0 43.78-6.44c13.7-6.44 21.58-9.35 21.58-9.35s-10.99 11.43-24.9 15.79c-13.9 4.37-20.95 6.03-40.46 0zM406.98 401.03s-17.16 3.88-19.37 14.68c-2.21 10.81-4.97 39.62-5.81 49.04-0.83 9.42-11.62 16.62-16.88 19.12s-34.17 11.22-43.09 24.52c-8.92 13.3-13.9 17.25-9.13 23.48s21.99 19.12 21.99 19.12-18.47-15.17-16.81-22.23c1.66-7.07 7.88-18.29 15.56-21.82 7.68-3.53 44.4-15.79 48.35-23.69 3.94-7.9 4.36-35.95 4.77-43.84 0.41-7.9 3.73-23.9 6.64-27.43 2.91-3.55 13.78-10.95 13.78-10.95z" fill="#A3EBAE" p-id="2182"></path><path d="M849.11 613.67c-6.64-11.32-16.55-30.06-27.26-56.66-17.25-42.81-40.53-68.68-81.59-102.7-3.51 7.4-9.37 23.73-2.6 39.73 9.12 21.61 14.21 30.54 11.72 47.22s6.69 22.45 6.69 39.07-77.16 53.17-99.57 58.99c-22.4 5.82-73.85 26.59-103.73 12.46-29.88-14.13-108.72-43.23-133.63-56.53-24.9-13.3-24.9-13.3-38.17-14.96-5.23-0.66-10.4 3.27-15.7 5.55 0.25 0.09 0.53 0.17 0.75 0.26 19.09 7.48 72.22 59.01 138.61 68.99 66.4 9.97 181.77 31.59 224.1 20.78 42.33-10.81 102.09-58.18 116.2-61.51 1.12-0.26 2.57-0.48 4.18-0.69z" fill="#F5F2E4" p-id="2183"></path><path d="M391.2 512.96s15.53-66.5 82.56-91.43c67.01-24.94 113.61-44.05 187.99-12.47 74.38 31.59 113.61 49.04 134.04 89.77 20.44 40.73 25.34 55.69 25.34 55.69s-49.86-78.96-80.09-94.76c-30.25-15.79-85.02-40.73-103.81-44.88-18.79-4.16-61.29-6.65-88.27-1.66-26.98 4.99-73.57 14.13-91.55 26.6-17.98 12.46-41.69 28.25-66.21 73.14z" fill="#FFF5C0" p-id="2184"></path><path d="M424.96 515.45s-28.22 38.23-18.26 51.11c9.96 12.89 75.53 32 92.13 36.16 16.6 4.16 39.01 10.81 58.1 14.13 19.08 3.32 40.67-7.48 40.67-7.48s-47.31-7.48-68.07-12.47c-20.75-4.99-83.83-17.46-96.27-30.34-12.45-12.88-10.79-28.67-4.97-40.31 5.81-11.64 14.94-32.42 14.94-32.42l-18.27 21.62z" fill="#FFFFFF" p-id="2185"></path><path d="M289.67 517.94s-10.79 29.09 7.47 43.22c18.26 14.13 49.81 17.45 68.89 24.94 19.09 7.48 72.22 59.01 138.61 68.99 66.4 9.97 181.77 31.59 224.1 20.78 42.33-10.81 102.09-58.18 116.2-61.51 14.11-3.32 71.38-1.66 87.15-11.64 15.77-9.97 17.43-13.3 6.64-28.26s-43.16-48.21-48.14-68.99c-4.97-20.78-9.96-50.7-30.7-52.36-20.75-1.66-53.12-9.14-63.91-31.59-10.79-22.44-18.26-44.88-48.98-50.7-30.7-5.82-58.09 11.64-75.52 5.82-17.44-5.82-70.55-43.22-94.63-43.22-24.07 0-67.22 9.97-86.31 24.94-19.09 14.96-59.76 6.65-75.53 12.47-15.77 5.82-47.31 45.72-43.16 83.95-7.47 17.45 0 12.47-7.47 17.45-7.48 4.99-62.26 5.82-74.71 45.71z" fill="#73C58A" opacity=".6" p-id="2186"></path><path d="M890.58 505.48c-4.97-20.78-9.96-50.7-30.7-52.36-20.75-1.66-53.12-9.14-63.91-31.59-10.79-22.44-18.26-44.88-48.98-50.7-30.7-5.82-58.09 11.64-75.52 5.82-17.44-5.82-70.55-43.22-94.63-43.22-8.03 0-18.21 1.13-28.88 3.17 20.84 7.25 70.21 25.25 78.69 35.78 10.79 13.42 86.31 29.77 97.11 28.66 10.79-1.11 35.69 15.51 32.36 31.31-3.31 15.79-34.03 22.44-26.56 66.5 4.68 27.59 35.07 99.83 57.14 149.98 26.55-15.82 50.06-32.52 58.24-34.45 14.11-3.32 71.38-1.66 87.15-11.64 15.77-9.97 17.43-13.3 6.64-28.26-10.8-14.98-43.16-48.22-48.15-69z" fill="#68B578" opacity=".6" p-id="2187"></path><path d="M821.85 557.01c-19.09-47.38-45.49-73.98-95.29-113.87-49.8-39.9-131.66-43.22-195.57-37.4s-123.87 69.82-130.51 83.12c-5.41 10.82-28.68 73.41-37.16 96.32 0.88 0.31 1.87 0.6 2.71 0.93 19.09 7.48 72.22 59.01 138.61 68.99 66.4 9.97 181.77 31.59 224.1 20.78 42.33-10.81 102.09-58.18 116.2-61.51 1.11-0.26 2.57-0.48 4.18-0.69-6.65-11.33-16.56-30.07-27.27-56.67z" fill="#FFFCED" opacity=".6" p-id="2188"></path><path d="M452.76 378.3s30.08 0 43.78-6.44c13.7-6.44 21.58-9.35 21.58-9.35s-10.99 11.43-24.9 15.79c-13.9 4.37-20.95 6.03-40.46 0zM406.98 401.03s-17.16 3.88-19.37 14.68c-2.21 10.81-4.97 39.62-5.81 49.04-0.83 9.42-11.62 16.62-16.88 19.12s-34.17 11.22-43.09 24.52c-8.92 13.3-13.9 17.25-9.13 23.48s21.99 19.12 21.99 19.12-18.47-15.17-16.81-22.23c1.66-7.07 7.88-18.29 15.56-21.82 7.68-3.53 44.4-15.79 48.35-23.69 3.94-7.9 4.36-35.95 4.77-43.84 0.41-7.9 3.73-23.9 6.64-27.43 2.91-3.55 13.78-10.95 13.78-10.95z" fill="#A3EBAE" opacity=".6" p-id="2189"></path><path d="M849.11 613.67c-6.64-11.32-16.55-30.06-27.26-56.66-17.25-42.81-40.53-68.68-81.59-102.7-3.51 7.4-9.37 23.73-2.6 39.73 9.12 21.61 14.21 30.54 11.72 47.22s6.69 22.45 6.69 39.07-77.16 53.17-99.57 58.99c-22.4 5.82-73.85 26.59-103.73 12.46-29.88-14.13-108.72-43.23-133.63-56.53-24.9-13.3-24.9-13.3-38.17-14.96-5.23-0.66-10.4 3.27-15.7 5.55 0.25 0.09 0.53 0.17 0.75 0.26 19.09 7.48 72.22 59.01 138.61 68.99 66.4 9.97 181.77 31.59 224.1 20.78 42.33-10.81 102.09-58.18 116.2-61.51 1.12-0.26 2.57-0.48 4.18-0.69z" fill="#F5F2E4" opacity=".6" p-id="2190"></path><path d="M391.2 512.96s15.53-66.5 82.56-91.43c67.01-24.94 113.61-44.05 187.99-12.47 74.38 31.59 113.61 49.04 134.04 89.77 20.44 40.73 25.34 55.69 25.34 55.69s-49.86-78.96-80.09-94.76c-30.25-15.79-85.02-40.73-103.81-44.88-18.79-4.16-61.29-6.65-88.27-1.66-26.98 4.99-73.57 14.13-91.55 26.6-17.98 12.46-41.69 28.25-66.21 73.14z" fill="#FFF5C0" opacity=".6" p-id="2191"></path><path d="M424.96 515.45s-28.22 38.23-18.26 51.11c9.96 12.89 75.53 32 92.13 36.16 16.6 4.16 39.01 10.81 58.1 14.13 19.08 3.32 40.67-7.48 40.67-7.48s-47.31-7.48-68.07-12.47c-20.75-4.99-83.83-17.46-96.27-30.34-12.45-12.88-10.79-28.67-4.97-40.31 5.81-11.64 14.94-32.42 14.94-32.42l-18.27 21.62z" fill="#FFFFFF" opacity=".6" p-id="2192"></path><path d="M83.83 584.44s-10.79 29.09 7.47 43.22c18.26 14.13 49.8 17.45 68.88 24.94 19.1 7.48 72.22 59.01 138.61 68.99 66.4 9.97 181.77 31.59 224.1 20.78 42.33-10.81 102.09-58.18 116.2-61.51 14.12-3.32 71.38-1.66 87.16-11.64 15.77-9.97 17.42-13.3 6.64-28.26-10.79-14.96-43.16-48.21-48.14-68.99-4.97-20.78-9.96-50.7-30.71-52.36-20.75-1.66-53.12-9.14-63.9-31.59-10.79-22.44-18.26-44.88-48.98-50.7-30.71-5.82-58.09 11.64-75.53 5.82-17.43-5.82-70.55-43.22-94.62-43.22-24.07 0-67.23 9.97-86.31 24.94-19.09 14.96-59.77 6.65-75.53 12.47-15.77 5.82-47.31 45.72-43.16 83.95-7.47 17.45 0 12.47-7.47 17.45-7.48 4.98-62.26 5.81-74.71 45.71z" fill="#73C58A" p-id="2193"></path><path d="M684.74 571.97c-4.97-20.78-9.96-50.7-30.71-52.36-20.75-1.66-53.12-9.14-63.9-31.59-10.79-22.44-18.26-44.88-48.98-50.7-30.71-5.82-58.09 11.64-75.53 5.82-17.43-5.82-70.55-43.22-94.62-43.22-8.04 0-18.21 1.13-28.89 3.17 20.84 7.25 70.22 25.25 78.69 35.78 10.79 13.42 86.32 29.77 97.11 28.66 10.79-1.11 35.69 15.51 32.36 31.31-3.32 15.79-34.03 22.44-26.56 66.49 4.68 27.59 35.07 99.83 57.13 149.98 26.55-15.82 50.07-32.52 58.24-34.45 14.12-3.32 71.38-1.66 87.16-11.64 15.77-9.97 17.42-13.3 6.64-28.26-10.79-14.96-43.15-48.21-48.14-68.99z" fill="#68B578" p-id="2194"></path><path d="M616.01 623.5c-19.09-47.38-45.49-73.98-95.3-113.87-49.79-39.9-131.65-43.22-195.56-37.4s-123.87 69.82-130.52 83.12c-5.41 10.82-28.68 73.41-37.15 96.32 0.88 0.31 1.87 0.6 2.7 0.93 19.1 7.48 72.22 59.01 138.61 68.99 66.4 9.97 181.77 31.59 224.1 20.78 42.33-10.81 102.09-58.18 116.2-61.51 1.12-0.26 2.57-0.48 4.18-0.69-6.63-11.33-16.54-30.06-27.26-56.67z" fill="#FFFCED" p-id="2195"></path><path d="M246.93 444.8s30.09 0 43.78-6.44c13.69-6.44 21.58-9.35 21.58-9.35s-11 11.43-24.91 15.79c-13.89 4.36-20.95 6.03-40.45 0zM201.13 467.52s-17.16 3.88-19.36 14.68c-2.21 10.81-4.97 39.62-5.81 49.04-0.82 9.42-11.62 16.62-16.87 19.12-5.26 2.49-34.18 11.22-43.1 24.52-8.92 13.3-13.9 17.25-9.12 23.48 4.77 6.23 21.99 19.12 21.99 19.12s-18.47-15.17-16.81-22.23c1.66-7.07 7.88-18.29 15.56-21.82 7.68-3.53 44.4-15.79 48.35-23.69 3.94-7.9 4.36-35.95 4.77-43.84 0.42-7.9 3.74-23.9 6.64-27.43 2.91-3.54 13.76-10.95 13.76-10.95z" fill="#A3EBAE" p-id="2196"></path><path d="M643.27 680.17c-6.63-11.32-16.54-30.06-27.25-56.66-17.25-42.81-40.53-68.68-81.59-102.7-3.51 7.4-9.38 23.73-2.61 39.73 9.13 21.61 14.22 30.54 11.73 47.22s6.69 22.45 6.69 39.07-77.16 53.17-99.57 58.99c-22.4 5.82-73.86 26.59-103.73 12.46-29.88-14.13-108.73-43.23-133.63-56.53-24.9-13.3-24.9-13.3-38.18-14.96-5.23-0.66-10.4 3.27-15.69 5.55 0.25 0.09 0.53 0.17 0.75 0.26 19.1 7.48 72.22 59.01 138.61 68.99 66.4 9.97 181.77 31.59 224.1 20.78 42.33-10.81 102.09-58.18 116.2-61.51 1.11-0.27 2.56-0.49 4.17-0.69z" fill="#F5F2E4" p-id="2197"></path><path d="M185.37 579.45s15.53-66.5 82.56-91.43c67.01-24.94 113.61-44.05 187.99-12.47 74.38 31.59 113.61 49.04 134.04 89.77 20.44 40.73 25.34 55.69 25.34 55.69s-49.86-78.96-80.1-94.76c-30.24-15.79-85.01-40.73-103.8-44.88-18.81-4.16-61.31-6.65-88.27-1.66-26.98 4.99-73.57 14.13-91.55 26.6-17.99 12.47-41.69 28.26-66.21 73.14z" fill="#FFF5C0" p-id="2198"></path><path d="M949.49 566.68c-3.19-4.44-7.8-9.94-13.12-16.32-11.93-14.29-29.96-35.87-32.86-47.99l-1.29-5.46c-5.03-21.81-12.64-54.76-41.29-57.05-20.82-1.67-45.68-8.87-53-24.1-1.02-2.12-2.01-4.25-3-6.36-9.86-21.15-21.04-45.12-55.47-51.64-5.03-0.95-10.32-1.44-15.72-1.44-12.96 0-24.67 2.67-35.01 5.03-7.21 1.64-14.01 3.2-18.99 3.2-1.66 0-3.04-0.18-4.08-0.52-4.93-1.65-15.93-7.86-26.57-13.87-30.12-17.02-54.57-30.04-72.25-30.04-1.79 0-3.75 0.07-5.79 0.18-1.07 0.05-2.18 0.13-3.29 0.21-0.72 0.06-1.45 0.12-2.2 0.18-6.23 0.55-12.97 1.46-20.1 2.82-0.15 0.03-0.27 0.12-0.41 0.15-22.55 4.34-47.87 12.57-62.72 24.21-8.31 6.51-26.59 6.83-41.27 7.08-12.1 0.21-22.55 0.39-30.67 3.39-9.29 3.43-21.38 14.25-31.59 29.06-2.72-0.48-5.34-0.79-7.81-0.79-1.79 0-3.76 0.07-5.79 0.18-1.08 0.05-2.18 0.13-3.29 0.21-0.73 0.06-1.45 0.12-2.2 0.18-6.23 0.55-12.97 1.46-20.1 2.82-0.14 0.03-0.26 0.12-0.4 0.15-22.55 4.34-47.87 12.57-62.72 24.21-8.31 6.51-26.58 6.83-41.27 7.08-12.1 0.21-22.55 0.39-30.67 3.39-20.51 7.57-54.74 50.99-52.07 94.35-1.35 3.47-2.19 6.25-2.71 8.57-1.68 0.41-3.84 0.89-5.73 1.3-19.75 4.32-60.78 13.31-72.79 51.09-5.19 14.32-8.43 42.29 11.92 58.04 14.18 10.97 33.63 16.02 50.79 20.48 6.88 1.79 13.35 3.5 18.72 5.37 0.12 0.05 0.22 0.12 0.34 0.16l2.31 0.78c4 1.57 12.49 7.49 21.49 13.75 27.68 19.28 69.5 48.42 119.98 56 10.32 1.55 21.82 3.98 34.05 5.93 51.9 8.26 116.49 19.15 160.5 19.15h0.01c14.55 0 25.92-1.7 34.79-3.97 19.3-4.93 41.29-16.83 61.36-28.77 0.04-0.02 0.08-0.18 0.11-0.2 0.48-0.29 0.92-0.65 1.4-0.93 9.14-5.48 17.9-11.02 25.71-15.97 2.65-1.68 5.46-3.48 8.24-5.23 8.35-5.23 16.45-10.15 19.16-10.94 0.74-0.18 1.73-0.31 2.82-0.45 0.04 0 0.07-0.02 0.1-0.03 4.91-0.62 13.22-1.09 21.38-1.54 2.69-0.15 5.22-0.3 7.79-0.45 8.09 0.49 15.83 0.79 22.97 0.79h0.01c14.55 0 25.93-1.1 34.79-3.36 19.3-4.93 41.29-16.53 61.36-28.47 0.03-0.02 0.07-0.03 0.1-0.05 0.48-0.29 0.93-0.57 1.4-0.86 9.14-5.48 17.9-10.99 25.71-15.94 2.66-1.68 5.46-3.46 8.24-5.21 8.35-5.23 16.45-10.14 19.16-10.93 0.75-0.18 1.74-0.31 2.82-0.44 0.04 0 0.07-0.02 0.1-0.03 4.91-0.62 13.22-1.09 21.38-1.54 31.42-1.73 54.6-3.55 66.88-11.32 7.71-4.88 17.31-10.95 19.34-21.45 1.91-9.7-3.4-18.08-8.99-25.83z" p-id="2199"></path><path d="M219.12 581.95s-28.22 38.23-18.26 51.11c9.96 12.89 75.53 32 92.13 36.16 16.6 4.16 39.01 10.81 58.09 14.13 19.09 3.32 40.68-7.48 40.68-7.48s-47.31-7.48-68.07-12.47c-20.75-4.99-83.82-17.46-96.27-30.34-12.45-12.88-10.79-28.67-4.98-40.31 5.81-11.64 14.94-32.42 14.94-32.42l-18.26 21.62z" fill="#FFFFFF" p-id="2200"></path><path d="M288.31 517.94s-10.81 29.09 7.48 43.22c18.29 14.13 49.87 17.45 68.99 24.94 19.12 7.48 72.31 59.01 138.81 68.99S685.61 686.68 728 675.87c42.39-10.81 102.24-58.18 116.37-61.51s71.48-1.66 87.27-11.64c15.79-9.97 17.45-13.3 6.65-28.26-10.81-14.96-43.22-48.21-48.21-68.99s-9.97-50.7-30.75-52.36c-20.78-1.66-53.2-9.14-64-31.59-10.81-22.44-18.29-44.88-49.04-50.7s-58.18 11.64-75.64 5.82c-17.45-5.82-70.65-43.22-94.76-43.22-24.1 0-67.33 9.97-86.44 24.94-19.12 14.96-59.85 6.65-75.64 12.47s-47.38 45.72-43.22 83.95c-7.48 17.45 0 12.47-7.48 17.45-7.48 4.99-62.34 5.82-74.8 45.71z" fill="#73C58A" p-id="2201"></path><path d="M890.09 505.48c-4.99-20.78-9.97-50.7-30.75-52.36-20.78-1.66-53.2-9.14-64-31.59-10.81-22.44-18.29-44.88-49.04-50.7s-58.18 11.64-75.64 5.82c-17.45-5.82-70.65-43.22-94.76-43.22-8.04 0-18.23 1.13-28.93 3.17 20.87 7.25 70.32 25.25 78.8 35.78 10.81 13.42 86.44 29.77 97.25 28.66 10.81-1.11 35.74 15.51 32.42 31.31-3.32 15.79-34.08 22.44-26.6 66.5 4.69 27.59 35.12 99.83 57.22 149.98 26.59-15.82 50.13-32.52 58.31-34.45 14.13-3.32 71.48-1.66 87.27-11.64 15.79-9.97 17.45-13.3 6.65-28.26-10.8-14.98-43.22-48.22-48.2-69z" fill="#68B578" p-id="2202"></path><path d="M821.25 557.01c-19.12-47.38-45.56-73.98-95.43-113.87-49.87-39.9-131.85-43.22-195.85-37.4s-124.06 69.82-130.7 83.12c-5.41 10.82-28.71 73.41-37.2 96.32 0.89 0.31 1.87 0.6 2.71 0.93 19.12 7.48 72.31 59.01 138.81 68.99S685.61 686.68 728 675.87c42.39-10.81 102.24-58.18 116.37-61.51 1.12-0.26 2.57-0.48 4.18-0.69-6.63-11.32-16.56-30.06-27.3-56.66z" fill="#FFFCED" p-id="2203"></path><path d="M451.63 378.3s30.13 0 43.85-6.44c13.71-6.44 21.61-9.35 21.61-9.35s-11.01 11.43-24.94 15.79c-13.92 4.37-20.98 6.03-40.52 0zM405.79 401.03s-17.18 3.88-19.4 14.68c-2.21 10.81-4.99 39.62-5.82 49.04-0.83 9.42-11.64 16.62-16.9 19.12-5.26 2.49-34.22 11.22-43.16 24.52-8.94 13.3-13.92 17.25-9.14 23.48 4.78 6.23 22.03 19.12 22.03 19.12s-18.49-15.17-16.83-22.23c1.66-7.07 7.9-18.29 15.58-21.82 7.69-3.53 44.47-15.79 48.42-23.69 3.95-7.9 4.36-35.95 4.78-43.84 0.42-7.9 3.74-23.9 6.65-27.43 2.91-3.55 13.79-10.95 13.79-10.95z" fill="#A3EBAE" p-id="2204"></path><path d="M848.55 613.67c-6.64-11.32-16.56-30.06-27.3-56.66-17.27-42.81-40.59-68.68-81.7-102.7-3.51 7.4-9.38 23.73-2.61 39.73 9.14 21.61 14.23 30.54 11.74 47.22s6.7 22.45 6.7 39.07-77.27 53.17-99.72 58.99c-22.44 5.82-73.96 26.59-103.89 12.46-29.92-14.13-108.87-43.23-133.81-56.53-24.94-13.3-24.94-13.3-38.23-14.96-5.23-0.66-10.42 3.27-15.71 5.55 0.25 0.09 0.52 0.17 0.75 0.26 19.12 7.48 72.31 59.01 138.81 68.99S685.61 686.68 728 675.87c42.39-10.81 102.24-58.18 116.37-61.51 1.12-0.26 2.57-0.48 4.18-0.69z" fill="#F5F2E4" p-id="2205"></path><path d="M390 512.96s15.55-66.5 82.67-91.43c67.12-24.94 113.78-44.05 188.26-12.47 74.49 31.59 113.78 49.04 134.24 89.77 20.47 40.73 25.38 55.69 25.38 55.69s-49.93-78.96-80.22-94.76-85.13-40.73-103.96-44.88c-18.83-4.16-61.38-6.65-88.4-1.66-27.01 4.99-73.67 14.13-91.68 26.6-18.01 12.46-41.74 28.25-66.29 73.14z" fill="#FFF5C0" p-id="2206"></path><path d="M423.79 515.45s-28.26 38.23-18.29 51.11c9.97 12.89 75.64 32 92.26 36.16 16.62 4.16 39.07 10.81 58.18 14.13 19.12 3.32 40.73-7.48 40.73-7.48s-47.38-7.48-68.16-12.47c-20.78-4.99-83.95-17.46-96.42-30.34-12.47-12.88-10.81-28.67-4.99-40.31s14.96-32.42 14.96-32.42l-18.27 21.62z" fill="#FFFFFF" p-id="2207"></path><path d="M288.31 517.94s-10.81 29.09 7.48 43.22c18.29 14.13 49.87 17.45 68.99 24.94 19.12 7.48 72.31 59.01 138.81 68.99S685.61 686.68 728 675.87c42.39-10.81 102.24-58.18 116.37-61.51s71.48-1.66 87.27-11.64c15.79-9.97 17.45-13.3 6.65-28.26-10.81-14.96-43.22-48.21-48.21-68.99s-9.97-50.7-30.75-52.36c-20.78-1.66-53.2-9.14-64-31.59-10.81-22.44-18.29-44.88-49.04-50.7s-58.18 11.64-75.64 5.82c-17.45-5.82-70.65-43.22-94.76-43.22-24.1 0-67.33 9.97-86.44 24.94-19.12 14.96-59.85 6.65-75.64 12.47s-47.38 45.72-43.22 83.95c-7.48 17.45 0 12.47-7.48 17.45-7.48 4.99-62.34 5.82-74.8 45.71z" fill="#73C58A" opacity=".6" p-id="2208"></path><path d="M890.09 505.48c-4.99-20.78-9.97-50.7-30.75-52.36-20.78-1.66-53.2-9.14-64-31.59-10.81-22.44-18.29-44.88-49.04-50.7s-58.18 11.64-75.64 5.82c-17.45-5.82-70.65-43.22-94.76-43.22-8.04 0-18.23 1.13-28.93 3.17 20.87 7.25 70.32 25.25 78.8 35.78 10.81 13.42 86.44 29.77 97.25 28.66 10.81-1.11 35.74 15.51 32.42 31.31-3.32 15.79-34.08 22.44-26.6 66.5 4.69 27.59 35.12 99.83 57.22 149.98 26.59-15.82 50.13-32.52 58.31-34.45 14.13-3.32 71.48-1.66 87.27-11.64 15.79-9.97 17.45-13.3 6.65-28.26-10.8-14.98-43.22-48.22-48.2-69z" fill="#68B578" opacity=".6" p-id="2209"></path><path d="M821.25 557.01c-19.12-47.38-45.56-73.98-95.43-113.87-49.87-39.9-131.85-43.22-195.85-37.4s-124.06 69.82-130.7 83.12c-5.41 10.82-28.71 73.41-37.2 96.32 0.89 0.31 1.87 0.6 2.71 0.93 19.12 7.48 72.31 59.01 138.81 68.99S685.61 686.68 728 675.87c42.39-10.81 102.24-58.18 116.37-61.51 1.12-0.26 2.57-0.48 4.18-0.69-6.63-11.32-16.56-30.06-27.3-56.66z" fill="#FFFCED" opacity=".6" p-id="2210"></path><path d="M451.63 378.3s30.13 0 43.85-6.44c13.71-6.44 21.61-9.35 21.61-9.35s-11.01 11.43-24.94 15.79c-13.92 4.37-20.98 6.03-40.52 0zM405.79 401.03s-17.18 3.88-19.4 14.68c-2.21 10.81-4.99 39.62-5.82 49.04-0.83 9.42-11.64 16.62-16.9 19.12-5.26 2.49-34.22 11.22-43.16 24.52-8.94 13.3-13.92 17.25-9.14 23.48 4.78 6.23 22.03 19.12 22.03 19.12s-18.49-15.17-16.83-22.23c1.66-7.07 7.9-18.29 15.58-21.82 7.69-3.53 44.47-15.79 48.42-23.69 3.95-7.9 4.36-35.95 4.78-43.84 0.42-7.9 3.74-23.9 6.65-27.43 2.91-3.55 13.79-10.95 13.79-10.95z" fill="#A3EBAE" opacity=".6" p-id="2211"></path><path d="M848.55 613.67c-6.64-11.32-16.56-30.06-27.3-56.66-17.27-42.81-40.59-68.68-81.7-102.7-3.51 7.4-9.38 23.73-2.61 39.73 9.14 21.61 14.23 30.54 11.74 47.22s6.7 22.45 6.7 39.07-77.27 53.17-99.72 58.99c-22.44 5.82-73.96 26.59-103.89 12.46-29.92-14.13-108.87-43.23-133.81-56.53-24.94-13.3-24.94-13.3-38.23-14.96-5.23-0.66-10.42 3.27-15.71 5.55 0.25 0.09 0.52 0.17 0.75 0.26 19.12 7.48 72.31 59.01 138.81 68.99S685.61 686.68 728 675.87c42.39-10.81 102.24-58.18 116.37-61.51 1.12-0.26 2.57-0.48 4.18-0.69z" fill="#F5F2E4" opacity=".6" p-id="2212"></path><path d="M390 512.96s15.55-66.5 82.67-91.43c67.12-24.94 113.78-44.05 188.26-12.47 74.49 31.59 113.78 49.04 134.24 89.77 20.47 40.73 25.38 55.69 25.38 55.69s-49.93-78.96-80.22-94.76-85.13-40.73-103.96-44.88c-18.83-4.16-61.38-6.65-88.4-1.66-27.01 4.99-73.67 14.13-91.68 26.6-18.01 12.46-41.74 28.25-66.29 73.14z" fill="#FFF5C0" opacity=".6" p-id="2213"></path><path d="M423.79 515.45s-28.26 38.23-18.29 51.11c9.97 12.89 75.64 32 92.26 36.16 16.62 4.16 39.07 10.81 58.18 14.13 19.12 3.32 40.73-7.48 40.73-7.48s-47.38-7.48-68.16-12.47c-20.78-4.99-83.95-17.46-96.42-30.34-12.47-12.88-10.81-28.67-4.99-40.31s14.96-32.42 14.96-32.42l-18.27 21.62z" fill="#FFFFFF" opacity=".6" p-id="2214"></path><path d="M82.17 584.44s-10.81 29.09 7.48 43.22 49.87 17.45 68.99 24.94c19.12 7.48 72.31 59.01 138.81 68.99s182.03 31.59 224.42 20.78c42.39-10.81 102.24-58.18 116.37-61.51s71.48-1.66 87.27-11.64c15.79-9.97 17.45-13.3 6.65-28.26-10.81-14.96-43.22-48.21-48.21-68.99-4.99-20.78-9.97-50.7-30.75-52.36-20.78-1.66-53.2-9.14-64-31.59-10.81-22.44-18.29-44.88-49.04-50.7s-58.18 11.64-75.64 5.82c-17.45-5.82-70.65-43.22-94.76-43.22-24.1 0-67.33 9.97-86.44 24.94-19.12 14.96-59.85 6.65-75.64 12.47s-47.38 45.72-43.22 83.95c-7.48 17.45 0 12.47-7.48 17.45-7.48 4.98-62.34 5.81-74.81 45.71z" fill="#73C58A" p-id="2215"></path><path d="M683.95 571.97c-4.99-20.78-9.97-50.7-30.75-52.36-20.78-1.66-53.2-9.14-64-31.59-10.81-22.44-18.29-44.88-49.04-50.7s-58.18 11.64-75.64 5.82c-17.45-5.82-70.65-43.22-94.76-43.22-8.04 0-18.23 1.13-28.93 3.17 20.87 7.25 70.32 25.25 78.8 35.78 10.81 13.42 86.44 29.77 97.25 28.66 10.81-1.11 35.74 15.51 32.42 31.31-3.32 15.79-34.08 22.44-26.6 66.49 4.69 27.59 35.12 99.83 57.22 149.98 26.59-15.82 50.13-32.52 58.31-34.45 14.13-3.32 71.48-1.66 87.27-11.64 15.79-9.97 17.45-13.3 6.65-28.26-10.8-14.96-43.21-48.21-48.2-68.99z" fill="#68B578" p-id="2216"></path><path d="M615.12 623.5c-19.12-47.38-45.56-73.98-95.43-113.87-49.87-39.9-131.85-43.22-195.85-37.4s-124.06 69.82-130.7 83.12c-5.41 10.82-28.71 73.41-37.2 96.32 0.89 0.31 1.87 0.6 2.71 0.93 19.12 7.48 72.31 59.01 138.81 68.99s182.03 31.59 224.42 20.78c42.39-10.81 102.24-58.18 116.37-61.51 1.12-0.26 2.57-0.48 4.18-0.69-6.65-11.33-16.57-30.06-27.31-56.67z" fill="#FFFCED" p-id="2217"></path><path d="M245.5 444.8s30.13 0 43.85-6.44c13.71-6.44 21.61-9.35 21.61-9.35s-11.01 11.43-24.94 15.79c-13.92 4.36-20.99 6.03-40.52 0zM199.65 467.52s-17.18 3.88-19.4 14.68c-2.21 10.81-4.99 39.62-5.82 49.04s-11.64 16.62-16.9 19.12c-5.26 2.49-34.22 11.22-43.16 24.52-8.94 13.3-13.92 17.25-9.14 23.48 4.78 6.23 22.03 19.12 22.03 19.12s-18.49-15.17-16.83-22.23c1.66-7.07 7.9-18.29 15.58-21.82 7.69-3.53 44.47-15.79 48.42-23.69 3.95-7.9 4.36-35.95 4.78-43.84 0.42-7.9 3.74-23.9 6.65-27.43 2.91-3.54 13.79-10.95 13.79-10.95z" fill="#A3EBAE" p-id="2218"></path><path d="M642.42 680.17c-6.64-11.32-16.56-30.06-27.3-56.66-17.27-42.81-40.59-68.68-81.7-102.7-3.51 7.4-9.38 23.73-2.61 39.73 9.14 21.61 14.23 30.54 11.74 47.22s6.7 22.45 6.7 39.07-77.27 53.17-99.72 58.99-73.96 26.59-103.89 12.46-108.87-43.23-133.81-56.53c-24.94-13.3-24.94-13.3-38.23-14.96-5.23-0.66-10.42 3.27-15.71 5.55 0.25 0.09 0.52 0.17 0.75 0.26 19.12 7.48 72.31 59.01 138.81 68.99s182.03 31.59 224.42 20.78c42.39-10.81 102.24-58.18 116.37-61.51 1.11-0.27 2.57-0.49 4.18-0.69z" fill="#F5F2E4" p-id="2219"></path><path d="M183.86 579.45s15.55-66.5 82.67-91.43c67.12-24.94 113.78-44.05 188.26-12.47 74.49 31.59 113.78 49.04 134.24 89.77 20.47 40.73 25.38 55.69 25.38 55.69s-49.93-78.96-80.22-94.76c-30.29-15.79-85.13-40.73-103.96-44.88-18.83-4.16-61.38-6.65-88.4-1.66-27.01 4.99-73.67 14.13-91.68 26.6-18 12.47-41.74 28.26-66.29 73.14z" fill="#FFF5C0" p-id="2220"></path><path d="M217.65 581.95s-28.26 38.23-18.29 51.11c9.97 12.89 75.64 32 92.26 36.16 16.62 4.16 39.07 10.81 58.18 14.13 19.12 3.32 40.73-7.48 40.73-7.48s-47.38-7.48-68.16-12.47-83.95-17.46-96.42-30.34c-12.47-12.88-10.81-28.67-4.99-40.31s14.96-32.42 14.96-32.42l-18.27 21.62z" fill="#FFFFFF" p-id="2221"></path></svg>