<?xml version="1.0" standalone="no"?><!DOCTYPE svg PUBLIC "-//W3C//DTD SVG 1.1//EN" "http://www.w3.org/Graphics/SVG/1.1/DTD/svg11.dtd"><svg t="1607840009883" class="icon" viewBox="0 0 1024 1024" version="1.1" xmlns="http://www.w3.org/2000/svg" p-id="2662" xmlns:xlink="http://www.w3.org/1999/xlink" width="200" height="200"><defs><style type="text/css"></style></defs><path d="M948.49 283.23c-15.46-37.84-34.34-55.49-47.45-63.64-25.7-15.96-60.89-29.77-62.57-30.43-6.48-2.44-39.67-14.62-56.7-14.62-1.09 0-2.11 0.04-3.08 0.12-5.36 0.45-13.49 1.94-24.38 4.41-0.08 0.02-0.16 0.01-0.24 0.03l-0.18 0.04c-14.41-3.49-28.62-5.35-42.3-5.35-2.18 0-4.41 0.12-6.62 0.21-16.6-5.03-31.48-7.67-44.13-7.67-5.27 0-10.26 0.45-14.83 1.33-30.3 5.85-76.94 33.47-118.29 58.89l-6.16 3.79c-5.07 3.1-12.45 7.42-21.2 12.56-55.97 32.82-107.46 63.96-122.47 84.3-15.24 20.65-50.35 50.73-64.9 61.06-5.12 3.63-24.69 16-45.41 29.1-57.11 36.1-76.98 48.97-82.08 54.06-0.88 0.88-1.89 1.75-2.95 2.69-6.38 5.65-16.33 14.62-21.84 32.03-10.06 4.18-16.76 9.9-21.12 17.89-0.93 1.7-1.5 3.41-2.13 5.11-16.71 12.31-26.96 24.88-31.12 38.32-3.75 12.11-6.65 25.41-8.62 39.51-0.01 0.1 0.02 0.19 0 0.29-0.02 0.14-0.75 0.26-0.77 0.4-0.55 4.01-2.03 7.79-2.03 11.37v0.09c0 0.06 0.66 0.13 0.65 0.19-0.2 2.06-0.3 4.03-0.45 5.92 0 0.09-0.21 4.1-0.21 4.1v0.04c0 0.15 0.24 0.3 0.23 0.45l-0.16 4.99-0.07 2.84v3.88l-6.84-1.11a17.852 17.852 0 0 0-17.34 7.18 17.87 17.87 0 0 0-1.37 18.73l29.44 56.64a17.857 17.857 0 0 0 15.88 9.63c3.2 0 6.25-0.93 8.95-2.5 1.01 5.52 2.3 10.95 3.92 15.72 7.01 20.57 32.09 56.12 69.56 63.91 21.55 4.48 48.37 10.06 93.22 10.06 14.95 0 31.26-0.64 48.49-1.9 59.73-4.38 82.95-8.98 96.82-11.73 2.98-0.59 5.52-1.1 7.97-1.49 0.94-0.16 2.07-0.36 3.09-0.56h0.01l1.2-0.24c0.04-0.01 0.07-0.03 0.11-0.03l1.07-0.64 3.55 0.58v1.88h3.99c8.96-8.94 23.56-8.26 42.34-15.35 0.16-0.05 0.32-1.05 0.48-1.11 4.07-1.54 8.37-3.73 12.83-5.57 0.5-0.2 0.96-0.61 1.46-0.82l2.34-1.1c0.07-0.03 0.13-0.11 0.2-0.14l1.04-0.47s1.97-2.58 1.98-2.59c4.94-2.13 10.01 0.33 15.23-8.62H536.61c5.86 0 11.85-4.57 17.97-7.82 0.01 0 0.02 0.6 0.03 0.59l1.89-0.71c6.36-3.41 12.81-6.86 19.36-10.77 3.57-2.13 7.24-4.61 10.57-6.72 0.65-0.41 1.23-1.41 1.88-1.41h0.02c0.03 0 0.07 0.26 0.1 0.24 1.46-0.93 2.95-1.76 4.44-2.71 2.83-1.81 5.64-4.03 8.57-5.96 0.02-0.01 0.04-0.51 0.06-0.51h0.07c11.45-8.94 24.33-15.82 38.29-25.63 0.03-0.02 0.05 0.2 0.07 0.19 0.02-0.01 0.04 0.11 0.06 0.1l8.49-5.94c0.08-0.06 0.14-0.11 0.23-0.17 0.17-0.12 0.34-0.23 0.52-0.35 0.05-0.03 0.1 0.55 0.15 0.52l7.1-4.48h0.01c0.2 0 0.48-0.93 0.48-0.93l1.59-1.44c0.02-0.01 0.03-0.16 0.05-0.18l6.09-4.45c0.1-0.07 0.17-0.21 0.27-0.28l1.41-1.04c0.07-0.05 0.16-0.07 0.23-0.13l7.65-5.56c0.09-0.07 0.16-0.15 0.25-0.22l0.33-0.25c0.05-0.04 0.11-0.05 0.16-0.08l6.38-4.66 0.22-0.16 2.47-1.83 0.06-0.03 4.84-3.57c0.07-0.05 0.11-0.11 0.18-0.16l2.01-1.49c0.05-0.03 0.1-0.04 0.15-0.07l5.11-3.79c0.06-0.04 0.1-0.1 0.16-0.15l1.45-1.07c0.04-0.03 0.1-0.04 0.14-0.07l5.96-4.44 0.03-0.03 0.02-0.01 0.02-0.01 2.26-1.71c0.03-0.02 0.07-0.03 0.09-0.05l3.75-2.81c0.11-0.08 0.18-0.18 0.28-0.26l1.78-1.35c0.09-0.06 0.19-0.08 0.27-0.14l3.36-2.53c0.16-0.12 0.28-0.28 0.44-0.41l1.17-0.89c0.12-0.08 0.25-0.11 0.37-0.19l2.86-2.16c0.19-0.14 0.33-0.33 0.52-0.48l3.17-2.4c0.11-0.08 0.25-0.1 0.37-0.19l2.04-1.54c0.18-0.14 0.31-0.31 0.48-0.45l0.78-0.59c0.11-0.08 0.23-0.1 0.34-0.18l2.18-1.65c0.15-0.11 0.18-0.25 0.33-0.37l7.83-6.07v-0.1h0.15s1.26-0.9 1.52-1.13c5.28-4.59 34.99-30.42 61.1-54.28 0.26-0.25 0.52-0.46 0.79-0.7 2.14-1.96 4.24-3.88 6.32-5.8 1.3-1.2 2.58-2.37 3.84-3.54 0.93-0.86 1.81-1.69 2.71-2.53 7-6.54 13.27-12.53 17.91-17.26 0.03-0.04 0.05-0.08 0.08-0.11 3.48-3.53 6.2-6.48 7.89-8.62 3.01-3.8 7.66-10.36 13.06-18.27l0.02-0.02c0.15-0.22 0.31-0.47 0.47-0.69 14.42-21.14 34.12-51.66 43.9-66.9 0.01-0.01 0.01-0.02 0.02-0.03l0.93-1.46 0.49-0.77c0.17-0.27 0.27-0.57 0.42-0.85l0.09 0.05c0.02-0.02 0.49-0.79 0.52-0.83 0.03-0.04 3.04-4.38 7.55-11.03 0.03-0.03 0.03-0.07 0.06-0.11l0.03-0.06c0.03-0.04 0.07-0.07 0.1-0.12 3.77-5.56 8.6-12.79 13.71-20.63 0.01-0.02 0.03-0.04 0.05-0.06 0.65-1 1.35-2.09 2.01-3.12 1.15-1.77 2.28-3.51 3.44-5.33 1.3-2.04 2.65-4.2 4-6.34 0.78-1.24 1.56-2.46 2.33-3.7 0.01-0.02 0.02-0.03 0.03-0.05 0.13-0.2 0.24 0.33 0.38 0.12 1.67-2.7 1.27-7.29 2.84-7.29h-2.03v-1.45 0.72c0-0.06 2.72-1.52 3.56-2.94 0.01-0.02 1.04-0.21 1.05-0.22 0.38-0.65 1.24-1.35 1.62-1.99 0.83-1.42 1.83-2.84 2.33-3.71 0.06-0.11 0.38-0.26 0.38-0.37v1.02h0.07l1.78-3.63c0.97-1.74 1.91-3.69 2.76-5.3l1.85-3.27c0.83-1.63 2.48-3.29 2.48-4.77v-0.03c0-0.08-0.12-0.15-0.08-0.23l1.13-2.65c0.44-1.02 0.72-3.07 1.08-4.01 0.22-0.59 0.49-2.93 0.69-2.93h-0.01c0.02 0 0.04 1 0.07 0.93 0.33-0.84 0.63-1.13 0.81-1.72 1.06-3.43 1.54-6.03 1.54-8.8-0.05-14.57-5.88-55.12-10.22-65.69z" p-id="2663"></path><path d="M716.05 630.91l-1.97 1.49c0.67-0.51 1.34-1.02 1.97-1.49zM710.01 635.48c-0.93 0.7-1.84 1.39-2.82 2.13 0.98-0.74 1.9-1.44 2.82-2.13zM699.52 643.37c-1.21 0.91-2.46 1.84-3.72 2.79 1.26-0.94 2.5-1.88 3.72-2.79zM670.99 664.53c-2.16 1.58-4.34 3.18-6.56 4.8 2.22-1.62 4.4-3.22 6.56-4.8zM685.7 653.67zM663.69 669.87c-2.51 1.83-5.05 3.67-7.61 5.53 2.56-1.86 5.1-3.7 7.61-5.53zM678.32 659.14c-1.58 1.17-3.19 2.35-4.82 3.55l4.82-3.55zM693.45 647.91c-1.95 1.46-3.96 2.95-6.01 4.48 2.05-1.53 4.06-3.02 6.01-4.48zM615.29 598.29s2.4 74.96-23.57 121.88c12.11-7.96 24.99-16.79 37.82-25.81 0.38-1.94 0.69-4.44 0.84-7.75 0.56-12.31-8.95-74.91-15.09-88.32zM834.21 484.45c-4.47-16.02-26.09-34.65-35.4-38.38 0 0 18.26 39.5 18.26 54.78 0 9.08 1.84 25.37 3.34 37.12-14.66 14.93-45.66 42.72-67.6 62.12 0.55-9.86 0.52-21.43-1.69-28.63-4.47-14.53-26.27-63.16-26.27-63.16s7.83 57.01 6.15 78.81c-0.68 8.87-1.83 22.08-2.94 34.64 0.42-0.32 0.71-0.55 0.71-0.55s85.52-74.34 98.37-90.55c10.97-13.83 46.22-68.56 56.4-84.42-7.65 11.92-29.1 45.22-44.08 67.16-1.31-9.83-3.11-21.26-5.25-28.94zM495.49 760.57c6.34-31.3-13.79-93.53-13.79-93.53l-2.24 13.41v11.18c0 11.18-13.41 60.37-16.77 72.66-1.63 5.97-6.16 13.77-10.39 20.24 12.78-3.18 32.87-9.32 56.8-19.42-5.55 2.34-10.91 4.49-16 6.41 0.76-3.21 1.55-6.82 2.39-10.95zM719.84 628.02c-0.69 0.52-1.42 1.08-2.18 1.66 0.76-0.58 1.49-1.13 2.18-1.66zM654.18 676.77c-2 1.45-4.01 2.89-6.04 4.35 2.02-1.46 4.04-2.9 6.04-4.35zM893.81 430.93c-4.46 6.57-7.43 10.85-7.43 10.85s2.97-4.27 7.43-10.85zM884.92 444.04c-0.35 0.55-0.75 1.17-1.21 1.9 0.48-0.74 0.86-1.35 1.21-1.9zM885.99 442.38c-0.12 0.18-0.31 0.49-0.49 0.76 0.22-0.33 0.37-0.57 0.49-0.76zM705.16 639.13c-1.07 0.81-2.17 1.63-3.3 2.48 1.13-0.84 2.22-1.67 3.3-2.48zM444.33 786.34c-0.3 0.06-0.61 0.13-0.89 0.18 0.28-0.05 0.59-0.11 0.89-0.18zM939.4 354.72c-0.4 1.12-0.83 2.28-1.41 3.59 0.57-1.32 1.01-2.47 1.41-3.59zM936.86 360.75c-0.62 1.31-1.26 2.66-2 4.1 0.73-1.45 1.38-2.79 2-4.1zM940.78 349.19c0 0.98-0.29 2.31-0.76 3.83 0.47-1.53 0.76-2.85 0.76-3.83zM933.35 367.72c-0.81 1.53-1.67 3.1-2.58 4.72 0.92-1.62 1.77-3.19 2.58-4.72zM929.11 375.41c-1.06 1.84-2.16 3.73-3.3 5.65 1.15-1.92 2.25-3.81 3.3-5.65zM893.08 393.53c-10.43-8.94-29.07-19.38-42.48-22.36 0 0 36.87 32.5 43.4 59.48 6.53-9.64 16.22-24.19 25.15-38.58-3.81 6.14-7.76 12.32-11.56 18.14-4.8-6.4-10.17-12.96-14.51-16.68zM924.29 383.63c-1.54 2.57-3.14 5.18-4.76 7.81 1.63-2.63 3.22-5.23 4.76-7.81zM646.01 682.65c-2.33 1.67-4.68 3.34-7.03 5.02 2.35-1.68 4.7-3.35 7.03-5.02zM591.58 720.25zM578.73 728.54zM546.18 747.49c-5.89 3.12-11.66 6.01-17.3 8.71 5.64-2.7 11.41-5.58 17.3-8.71zM566.66 735.97c-6.31 3.77-12.52 7.24-18.63 10.52 6.12-3.28 12.32-6.75 18.63-10.52zM526.86 757.16zM638.07 688.32c-2.79 1.98-5.59 3.97-8.39 5.93 2.8-1.97 5.6-3.95 8.39-5.93zM448.14 785.52z" fill="#DB6732" p-id="2664"></path><path d="M894 430.64c-6.53-26.98-43.4-59.48-43.4-59.48 13.41 2.98 32.05 13.41 42.48 22.36 4.34 3.72 9.71 10.28 14.51 16.68 3.8-5.82 7.76-12 11.56-18.14 0.13-0.21 0.25-0.41 0.38-0.62 1.62-2.63 3.22-5.24 4.76-7.81 0.52-0.87 1.01-1.71 1.52-2.58 1.14-1.92 2.24-3.81 3.3-5.65 0.58-1.01 1.12-1.98 1.66-2.96 0.91-1.62 1.76-3.2 2.58-4.72 0.52-0.98 1.03-1.94 1.5-2.87 0.74-1.44 1.38-2.79 2-4.1 0.39-0.83 0.8-1.68 1.14-2.45 0.57-1.31 1-2.47 1.41-3.59 0.2-0.56 0.47-1.2 0.62-1.71 0.47-1.52 0.76-2.84 0.76-3.83 0-14.53-5.97-52.17-8.57-58.51-2.61-6.33-16.02-40.61-40.62-55.89-24.59-15.28-59.44-28.88-59.44-28.88s-38.57-14.53-51.98-13.41c-6.07 0.51-16.59 2.72-26.3 5.01 1.37-0.32 2.75-0.64 4.14-0.96 0.56 0.91 1.1 1.73 1.65 2.6 7.64 2.3 14.43 4.82 20.12 7.22 2.44-0.07 4.21-0.06 4.86 0.1 4.47 1.12 12.3 11.18 48.07 17.89 22.82 4.28 44.68 18.08 57.55 27.54 6.06 1.03 10.42 3.68 11.76 9.35 4.47 19-50.3 101.73-83.84 109.55-33.54 7.83-146.44 87.2-164.33 108.44-17.89 21.24-83.84 115.14-124.09 133.03-40.24 17.89-196.75 95.02-219.11 108.43-22.36 13.41-60.37 43.6-64.84 30.18-4.47-13.41 0-20.12 0-20.12s2.01-6.73 5-16.64c-6.64 4.42-15.17 9.77-26.24 16.26-40.38 23.64-66.86-20.8-75.37-34.37-4.58-1.24-8.5-2.45-11.45-3.42 0.07 2.2 0.97 30.66 6.7 47.48 5.97 17.51 27.58 46.2 56.27 52.17 28.69 5.97 64.37 13.14 136.75 7.83 72.38-5.31 89.44-10.81 103.22-13.04 0.78-0.13 1.71-0.3 2.73-0.5 0.28-0.05 0.59-0.12 0.89-0.18 0.79-0.16 1.64-0.34 2.55-0.54 0.41-0.09 0.82-0.18 1.26-0.28 1.3-0.3 2.66-0.62 4.16-0.99 4.23-6.47 8.76-14.27 10.39-20.24 3.35-12.3 16.77-61.48 16.77-72.66v-11.18l2.24-13.41s20.13 62.23 13.79 93.53c-0.84 4.13-1.63 7.75-2.38 10.96a472.38 472.38 0 0 0 16-6.41c0.4-0.17 0.79-0.34 1.2-0.51 5.34-2.27 10.88-4.76 16.56-7.44 0.67-0.31 1.34-0.64 2.01-0.96 5.64-2.7 11.41-5.58 17.3-8.71 0.61-0.32 1.23-0.67 1.84-1 6.12-3.28 12.33-6.75 18.63-10.52 3.85-2.3 7.89-4.79 12.07-7.43 0.03-0.02 0.07-0.04 0.1-0.06 4.13-2.61 8.39-5.36 12.75-8.23 0.05-0.03 0.09-0.06 0.14-0.09 25.97-46.92 23.57-121.88 23.57-121.88 6.15 13.41 15.65 76.02 15.09 88.31-0.15 3.31-0.47 5.81-0.84 7.75 0.05-0.03 0.09-0.07 0.14-0.1 2.8-1.97 5.6-3.95 8.39-5.93 0.31-0.21 0.61-0.43 0.91-0.65 2.35-1.67 4.7-3.34 7.03-5.02l2.13-1.53c2.03-1.45 4.04-2.9 6.04-4.35 0.63-0.46 1.27-0.92 1.9-1.37 2.56-1.86 5.1-3.7 7.61-5.53 0.25-0.18 0.49-0.36 0.74-0.55 2.22-1.62 4.4-3.21 6.56-4.8 0.85-0.62 1.68-1.23 2.51-1.84 1.63-1.2 3.24-2.38 4.82-3.55 0.78-0.58 1.56-1.15 2.33-1.73 1.72-1.27 3.4-2.51 5.05-3.74 0.58-0.42 1.17-0.86 1.74-1.28 2.06-1.53 4.06-3.02 6.01-4.48 0.8-0.59 1.56-1.17 2.34-1.75 1.26-0.95 2.51-1.88 3.72-2.79 0.8-0.6 1.57-1.18 2.34-1.76 1.13-0.85 2.23-1.67 3.3-2.48 0.68-0.51 1.37-1.03 2.03-1.53 0.98-0.74 1.9-1.43 2.82-2.13 1.43-1.08 2.78-2.11 4.07-3.08l1.97-1.49c0.56-0.43 1.08-0.82 1.61-1.22 0.76-0.58 1.49-1.13 2.18-1.66 4.13-3.14 7.01-5.36 8.21-6.28 1.12-12.56 2.26-25.77 2.94-34.64 1.68-21.8-6.15-78.81-6.15-78.81s21.8 48.63 26.27 63.16c2.21 7.2 2.24 18.77 1.69 28.63 21.94-19.4 52.94-47.19 67.6-62.12-1.49-11.75-3.34-28.03-3.34-37.12 0-15.27-18.26-54.78-18.26-54.78 9.31 3.73 30.93 22.36 35.4 38.38 2.14 7.68 3.94 19.11 5.23 28.95 14.98-21.94 36.43-55.24 44.08-67.16 0.07-0.1 0.13-0.2 0.19-0.3 0.47-0.73 0.86-1.34 1.21-1.9 0.24-0.37 0.4-0.62 0.58-0.9 0.18-0.27 0.37-0.58 0.49-0.76 0.24-0.38 0.38-0.59 0.38-0.59s2.97-4.28 7.43-10.85c0.13-0.08 0.18-0.16 0.25-0.27zM195.99 517.37c5.4-2.25 9.63-3.84 11.82-4.61 0.11-0.04 0.33-0.13 0.46-0.17 0.24-0.35 0.48-0.73 0.67-0.94 8.94-10.06 55.89-35.77 73.78-49.19 12.56-9.42 70.34-56.34 112.15-90.8 1.32-5.92 8-11 17.53-16.89 1.24-0.77 2.89-1.22 4.72-1.53 7.57-6.31 13.7-11.47 17.64-14.87 5.33-4.6 16.86-12.83 31.9-23.01-0.7-7.28 4.31-15.45 12.82-20.96 3.09-2 11.27-2.44 21.83-1.97 10.4-6.76 21.31-13.77 32.31-20.76-2.97-6.9 1.75-18.81 12.18-22.72 3.15-1.18 12.01-0.79 23.3 0.41 12.18-7.58 23.75-14.69 34.05-20.91-0.46-3.11 1.55-7.36 6.75-16.01 3.45-5.76 16.09-7.1 31.89-6.21 7.07-3.38 15.32-5.2 23.73-5.99 12.43-4.98 25-7.48 37.2-8.27-16.61-5.28-37.3-9.83-53.33-6.73-31.86 6.15-91.11 43.6-118.5 60.37-27.39 16.77-121.29 68.75-138.62 92.23-17.33 23.48-54.77 54.96-68.93 65.03-14.16 10.06-117.75 73.79-125.2 81.23-6.69 6.69-18.72 13.52-22.47 35.87 3.16-0.85 6.66-1.66 10.91-2.43 3.08-0.58 6.24-0.55 9.41-0.17z" fill="#AB4C22" p-id="2665"></path><path d="M758.02 196.55c-1.39 0.31-2.76 0.64-4.14 0.96 1.98 0.53 3.9 1.08 5.79 1.64-0.55-0.88-1.09-1.7-1.65-2.6z" fill="#AB4C22" p-id="2666"></path><path d="M826.38 253.72c2.64 0.26 5.47 0.54 8.57 0.82 17.25 1.57 41.07-5.08 55.32-2.65-12.88-9.45-34.74-23.26-57.55-27.54-35.77-6.71-43.6-16.77-48.07-17.89-0.65-0.16-2.42-0.17-4.86-0.1 2.54 1.07 4.93 2.12 7 3.09 22.26 10.44 37.64 40.33 39.59 44.27zM192.91 702.44c-15.51 0.2-31.82-3.21-43.7-6.43 8.52 13.57 35 58.01 75.37 34.37 11.07-6.48 19.6-11.84 26.24-16.26 1.64-5.41 3.56-11.75 5.64-18.53-6.45 1.16-37.63 6.52-63.55 6.85zM410.15 378.62c0.25 0.69 2.38 1.95 5.64 3.55 4.91-4.65 9.73-9.3 14.48-13.91-5.46-0.54-9.87-0.82-11.45-0.82-4.75 0-9.78 8.11-8.67 11.18zM651.38 206.98c1.23-0.66 2.55-1.38 3.73-2 3.45-1.8 6.92-3.35 10.4-4.75-8.41 0.79-16.66 2.61-23.73 5.99 3.09 0.17 6.3 0.43 9.6 0.76zM515.13 293.41c7.32-5.22 15.32-10.79 23.71-16.52-1.58-1.04-2.83-1.95-3.48-2.61a8.247 8.247 0 0 1-1.75-2.62c-11 7-21.91 14-32.31 20.76 4.28 0.21 8.93 0.54 13.83 0.99zM620.02 224.82c2.06-1.23 4.08-2.42 6.09-3.6-3.03 0.11-5.14 0.24-5.79 0.34-1.55 0.26-1.38 1.54-0.3 3.26zM578.72 250.49c9.25-5.95 18.5-11.78 27.55-17.34-1.82-1.54-2.87-2.97-3.13-4.71-10.3 6.22-21.87 13.34-34.05 20.91 3.05 0.33 6.27 0.71 9.63 1.14zM374.75 418.37c4.83-3.83 9.77-7.99 14.74-12.3-7.43 0.36-12.64 5.13-14.74 6.83-1.3 1.06-0.99 3.13 0 5.47zM548.77 263.76c-1.12 0.98 0 2.58 2.65 4.64 2.71-1.81 5.42-3.62 8.18-5.45-6.02-0.13-10.07 0.14-10.83 0.81zM482.82 314.62c0.13 0.85 0.44 1.69 0.86 2.53 3.83-3.18 8.59-6.91 14.13-11.09-0.47-0.03-1.02-0.08-1.3-0.1-7.55-0.56-14.81 1.68-13.69 8.66zM417.11 353.25c6.16-1.06 15.29 0.29 25.59 2.86 11.7-11.51 22.24-21.93 30.78-29.89-0.49-0.41-0.96-0.86-1.47-1.26-3.42-2.69-5.02-6.05-5.36-9.6-15.04 10.18-26.57 18.41-31.9 23.01-3.94 3.41-10.07 8.57-17.64 14.88z" fill="#8F3E19" p-id="2667"></path><path d="M208.93 511.65c-0.19 0.21-0.44 0.59-0.67 0.94 4.65-1.69 17.77-7.47 32.4-14.05 0-7.4 6.79-13.5 15.97-16.33 3.27-1 8.76 0.01 15.28 2.12 11.97-5.48 20.83-9.58 20.83-9.58s2.28-2.82 17.9-14.07c-0.95-9.05 4.32-16.45 11.94-21.33 4.91-3.14 12-2.11 19.78 0.35 6.85-3.27 14.33-7.87 22.3-13.66-1.96-3.81-3.31-8-3.69-12.78-1.49-18.26 30.55-21.99 33.58-19 0.49 0.49 2.44 1.47 5.21 2.72 2.37-2.14 4.73-4.28 7.1-6.46-2.93-2-5.42-4-7.14-5.94-4.38-4.96-5.71-9.11-4.86-12.92-41.81 34.46-99.58 81.37-112.15 90.8-17.88 13.42-64.83 39.13-73.78 49.19z" fill="#8F3E19" p-id="2668"></path><path d="M113.29 630.43c0.18-2.86 0.42-5.99 0.75-9.36-0.32 3.38-0.58 6.5-0.75 9.36zM113.01 635.61c0.07-1.45 0.14-2.99 0.25-4.66-0.11 1.68-0.19 3.21-0.25 4.66zM114.07 620.77zM112.84 640.77c0.01-0.58 0.03-1.16 0.04-1.81-0.01 0.66-0.03 1.22-0.04 1.81zM154.16 655.86c20.12 0 41.36 15.65 118.5-63.72s124.09-67.44 158.74-84.58c34.65-17.14 109.55-49.56 141.97-90.92s123.47-161.19 181.1-173.27c26.03-5.46 46.01-7.8 60.15-8.74 6.61 9.02 10.8 17.15 11.76 19.1-1.95-3.93-17.34-33.83-39.6-44.27-2.07-0.97-4.46-2.02-7-3.09-5.69-2.4-12.48-4.92-20.12-7.22-1.89-0.56-3.8-1.11-5.79-1.64-15-4-32.64-6.74-51.17-5.54-12.2 0.79-24.76 3.29-37.2 8.27-3.48 1.39-6.95 2.95-10.4 4.75-1.19 0.62-2.5 1.35-3.73 2 34.33 3.43 77 14.39 77 14.39s2.89 1.31 3.72 4.1c0.84 2.79 3.91 6.99-6.99 8.1-10.9 1.12-35.49-5.31-47.79-9.5-9.91-3.38-38.65-3.31-51.22-2.86-2.01 1.18-4.03 2.37-6.09 3.6 1.28 2.03 3.85 4.66 6.73 7.08 5.31 4.47 46.39 26.55 56.17 32.98 9.78 6.43 4.19 9.78-2.51 11.74-6.71 1.96-44.44-3.35-71.82-8.38-18.07-3.32-37.31-5.05-48.98-5.28-2.76 1.83-5.47 3.64-8.18 5.45 2.66 2.07 6.85 4.58 11.89 7.38 10.06 5.59 37.73 16.21 48.07 19.84 10.34 3.63 19.28 14.53 15.93 19.56-3.35 5.03-32.14 3.63-42.48 0.84-9.94-2.69-75.28-8.98-87.01-9.96-5.55 4.17-10.31 7.9-14.13 11.09 3.05 6.05 12.87 11.71 19.26 15.64 7.27 4.47 30.18 12.3 43.32 20.12 13.13 7.83 11.74 16.21 8.66 23.2-3.07 6.99-22.36 14.53-39.68 13.97-17.33-0.56-45.27-11.18-53.38-15.65-5.41-2.99-20.63-5.09-31.59-6.17-4.74 4.61-9.57 9.26-14.48 13.91 11.32 5.56 36.99 15.4 51.09 21.05 18.17 7.28 27.3 14.71 27.48 20.3 0.18 5.59-5.77 9.5-29.25 9.13s-52.17-17.51-65.21-24.22c-3.85-1.98-7.3-2.52-10.41-2.36-4.97 4.31-9.91 8.47-14.74 12.3 1.29 3.03 3.78 6.55 5.78 9.07 3.54 4.47 45.09 33.54 55.52 39.68s12.11 21.98 6.33 24.96c-5.78 2.98-18.26 0.37-23.1-2.61s-40.85-21.71-47.7-24.92c-6.85-3.21-31.72-12.16-37.17-13.55-5.45-1.4-9.22 4.19-10.2 7.41-0.98 3.21 5.17 13.83 8.94 18.31 3.77 4.47 15.14 21.71 18.68 29.16 3.54 7.45 1.12 16.58-1.12 20.31s-8.94 4.28-14.16 3.54c-5.21-0.74-42.85-21.05-55.89-29.25s-21.43-5.21-22.36-5.03c-0.93 0.18-2.42 2.79-1.68 7.27 0.75 4.47 9.87 9.88 16.96 13.97 7.08 4.1 15.09 14.72 18.26 24.78 3.17 10.06-5.03 19.75-10.06 24.03-5.03 4.28-16.21 2.61-29.25-2.61-13.04-5.21-47.32-29.07-54.22-32.05s-22.54 2.42-26.27 3.72c-3.73 1.3-5.03 4.85-3.54 10.44s6.15 11.74 17.33 21.42c11.18 9.69 17.89 23.48 18.82 29.62 0.93 6.15-5.78 4.1-5.78 4.1-2.79 0-6.71-5.59-28.13-28.88-14.45-15.71-17.96-25.01-17.68-31.29-13.86 9.37-25.86 20.57-29.65 32.78-3.98 12.85-6.43 25.48-8 36.69 10.94 20.82 26.8 46.41 38.75 46.41z" fill="#FD7265" p-id="2669"></path><path d="M207.8 512.77c-2.19 0.76-6.41 2.35-11.82 4.61 19.26 2.35 39.17 19.78 47.32 25.3 9.5 6.43 27.67 11.46 31.58 10.34 3.91-1.12 2.98-10.43 2.24-14.9-0.75-4.47-13.79-12.67-28.69-25.71-5.49-4.8-7.77-9.55-7.77-13.86-14.63 6.58-27.75 12.36-32.4 14.05-0.13 0.04-0.34 0.13-0.46 0.17zM363.95 447.93c14.91 5.59 54.03 27.58 57.75 26.83 3.72-0.75-16.77-11.55-30.55-22.36-10.18-7.98-20.94-15.58-26.49-26.34-7.97 5.79-15.45 10.38-22.3 13.66 7 2.21 14.53 5.56 21.59 8.21zM510.02 378.62c16.39 4.47 29.81-6.71 30.56-12.67s-23.1-11.93-37.27-16.4c-13.47-4.25-20.23-15.22-29.83-23.34-8.54 7.96-19.07 18.38-30.78 29.89 25.04 6.27 56.62 19.6 67.32 22.52zM458.59 419.61c7.45 2.24 13.41 0 3.73-3.73-8.2-3.16-39.31-14.32-55.46-25.36-2.37 2.18-4.72 4.32-7.1 6.46 14.2 6.41 52.6 20.76 58.83 22.63zM589.76 304.09s-38.25-18.83-50.92-27.2c-8.39 5.73-16.39 11.29-23.71 16.52 32.5 2.97 74.63 10.68 74.63 10.68zM292.74 474.76s-8.86 4.1-20.83 9.58c22.49 7.28 57.89 28.27 62.23 30.3 5.59 2.61 5.22-0.37 3.35-7.45-1.86-7.08-20.49-28.32-25.34-40.24-0.88-2.17-1.3-4.24-1.51-6.24-15.62 11.23-17.9 14.05-17.9 14.05zM650.87 262.36s-23.85-13.41-36.51-23.1c-3.49-2.67-6.16-4.48-8.09-6.1-9.05 5.56-18.3 11.38-27.55 17.34 31.09 3.98 72.15 11.86 72.15 11.86z" fill="#FD7265" p-id="2670"></path><path d="M834.95 254.54c-3.1-0.28-5.93-0.56-8.57-0.82 0.14 0.29 0.22 0.45 0.22 0.45l0.25 1.49-8.94 1.68c-33.54 6.71-65.68 40.52-74.62 51.14s-51.14 59.53-67.91 77.69c-16.77 18.17-56.55 58.41-92.32 83.37-35.77 24.96-137.88 67.82-137.88 67.82s-73.4 30.93-99.86 44.72c-26.46 13.79-56.64 62.6-63.35 72.29-6.71 9.69-24.22 40.99-24.22 40.99s-0.49 0.09-1.28 0.23c-2.08 6.78-4 13.11-5.64 18.53-3 9.91-5 16.64-5 16.64s-4.47 6.71 0 20.12 42.48-16.77 64.84-30.18c22.36-13.41 178.86-90.55 219.11-108.43 40.24-17.89 106.2-111.79 124.09-133.03C671.76 458 784.66 378.63 818.2 370.8c33.54-7.83 88.31-90.55 83.84-109.55-1.34-5.67-5.69-8.32-11.76-9.35-14.26-2.44-38.08 4.2-55.33 2.64z" fill="#BD582A" p-id="2671"></path><path d="M118.01 675.98c-4.84-9.32-11.55-11.55-14.91-14.16-0.36-0.28-0.49-0.59-0.57-0.92l-17.31-2.81 29.44 56.64 12.06-17.03c-1.39-0.43-2.37-1.22-2.37-1.22s-1.49-11.18-6.34-20.5zM192.91 702.44c25.92-0.33 57.1-5.69 63.56-6.85 0.79-0.14 1.28-0.23 1.28-0.23s17.51-31.3 24.22-40.99c6.71-9.69 36.89-58.51 63.35-72.29 26.46-13.79 99.86-44.72 99.86-44.72s102.1-42.86 137.88-67.82c35.77-24.96 75.55-65.21 92.32-83.37 16.77-18.17 58.97-67.07 67.91-77.69s41.08-44.44 74.62-51.14l8.94-1.68-0.25-1.49s-0.08-0.16-0.22-0.45c-0.96-1.94-5.15-10.07-11.76-19.1-14.14 0.94-34.12 3.28-60.15 8.74-57.63 12.09-148.68 131.91-181.1 173.27-32.42 41.36-107.32 73.78-141.97 90.92-34.65 17.14-81.61 5.21-158.74 84.58s-98.37 63.72-118.5 63.72c-11.95 0-27.8-25.59-38.74-46.4-0.03 0.22-0.05 0.42-0.08 0.64-0.51 3.74-0.93 7.33-1.26 10.68l-0.03 0.29c-0.33 3.37-0.58 6.51-0.75 9.36-0.01 0.18-0.03 0.36-0.03 0.53-0.1 1.67-0.18 3.21-0.25 4.66-0.05 1.19-0.1 2.32-0.13 3.35-0.02 0.65-0.03 1.23-0.04 1.81-0.03 1.35-0.04 2.58-0.04 3.54v10.42c9.12 2.96 16.65 14.18 19 21.25 1.72 5.17 2.6 10.96 2.05 15.28 0.99 0.35 2.29 0.8 3.91 1.33 2.95 0.97 6.87 2.17 11.45 3.42 11.88 3.22 28.19 6.62 43.69 6.43z" fill="#DB382E" p-id="2672"></path><path d="M131.8 675.98c-2.35-7.07-9.89-18.29-19-21.25-0.98-0.32-1.97-0.62-2.98-0.73 0 0-7.97 4.16-7.28 6.9 0.08 0.33 0.21 0.64 0.57 0.92 3.35 2.61 10.07 4.84 14.91 14.16s6.33 20.5 6.33 20.5 0.98 0.79 2.37 1.22c1.46 0.45 3.36 0.5 5.08-1.22 1.14-1.14 1.77-3 2.05-5.22 0.55-4.32-0.33-10.11-2.05-15.28z" fill="#F4504D" p-id="2673"></path><path d="M170.74 571.27c21.42 23.29 25.34 28.88 28.13 28.88 0 0 6.71 2.05 5.78-4.1-0.93-6.15-7.64-19.94-18.82-29.62-11.18-9.69-15.83-15.83-17.33-21.42s-0.19-9.14 3.54-10.44c3.73-1.3 19.38-6.71 26.27-3.72s41.17 26.83 54.22 32.05c13.04 5.21 24.22 6.89 29.25 2.61 5.03-4.28 13.23-13.97 10.06-24.03s-11.17-20.69-18.26-24.78c-7.08-4.1-16.21-9.5-16.96-13.97-0.75-4.47 0.75-7.08 1.68-7.27 0.93-0.18 9.31-3.17 22.36 5.03 13.04 8.2 50.68 28.51 55.89 29.25 5.21 0.74 11.92 0.18 14.16-3.54s4.65-12.86 1.12-20.31c-3.54-7.45-14.9-24.68-18.68-29.16-3.77-4.47-9.92-15.09-8.94-18.31 0.98-3.21 4.75-8.8 10.2-7.41 5.45 1.4 30.32 10.34 37.17 13.55 6.85 3.21 42.86 21.94 47.7 24.92 4.84 2.98 17.32 5.59 23.1 2.61 5.78-2.98 4.1-18.82-6.33-24.96s-51.98-35.21-55.52-39.68c-2-2.52-4.48-6.04-5.78-9.07-1-2.34-1.3-4.41 0-5.46 2.11-1.71 7.31-6.47 14.74-6.83 3.11-0.15 6.56 0.38 10.41 2.36 13.04 6.71 41.74 23.84 65.21 24.22s29.43-3.54 29.25-9.13c-0.18-5.59-9.31-13.03-27.48-20.3-14.11-5.65-39.77-15.48-51.09-21.05-3.26-1.6-5.39-2.87-5.64-3.55-1.12-3.07 3.91-11.18 8.66-11.18 1.58 0 6 0.28 11.45 0.82 10.96 1.07 26.17 3.18 31.59 6.17 8.1 4.47 36.05 15.09 53.38 15.65 17.33 0.56 36.61-6.99 39.68-13.97 3.07-6.99 4.47-15.37-8.66-23.2-13.14-7.83-36.05-15.65-43.32-20.12-6.38-3.93-16.2-9.59-19.26-15.64-0.42-0.83-0.73-1.68-0.86-2.53-1.12-6.99 6.15-9.22 13.69-8.66 0.29 0.02 0.84 0.07 1.3 0.1 11.73 0.98 77.06 7.27 87.01 9.96 10.34 2.79 39.13 4.19 42.48-0.84 3.35-5.03-5.59-15.93-15.93-19.56-10.34-3.63-38.01-14.25-48.07-19.84-5.03-2.8-9.23-5.31-11.89-7.38-2.65-2.06-3.76-3.66-2.65-4.64 0.76-0.66 4.81-0.93 10.82-0.81 11.67 0.24 30.91 1.97 48.98 5.28 27.39 5.03 65.12 10.34 71.82 8.38 6.71-1.96 12.3-5.31 2.51-11.74-9.78-6.43-50.86-28.51-56.17-32.98-2.87-2.42-5.45-5.06-6.73-7.08-1.08-1.72-1.24-3 0.3-3.26 0.65-0.11 2.76-0.24 5.79-0.34 12.56-0.45 41.31-0.52 51.22 2.86 12.3 4.19 36.89 10.62 47.79 9.5 10.9-1.12 7.83-5.31 6.99-8.1-0.84-2.79-3.72-4.1-3.72-4.1s-42.67-10.96-77-14.39c-3.29-0.33-6.51-0.59-9.6-0.76-15.8-0.89-28.44 0.45-31.89 6.21-5.19 8.65-7.21 12.9-6.75 16.01 0.26 1.74 1.31 3.17 3.13 4.71 1.93 1.63 4.6 3.44 8.09 6.1 12.67 9.69 36.51 23.1 36.51 23.1s-41.06-7.88-72.15-11.87c-3.35-0.43-6.58-0.81-9.63-1.14-11.29-1.2-20.14-1.59-23.3-0.41-10.43 3.91-15.16 15.82-12.18 22.72a8.36 8.36 0 0 0 1.75 2.62c0.66 0.66 1.91 1.57 3.48 2.61 12.67 8.37 50.92 27.2 50.92 27.2s-42.13-7.72-74.63-10.69c-4.9-0.45-9.55-0.78-13.83-0.97-10.56-0.47-18.74-0.03-21.83 1.97-8.51 5.51-13.52 13.68-12.82 20.96 0.34 3.55 1.94 6.91 5.36 9.6 0.51 0.4 0.97 0.84 1.47 1.26 9.61 8.12 16.36 19.08 29.83 23.34 14.16 4.47 38.01 10.44 37.27 16.4-0.75 5.96-14.17 17.14-30.56 12.67-10.69-2.92-42.27-16.25-67.32-22.51-10.3-2.58-19.43-3.92-25.59-2.86-1.83 0.31-3.48 0.76-4.72 1.53-9.52 5.9-16.21 10.97-17.53 16.89-0.85 3.81 0.48 7.96 4.86 12.92 1.72 1.94 4.21 3.94 7.14 5.94 16.15 11.04 47.26 22.2 55.46 25.36 9.69 3.73 3.72 5.97-3.73 3.73-6.23-1.87-44.63-16.22-58.83-22.62-2.77-1.25-4.72-2.23-5.21-2.72-3.03-2.98-35.07 0.74-33.58 19 0.39 4.78 1.73 8.97 3.69 12.78 5.55 10.77 16.31 18.36 26.49 26.34 13.79 10.81 34.28 21.61 30.55 22.36-3.72 0.75-42.85-21.24-57.75-26.83-7.06-2.65-14.59-6-21.59-8.21-7.78-2.46-14.87-3.49-19.78-0.35-7.62 4.88-12.9 12.28-11.94 21.33 0.21 2.01 0.63 4.07 1.51 6.24 4.85 11.93 23.48 33.16 25.34 40.24 1.86 7.08 2.24 10.06-3.35 7.45-4.33-2.02-39.73-23.02-62.23-30.3-6.52-2.11-12.01-3.13-15.28-2.12-9.18 2.83-15.97 8.93-15.97 16.33 0 4.31 2.28 9.06 7.77 13.86 14.91 13.04 27.95 21.24 28.69 25.71 0.75 4.47 1.68 13.79-2.24 14.9-3.91 1.12-22.08-3.91-31.58-10.34-8.16-5.52-28.06-22.94-47.32-25.3-3.17-0.38-6.33-0.41-9.41 0.14-4.25 0.76-7.76 1.58-10.91 2.43-13.03 3.5-17.69 7.72-20.39 12.66-1.09 2-2.09 4.34-2.22 7.37-0.23 6.28 3.27 15.57 17.72 31.28z" fill="#FED136" p-id="2674"></path></svg>