<?xml version="1.0" standalone="no"?><!DOCTYPE svg PUBLIC "-//W3C//DTD SVG 1.1//EN" "http://www.w3.org/Graphics/SVG/1.1/DTD/svg11.dtd"><svg t="1607840005054" class="icon" viewBox="0 0 1024 1024" version="1.1" xmlns="http://www.w3.org/2000/svg" p-id="2510" xmlns:xlink="http://www.w3.org/1999/xlink" width="200" height="200"><defs><style type="text/css"></style></defs><path d="M948.7 447.95l5.84-11.2-0.69-4.48c-0.53-3.38-13.32-83.21-50.61-113.81l-7.62-6.27c-36.2-29.8-81.24-66.88-111.12-75.67-26.91-7.91-127.2-31.62-145.39-31.62-3.79 0-10.44-0.55-17.48-1.13-10.49-0.86-23.55-1.94-35.43-1.94-13.12 0-22.54 1.26-29.65 3.97-18.09 6.89-39.26 17.71-45.88 22.12-1.54 1.03-3.03 2.31-4.62 3.76-2.91 2.67-5.66 5.19-17.22 5.19-0.9 0-1.82-0.02-2.79-0.05-1.31-0.05-2.66-0.07-4.06-0.07-25.67 0-64.77 7.76-66.43 8.1l-4.23 0.85-2.32 3.1c-19.68 20.39-52.86 56.3-45.96 78.47v1.6-3.19h-0.67c0.2 6.9 0.01 3.14 0.2 3.93l0.63 4.3 1.32 7.1 0.18 1.32 0.03 0.35 0.24 1.62-3.03 4.05c-25.5 14.06-39.27 32.75-39.4 53.32-10.51 14.72-13.2 19.31-14.34 21.83-4.92 10.82-10.61 19.28-12.67 20.99-1.37 1.14-5.69 4.69-11.36 9.35-32.89 27.03-42.94 35.38-44.67 37.12-2.02 1.94-33.51 30.85-86.44 79.38-9.14 2.97-17.21 7.9-23.38 14.63-2.99 3.27-6.11 6.19-9.13 9.01-6.07 5.69-12.59 11.93-14.61 19.55l-2.87 2.64c-7.01 7-23.64 24.57-26.85 36.32-0.34 1.25-0.64 2.47-0.9 3.64l-0.32 1.64c-0.16 0.84-0.31 1.68-0.43 2.56 0 0-0.74 1.28-0.82 2.06 0 0.03-0.59 0.07-0.59 0.1v0.03c0 0.03 0.57 1.36 0.57 1.36h0.3c-0.05 0 0.07 0.61 0.04 1.26L69.49 664l8.65 21.8c0.12 0.34 0.24 0.57 0.38 0.92l2.84 7.13 0.35 0.04c1.04 2.16 2.18 4.4 3.46 6.76l0.16 0.27c0.09 0.18 0.22 0.37 0.32 0.54a77.67 77.67 0 0 0 2.22 3.74c0.51 0.81 1.03 1.64 1.58 2.49 0.05 0.09 0.11 0.18 0.16 0.26l1.33 2.03-0.84 0.26 13.13 15.94h0.01l5.82 7.07 0.14-0.04c0.4 0.47 0.81 0.93 1.21 1.39 0.48 0.55 0.97 1.12 1.45 1.67 1.17 1.32 2.29 2.57 3.4 3.81 0.2 0.23 0.41 0.47 0.61 0.68 6.58 7.27 11.92 12.75 13.72 14.58 0.18 0.19 0.43 0.44 0.58 0.6h0.01-0.01l0.45 0.44 5.41 5.48 7.5-1.72c19.84-4.54 72.95-16.63 80.49-17.99 8.76-1.59 77.7-12.45 85.28-13.64l45.88-2.65 126.64-39.3 62.98-19.17 2.49-2.59c5.46-5.7 12.53-12.6 16.78-16.31 8.29 2.41 25.61 7.97 40.5 12.94l2.48 0.83 71.83-3.78 3.07-1.96c21.14-13.52 46.79-29.2 52.76-31.87 6.27-1.18 25.52-5.96 94.02-25.25l27.7-8.59 31.82-26.85L909.09 524h-0.01l0.64-1.22 14.03-26.89 14.26-27.36 10.69-20.58z" p-id="2511"></path><path d="M925.73 462.16l-23.02 44.15-3.95-1.18s-71.57 37.39-85.37 47.17c-13.8 9.78-37.38 21.86-44.28 24.16-6.9 2.3-40.85 0.58-48.89 3.45s-41.99 11.51-50.62 16.11-25.88 13.23-40.83 13.23-24.74-4.6-24.74-4.6l-21.27 13.8s33.36-6.9 43.14-4.03c9.77 2.87 37.95-5.18 62.69-12.66 24.74-7.48 52.93-6.9 71.33-9.78 18.4-2.87 72.47-33.93 89.73-37.39 8.53-1.71 21.42-5.24 32.27-8.38l43.81-84.05zM667.86 575.31s-83.54-2.88-127.97 10.06c-44.43 12.94-102.67 40.55-124.24 49.18s-44 18.12-44 18.12 30.2-6.04 41.41-6.9c11.22-0.86 46.16-18.12 60.39-23.29 14.24-5.18 65.57-24.16 81.1-26.75 15.53-2.59 75.92-11.65 85.41-13.8s27.9-6.62 27.9-6.62zM139.71 745.98c-2.94-2.98-14.75-15.11-25.72-28.43 11.02 13.39 22.85 25.54 25.72 28.43zM140.42 746.71s-0.23-0.24-0.51-0.52c0.31 0.31 0.51 0.52 0.51 0.52zM218.07 694.94c17.26-2.3 41.41-4.02 55.22-9.78 13.8-5.75 41.41-7.48 41.41-7.48h-12.08c-10.93 0-24.09 0.51-35.59 3.96-11.5 3.45-35.01 5.1-48.81 6.83-13.8 1.73-37.83-2.45-53.93-0.14-11.43 1.63-44.73 8.31-63.16 12.06-1.43-2.18-2.76-4.31-3.84-6.32 3.82 7.05 10.05 15.4 16.59 23.35 16.26-4.83 23.71-6.09 34.03-14.43 12.07-9.78 52.91-5.75 70.16-8.05z" fill="#FED7A2" p-id="2512"></path><path d="M89.67 676.82c-0.28-0.92-0.53-1.8-0.73-2.65 0.2 0.85 0.44 1.74 0.73 2.65zM818.56 397.29c-8.63-4.31-17.26-10.35-27.61-17.26-5.1-3.4-15.41-9.31-25.29-16.48 16.67 13.76 37.38 24.94 43.41 28.56 8.63 5.18 32.79 31.92 41.41 44.86 0.65 0.98 1.44 1.84 2.18 2.74-1.94-3.05-3.51-6.07-4.77-8.78-5.17-11.21-20.7-29.33-29.33-33.64zM719.87 319.35c8.57 4.16 15.47 9.35 21.6 16.7-3.82-7.23-12.25-12.65-21.6-16.7zM376.48 331.71zM88.6 672.62c-0.16-0.8-0.33-1.59-0.43-2.34 0.09 0.74 0.27 1.55 0.43 2.34zM88.04 663.78c0.04-0.53 0.11-1.04 0.17-1.55-0.07 0.51-0.13 1.03-0.17 1.55zM88.52 660.37c0.08-0.4 0.15-0.81 0.24-1.22-0.08 0.4-0.16 0.82-0.24 1.22zM759.89 591.99c-18.4 2.87-46.59 2.3-71.33 9.78-24.73 7.48-52.91 15.53-62.69 12.66-9.78-2.87-43.14 4.03-43.14 4.03l21.27-13.8s9.79 4.6 24.74 4.6 32.21-8.63 40.83-13.23 42.57-13.23 50.62-16.11 41.99-1.15 48.89-3.45c6.9-2.3 30.48-14.38 44.28-24.16s85.37-47.17 85.37-47.17l3.95 1.18 23.02-44.15c-12.42 0.22-26.08 0.19-36.07-0.58-15.02 8.17-71.79 38.36-128.05 59.09-4.93 1.82-9.88 3.56-14.82 5.25-0.01 0-0.03 0.01-0.04 0.01-60.72 20.87-121.26 32.69-161.15 32.69-12.35 0-28.55 2.59-45.89 6.46-26.6 5.94-55.96 14.99-78.65 22.8-0.49 0.17-1.01 0.34-1.5 0.52-1.72 0.6-3.37 1.18-5.01 1.76-1.17 0.41-2.31 0.82-3.42 1.22-1.25 0.45-2.53 0.9-3.71 1.34-2.2 0.81-4.3 1.58-6.25 2.32-0.71 0.27-1.35 0.52-2.04 0.78-1.5 0.57-2.93 1.13-4.25 1.65-0.55 0.22-1.11 0.44-1.63 0.65-1.72 0.69-3.32 1.35-4.66 1.92-24.16 10.35-184.63 70.75-194.99 70.75-10.35 0-105.26 12.08-131.14 12.08-2.67 0-6.5-0.48-11.14-1.3-0.42-1.07-0.76-2.05-1.09-3.04 1.47 4.3 3.65 9.28 7.05 15.55 1.08 2.01 2.41 4.14 3.84 6.32 18.43-3.75 51.74-10.43 63.16-12.06 16.1-2.31 40.13 1.87 53.93 0.14 13.8-1.73 37.31-3.38 48.81-6.83s24.66-3.96 35.59-3.96h12.08s-27.61 1.73-41.41 7.48c-13.8 5.75-37.96 7.48-55.22 9.78s-58.09-1.73-70.17 8.05c-10.31 8.35-17.77 9.6-34.03 14.43 0.04 0.04 0.07 0.09 0.11 0.13 10.97 13.31 22.78 25.44 25.72 28.43 0.09 0.1 0.12 0.13 0.2 0.21 0.28 0.28 0.51 0.52 0.51 0.52s71.61-16.39 81.1-18.12c9.49-1.73 86.28-13.8 86.28-13.8l44.86-2.59 125.1-38.82 59.53-18.12s20.71-21.57 24.16-21.57c3.45 0 47.45 14.67 47.45 14.67l65.57-3.45s52.63-33.65 56.94-33.65 93.18-25.02 93.18-25.02l25.02-7.76 27.61-23.29 4.66-8.95c-10.85 3.14-23.74 6.67-32.27 8.38-17.2 3.41-71.27 34.47-89.67 37.35z m-205.34 3.73c-15.53 2.59-66.86 21.57-81.1 26.75-14.24 5.18-49.18 22.43-60.39 23.29-11.22 0.86-41.41 6.9-41.41 6.9s22.43-9.49 44-18.12 79.81-36.24 124.24-49.18c44.43-12.94 127.97-10.06 127.97-10.06s-18.4 4.46-27.89 6.61-69.89 11.23-85.42 13.81zM87.95 665.43zM379 344.59c-0.03-0.18-0.04-0.32-0.08-0.52 0.04 0.2 0.06 0.35 0.08 0.52zM379.29 346.75c-0.01-0.14-0.03-0.27-0.05-0.44 0.02 0.16 0.04 0.31 0.05 0.44zM378.26 340.24c-0.03-0.1-0.05-0.24-0.07-0.34l0.07 0.34zM377.48 336.3c-0.13-0.61-0.3-1.38-0.44-2.05 0.15 0.7 0.32 1.47 0.45 2.11-0.01-0.02-0.01-0.03-0.01-0.06zM379.39 347.82c0-0.06-0.01-0.11-0.01-0.2 0 0.06 0.01 0.15 0.01 0.2z" fill="#FEE3BD" p-id="2513"></path><path d="M618.4 431.8c7.76 5.18 42.28 14.67 57.81 16.39s16.39 9.49 47.44 6.04c1.85-1.65 3.77-3.3 5.77-4.89 6.23-4.99 15.15-4.56 22.03-3.13 7.58-5.32 10.32-13.39 12.77-25.63 3.63-18.11 7.17-24.03-6.05-23.94 0.22 2.48 0.01 5.14-0.74 7.84-3.06 10.93-10.74 13.23-25.13 14.38-13.28 1.06-26.53-12.57-29.39-17.84-27.76 2.74-60.49 7.82-84.49 19.56-0.02 0-7.79 6.04-0.02 11.22zM320.9 474.9c-12.73 2.81-29.52 8.38-34.67 18.81-8.63 17.46-31.57 26.95-5.86 26.95s55.9-20.71 55.9-20.71l20.47-13.47c-8.26-1.2-17.68-2.8-23.63-3.65-8.45-1.19-11.49-4.85-12.21-7.93zM447.42 592.72c-2.21 0.81-4.29 1.58-6.25 2.32 1.95-0.74 4.05-1.52 6.25-2.32zM227.28 598.31c1.15 12.65-17.26 28.18-41.41 35.66-9.46 2.93-20.13 3.01-30.13 1.61-7.5 12.26-12.81 22.2-12.81 22.2s32.7-12.13 43.06-20.76 23.13-10.46 42.11-8.74c18.98 1.73 54.89-3.67 79.91-7.12 12.81-1.77 41.28-19.48 66.03-36.35-8.34 0.61-15.9 0.78-21.66 0.26-25.31-2.3-32.79 1.15-47.45-28.47-1.44-2.91-2.18-5.69-2.58-8.4-11.26 3.82-26.26 8.15-43.75 11.26-26.81 4.77-41.29 12.82-53.65 21.61 13.43 0.09 21.24 5.31 22.33 17.24zM745.76 507.72l-80.38-11.78c0.17 0.19 0.36 0.39 0.49 0.57 3.76 5.18-2.04 15.53-16.42 15.53-6.36 0-13.43-2.15-21.03-4.54-7.06 4.72-13.71 9.51-16.15 12.3-6.04 6.9-27.57 12.08-47.41 17.26-19.84 5.18-43.12 9.49-43.12 9.49l17.98 18.54c17.34-3.88 33.54-6.46 45.89-6.46 39.89 0 100.42-11.82 161.15-32.69l5.58-6.99-6.58-11.23zM433.24 598.12a215.055 215.055 0 0 1 0 0zM594.37 385.63l11.14-3.88s17.31-13.8 22.49-20.71c5.18-6.9-13.7-6.9-13.7-6.9s-17.9-10.35-27.39-16.82S564.9 319.63 558 320.5c-4.91 0.61-27.22 17.33-39.73 26.96 11.14 1.54 23.23 3.39 35.96 5.58 28.97 4.98 38.28 18.85 40.14 32.59zM439.13 595.82zM454.56 590.16c-1.17 0.41-2.3 0.82-3.42 1.22 1.11-0.4 2.25-0.81 3.42-1.22zM461.07 587.89c-0.5 0.17-1.01 0.34-1.5 0.52 0.49-0.18 1.01-0.35 1.5-0.52zM761.62 520.66z" fill="#FFFAF3" p-id="2514"></path><path d="M102.46 682.86c25.88 0 120.79-12.08 131.14-12.08 10.35 0 170.83-60.39 194.99-70.75 1.33-0.57 2.94-1.23 4.66-1.92 0.52-0.21 1.08-0.43 1.63-0.65 1.33-0.53 2.74-1.07 4.25-1.65 0.68-0.26 1.32-0.51 2.04-0.78 1.97-0.74 4.04-1.52 6.25-2.32 1.19-0.43 2.46-0.89 3.71-1.34 1.13-0.4 2.25-0.81 3.42-1.22 1.64-0.58 3.29-1.16 5.01-1.76 0.49-0.17 1-0.34 1.5-0.52 22.69-7.81 52.05-16.86 78.65-22.8l-17.98-18.54s23.27-4.31 43.12-9.49c19.84-5.18 41.37-10.35 47.41-17.26 2.44-2.79 9.09-7.58 16.15-12.3-9.6-3.01-20.08-6.39-31.31-6.39-20.13 0-35.66-5.75-47.24-16.28-11.57-10.53-3.38-11.9-3.38-11.9 17.26-4.02 52.91-1.15 73.62 2.95 20.01 3.96 40.5 14.67 45.26 20.07l80.38 11.78 6.58 11.22-5.58 6.99c0.01 0 0.03-0.01 0.04-0.01 4.94-1.7 9.88-3.43 14.82-5.25 56.26-20.73 113.02-50.91 128.05-59.09-1.66-0.13-3.24-0.27-4.67-0.45-16.35-1.96-26.25-11.86-32.33-21.42-0.74-0.9-1.53-1.76-2.18-2.74-8.63-12.94-32.79-39.69-41.41-44.86-6.03-3.61-26.74-14.8-43.41-28.56-10.2-7.41-19.96-16.17-23.02-24.94-0.31-0.89-0.73-1.74-1.17-2.57-6.13-7.35-13.02-12.54-21.6-16.7-10.65-4.61-22.45-7.46-29.86-9.2-14.67-3.45-231.22 1.73-247.61 6.9-9.11 2.88-31.76 12.4-50.12 20.3-4.91 2.12-9.53 4.12-13.49 5.84-0.07-0.43-0.18-1-0.26-1.51 0.15 0.86 0.31 1.74 0.4 2.39 0.04 0.2 0.05 0.33 0.08 0.52 0.1 0.67 0.18 1.26 0.24 1.72 0.01 0.17 0.03 0.3 0.05 0.44 0.04 0.36 0.07 0.67 0.09 0.87 0 0.08 0.01 0.14 0.01 0.2 0.01 0.16 0.01 0.29 0.01 0.29s-3.27 4.31-8.25 10.93c7.24-3.77 12.74-5.69 12.74-5.69 3.38-1.31 61.14-10.82 76.22-11.12 10.62-0.22 31.63 1.57 58.15 5.23 12.51-9.63 34.82-26.34 39.73-26.96 6.9-0.86 19.42 10.35 28.91 16.82s27.39 16.82 27.39 16.82 18.87 0 13.7 6.9c-5.18 6.9-22.49 20.71-22.49 20.71l-11.14 3.88c0.92 6.67 0.09 13.31-1.12 18.88-3.72 17.07-40.32 39.56-60.54 46.01-20.22 6.45-100.03 14.19-133.53 8.35-33.51-5.84-43.86-2.05-60.18-43.17-1.36-3.43-2.14-6.7-2.5-9.85-8.05 11.17-14.4 20.36-15.77 23.36-4.31 9.49-11.22 21.57-16.39 25.88s-52.63 43.14-55.22 45.73c-1.55 1.55-50.17 46.14-88.91 81.65 6.13-1.55 10.68-1.42 10.68-1.42s16.69 0.58 31.64 0c0.85-0.03 1.6 0.02 2.41 0.03 12.36-8.79 26.84-16.84 53.65-21.61 17.49-3.11 32.5-7.44 43.75-11.26-3.68-24.84 32.19-40.78 32.19-40.78 2.43-1.18 44.86-11.79 56.08-12.94s38.24-0.58 70.75 2.3c32.5 2.87 33.93 23.01 32.21 35.95-1.73 12.94-27.61 31.92-42.28 37.96-11.32 4.66-49 12.04-77.26 14.12-24.74 16.87-53.22 34.58-66.03 36.35-25.02 3.45-60.93 8.84-79.91 7.12-18.98-1.73-31.76 0.11-42.11 8.74s-43.06 20.76-43.06 20.76 5.31-9.95 12.81-22.2c-15.53-2.18-29.39-7.99-34.3-12.54-1.11-1.03-1.77-2.06-2.1-3.1-4.11 3.76-6.52 5.98-6.52 5.98s-20.71 20.71-23.29 30.2c-0.28 1.02-0.53 2.03-0.76 3.04-0.09 0.4-0.16 0.81-0.24 1.22-0.11 0.61-0.22 1.23-0.31 1.86-0.07 0.51-0.13 1.03-0.17 1.55-0.05 0.54-0.07 1.09-0.08 1.64-0.04 1.1-0.01 2.24 0.09 3.43 0.04 0.48 0.05 0.93 0.12 1.43 0.1 0.75 0.27 1.54 0.43 2.34 0.1 0.51 0.2 1.02 0.34 1.56 0.2 0.85 0.45 1.73 0.73 2.65 0.17 0.55 0.37 1.13 0.57 1.71 0.34 0.99 0.67 1.96 1.09 3.04 4.64 0.81 8.47 1.28 11.14 1.28z m542.4-351.43c4.6-4.02 21.85 2.87 21.85 2.87l4.03 1.73s14.38 2.87 21.85 9.2c7.48 6.33 6.33 12.65-14.95 20.13-21.29 7.48-35.09 6.33-40.84 2.87-5.75-3.44 3.45-32.78 8.06-36.8z m-26.46 89.15c24-11.75 56.73-16.82 84.49-19.56a7.11 7.11 0 0 1-0.52-1.15c-1.15-4.03 25.32-16.1 25.32-16.1s10.92 0.57 18.98 0c6.06-0.43 10.81 5.33 11.49 12.87 13.23-0.09 9.68 5.83 6.05 23.94-2.45 12.24-5.19 20.31-12.77 25.63 5.82 1.21 10.18 3.13 10.18 3.13s20.71 4.03 29.91 8.05c9.2 4.03 15.53 9.78 11.22 21.28-4.31 11.5-31.36 3.45-41.14 2.88s-46.01 8.05-50.04-2.3c-3.33-8.56 3.21-17.11 12.06-25.02-31.05 3.45-31.91-4.31-47.44-6.04s-50.04-11.22-57.81-16.39 0.02-11.22 0.02-11.22z m-245.03 67.08c-0.88 0.88-8.13 0.06-16.63-1.17l-20.47 13.47s-30.2 20.71-55.9 20.71c-25.71 0-2.76-9.49 5.86-26.95 5.15-10.42 21.95-15.99 34.67-18.81-0.3-1.32-0.22-2.55 0.13-3.42 1.15-2.88 16.1-7.76 16.1-7.76h31.06l8.05 6.79c0.01-0.01-1.15 15.42-2.87 17.14z m145.52 28.4c7.48-3.45 20.13-1.15 26.45 3.45 6.33 4.6 5.76 11.5 0 15.53-5.75 4.03-14.95 2.87-23-5.18-8.05-8.04-3.45-13.8-3.45-13.8z" fill="#FFF0DB" p-id="2515"></path><path d="M677.64 365.36c21.28-7.48 22.43-13.8 14.95-20.13-7.48-6.33-21.85-9.2-21.85-9.2l-4.03-1.73s-17.26-6.9-21.85-2.87c-4.6 4.02-13.8 33.36-8.05 36.81 5.74 3.45 19.55 4.6 40.83-2.88zM729.41 449.34c-2 1.59-3.92 3.24-5.77 4.89-8.86 7.91-15.39 16.46-12.06 25.02 4.03 10.35 40.26 1.73 50.04 2.3s36.83 8.62 41.14-2.88c4.31-11.5-2.02-17.25-11.22-21.28-9.21-4.03-29.91-8.05-29.91-8.05s-4.36-1.92-10.18-3.13c-6.89-1.43-15.81-1.86-22.04 3.13z" fill="#FED136" p-id="2516"></path><path d="M155.74 635.59c10 1.4 20.67 1.31 30.13-1.61 24.16-7.48 42.56-23.01 41.41-35.66-1.09-11.93-8.9-17.15-22.32-17.23-0.81-0.01-1.56-0.06-2.41-0.03-14.95 0.58-31.64 0-31.64 0s-4.55-0.14-10.68 1.42c-6.2 1.57-14.02 4.87-20.38 11.82-10.91 11.91-22.65 19.11-20.5 25.66 0.34 1.04 1 2.07 2.1 3.1 4.89 4.54 18.76 10.35 34.29 12.53zM545.34 535.04c5.76-4.03 6.33-10.93 0-15.53-6.32-4.6-18.97-6.9-26.45-3.45 0 0-4.6 5.75 3.45 13.8 8.05 8.06 17.25 9.21 23 5.18zM732.28 418.86c14.38-1.15 22.07-3.45 25.13-14.38 0.76-2.7 0.96-5.36 0.74-7.84-0.67-7.54-5.43-13.3-11.49-12.87-8.06 0.57-18.98 0-18.98 0s-26.46 12.08-25.32 16.1c0.09 0.31 0.28 0.71 0.52 1.15 2.87 5.27 16.12 18.9 29.4 17.84z" fill="#68C145" p-id="2517"></path><path d="M337.13 463.72s-14.95 4.89-16.1 7.76c-0.34 0.87-0.42 2.09-0.13 3.42 0.72 3.08 3.76 6.73 12.21 7.94 5.95 0.85 15.37 2.45 23.63 3.65 8.5 1.24 15.75 2.05 16.63 1.17 1.73-1.73 2.88-17.15 2.88-17.15l-8.05-6.79h-31.07zM665.87 496.51c-0.13-0.18-0.32-0.38-0.49-0.57-4.77-5.39-25.26-16.1-45.26-20.07-20.71-4.1-56.36-6.97-73.62-2.95 0 0-8.2 1.37 3.38 11.9 11.57 10.53 27.1 16.28 47.24 16.28 11.23 0 21.71 3.39 31.31 6.39 7.6 2.39 14.67 4.54 21.03 4.54 14.38 0.01 20.18-10.35 16.41-15.52z" fill="#FD9847" p-id="2518"></path><path d="M352.38 585.08c5.76 0.52 13.32 0.35 21.66-0.26 28.26-2.08 65.93-9.46 77.26-14.12 14.67-6.04 40.55-25.02 42.28-37.96 1.73-12.94 0.3-33.08-32.21-35.95-32.5-2.87-59.53-3.45-70.75-2.3s-53.65 11.76-56.08 12.94c0 0-35.87 15.93-32.19 40.78 0.4 2.71 1.13 5.49 2.58 8.4 14.66 29.62 22.14 26.18 47.45 28.47z m-28.19-61.4c34.94-18.98 54.79-18.12 78.51-21.14 23.73-3.02 56.51 3.45 75.06 10.78 18.55 7.33 5.18 20.71-10.78 36.48-15.96 15.77-34.51 17.02-84.12 24.35-49.61 7.33-63.41-9.92-69.45-18.55-6.04-8.62 10.78-31.92 10.78-31.92z" fill="#CF0D12" p-id="2519"></path><path d="M313.41 555.61c6.04 8.63 19.84 25.88 69.45 18.55 49.61-7.33 68.16-8.58 84.12-24.35 15.96-15.77 29.33-29.14 10.78-36.48-18.55-7.33-51.33-13.8-75.06-10.78-23.73 3.02-43.57 2.16-78.51 21.14 0-0.01-16.82 23.29-10.78 31.92z m56.8 10.2c-13.8 2.01-27.61-3.45-26.75-8.63 0.86-5.18 42.28-18.33 42.28-18.33s-3.61 1.18 1.44 0 6.04 2.23 6.04 7.69c-0.01 5.47-9.21 17.26-23.01 19.27z m95.77-26.96c-6.04 7.26-10.93 6.83-16.1 7.69-5.18 0.86-33.36-11.5-38.54-13.52s4.89-3.74 4.89-3.74 50.04-4.89 55.79-4.89-0.01 7.2-6.04 14.46z m-54.93-28.54c4.89-2.87 21.85 0.86 27.89 2.59 6.04 1.73 4.03 4.31-4.31 8.05-8.34 3.74-27.32 7.19-28.47 3.45-1.15-3.74 6.04-14.09 6.04-14.09s-6.05 2.87-1.15 0z m-5.47 28.54c3.45 0.65 10.93 2.23 17.83 5.39 6.9 3.16 5.47 6.04 4.03 12.66-1.44 6.62-18.41 5.18-23.87 3.45s-4.13-21.5-4.13-21.5 2.69-0.65 6.14 0z m-28.18-26.53c4.83-1.06 15.53-2.59 20.6 0 5.07 2.59 0.68 8.92 0 12.08s-1.33 4.31-9.38 1.61c-8.05-2.7-20.13-4.77-21.57-8.38-1.45-3.6 10.35-5.31 10.35-5.31z m-42.86 16.97c4.6-3.16 45.15 0 45.15 0s1.44 1.15-1.73 2.87-8.34 2.88-16.97 5.18-26.46 14.38-35.66 12.84c-9.19-1.54 4.62-17.72 9.21-20.89z" fill="#F43A30" p-id="2520"></path><path d="M387.17 538.85c-5.05 1.18-1.44 0-1.44 0s-41.41 13.15-42.28 18.33c-0.86 5.18 12.94 10.64 26.75 8.63s23-13.8 23-19.27c0.01-5.46-0.98-8.86-6.03-7.69zM403.57 560.35c5.47 1.73 22.43 3.16 23.87-3.45 1.44-6.62 2.87-9.49-4.03-12.66-6.9-3.16-14.38-4.74-17.83-5.39-3.45-0.65-6.15 0-6.15 0s-1.33 19.77 4.14 21.5zM411.33 533.03c5.18 2.02 33.36 14.38 38.54 13.52 5.18-0.86 10.06-0.43 16.1-7.69 6.04-7.26 11.79-14.45 6.04-14.45s-55.79 4.89-55.79 4.89-10.07 1.71-4.89 3.73zM406.15 524.4c1.15 3.74 20.13 0.29 28.47-3.45s10.35-6.33 4.31-8.05c-6.04-1.73-23-5.46-27.89-2.59-4.89 2.87 1.15 0 1.15 0s-7.19 10.35-6.04 14.09zM388.62 526.01c8.05 2.7 8.7 1.55 9.38-1.61 0.68-3.16 5.07-9.49 0-12.08s-15.77-1.06-20.6 0c0 0-11.8 1.71-10.35 5.31 1.43 3.61 13.51 5.68 21.57 8.38zM325.34 550.18c9.2 1.54 27.04-10.54 35.66-12.84s13.8-3.45 16.97-5.18 1.73-2.87 1.73-2.87-40.56-3.16-45.15 0c-4.6 3.17-18.41 19.35-9.21 20.89z" fill="#E60E15" p-id="2521"></path><path d="M399.18 458.88c33.5 5.84 113.31-1.9 133.53-8.35 20.22-6.45 56.82-28.93 60.54-46.01 1.21-5.58 2.04-12.22 1.12-18.88-1.87-13.74-11.17-27.62-40.15-32.59-12.73-2.19-24.82-4.04-35.96-5.58-26.52-3.65-47.53-5.45-58.15-5.23-15.09 0.3-72.84 9.81-76.22 11.12 0 0-5.5 1.92-12.74 5.69-14.95 7.77-37.34 23.48-34.65 46.82 0.36 3.15 1.14 6.43 2.5 9.85 16.32 41.1 26.68 37.32 60.18 43.16z m76.16-104.59c31.98-1.43 75 10.79 98.94 22.6 23.94 11.81 4.64 28.18-18.38 47.47s-47.89 18.92-114.86 23.27c-66.97 4.35-83.5-20.18-90.61-32.34-7.11-12.17 17.88-41.4 17.88-41.4 48.68-21.49 75.06-18.17 107.03-19.6z" fill="#CF0D12" p-id="2522"></path><path d="M350.43 415.29c7.11 12.17 23.64 36.69 90.61 32.34 66.97-4.35 91.84-3.98 114.86-23.27 23.02-19.29 42.32-35.66 18.38-47.47-23.94-11.82-66.96-24.03-98.94-22.6-31.98 1.43-58.35-1.89-107.04 19.6 0.01 0-24.98 29.23-17.87 41.4z m107.44-3.35c-0.59 7.29-14.15 22.01-32.79 23.18-18.64 1.18-36.45-7.62-34.73-14.43 1.72-6.81 58.39-19.82 58.39-19.82s-4.95 1.17 1.91 0.16c6.87-1.02 7.82 3.63 7.22 10.91z m107.53-20.91c7.67 0.63-0.78 9.59-9.64 18.62-8.85 9.03-15.33 7.91-22.32 8.49-7 0.59-43.23-18.99-49.92-22.25-6.69-3.26 6.93-4.45 6.93-4.45s67.28-1.04 74.95-0.41z m-78.24-25.34s-8.38 3.17-1.54-0.12c6.83-3.3 29.05 3.54 36.92 6.5 7.87 2.96 4.9 6.19-6.64 10.27-11.53 4.07-37.23 6.6-38.35 1.48-1.12-5.11 9.61-18.13 9.61-18.13z m11.24 46.49c8.86 4.97 6.63 8.66 3.98 17.32-2.65 8.67-25.11 4.89-32.22 1.99-7.1-2.9-3.15-29.12-3.15-29.12s3.66-0.57 8.2 0.67c4.54 1.25 14.34 4.17 23.19 9.14z m-57.88-47.62c6.57-0.88 21-1.75 27.48 2.25 6.48 4.01-0.06 11.97-1.32 16.11-1.25 4.14-2.24 5.61-12.69 1.12-10.45-4.48-26.33-8.57-27.85-13.53-1.53-4.96 14.38-5.95 14.38-5.95z m-59.02 17.95c6.48-3.72 60.23 4.94 60.23 4.94s1.79 1.69-2.62 3.65c-4.4 1.95-11.44 2.93-23.2 5.05-11.76 2.12-36.86 16.28-48.97 13.22-12.09-3.06 8.09-23.14 14.56-26.86z" fill="#F43A30" p-id="2523"></path><path d="M450.65 401.02c-6.86 1.01-1.91-0.16-1.91-0.16s-56.67 13.02-58.39 19.82c-1.72 6.81 16.1 15.61 34.73 14.43 18.63-1.17 32.19-15.89 32.79-23.18 0.6-7.27-0.35-11.92-7.22-10.91zM467.01 402.37s-3.94 26.22 3.15 29.12c7.1 2.9 29.57 6.68 32.22-1.99 2.64-8.66 4.87-12.35-3.98-17.32-8.86-4.97-18.66-7.89-23.19-9.14-4.54-1.25-8.2-0.67-8.2-0.67zM490.45 391.45s-13.62 1.19-6.93 4.45c6.69 3.26 42.92 22.83 49.92 22.25 7-0.58 13.47 0.53 22.32-8.49 8.86-9.03 17.31-17.99 9.64-18.62-7.67-0.64-74.95 0.41-74.95 0.41zM515.91 382.34c11.54-4.08 14.5-7.31 6.64-10.27-7.87-2.96-30.09-9.8-36.92-6.5-6.84 3.3 1.54 0.12 1.54 0.12s-10.73 13.02-9.61 18.13c1.12 5.12 26.82 2.59 38.35-1.48zM453.98 384.05c10.45 4.49 11.44 3.02 12.69-1.12 1.26-4.14 7.8-12.1 1.32-16.11-6.48-4.01-20.91-3.14-27.48-2.25 0 0-15.91 0.98-14.38 5.95 1.53 4.96 17.41 9.05 27.85 13.53zM366.95 409.37c12.11 3.06 37.21-11.1 48.97-13.22 11.76-2.12 18.8-3.09 23.2-5.05 4.41-1.95 2.62-3.65 2.62-3.65s-53.75-8.66-60.23-4.94c-6.48 3.72-26.66 23.8-14.56 26.86z" fill="#E60E15" p-id="2524"></path><path d="M382 330.28s48.89-46.59 96.06-47.17c47.16-0.58 173.13 1.72 194.41-4.03s80.52 16.68 88 33.36c7.48 16.68 47.16 55.79 60.97 59.24 13.8 3.45 28.76 13.23 30.49 25.88 1.73 12.65 13.8 50.04 13.8 50.04s-16.68-24.74-21.86-33.94-21.29-17.25-32.21-26.46c-10.93-9.2-52.43-31.93-55.79-45.44-3.96-15.89-45.15-37.23-67.87-39.69-7.52-0.81-36.82-4.02-69.02-2.87-32.21 1.15-84.56-3.45-100.66-0.58-16.1 2.87-86.85 17.26-93.75 18.98-6.9 1.73-24.77 12.36-32.23 19.7-0.03 0.01-0.04 0.02-0.07 0.03 18.36-7.9 41.01-17.42 50.12-20.3 16.39-5.18 232.95-10.35 247.61-6.9 7.41 1.74 19.21 4.59 29.86 9.2 9.36 4.05 17.79 9.47 21.6 16.7 0.44 0.84 0.86 1.69 1.17 2.57 3.07 8.77 12.82 17.52 23.02 24.94 9.88 7.17 20.19 13.08 25.29 16.48 10.35 6.9 18.98 12.94 27.61 17.26s24.16 22.43 29.33 33.65c1.25 2.71 2.82 5.73 4.77 8.78 6.09 9.56 15.98 19.46 32.33 21.42 1.43 0.17 3.01 0.31 4.67 0.45 9.99 0.77 23.65 0.8 36.07 0.58l14.48-27.77s-12.08-77.65-45.73-105.26-84.55-70.75-113.89-79.37c-29.33-8.63-125.96-31.06-141.49-31.06-15.53 0-59.53-6.9-77.65 0-18.12 6.9-37.96 17.26-43.14 20.71-5.18 3.45-8.63 12.08-32.79 11.22-24.16-0.86-67.3 7.76-67.3 7.76s-47.45 49.18-43.14 67.3c0.53 2.22 0.98 4.21 1.39 6.03 0.22 0.94 0.38 1.71 0.55 2.55 0.15 0.67 0.31 1.44 0.44 2.05l4.55-6.04z m429.22-41.7c7.76 3.88 32.79 17.26 37.1 24.59s32.35 40.55 40.98 50.47 15.53 10.78 23.29 27.61c7.76 16.82-3.88 25.02-8.63 28.9-4.75 3.88-6.9 6.04-9.49-3.88s-12.51-36.67-18.12-48.75c-5.61-12.08-41.84-47.02-52.2-59.1-10.35-12.08-62.98-40.98-62.98-40.98s42.29 17.26 50.05 21.14z m-221.73-53.92l32.35 5.61 24.16 2.59h65.14l5.07 9.15s-50.15 2.53-91.13-3.08-42.06-12.47-42.06-12.47l6.47-1.8z m-37.96 15.09l4.75-6.9h13.8l-3.88 6.04-0.86 7.76h-9.06s-3.88 0-4.75-1.73c-0.86-1.72 0-5.17 0-5.17z" fill="#FED9A8" p-id="2525"></path><path d="M392.27 337.35c0.03-0.01 0.04-0.02 0.07-0.03 7.45-7.34 25.32-17.97 32.23-19.7 6.9-1.73 77.65-16.11 93.75-18.98 16.1-2.87 68.45 1.73 100.66 0.58 32.21-1.15 61.5 2.06 69.02 2.87 22.71 2.46 63.91 23.8 67.87 39.69 3.36 13.51 44.86 36.24 55.79 45.44 10.93 9.2 27.04 17.26 32.21 26.46 5.18 9.2 21.86 33.94 21.86 33.94s-12.08-37.39-13.8-50.04c-1.73-12.65-16.68-22.43-30.49-25.88-13.8-3.45-53.49-42.57-60.97-59.24-7.48-16.68-66.72-39.11-88-33.36-21.29 5.75-147.25 3.45-194.41 4.03-47.16 0.58-96.39 47.17-96.39 47.17l-4.85 6.02v0.06c0 1.32 0.84 2.48 1.04 3.54 0.01 0.1 0.21 0.24 0.24 0.34 0.09 0.55 0.26 0.96 0.34 1.45 0.08 0.5 0.23 1.08 0.3 1.51 3.96-1.75 8.62-3.76 13.53-5.87z" fill="#FECF8F" p-id="2526"></path><path d="M556.28 256.66h9.06l0.86-7.76 3.88-6.04h-13.8l-4.75 6.9s-0.86 3.45 0 5.18c0.86 1.72 4.75 1.72 4.75 1.72zM625.08 248.93c40.98 5.61 91.13 3.08 91.13 3.08l-5.07-9.15H646l-24.16-2.59-32.35-5.61-6.47 1.8c0-0.01 1.08 6.86 42.06 12.47zM824.17 308.42c10.35 12.08 46.59 47.02 52.2 59.1 5.61 12.08 15.53 38.82 18.12 48.75 2.59 9.92 4.75 7.76 9.49 3.88 4.75-3.88 16.39-12.08 8.63-28.9s-14.67-17.69-23.29-27.61-36.67-43.14-40.98-50.47-29.33-20.71-37.1-24.59c-7.76-3.88-50.04-21.14-50.04-21.14s52.61 28.9 62.97 40.98z" fill="#E7AA5A" p-id="2527"></path></svg>