<?xml version="1.0" standalone="no"?><!DOCTYPE svg PUBLIC "-//W3C//DTD SVG 1.1//EN" "http://www.w3.org/Graphics/SVG/1.1/DTD/svg11.dtd"><svg t="1607840014877" class="icon" viewBox="0 0 1024 1024" version="1.1" xmlns="http://www.w3.org/2000/svg" p-id="2809" xmlns:xlink="http://www.w3.org/1999/xlink" width="200" height="200"><defs><style type="text/css"></style></defs><path d="M933.12 383.94c0.24-3.25 0.51-5.37 0.74-6.56 0.47-2.41 1.41-7.45 2.63-13.93 3.75-19.99 11.55-61.58 13.56-69.13 3.76-14.22 7.58-32.9 4.38-41.09-3.1-7.98-10.15-12.94-18.39-12.94-3.2 0-6.37 0.75-9.25 2.15-0.5 0.23-6.54 3.07-14.28 6.74-0.45-8.52-2.2-15.87-4.4-19.53-4.28-7.14-9.95-10.76-16.84-10.76-4.83 0-8.62 1.9-11.07 3.35-1.74 1.03-42.63 25.24-54.91 33.74-7.53 5.21-22.69 21.52-33.51 37.92-1.55-2.37-3.33-4.38-5.39-6.01-3.3-2.68-20.7-21.02-34.93-36.48l-0.94-1.02c-0.59-16.86-15.3-45.39-22.17-53.17-7.09-8.03-31.23-31.44-32.25-32.43-4.82-4.68-9.77-5.66-13.07-5.66-3.82 0-9.45 1.29-14.51 7.4-4.2 5.06-6.95 17.32-8.17 36.46-0.25 3.96-2.08 18.23-4.04 32.9-3.16-7.69-6.08-13.59-6.28-13.98l-5.9-11.79-51.06 18.76 14.63 16.19c2.77 3.07 7.42 9.36 10.56 15.84-18.16 3.64-38.95 9.42-64.09 17.8a79.76 79.76 0 0 0-12.17 5.22l-0.85-2.34-11.75 9.51c-6.61-12.22-17.87-24.3-33.88-36.08-16.99-12.5-29.81-18.07-41.57-18.07-7.19 0-12.42 2.14-15.89 3.55-0.8 0.32-1.53 0.7-2.33 0.88-2.63 0.52-5.33 1.69-8.11 3.5-0.19-0.46-0.38-0.83-0.55-1.16-2.72-5.45-6.28-8.38-8.88-10.53-1.5-1.23-2.58-2.13-3.89-3.76-13.89-17.36-23.56-28.27-28.73-32.4-2.4-1.93-6.54-4.22-12.62-4.22-8.05 0-16.57 3.93-27.36 8.92-6.63 3.06-13.48 6.23-19.54 8.04-21.96 6.58-39.83 17.01-53.13 30.98-3.74 3.92-10.94 11.6-14.76 58.6-10.7-5.13-30.59-11.24-54.95-18.5-7.85-2.34-15.96-4.76-19.09-5.88-6.12-4.22-29.15-27.3-43.03-41.22-20.84-20.9-29.82-29.74-34.66-33.07-5.79-3.98-12.09-7.66-18.95-7.66-7.5 0-16.34 4.51-18.65 17.17-1.67 9.17 3.5 18.8 14.87 37.11 1.66 2.68 3.95 6.35 4.26 6.95 0.37 0.99 1.53 4.05 59.97 147.08-5.31 9-8.08 18.3-8.08 27.74 0 3.17 0.43 6.45 1.19 10.07 9.21 159.57 80.23 305.6 190.13 390.79l1.41 1.09 0.22 0.1c9.54 7.31 19.43 14.14 29.49 20.49 1.44 0.91 2.84 1.91 4.29 2.8l0.04 0.03c0.01 0 0.01 0.01 0.02 0.01l1.42 0.87c3.9 2.37 7.83 4.68 11.78 6.88l1.14 0.62c3.69 2.05 7.48 4.06 11.34 6.02 0.04 0.02 0.09 0.05 0.13 0.07 3.78 1.92 7.59 3.78 11.42 5.56 0.01 0.01 0.03 0.01 0.04 0.02l2.55 1.2c2.14 0.98 4.31 1.88 6.46 2.8 7.63 9.82 24.89 27.46 56.94 39.29 19.17 7.08 43.79 10.66 73.18 10.66 17.45 0 35.91-1.22 56.43-3.72 26.97-3.29 56.78-17.14 69.36-32.23 2.58-3.1 5.16-6.99 7.84-11.8 156.94-64.66 265.46-237.18 277.21-441.61 0.75-3.58 1.17-6.84 1.17-9.99-0.01-15.94-7.41-31.09-21.93-45.15z" p-id="2810"></path><path d="M529.97 891.41c-1.72-0.09-3.43-0.22-5.15-0.34-4.33-0.31-8.63-0.71-12.92-1.18-1.64-0.18-3.29-0.34-4.93-0.55-5.46-0.7-10.9-1.52-16.29-2.49-1.75-0.32-3.48-0.71-5.22-1.05-3.75-0.74-7.49-1.54-11.2-2.41-2.35-0.55-4.69-1.13-7.02-1.73-3.2-0.83-6.36-1.72-9.53-2.65a327.69 327.69 0 0 1-10.65-3.3c-3.32-1.09-6.63-2.19-9.91-3.39-3.04-1.11-6.05-2.3-9.05-3.49-1.89-0.75-3.77-1.51-5.65-2.3 4.11 6.01 19.21 25.1 52.51 37.39 39.94 14.74 97.54 9.21 122.72 6.14s50.6-15.97 59.82-27.03c3-3.6 5.97-8.7 8.62-13.93-37.46 14.77-77.3 22.84-118.67 22.84-5.87 0-11.68-0.21-17.48-0.53z" fill="#A1A1A1" p-id="2811"></path><path d="M410.08 861.07zM374.33 841.86a379.59 379.59 0 0 1-34.11-23.58c11.02 8.54 22.4 16.41 34.11 23.58zM387.04 849.31c-3.81-2.13-7.59-4.34-11.33-6.61 3.74 2.28 7.51 4.49 11.33 6.61zM422.3 866.47c-3.26-1.37-6.52-2.75-9.73-4.22 3.22 1.47 6.47 2.86 9.73 4.22zM589.53 852.32c82.32-2.46 136.38-51.6 169.55-100.75 28.69-42.5 40.83-193.3 43.59-233.35-68.67 17.55-157.77 28.17-255.23 28.17-207.62 0-377.51-48.12-391.77-109.04 9.03 160.91 80.51 300.3 184.52 380.91 14.68 6.54 30.21 13.37 44.14 19.31 43.2 18.43 122.88 17.21 205.2 14.75zM467.24 881.65c2.33 0.6 4.67 1.18 7.02 1.73-2.35-0.55-4.69-1.12-7.02-1.73zM447.05 875.71c3.53 1.16 7.08 2.26 10.65 3.3-3.56-1.05-7.12-2.14-10.65-3.3zM506.97 889.33c1.64 0.21 3.29 0.37 4.93 0.55-1.64-0.18-3.3-0.33-4.93-0.55zM524.82 891.07c1.71 0.12 3.43 0.25 5.15 0.34-1.72-0.09-3.43-0.22-5.15-0.34zM485.46 885.79c1.74 0.34 3.47 0.73 5.22 1.05-1.75-0.32-3.48-0.71-5.22-1.05zM428.09 868.83c3 1.19 6.01 2.38 9.05 3.49-3.04-1.11-6.05-2.3-9.05-3.49z" fill="#D3D3D3" p-id="2812"></path><path d="M802.67 518.22c-2.76 40.05-14.9 190.86-43.59 233.35-33.17 49.14-87.23 98.29-169.55 100.75-82.32 2.46-162 3.68-205.18-14.74-13.93-5.94-29.47-12.77-44.14-19.31 0.01 0 0.01 0.01 0.02 0.01a378.17 378.17 0 0 0 34.11 23.58c0.45 0.28 0.91 0.56 1.37 0.84 3.74 2.27 7.52 4.48 11.33 6.61 0.36 0.2 0.72 0.39 1.08 0.59 7.21 4 14.53 7.71 21.96 11.17 0.84 0.38 1.66 0.8 2.49 1.18 3.22 1.47 6.47 2.85 9.73 4.22 0.04 0.02 0.09 0.04 0.14 0.06 1.88 0.79 3.76 1.54 5.65 2.3 3 1.19 6.01 2.38 9.05 3.49 3.28 1.2 6.59 2.3 9.91 3.39 3.53 1.16 7.08 2.25 10.65 3.3 3.17 0.93 6.34 1.82 9.53 2.65 2.33 0.6 4.67 1.18 7.02 1.73 3.71 0.87 7.45 1.67 11.2 2.41 1.74 0.34 3.47 0.73 5.22 1.05 5.39 0.98 10.83 1.8 16.29 2.49 1.63 0.21 3.29 0.36 4.93 0.55 4.29 0.48 8.6 0.88 12.92 1.18 1.71 0.12 3.43 0.25 5.15 0.34 5.8 0.32 11.61 0.53 17.47 0.53 41.37 0 81.21-8.07 118.67-22.84 150.49-59.33 261.69-228.37 273.1-431.75-7.56 32.33-58.92 61.04-136.53 80.87z" fill="#B8B8B8" p-id="2813"></path><path d="M520.79 320.14c2.08-2.81 4.51-5.57 7.15-8.26-2.53 0.04-5.04 0.11-7.57 0.16 0.27 2.04 0.35 3.8 0.35 5.22 0 0.75 0.03 1.76 0.07 2.88zM918.03 390.11c-0.2 6.3-0.17 12.77-0.14 17.7 3 5.13 4.59 10.37 4.59 15.73 0 17.66-17 34.26-46.79 48.69l-0.01 0.04s-0.58 0.26-1.48 0.66c-16.75 7.97-37.7 15.28-61.6 21.71-0.12 0.03-0.7 0.06-0.7 0.1v0.03c-7.37 1.42-8.47 3.36-12.3 4.26-3.12 0.78-5.95 3.15-9.16 3.15h-0.02c-0.57 0-2.81-0.31-3.4-0.17l0.01-0.49c-1.87 0.4-3.71 0.58-5.59 0.94-0.45 0.09-1.55 0.07-2.01 0.16-21.6 4.6-41.24 8.47-70.73 11.72v0.05s-1.23 0.2-4.2 0.53c-28.59 3.57-58.83 6.19-90.77 7.74-18.58 1.16-40.51 2.15-54.98 1.56-4.02 0.04-7.95 0.08-12 0.08-29.44 0-58-0.94-85.49-2.66-24.01-1.26-48.02-3.15-66.68-5.96-0.35-0.05 0.3-0.09-0.04-0.14-11.4-1.37-24.94-2.88-32.32-4.54v0.03s-2.97-0.31-6.46-0.89c-10.94-1.75-21.99-4.74-32.17-6.77-0.3-0.05-0.71-1.19-0.71-1.19h-0.11c-55.53-7.37-99.21-25.11-125.12-42.64-7.34-4.62-12.33-8.11-14.15-10.74 0 0-0.09 0.08-0.14-0.02-7.93-8.15-12.18-16.55-12.18-25.37 0-1.17 0.17-2.25 0.33-3.41-2.15-5.24-4.5-10.95-7.01-17.1-6.41 8.41-9.91 17.17-9.91 26.16 0 2.79 0.45 5.56 1.09 8.3 14.25 60.92 184.14 109.04 391.77 109.04 97.46 0 186.56-10.62 255.22-28.17 77.61-19.84 128.98-48.54 136.54-80.86 0.64-2.74 1.09-5.5 1.09-8.29 0-13.68-7.9-26.78-22.27-38.97z" fill="#E5E5E5" p-id="2814"></path><path d="M899.13 454.81s-8.11 4.7-20.81 10.95c-1.55 3.86-2.59 6.36-2.63 6.46 29.78-14.43 46.79-31.03 46.79-48.69 0-5.35-1.59-10.6-4.59-15.73 0.03 2.9 0.06 5.3 0.04 6.72-0.04 6.1-18.8 40.29-18.8 40.29zM171.51 420.05c-0.15 1.16-0.33 2.31-0.33 3.48 0 8.82 4.25 17.36 12.17 25.51-0.58-1.43-5.12-12.55-11.84-28.99zM323.13 504.47c10.18 2.03 20.78 3.91 31.72 5.66-4.82-0.8-12.55-2.16-22.24-4.08-5.68-0.92-8.48-1.41-9.48-1.58zM709.85 514.32c25.08-3.25 48.55-7.24 70.15-11.84-19.91 3.84-51.13 8.54-70.18 11.31 0.02 0.31 0.03 0.5 0.03 0.53zM648.09 520.13h0zM558.59 524.28c-12.75 0-54.96-0.38-97.29-2.61 27.49 1.72 56.09 2.68 85.52 2.68 4.05 0 8.06-0.06 12.07-0.06-0.09-0.01-0.2-0.01-0.3-0.01zM360.39 510.98c10.76 1.65 21.85 3.17 33.24 4.54a7505.5 7505.5 0 0 1-33.38-5.1l0.14 0.56zM693.34 516.15c-12.84 1.33-30.81 3.06-45.23 3.98 0 0 0 0.1-0.02 0-0.11 0.01-15.29 1.34-34.07 2.51 31.94-1.55 62.47-4.17 91.06-7.74-2.9 0.32-6.93 0.76-11.74 1.25zM247.42 483.66c0.01 0.01 0.01 0.03 0.02 0.04-0.16-0.07-0.32-0.13-0.48-0.2-1.97-0.69-3.95-1.36-5.9-2.07-17.96-6.58-33.1-14.27-43.47-20.8 25.91 17.52 69.53 32.65 125.06 43.74-0.01 0-0.06-0.13-0.15-0.39-21.45-4.52-49.05-11.28-75.08-20.32zM874.2 472.92c-5.9 2.61-30.21 12.97-61.26 21.71 23.91-6.43 44.51-13.74 61.26-21.71z" fill="#A0A1A1" p-id="2815"></path><path d="M686.2 272.7l-3.49-10.58 5.12 10.85c2.63 0.44 5.28 0.94 7.95 1.5l-1.79-45.12 5.77 45.99c11.32 2.61 22.68 6.26 32.99 10.73 0.76-9.78 2.17-27.04 3.02-33.61 1.22-9.4-11.69-37.79-18.49-45.48-6.79-7.69-31.46-31.61-31.46-31.61-2.28-2.21-3.89-1.94-5.98 0.58-2.1 2.52-4.2 18.55-4.79 27.95-0.5 7.95-6.14 48.82-8.62 67.01 2.43 0.07 4.9 0.08 7.27 0.27 4.03 0.33 8.23 0.85 12.5 1.52zM768.57 310.46c2.03 1.91 3.98 3.75 5.87 5.54 0.6 0.57 1.17 1.13 1.74 1.68 1.28 1.23 2.55 2.46 3.75 3.66 0.68 0.68 1.34 1.37 2 2.06 0.69 0.72 1.42 1.44 2.09 2.16 0.06-13.43-2.56-22.73-6.82-26.13-5.9-4.69-36.59-38.02-36.59-38.02l-6.68 25.17c11.33 5.03 21.27 11.05 28.23 17.78 2.19 2.13 4.33 4.15 6.41 6.1z" fill="#80C861" p-id="2816"></path><path d="M686.2 272.7c0.54 0.09 1.09 0.19 1.63 0.28l-5.12-10.85 3.49 10.57zM695.77 274.47c1.32 0.28 2.65 0.57 3.98 0.88l-5.77-45.99 1.79 45.11z" fill="#B7F29F" p-id="2817"></path><path d="M889.05 344.07l16.39-32.81-16.05 43.42c-0.39 5.9-0.55 10.9-0.8 14.71l17.85-18.61-18.11 24.36c-0.84 12.86 3.74 39.22 4.65 46.23 0.7 5.37-9.65 31.92-14.66 44.38 12.7-6.25 20.8-10.95 20.8-10.95s18.76-34.19 18.81-40.29c0.01-1.42-0.01-3.82-0.04-6.72-0.04-4.93-0.06-11.4 0.14-17.7 0.19-5.88 0.58-11.56 1.35-15.53 2.08-10.73 13.65-73.65 16.41-84.03 2.75-10.38 6.25-28.49 4.89-31.97-1.35-3.48-4.39-4.36-7.65-2.78 0 0-25.3 11.86-40.04 19.18v0.05c0 8.11-2.18 42.48-3.94 69.06z" fill="#458C2A" p-id="2818"></path><path d="M890.43 344.07c-0.24 3.71-0.48 7.29-0.7 10.61l16.39-43.42-15.69 32.81zM906.53 350.79l-17.77 18.61c-0.15 2.27-0.29 4.23-0.37 5.46-0.01 0.09-0.01 0.21-0.01 0.3l18.15-24.37z" fill="#79C65B" p-id="2819"></path><path d="M784.9 326.58zM789.36 331.9c0.58 0.74 1.14 1.49 1.68 2.25-0.54-0.76-1.11-1.51-1.68-2.25zM524.41 320.31c0-4.95 6.28-9.84 11.75-14.26 4.16 11.44 7.01 26.5 8.21 43.15 1.84 25.8-0.45 51.6-0.45 51.6s12.67 21.5 16.97 27.64c4.3 6.14 12.79 33.17 12.79 33.17s4.25-3.69 9.78-4.85c3.41-0.72 16.39-0.55 25.85-0.31-1.17-8.95-4.78-36.48-5.17-39.76-0.46-3.92-8.3-32.5-8.3-32.5l-28.11-19.8 11.31-5.54 11.27-5.52s16.13 17.26 20.27 20.84c4.15 3.58 32.71 26.16 42.39 48.27 2.97 6.77 6.03 14.37 8.86 22.22 10.73 1.19 22.32 4.51 22.32 4.51s-1.22-36.1 0-57.04c0.85-14.48 28.42-32.11 49.83-44.86-6.82-5.08-6.37-13.42-6.37-13.42 6.9-4.06 14.4-0.94 20.76 4.89 3.17-1.91 5.83-3.58 7.65-4.91 7.16-5.21 10.68-15.23 12.42-23.51 0.04 0.04 0.09 0.08 0.14 0.13-2.07-1.95-4.21-3.97-6.41-6.1-6.96-6.73-16.9-12.75-28.23-17.78-0.39-0.17-0.79-0.33-1.18-0.5-10.31-4.47-21.68-8.12-32.99-10.73a197.452 197.452 0 0 0-11.93-2.38c-0.54-0.09-1.09-0.19-1.63-0.28-4.27-0.67-8.47-1.18-12.5-1.51-2.37-0.19-4.84-0.2-7.27-0.27-5.3-0.14-10.71-0.09-16.38 0.33 0.44 9.14-0.32 17.14-0.32 17.14h25.34l-14.74 8.53 19.81 9.9-26.72-2.45 5.08 35.15-19.8-32.68-32.24 32.69 17.07-37.73-22.53-5.49 35.56-7.29s0.16 0.05-0.26-16.28c-22.29 3.16-47.61 10-77.47 19.95-13.28 4.42-21.44 11.42-29.06 19.19-2.64 2.69-5.34 5.45-5.34 8.26-0.03 0.07-0.03 0.13-0.03 0.19z m171.85 10.7c-8.29-6.67-2.76-15.6-2.76-15.6 5.07-4.3 10.14-6.3 16.59-3.99s4.61 9.68 4.61 14.74c-0.01 5.07-10.15 11.52-18.44 4.85zM779.93 321.35c0.68 0.69 1.34 1.37 2 2.06-0.67-0.69-1.32-1.38-2-2.06zM774.43 316c0.6 0.57 1.16 1.12 1.74 1.68-0.57-0.55-1.14-1.11-1.74-1.68z" fill="#FEBC54" p-id="2820"></path><path d="M557.12 446.42c4.77 18.12 7.67 30.8 8.87 41.44 1.33-1.76 2.89-3.25 4.72-4.35 11.98-7.15 23.65-10.83 37.02-9.81l1.92-14.38s-0.14-1.11-0.37-2.86c-9.46-0.24-22.47-0.4-25.88 0.31-5.53 1.16-9.83 4.85-9.83 4.85s-8.6-27.03-12.9-33.17c-4.3-6.14-17.2-27.64-17.2-27.64s1.84-25.8 0-51.6c-1.19-16.65-4.95-31.72-9.11-43.15-5.46 4.42-9.88 9.31-13.56 14.26 0.42 10.86 2.56 36.5 4.23 44.25 1.84 8.6 2.45 23.34 0 44.23-0.01 0.06-0.01 0.14-0.01 0.21 13.43 6.92 27.1 18.42 32.1 37.41zM685.66 468.99c3.21 1.5 7.54 3.77 11.55 6.9 1.49-16.33 3.02-34.36 3.82-47.44 1.84-30.41 10.45-50.37 20.27-54.98 3.53-1.66 12.77-7.34 23.12-13.93-3.78-5.89-7.7-10.22-10.38-12.18-0.03-0.02-0.05-0.05-0.08-0.07-21.41 12.75-48.98 30.38-49.83 44.86-1.22 20.94 0 57.04 0 57.04s-11.58-3.32-22.32-4.51c2.55 7.05 4.87 14.28 6.72 21.42 7.13 0.31 13.84 1.35 17.13 2.89zM779.93 321.35c-1.2-1.2-2.47-2.43-3.75-3.66-0.58-0.56-1.14-1.11-1.74-1.68-1.89-1.79-3.84-3.63-5.87-5.54-0.05-0.04-0.09-0.08-0.14-0.13-1.74 8.29-5.26 18.31-12.42 23.51-1.82 1.32-4.49 2.99-7.65 4.91 3.71 3.41 7.03 7.72 9.61 12.1 14.19-9.19 26.92-17.62 26.92-17.62l3.07 43.61s3.05-22.89 5-39.82a59.59 59.59 0 0 0-1.9-2.88c-0.54-0.76-1.11-1.5-1.68-2.25a91.16 91.16 0 0 0-2.53-3.13c-0.63-0.73-1.26-1.46-1.92-2.19-0.3-0.34-0.58-0.68-0.89-1.02-0.67-0.71-1.4-1.44-2.09-2.16-0.69-0.68-1.34-1.36-2.02-2.05z" fill="#FDB13C" p-id="2821"></path><path d="M636.54 289.02l-35.56 7.29 22.53 5.49-17.07 37.73 32.24-32.69 19.8 32.68-5.08-35.15 26.72 2.45-19.81-9.9 14.74-8.53h-25.34s0.76-8 0.32-17.14c-0.24-5.08-0.84-10.5-2.16-15.11-3.69-12.9-11.06-27.64-11.06-27.64l-18.2 6.69s17.16 19 17.62 36.51c0.01 0.4 0.01 0.67 0.03 1.05 0.44 16.32 0.28 16.27 0.28 16.27z" fill="#638554" p-id="2822"></path><path d="M714.69 326.17c0-5.07 1.84-12.44-4.61-14.74s-11.52-0.31-16.59 3.99c0 0-5.53 8.92 2.76 15.6 8.3 6.66 18.44 0.21 18.44-4.85zM744.42 359.54c4.43-2.82 9.04-5.78 13.54-8.69-2.58-4.38-5.9-8.69-9.61-12.1-6.36-5.82-13.87-8.94-20.76-4.89 0 0-0.45 8.35 6.37 13.42 0.03 0.02 0.05 0.05 0.08 0.07 2.68 1.97 6.6 6.3 10.38 12.19z" fill="#FEE59E" p-id="2823"></path><path d="M607.8 389.35c5.52 8.23 28.57 48.24 35.38 81.28 0.76-0.59 1.55-1.16 2.4-1.64 4.59-2.55 14.11-3.29 22.96-2.9-1.86-7.13-4.18-14.36-6.72-21.42-2.84-7.85-5.9-15.45-8.86-22.22-9.68-22.12-38.24-44.69-42.39-48.27-4.15-3.58-20.27-20.84-20.27-20.84l-11.27 5.52c8.57 8.26 24.16 23.63 28.77 30.49z" fill="#FDE656" p-id="2824"></path><path d="M607.73 473.69c2.57 0.19 5.19 0.5 7.9 1.06 7.11 1.46 13.67 3.27 18.96 6.75 1.46-2.92 4.28-7.57 8.58-10.87-6.81-33.04-29.85-73.05-35.38-81.28-4.61-6.86-20.2-22.23-28.77-30.48l-11.31 5.54 28.1 19.8s7.83 28.58 8.29 32.5c0.39 3.28 3.99 30.81 5.15 39.76 0.23 1.75 0.37 2.86 0.37 2.86l-1.89 14.36z" fill="#FFED82" p-id="2825"></path><path d="M693.34 516.15c4.81-0.5 8.26-0.93 11.16-1.25 2.97-0.32 4.2-0.53 4.2-0.53v-0.05c0-0.04 0.56-0.22 0.55-0.53-9.84 1.44-15.9 2.36-15.91 2.36zM668.54 466.09c-8.85-0.4-18.37 0.35-22.96 2.9-0.86 0.48-1.64 1.05-2.4 1.64-4.31 3.3-7.12 7.95-8.58 10.87 7.22 4.75 12.07 11.01 12.6 25.5 0.67 9.51 0.85 9.91 0.9 9.91h0.02c14.42 0 32.39-1.04 45.23-2.37 0 0 1.89-17.82 3.87-39.46-4.01-3.13-8.34-4.99-11.55-6.49-3.3-1.54-10.01-2.18-17.13-2.5z" fill="#652F7E" p-id="2826"></path><path d="M648.09 520.13c-0.05-0.26-0.23-2.01-0.9-11.52-0.53-14.49-5.38-22.37-12.6-27.11-5.29-3.48-11.85-5.29-18.96-6.75-2.71-0.56-5.33-0.86-7.9-1.06-13.37-1.02-25.04 2.66-37.02 9.81-1.84 1.1-1.89 2.59-3.21 4.35 0.95 8.52 1.14 15.74 1.14 23.37v0.06c0 1.25-1.92 2.54-2.17 3.82-2.3 8.29-3.93 9.17-3.93 9.17h-3.94 0.3c14.47 0 36.54-0.44 55.12-1.6 18.78-1.15 33.96-2.53 34.07-2.54zM648.11 516.91h-0.02 0.02z" fill="#88579F" p-id="2827"></path><path d="M287.29 368.86c7.98 43 18.43 46.69 29.49 54.67 1.49 1.08 3.36 2.75 5.44 4.82 0.05-0.06 0.17-0.21 0.37-0.47 0.04-0.05 0.05-0.06 0.09-0.12 3.52-4.45 25.7-31.8 40.93-34.34 8.71-1.45 15.66-4.02 24.43-4.43l-23.35-104.68 38.74 106.25c0.73 0.17 1.49 0.36 2.26 0.57l29.65-75.69-16.1 80.33c8.34 1.04 15.19 1.8 20.86 2.35 4.26-16.59 21.42-38.32 21.42-38.32 7.6-0.92 13.82 8.06 13.82 8.06l-4.61 2.3c-4.61 2.3-19.81 21.19-21.88 27.18-0.19 0.56-0.31 1.04-0.42 1.52 12.41 0.99 16.09 0.66 16.09 0.66s19.81-2.2 32.25 0c5.69 1.01 16.89 3.62 28.24 9.47 0.01-0.06 0.01-0.14 0.01-0.21 2.45-20.89 3.65-35.63 1.81-44.23-1.66-7.75-2.42-33.39-2.42-44.25v-0.18c0-1.12-1.88-2.12-1.88-2.88 0-1.42-0.97-3.18-1.25-5.22-1.3-9.49-7.73-25.44-34.51-45.15-32.56-23.96-38.93-12.9-48.15-11.06-9.21 1.84-24.68 29.49-24.68 29.49s2.4-30.1-0.06-35.02-6.17-5.53-11.09-11.67-20.29-25.19-26.43-30.1c-6.14-4.91-27.65 9.83-46.08 15.36-18.43 5.53-34.41 14.13-46.69 27.03-8.28 8.68-11.25 49.88-12.32 75.92 6.12 7.27 11.77 19.15 16.02 42.04z m162.25-82.32c6.91 1.84 20.04 14.51 26.03 15.43 5.99 0.92 15.2 7.37 17.28 13.82 2.07 6.45 15.2 57.36 15.43 63.81 0.23 6.45 0 10.83 0 10.83s-16.13-65.88-19.81-70.95c-3.69-5.07-3.92-4.15-8.29-8.52-4.38-4.38-12.67-8.98-12.67-8.98s-10.14-6.45-12.9-7.83-5.53-4.38-7.6-2.99c-2.07 1.38-8.06 3.92-8.06 3.92s3.68-10.38 10.59-8.54z m-87.77-48.37c9.21 0 10.48 1.5 12.9 4.26s13.82 14.97 13.82 14.97-16.47-13.94-20.5-14.63c-4.03-0.69-12.67 1.15-16.24 3.11-3.57 1.96-19.93 10.71-19.93 10.71s20.73-18.42 29.95-18.42z" fill="#3F9222" p-id="2828"></path><path d="M419.23 395.78l16.1-80.33-29.65 75.69c3.95 1.06 8.29 2.53 13.22 4.59 0.11 0.02 0.22 0.03 0.33 0.05zM403.42 390.57l-38.74-106.25L388.04 389c4.48-0.2 9.45 0.18 15.38 1.57z" fill="#62B442" p-id="2829"></path><path d="M367.99 242.77c4.03 0.69 20.5 14.63 20.5 14.63s-11.4-12.21-13.82-14.97-3.69-4.26-12.9-4.26-29.95 18.43-29.95 18.43 16.36-8.75 19.93-10.71c3.57-1.97 12.21-3.81 16.24-3.12zM454.61 294.14c2.76 1.38 12.9 7.83 12.9 7.83s8.29 4.61 12.67 8.98c4.38 4.38 4.61 3.46 8.29 8.52 3.69 5.07 19.81 70.95 19.81 70.95s0.23-4.38 0-10.83-13.36-57.36-15.43-63.81c-2.07-6.45-11.29-12.9-17.28-13.82-5.99-0.92-19.12-13.59-26.03-15.43-6.91-1.84-10.6 8.52-10.6 8.52s5.99-2.53 8.06-3.92c2.08-1.36 4.84 1.63 7.61 3.01z" fill="#366B21" p-id="2830"></path><path d="M565.61 511.29c-0.2 1.25-0.42 2.5-0.66 3.78 0.25-1.28 0.47-2.54 0.66-3.78zM322.22 428.35l0.37-0.47c-0.21 0.27-0.32 0.41-0.37 0.47zM345.11 404.09c12.66 12.49 37.86 38.05 39.23 44.93 1.84 9.21-2.76 31.33 0 40.24 2.76 8.91 31.64 22.11 62.05 24.26s86.92 4.3 99.21 2.76c5.64-0.7 13.33-2.89 20.02-5.06 1.18-7.63 1.32-14.86 0.37-23.37-1.19-10.64-4.1-23.32-8.87-41.44-5-18.99-18.67-30.49-32.11-37.42-11.35-5.85-22.55-8.47-28.24-9.47-12.44-2.2-32.25 0-32.25 0s-3.68 0.33-16.09-0.66c-1.12 4.65 1.12 5.67 1.12 5.67l17.74 1.33-11.06 4.15 25.11 13.36-27.18-5.3-29.03 13.36 12.67-11.98-23.96-2.3 14.74-4.61-26.95-9.44s36.86 4.61 37.55 0c0.13-1.58 0.48-3.26 0.92-4.99-5.67-0.55-12.52-1.31-20.86-2.35-0.11-0.01-0.22-0.03-0.33-0.04-4.92-2.06-9.26-3.53-13.22-4.59-0.77-0.21-1.53-0.4-2.26-0.57-5.93-1.39-10.91-1.77-15.38-1.57-8.76 0.4-15.72 2.98-24.43 4.43-15.23 2.54-37.41 29.89-40.93 34.34 2.29-2.88 11.85-14.65 22.42-23.67z m185.29 93.24c-3.69-0.69 0.46-14.51 0-21.89-0.46-7.37-5.76-9.68-17.28-18.2-11.52-8.52-1.61-8.06-1.61-8.06 10.83-1.38 17.74 4.61 23.5 10.14 5.76 5.53 6.22 18.43 5.99 26.03-0.24 7.6-6.92 12.67-10.6 11.98z m-30.64-68.88h0.92c2.12 0 6.91-1.84 11.06-1.15 4.15 0.69 2.99 6.8 1.38 11.17-1.61 4.38-8.29 5.24-14.97 0.86-6.69-4.37 1.61-10.88 1.61-10.88z" fill="#DE001C" p-id="2831"></path><path d="M401.62 403.11l26.95 9.44-14.74 4.61 23.96 2.3-12.67 11.98 29.03-13.36 27.18 5.3-25.11-13.36 11.06-4.15-17.74-1.33s-2.23-1.03-1.12-5.67c0.12-0.48 0.23-0.96 0.42-1.52 2.07-5.99 17.28-24.88 21.88-27.18s4.61-2.3 4.61-2.3-6.22-8.98-13.82-8.06c0 0-17.16 21.73-21.42 38.32-0.45 1.72-0.79 3.41-0.92 4.99-0.69 4.59-37.55-0.01-37.55-0.01z" fill="#285B14" p-id="2832"></path><path d="M498.14 439.04c6.68 4.38 13.36 3.8 14.97-0.58 1.61-4.38 2.76-10.19-1.38-10.88-4.15-0.69-8.93 0.86-11.06 0.86h-0.92c0.01 0.01-8.29 6.23-1.61 10.6zM540.99 485.35c0.23-7.6-0.23-20.5-5.99-26.03-5.76-5.53-12.67-11.52-23.5-10.14 0 0-9.91-0.46 1.61 8.06 11.52 8.52 16.82 10.83 17.28 18.2 0.46 7.37-3.69 21.19 0 21.89 3.69 0.69 10.37-4.38 10.6-11.98z" fill="#FD8488" p-id="2833"></path><path d="M322.5 503.99c0.09 0.26 0.14 0.38 0.15 0.39v0.01s0.18 0.03 0.48 0.09c0.99 0.17 3.79 0.66 9.47 1.58-3.18-0.64-6.53-1.32-10.1-2.07zM562.53 524.28s1.63-0.88 3.93-9.17c0.24-1.28 2.17-2.57 2.17-3.82v-0.06c0 2.17-15.89 4.36-21.52 5.06-12.3 1.53-69.56-0.61-99.96-2.76s-59.66-15.36-62.43-24.26c-2.76-8.91 1.66-31.02-0.19-40.24-1.37-6.89-26.66-32.44-39.33-44.93-10.57 9.01-20.18 20.79-22.47 23.68-0.04 0.05-0.08 0.07-0.12 0.12l-0.37 0.47c13.33 13.26 36.07 44.19 34.48 59.07-1.84 17.2 0.07 8.6 0.07 8.6l3.46 14.4c9.01 1.39 19.99 3.07 33.38 5.1 0.34 0.05 0.63 0.09 0.96 0.14 18.67 2.81 42.7 4.74 66.71 6 42.33 2.23 84.54 2.61 97.29 2.61 2.51-0.01 3.94-0.01 3.94-0.01z" fill="#B80318" p-id="2834"></path><path d="M183.35 449.04l0.12 0.3c1.81 2.64 6.78 6.68 14.12 11.3 10.37 6.53 25.51 14.22 43.47 20.8 1.95 0.71 3.93 1.39 5.9 2.07-11.59-5.04-24.38-8.99-32.37-13.55l-66.14-154.39v-1.38c7.37 1.84 36.4 48.38 44.23 62.2 6.35 11.2 42.34 80.82 54.74 107.28 26.02 9.04 53.63 15.79 75.08 20.32 3.57 0.76 6.92 1.44 10.11 2.07 9.69 1.92 18.35 3.28 23.16 4.08 3.5 0.58 6.46 0.89 6.46 0.89V511l-1.06-0.56-3.92-14.4s-2.15 8.6-0.31-8.6c1.59-14.88-21.27-45.81-34.6-59.07-2.08-2.07-4.01-3.74-5.5-4.82-11.06-7.99-21.53-11.67-29.52-54.67-4.25-22.89-9.91-34.77-16.02-42.02-5.36-6.38-11.09-9.2-16.56-12.65-11.68-7.37-67.57-22.12-76.78-25.8-9.21-3.69-70.04-68.8-79.87-75.56-9.83-6.76-13.51-6.76-14.74 0-1.23 6.76 16.59 31.33 18.43 36.24 1.26 3.36 39 95.75 62.74 153.85 2.51 6.16 4.86 11.9 7 17.13 6.71 16.42 11.25 27.54 11.83 28.97z m116.53-15.06c5.22 9.83 0.62 25.19 0.62 25.19l0.92-5.53c0.92-5.53-15.36-33.79-15.36-33.79s8.6 4.3 13.82 14.13z m-101.97-111.5c5.53 3.99 31.33 7.37 38.7 12.9s7.06 25.49 9.21 37.78c2.15 12.28 19.96 26.36 19.96 26.36s-12.28-6.09-17.81-12.23c-5.53-6.14-8.6-16.9-11.06-28.33s-8.91-21.12-27.95-26.03c-32.86-8.6-55.9-42.39-55.9-42.39s39.32 27.95 44.85 31.94z" fill="#6AC148" p-id="2835"></path><path d="M247.42 483.66c-12.4-26.46-48.39-96.08-54.74-107.28-7.83-13.82-36.86-60.36-44.23-62.2v1.38l66.14 154.39c8 4.56 20.78 8.51 32.37 13.55 0.16 0.07 0.32 0.13 0.48 0.2 0-0.01-0.01-0.02-0.02-0.04z" fill="#A2EE83" p-id="2836"></path><path d="M208.96 332.93c19.04 4.91 25.5 14.59 27.95 26.03s5.53 22.19 11.06 28.33c5.53 6.14 17.81 12.23 17.81 12.23s-17.81-14.08-19.96-26.36c-2.15-12.28-1.84-32.25-9.21-37.78s-33.17-8.91-38.7-12.9c-5.53-3.99-44.84-31.94-44.84-31.94s23.03 33.79 55.89 42.39zM301.42 453.64l-0.92 5.53s4.6-15.36-0.62-25.19c-5.22-9.83-13.82-14.13-13.82-14.13s16.28 28.26 15.36 33.79z" fill="#4A992B" p-id="2837"></path><path d="M799.95 498.1c-3.35 0.79-6.49 1.48-9.5 2.23 3.2-0.71 6.37-1.46 9.5-2.23zM787.94 376.85l-3.07-43.61s-12.73 8.43-26.92 17.62c-4.5 2.91-9.11 5.87-13.54 8.69-10.35 6.58-19.59 12.27-23.12 13.93-9.83 4.61-18.43 24.57-20.27 54.98-0.79 13.08-2.33 31.11-3.82 47.44-1.97 21.64-3.87 40.26-3.87 40.26s6.64-0.93 16.49-2.35c19.05-2.77 50.26-7.47 70.18-11.31 0.46-0.09 0.98-0.18 1.43-0.27 1.88-0.37 3.73-0.78 5.59-1.17l10.14-25.91-27.64-76.02 35.94 56.74L861.2 303.4l-21.19 80.26 28.1-34.5-29.49 47.33-26.03 98.25c0.11-0.03 0.23-0.06 0.35-0.1 31.05-8.74 55.35-19.11 61.26-21.71 0.9-0.4 1.48-0.66 1.48-0.66l0.01-0.04c0.04-0.1 1.09-2.61 2.63-6.46 5.02-12.46 15.37-39.01 14.67-44.38-0.91-7.01-5.46-33.37-4.63-46.23 0.01-0.09 0.01-0.21 0.01-0.3 0.09-1.23 0.22-3.19 0.37-5.46 0.25-3.81 0.58-8.82 0.97-14.71 0.22-3.32-0.93-6.89-0.68-10.61 1.76-26.58 3.95-60.95 3.95-69.05v-0.05c7.37-12.44 4.77-33.9 2.46-37.73-2.3-3.84-3.85-4.61-7.76-2.3 0 0-42.04 24.88-54.02 33.17s-38.53 42.08-39.45 54.67c-0.24 3.24-0.69 8.39-1.37 14.24-1.93 16.93-4.9 39.82-4.9 39.82z m-58.05 50.68c-2.3-10.14-6.94-20.55-4.74-27.67 2.2-7.12 26.85-26.93 32.15-29 0 0-25.34 23.68-25.34 29s3.92 35.5 2.53 43.79c-1.38 8.29-6.45 17.28-7.6 26.95-1.15 9.68 0 13.59 0 13.59s-3.56-5.3-0.51-20.73 5.82-25.8 3.51-35.93z m133.61 25.31v-2.27l0.38-0.84c0.6-4.11 1.98-11.48 4.38-17.36 3.38-8.29 7.52-33.86 5.38-52.9-1.43-12.67 1.07-22.84 2.91-28.31 0.02-0.12 0.08-0.21 0.11-0.33 0.87-2.54 1.59-4.07 1.59-4.07-0.72 1.19-1.22 2.58-1.59 4.07-0.04 0.11-0.07 0.21-0.11 0.33-2.61 11.3 3.31 29.63 3.85 35.53 0.62 6.76-0.31 34.71-5.23 41.77-4.24 6.09-9.83 18.08-11.29 21.28-0.25 1.67-0.38 2.86-0.38 3.1z m-50.68-137.73c2.3-24.19 33.17-37.32 33.17-37.32s-17.28 18.2-22.81 23.96c-5.53 5.76-12.67 37.55-12.67 37.55s0.01 0 2.31-24.19z" fill="#5AB637" p-id="2838"></path><path d="M838.28 396.48l29.66-47.33-28.02 34.5 21.24-80.26-55.72 152.46-35.92-56.74 27.64 76.02-10.13 25.91-0.01 0.95c0.6-0.14 2.84 0.17 3.4 0.17h0.02c3.02 0 5.81-2.36 9.16-3.15 3.83-0.9 4.92-2.84 12.3-4.26v-0.03l26.38-98.24z" fill="#8AD96B" p-id="2839"></path><path d="M846 277.79s-30.87 13.13-33.17 37.32l-2.3 24.19s7.14-31.79 12.67-37.55c5.52-5.76 22.8-23.96 22.8-23.96zM876.55 351.15c0.04-0.12 0.07-0.22 0.11-0.33-0.03 0.12-0.09 0.21-0.11 0.33zM876.66 350.82c0.37-1.49 0.87-2.89 1.59-4.07 0-0.01-0.72 1.53-1.59 4.07zM880.4 386.68c-0.54-5.9-6.46-24.24-3.85-35.53-1.84 5.47-4.33 15.65-2.91 28.31 2.15 19.04-2 44.61-5.38 52.9-2.4 5.88-3.77 13.25-4.38 17.36 1.46-3.19 7.05-15.19 11.29-21.28 4.92-7.05 5.85-35.01 5.23-41.76zM863.5 452.84c0-0.23 0.13-1.43 0.38-3.11l-0.38 0.84v2.27zM726.39 463.46c-3.05 15.43 0.51 20.73 0.51 20.73s-1.15-3.92 0-13.59c1.15-9.68 6.22-18.66 7.6-26.95s-2.53-38.47-2.53-43.79 25.34-29 25.34-29c-5.3 2.07-29.95 21.88-32.15 29-2.2 7.12 2.43 17.53 4.74 27.67 2.3 10.13-0.47 20.5-3.51 35.93z" fill="#469629" p-id="2840"></path></svg>