<?xml version="1.0" standalone="no"?><!DOCTYPE svg PUBLIC "-//W3C//DTD SVG 1.1//EN" "http://www.w3.org/Graphics/SVG/1.1/DTD/svg11.dtd"><svg t="1607840032054" class="icon" viewBox="0 0 1024 1024" version="1.1" xmlns="http://www.w3.org/2000/svg" p-id="2975" xmlns:xlink="http://www.w3.org/1999/xlink" width="200" height="200"><defs><style type="text/css"></style></defs><path d="M942.63 398.38c0.07-3.97-1.2-7.9-3.61-11.05L817.89 228.59l-5.26-115.87c-0.32-6.94-4.67-13.45-11.14-16.01l-41.86-17.35c-2.06-0.81-4.78-2.87-7.07-2.87h-0.63c-2.97 0-5.8 1.6-8.32 3.61-69.95 2.26-502.11 16.23-502.11 16.23-5.99 0.19-11.46 3.41-14.54 8.55l-23.13 38.55a17.63 17.63 0 0 0-2.36 11.42l10.58 78.55L78.4 403.78c-2.83 3.6-4.14 8.16-3.67 12.71l0.17 1.65v0.01l30.67 292.57 12.12 115.54c0.02 0.16 0.1 0.3 0.13 0.46 0.22 1.64 0.62 3.21 1.26 4.7 0.1 0.23 0.24 0.44 0.35 0.67 0.65 1.33 1.45 2.58 2.42 3.71 0.16 0.18 0.28 0.38 0.45 0.56 1.08 1.17 2.33 2.16 3.71 3.01 0.28 0.18 0.58 0.33 0.88 0.49 1.45 0.78 2.99 1.45 4.69 1.8L617.4 944.23c0.66 0.56 1.27 1.18 2.02 1.64 2.83 1.75 6.05 2.64 9.28 2.64 2.68 0 5.38-0.62 7.87-1.85l177.1-88.27 112.53-55.62c5.92-2.92 9.71-8.9 9.82-15.5l1.58-101.48c0.02-1.22-0.48-2.41-0.48-3.58v-0.01l1.26-46.13c0.02-0.21 0.15-0.4 0.15-0.62l0.83-46.37c0-0.04 0.03-0.07 0.03-0.11l3.23-188.34c0-0.13-0.03-0.24-0.03-0.37l0.04-1.88z" p-id="2976"></path><path d="M103.18 518.71c28.85 0.17 79.15 0.37 94.05-0.14 21.29-0.73 31.16-8.08 34.1-19.1 2.94-11.02-25.06-28.64-35.33-31.57-10.27-2.93-17.07-17.62-31.77-26.44-10.83-6.5-50.2-8.6-70.12-9.26l-1.67-15.9 30.67 292.57-19.93-190.16zM290.91 531.79c19.09 8.81 59.47 24.97 80.77 24.23 21.3-0.74 41.13-2.94 55.82-16.16 14.68-13.22 17.62-11.1 5.87-20.97s-32.31-19.81-44.06-23.28c-11.75-3.48-25.7 0-25.7 0l-40.39 17.63s-31.57-2.39-38.18 0c-6.62 2.39-13.22 9.74 5.87 18.55zM619.89 518.89c-13.95-0.32-54.34-6.88-60.58 14.02 0 0-50.12-2.4-51.22 9.35-1.1 11.75 16.8 19.36 43.23 20.09 26.44 0.74 29.51-0.24 36.12 12.25 6.61 12.49 18.8 23.39 34.96 22.65 3.7-0.17 6.91-0.43 9.74-0.71l0.25-70.73c-1.95-3.37-5.6-6.76-12.5-6.92z" fill="#FFFFFF" p-id="2977"></path><path d="M94.11 432.2c19.92 0.66 59.28 2.76 70.12 9.26 14.7 8.81 21.5 23.5 31.77 26.44 10.27 2.93 38.28 20.56 35.33 31.57-2.94 11.02-12.81 18.36-34.1 19.1-14.9 0.51-65.2 0.31-94.05 0.14l19.93 190.17h0.01l-6.83-65.15c15.52-12.68 35.7-25.26 47.77-26.01 18.85-1.18 43.79-0.89 69.6 17.83 2.22-0.34 4.71-0.3 7.04-1.13 3.86-1.38 18.45-10.19 22.03-11.29 3.58-1.1 22.86-22.03 22.86-22.03l-5.23 17.62 20.1 7.16-5.78 4.68s0.29 0.18 0.73 0.45l0.09 0.06c3.62 2.21 18.5 11.26 29.65 17.49 3.61 2.03 6.87 3.77 9.17 4.86 3.1 1.47 8.46 3.27 14.96 5.08 8.28-3.39 15.05-6.82 19.15-9.21 17.62-10.28 63.31-18.36 81.67-9.54 18.36 8.81 52.22 48.47 69.11 61.68 16.89 13.22 71.99 30.11 86.68 33.78 14.69 3.67 25.7 9.08 25.7 9.08l0.53-147.74c-2.83 0.29-6.04 0.55-9.74 0.71-16.15 0.74-28.35-10.16-34.96-22.65-6.61-12.49-9.68-11.51-36.12-12.25-26.44-0.74-44.34-8.34-43.23-20.09 1.1-11.75 51.22-9.35 51.22-9.35 6.24-20.9 46.63-14.35 60.58-14.02 6.9 0.16 10.55 3.55 12.5 6.92v-0.01l0.17-47.26 1.37-6.26L92.44 416.3l1.67 15.9z m190.92 81.04c6.61-2.39 38.18 0 38.18 0l40.39-17.63s13.95-3.48 25.7 0 32.31 13.41 44.06 23.28c11.75 9.87 8.81 7.75-5.87 20.97-14.68 13.22-34.52 15.42-55.82 16.16-21.3 0.74-61.68-15.42-80.77-24.23-19.08-8.81-12.48-16.16-5.87-18.55zM631.5 773.19l0.02-6.74 0.08-22.16-0.11 28.9z" fill="#87D6FD" p-id="2978"></path><path d="M266.6 661.65c-0.23-0.44-0.4-0.76-0.4-0.76l-7.15-2.11c2.81 2.22 5.84 3.98 8.98 5.5l-1.43-2.63zM758.46 253.49l-5.92-156.05 0.63-0.02-511.1 16.52-23.13 38.56 11.56 85.91-0.43-3.28z" fill="#87D6FD" p-id="2979"></path><path d="M632.13 596.54l-0.53 147.74 0.53-147.73c2.1-0.71 4.47-0.58 7.31-1.53 13.22-4.41 20.1-10.74 26.16-18.45 6.06-7.71 19.28-17.35 28.64-20.38 9.36-3.03 18.73-6.61 21.76-10.74 3.03-4.13 0.27-5.51-4.41-7.44-4.68-1.93-8.81-0.55-15.42 0-6.61 0.55-20.1 0-26.99-4.41-6.88-4.41-12.49-15.15-26.44-12.94-5.06 0.8-8.3 2.59-10.36 5.13v0.01l-0.25 70.74zM631.5 773.19l0.02-6.74-0.02 6.74zM893.8 464.96c-17.62-2.2-30.1 1.47-38.18 0-8.08-1.47-41.13-5.85-54.34-0.72-13.22 5.13-22.77 15.4-27.91 16.88-5.14 1.47-24.96 2.94-24.96 2.94s-23.5 6.61-8.08 13.95c15.42 7.34 22.03 0 23.5 5.14 1.47 5.14 1.47 23.5 26.44 20.56s45.53-2.93 50.67-5.87c5.14-2.94 12.49-11.02 19.83-17.62 7.33-6.62 50.66-33.06 33.03-35.26zM878.38 551.8c-3.3 7.9-2.38 14.5 4.41 16.52 6.79 2.02 7.89 7.35 5.69 12.49-2.2 5.14-3.49 10.28 1.47 10.83 4.18 0.46 20.19-1.05 31.84-4.06l3.22-189.44-2.32 136c-14.59 3.9-41.9 11.89-44.31 17.66z" fill="#87CBEA" p-id="2980"></path><path d="M633.93 472.29l2.49-11.37 122.27-201.58-0.22-5.85-528.39-18.36 0.44 3.28L92.26 414.66l0.17 1.65 541.5 55.98z m-49.29-187.61l33.78 2.2-35.25 48.83 76.37-44.79 44.79 1.1-97.66 62.97 4.41 65.91-42.96-3.3-2.93-54.71-33.42 48.47h-41.49l92.71-122.27 1.65-4.41z m-66.09-1.84l-80.04 104.28 50.67 6.61-6.25 9.91-85.19-6.97 87.39-116.39 33.42 2.56zM408.4 277.7l63.89 2.21-6.24 9.18-16.16 0.37-67.92 94 15.79 2.2-6.98 8.08h-67.56l7.71-11.2 15.79-2.85 67.56-91.7h-15.06l9.18-10.29z m-232.78 98.58l100.61-105.93h35.24l3.31 3.67-30.84 54.15 55.44-57.83h42.59l-65.35 123.37h-31.58l39.66-75.27-63.89 66.46h-28.65l35.62-69.03-60.58 66.46-36.71-1.1 5.13-4.95z" fill="#C8ECFE" p-id="2981"></path><path d="M921.79 587.58c-11.65 3.01-27.66 4.52-31.84 4.06-4.96-0.55-3.67-5.69-1.47-10.83s1.1-10.46-5.69-12.49c-6.79-2.02-7.71-8.63-4.41-16.52 2.41-5.77 29.72-13.76 44.31-17.66l2.32-136-124.47-163.03-5.51-121.17-41.86-16.52-0.64 0.02 5.92 156.05 0.22 5.85-122.26 201.58-2.49 11.37-1.37 6.26-0.17 47.26c2.06-2.54 5.3-4.33 10.36-5.13 13.95-2.2 19.55 8.54 26.44 12.94 6.88 4.41 20.38 4.96 26.99 4.41 6.61-0.55 10.74-1.93 15.42 0s7.43 3.3 4.41 7.44c-3.03 4.13-12.39 7.71-21.76 10.74-9.36 3.03-22.58 12.67-28.64 20.38-6.06 7.71-12.94 14.04-26.16 18.45-2.84 0.95-5.21 0.82-7.31 1.53l-0.53 147.73c14.65-9.83 37.13-39.93 58.23-39.93 35.25 0 40.76-11.02 43.51-18.17 2.75-7.16 26.44-77.66 55.08-75.45 28.64 2.2 57.28 26.44 75.45 26.44 10.38 0 36.55-1.08 57.11-2l0.81-47.61zM652.2 465.69l118.96-199-6.43-149.81 21.48 6.42 7.71 134.57L897.47 397.4 652.2 465.69z m208.56 34.52c-7.34 6.61-14.69 14.69-19.83 17.62-5.14 2.94-25.7 2.93-50.67 5.87s-24.96-15.42-26.44-20.56c-1.47-5.14-8.08 2.2-23.5-5.14s8.08-13.95 8.08-13.95 19.83-1.47 24.96-2.94c5.14-1.47 14.69-11.75 27.91-16.88 13.22-5.13 46.26-0.75 54.34 0.72 8.08 1.47 20.56-2.2 38.18 0 17.64 2.21-25.69 28.65-33.03 35.26z" fill="#2FA4E2" p-id="2982"></path><path d="M793.93 257.88l-7.71-134.57-21.48-6.43 6.43 149.81-118.97 199 245.27-68.29z" fill="#1F7AAA" p-id="2983"></path><path d="M664.77 767.05c0.34-0.09 0.67-0.2 1.02-0.29-0.08-0.3-0.13-0.51-0.13-0.51s-0.35 0.29-0.89 0.8z" fill="#3CBE3D" p-id="2984"></path><path d="M863.87 635.41c-18.17 0-46.81-23.36-75.45-25.56-28.64-2.2-52.32 68.73-55.08 75.89-2.75 7.16-8.26 18.39-43.51 18.39-21.1 0-43.59 30.21-58.23 40.04l-0.08 22.22-0.03 6.77c7.37-0.84 16.81-2.28 26.52-4.49 0.56-1.01 1.14-1.95 1.79-2.67 3.74-4.15 5.03-6.24 5.03-6.24s-5.04-12.33 7.1-18.89c12.14-6.56 18.7-8.36 32.61-10.1 2.23-0.28 4.78-0.8 7.44-1.42 0.65-0.16 1.32-0.32 1.99-0.49 2.45-0.62 4.97-1.31 7.53-2.1 11.6-3.57 23.5-8.48 27.97-11.33 1.63-1.04 3.97-2.71 6.54-4.61 0.35-0.26 0.71-0.54 1.08-0.81 0.85-0.63 1.71-1.28 2.59-1.95l1.63-1.24c0.62-0.48 1.23-0.95 1.85-1.42 2.69-2.08 5.26-4.09 7.31-5.7 0.21-0.17 0.44-0.35 0.65-0.51 0.6-0.48 1.15-0.91 1.63-1.29 0.24-0.19 0.47-0.37 0.67-0.53 0.9-0.71 1.51-1.2 1.51-1.2l-4.41-2.73 13.29-6.7-5.16-11.74s15.16 12.8 17.74 13.25c2.57 0.46 13.44 5.28 16.24 5.9 2.78 0.62 5.72-0.59 7.75 0.93 0 0 2.65 11.17 0.26 12.76-2.38 1.59-14.97 3.18-14.97 3.18l-8.39 3.67s-0.1 0.23-0.25 0.55c-0.09 0.21-0.16 0.4-0.3 0.77 21.94-7.01 41.39-12.9 51.05-15.85 26.99-8.26 49.36-17.73 62.03-16.08 2.62 0.34 7.48 0.94 10.34 1.41l-2.86 101.48L628.7 929.04v1.84l288.58-143.83 3.74-155.4h-0.03c-20.57 8.82-46.74 3.76-57.12 3.76z" fill="#3CBE3D" p-id="2985"></path><path d="M920.14 685.49c-2.87-0.47-7.73-1.07-10.34-1.41-12.67-1.65-35.04 7.81-62.03 16.08-9.66 2.96-29.1 8.85-51.05 15.85-0.21 0.54-0.45 1.13-0.76 1.94l-0.16-0.07c-2.73 5.94-8.57 18.67-11.48 24.98 0.21 0.11 0.47 0.26 0.68 0.37-0.26 0.58-1.42 1.21-1.61 1.64-3.03 6.52-4.56 7.57-4.59 7.59l0.51 4.04 5.59 44.49s-4.38 3.52-6.94 1.65c-2.57-1.87-1.64-1.98-1.64-1.98l-5.7-38.19 3.4 33.6s0.03 1.54-3.1 2.32c-3.12 0.78-4.23-2.18-4.23-2.18l-6.6-32.87c-5.77 1.56-12.6 3.68-15.27 5.62-4.97 3.59-14 9.12-26.07 12.7-12.06 3.58-17.93 5.48-18.37 6.06-0.03 0.03-2.19 0.66-2.19 0.82-0.45 0.57 2.05 38.85 2.05 38.85s-2.49 2.78-5.52 2.87c-1.02 0.03-2.09-0.24-3.16-1.01-0.08-0.86-0.58-3.68-1.28-7.42-0.43 0.24-0.93 0.45-1.51 0.55-2.26 0.41-4.1-3.87-4.53-4.21-0.29-0.22-3.98-17.22-6.45-28.71-1.29-1.16-2.75-2.93-4.33-5.62-5.43-9.17-7.26-15.39-7.69-17.09-0.34 0.1-0.68 0.2-1.02 0.29-1.61 1.53-5.01 5.13-6.88 9.85-2.5 6.32-3.54 11.87-3.54 11.87s-1.52 4.84-3.22 5.24l-1.7 0.41s-3.72-4.95-0.96-7.62c2.76-2.67 5.24-6.08 5.24-6.08s1.63-7.19 4.29-12.03c-9.72 2.2-19.15 3.66-26.52 4.5l-0.59 155.87 0.04-0.02L918.4 786.97l1.74-101.48z m-110.12 45.62c1.33-0.67 6.14-4.47 7.37-5.03 1.24-0.55 7.19-8.91 7.19-8.91l-1.08 6.54 7.52 1.66-1.86 1.94s0.71 0.32 1.82 0.81h0.01c3.35 1.49 10.41 4.6 13.39 5.58 2.63 0.86 9.38 1.82 15.72 2.1 1.26 0.06 2.48 0.08 3.67 0.08 0.41 0 0.83 0 1.22-0.01 1.39-0.03 2.71-0.09 3.85-0.24 7.2-0.9 10.71-0.84 17.62 0.9 6.93 1.73 5.98 8.56 5.98 8.56s0.9 0.89 3.3 2.48c2.41 1.6 4.93 6.59 4.93 6.59s1.69 1.39 3.42 2.37c1.7 0.99 0.48 3.95 0.48 3.95l-0.89 0.01c-0.9 0.02-2.28-2.21-2.28-2.21s-1.23-2.65-3.3-5.49c-2.05-2.85-5.25-4.35-5.25-4.35s0 0.37-0.03 0.95c-0.06 1.42-0.34 4.43-1.64 8.87-0.45 1.55-0.96 2.62-1.45 3.37 0.24 6.08 0.57 15.06 0.44 15.21-0.16 0.22-0.53 2.6-1.72 2.69-0.34 0.03-0.57-0.11-0.84-0.2 0.13 2.02 0.24 3.55 0.32 4-0.43 0.52-0.94 0.79-1.45 0.9-1.53 0.34-3.13-0.71-3.13-0.71s-3.64-19.69-3.93-19.69h-0.03c-0.06 0-1.16-0.16-1.18-0.16-0.3-0.23-3.47-0.44-9.97-0.69-6.51-0.26-11.74-1.88-14.68-3.04-1.58-0.63-5.27-0.82-8.36-0.87l0.9 17.31s-0.17 1.63-1.84 1.63c-1.67 0.01-1.85-0.77-1.85-0.77l-2.74-18.23-0.78-0.01 1.33 20.9v0.05c0 0.07 1.03 0.3 0.38 1.1-0.33 0.39-0.47 0.51-0.97 0.53-1.34 0.44-3.23-0.21-3.23-0.21l-3.83-22.74-1.66-1.64c-0.02 0.02 0.5 0.06 0.5 0.06v-0.12l-0.46 0.06c0.15-0.15 0.6-1.03-1.54-3.67-2.37-2.91-8.89-13.87-8.89-13.87l-4.74-0.77s-6.57 0.81-7.94 0.32c-1.41-0.5-1.53-6.43-1.53-6.43 0.79-1.02 2.4-0.8 3.71-1.46z" fill="#21AA22" p-id="2986"></path><path d="M519.21 701.42c-16.89-13.22-50.76-52.87-69.11-61.68-18.36-8.81-64.04-0.74-81.67 9.54-4.1 2.39-10.87 5.82-19.15 9.21 7.69 2.15 16.99 4.3 26.17 5.93 2.28 0.4 4.55 0.78 6.79 1.11 0.05 0.01 0.1 0.02 0.16 0.02 2.19 0.33 4.35 0.61 6.46 0.85 0.19 0.02 0.36 0.03 0.55 0.06 1.75 0.19 3.43 0.34 5.08 0.46l1.33 0.09c1.8 0.11 3.54 0.18 5.15 0.18 20.1 0 29.74 1.38 48.19 8.54 18.45 7.16 13.49 25.61 13.49 25.61s2.2 2.75 8.26 7.99c6.06 5.23 11.29 19.83 11.29 19.83s4.13 4.41 8.54 7.71c1.47 1.1 1.91 2.7 1.91 4.33 8.81 0.78 15.54 1.06 18.92 0.63 17.26-2.2 57.66-1.79 67.2 0.21 9.54 2 19.84 8.6 32.31 18.89 12.45 10.26 20.38 12.28 20.4 12.29l0.11-28.91s-11.02-5.41-25.7-9.08c-14.68-3.7-69.78-20.59-86.68-33.81zM287.4 699.3c-4.85-8.16-14.41-25.79-18.84-34.01-0.2-0.37-0.37-0.68-0.54-1.02-3.13-1.52-6.16-3.29-8.98-5.5l-5.45-1.61s-18.21-0.01-21.88-1.85c-3.68-1.84-1.91-18.2-1.91-18.2 1.03-1 2.39-1.36 3.84-1.58-25.81-18.73-50.76-19.01-69.6-17.83-12.07 0.76-32.25 13.33-47.77 26.01l6.83 65.15c19.22-10.86 60.91-26.03 95.09-22.88 21.43 1.98 45.95 7.36 69.27 13.42a0.076 0.076 0 0 1-0.02-0.04c0-0.01-0.02-0.03-0.04-0.06zM135.22 824.42l478.83 101.09 16.85 3.55-25.49-5.38z" fill="#74EA75" p-id="2987"></path><path d="M462.65 710.69s-0.22 2.55-1.35 7.2c-0.01 0.02-0.01 0.04-0.02 0.06-1.09 4.44-3.04 10.81-6.43 18.72 9.94 1.39 19.39 2.59 27.72 3.5-0.62-1.82-3-8.45-6.98-15.71-4.68-8.54-12.94-13.77-12.94-13.77z" fill="#74EA75" p-id="2988"></path><path d="M631.49 773.19c-0.03-0.01-7.95-2.03-20.4-12.29-12.48-10.28-22.77-16.89-32.31-18.89-9.54-2-49.94-2.41-67.2-0.21-3.38 0.43-10.11 0.15-18.92-0.63 0 3.26-1.91 6.69-1.91 6.69l-2.48-0.27c-2.48-0.28-5.51-6.88-5.51-6.88s-0.07-0.22-0.18-0.53c-8.33-0.91-17.78-2.11-27.72-3.5-0.07 0.16-0.12 0.3-0.19 0.46-1.77 4.09-3.52 6.87-5.15 8.75-1.46 16.79-3.67 41.65-4.04 42.01-0.55 0.55-2.38 6.97-5.69 6.79-0.84-0.05-1.59-0.25-2.26-0.53-0.33 5.46-0.54 9.57-0.5 10.8-5.51 5.14-12.67-1.1-12.67-1.1s-3.3-54.89-4.04-55.63c-0.03-0.23-3.23-0.75-3.26-0.78-0.73-0.74-9.42-2.39-27.23-5.33-17.8-2.94-31.63-9.18-39.34-13.4-4.14-2.27-14.23-4.07-22.73-5.27l-3.5 47.96s-1.06 4.41-5.65 3.86c-4.59-0.55-4.82-2.75-4.82-2.75l-1.23-51.12-0.56-0.15-2.02 58.2-3.3 3.12c-3.3 3.12-12.85-1.1-12.85-1.1v-70.22c-0.03-0.37-0.42-2.26-5.2-9.9-0.34-0.56-0.74-1.2-1.17-1.92-23.32-6.06-47.84-11.45-69.27-13.42-34.18-3.15-75.88 12.02-95.09 22.88h-0.01l12.12 115.54 470.19 99.26 25.49 5.38 0.6-155.88zM293.84 711.24v0z" fill="#4AD04B" p-id="2989"></path><path d="M312.58 721.39l1.23 51.12s0.23 2.2 4.82 2.75c4.59 0.55 5.65-3.86 5.65-3.86l3.5-47.96c-7.32-1.03-13.45-1.6-13.45-1.6l-1.75-0.45zM440.71 748.97s-2.17 28.75-3.18 45.19c0.66 0.28 1.41 0.48 2.26 0.53 3.3 0.18 5.14-6.24 5.69-6.79 0.36-0.37 2.57-25.22 4.04-42.01-4.96 5.71-8.81 3.08-8.81 3.08z" fill="#ECEEEE" p-id="2990"></path><path d="M266.2 660.89s0.17 0.31 0.4 0.76c-0.24-0.45-0.4-0.76-0.4-0.76zM295.4 631c0.04 0.03 0.04 0.03 0.09 0.06-0.03-0.02-0.07-0.04-0.09-0.06zM318.92 656.44c2.74 5.51 10.17 11.84 11.55 19.83 1.38 7.99 9.64 15.15 15.42 13.49 5.78-1.65 18.17-5.23 23.41-13.49 2.77-4.37 4.82-8.7 6.16-11.85-9.18-1.63-18.48-3.78-26.17-5.93-6.51-1.81-11.87-3.61-14.96-5.08-2.31-1.09-5.56-2.84-9.17-4.86 0.09 0.05 0.19 0.11 0.28 0.16-3.82 1.73-8.14 4.47-6.52 7.73zM315.6 682.05s-5.78 1.65-6.06 4.41c-0.28 2.75 7.43 14.04 12.67 15.15 5.23 1.1 5.78 0.28 6.06-3.58 0.27-3.86-0.83-11.84-3.3-13.77-2.49-1.94-9.37-2.21-9.37-2.21zM461.3 717.89c1.13-4.65 1.35-7.2 1.35-7.2s-0.23 2.56-1.35 7.2zM430.15 687.56c-3.03-5.51-15.42-6.61-24.23-7.99s-13.22-3.3-15.42 0c0 0-4.13 4.41 3.86 14.87 7.99 10.46 15.42 20.1 19.83 17.35 4.4-2.75 18.99-18.73 15.96-24.23zM453.01 726.94c-0.85 5.09-0.34 9.32 0.46 12.53-6.7 13.44-12.76 9.5-12.76 9.5s3.85 2.64 8.8-3.09c1.63-1.88 3.37-4.66 5.15-8.75 0.07-0.16 0.12-0.3 0.19-0.46 3.39-7.91 5.34-14.28 6.43-18.72-0.03-0.01-6.34-2.55-8.27 8.99zM388.86 666.4c0.19 0.02 0.36 0.03 0.55 0.06-0.18-0.03-0.36-0.04-0.55-0.06zM394.49 666.91l1.33 0.09-1.33-0.09zM382.25 665.53c0.05 0.01 0.1 0.02 0.16 0.02-0.06-0.01-0.11-0.01-0.16-0.02zM287.46 699.38c0 0.01 0.01 0.03 0.02 0.04 0.43 0.72 0.83 1.37 1.17 1.92-0.35-0.56-0.76-1.23-1.19-1.96zM301.28 687.83c2.2-4.13-8.54-16.52-11.29-21.2s-8.26-9.09-8.26-9.09l-13.16 7.75c4.43 8.22 13.98 25.85 18.84 34.01 4.6-3.1 12.33-8.59 13.87-11.47z" p-id="2991"></path><path d="M482.2 729.14s-5.23-14.59-11.29-19.83c-6.06-5.23-8.26-7.99-8.26-7.99s4.96-18.45-13.49-25.61-28.09-8.54-48.19-8.54c-1.61 0-3.35-0.07-5.15-0.18l-1.33-0.09c-1.64-0.12-3.33-0.27-5.08-0.46-0.19-0.02-0.36-0.03-0.55-0.06-2.11-0.24-4.27-0.52-6.46-0.85-0.05 0-0.1-0.01-0.16-0.02-2.24-0.33-4.51-0.71-6.79-1.11-1.34 3.15-3.39 7.48-6.16 11.85-5.23 8.26-17.62 11.84-23.41 13.49-5.78 1.65-14.04-5.51-15.42-13.49-1.38-7.99-8.81-14.32-11.55-19.83-1.62-3.26 2.7-6 6.51-7.73-0.1-0.05-0.2-0.11-0.28-0.16-11.15-6.23-26.03-15.28-29.65-17.49-0.05-0.03-0.05-0.03-0.09-0.06-0.44-0.27-0.73-0.45-0.73-0.45l5.78-4.68-20.1-7.16 5.23-17.62S266.3 622 262.72 623.1c-3.58 1.1-18.17 9.91-22.03 11.29-2.33 0.83-4.82 0.79-7.04 1.13-1.45 0.22-2.8 0.58-3.84 1.58 0 0-1.77 16.36 1.91 18.2 3.67 1.84 21.88 1.85 21.88 1.85l5.45 1.61 7.15 2.11s0.16 0.31 0.4 0.76c0.31 0.58 0.79 1.47 1.42 2.63 0.17 0.34 0.34 0.64 0.54 1.02l13.16-7.75s5.51 4.41 8.26 9.09 13.49 17.07 11.29 21.2c-1.53 2.88-9.27 8.37-13.87 11.47 0.02 0.03 0.03 0.05 0.05 0.08 0.43 0.73 0.84 1.4 1.19 1.96 4.78 7.64 5.17 9.53 5.2 9.9v70.22s9.54 4.22 12.85 1.1 3.3-3.12 3.3-3.12l2.02-58.2c-0.83-1.68-1.93-1.69-1.28-4.77 1.46-6.97 6.24-10.28 32.68-6.97 26.44 3.3 41.13 0 54.34 4.41 13.22 4.41 23.49 5.87 23.49 17.25 0 5.54 0.34 11.51-0.91 17.07 0.73 0.74 4.04 55.63 4.04 55.63s7.16 6.24 12.67 1.1c-0.04-1.23 0.16-5.34 0.5-10.8 1.01-16.44 3.18-45.19 3.18-45.19s6.06 3.95 12.76-9.5c-0.81-3.21-1.32-7.44-0.46-12.53 1.93-11.54 8.24-9 8.27-8.99 0.01-0.02 0.01-0.04 0.02-0.06 1.13-4.64 1.35-7.2 1.35-7.2s8.26 5.23 12.94 13.77c3.98 7.27 6.36 13.89 6.98 15.71 0.11 0.32 0.18 0.53 0.18 0.53s3.03 6.61 5.51 6.88l2.48 0.27s1.91-3.43 1.91-6.69c0-1.63-0.44-3.23-1.91-4.33-4.42-3.27-8.55-7.68-8.55-7.68z m-153.94-31.12c-0.28 3.86-0.83 4.68-6.06 3.58-5.23-1.1-12.94-12.39-12.67-15.15 0.27-2.75 6.06-4.41 6.06-4.41s6.88 0.27 9.36 2.2c2.49 1.94 3.59 9.93 3.31 13.78z m85.92 13.77c-4.41 2.75-11.84-6.88-19.83-17.35-7.99-10.46-3.86-14.87-3.86-14.87 2.2-3.3 6.61-1.38 15.42 0 8.81 1.38 21.2 2.48 24.23 7.99 3.04 5.5-11.55 21.48-15.96 24.23z" fill="#FFFFFF" p-id="2992"></path><path d="M421.25 731.16c0-11.39-10.27-12.85-23.49-17.25-13.22-4.41-27.91-1.1-54.34-4.41-26.44-3.3-31.21 0-32.68 6.97-0.65 3.08 0.45 3.09 1.28 4.77l0.56 0.15 1.75 0.46s6.13 0.58 13.45 1.6c8.49 1.2 18.59 3 22.73 5.27 7.71 4.23 21.54 10.46 39.34 13.4 17.8 2.94 26.5 4.59 27.23 5.33 0.03 0.03 3.23 0.55 3.26 0.78 1.25-5.56 0.91-11.54 0.91-17.07z" fill="#FDD2D3" p-id="2993"></path><path d="M769.27 761.07s-4.2 0.94-9.17 2.29l6.6 32.87s1.11 2.96 4.23 2.18c3.12-0.78 3.1-2.32 3.1-2.32l-3.4-33.6-0.27-1.85-1.09 0.43zM683.96 790.97c-0.62 0.41-2.85 1.47-6.15-1.5 2.47 11.49 6.15 28.5 6.45 28.71 0.43 0.34 2.26 4.62 4.53 4.21 0.58-0.1 1.08-0.31 1.51-0.55-2.12-11.26-6.12-30.91-6.14-31-0.02 0.01-0.08 0.06-0.2 0.13z" fill="#C7C9C5" p-id="2994"></path><path d="M797.23 714.69s-0.13 0.32-0.22 0.55c0.15-0.32 0.25-0.55 0.25-0.55l8.39-3.67s12.6-1.6 14.97-3.18c-2.38 1.59-14.99 3.18-14.99 3.18l-8.4 3.67zM786.11 713.74s-3.55 3.54-5.03 7.02c-1.51 3.49-8.09 13.02-6.2 15.69 1.23 1.75 6.01 4.63 9.45 6.42 2.91-6.31 8.75-19.04 11.48-24.98l-9.7-4.15zM820.63 707.84c2.39-1.6-0.26-12.76-0.26-12.76s2.65 11.16 0.26 12.76zM699.28 762.8c3.29 1.52 7.6-5.8 12.21-13.73 4.61-7.94 1.37-10.63 1.37-10.63-1.81-2.1-4.69-0.38-10.67 1.34-5.97 1.73-14.46 3.56-16.08 7.63-1.6 4.08 9.88 13.87 13.17 15.39zM727.25 734.3c4.34 5.27 13.23 6.67 17.37 7.3 4.15 0.64 9.24-5.03 9.51-10.68 0.25-5.64 4.84-10.67 6.26-14.72 0.84-2.4-2.38-3.92-5.18-4.78 0.26-0.19 0.53-0.4 0.8-0.59-2.57 1.91-4.91 3.57-6.54 4.61-4.47 2.84-16.37 7.76-27.97 11.33 0.15-0.05 0.29-0.08 0.45-0.13 1.21 2.06 3.01 4.88 5.3 7.66zM761.31 706.83c0.63-0.48 1.23-0.95 1.85-1.42-0.62 0.47-1.23 0.94-1.85 1.42zM757.09 710.02c0.85-0.64 1.71-1.28 2.59-1.95-0.88 0.67-1.74 1.31-2.59 1.95zM770.48 699.7c0.22-0.18 0.43-0.34 0.65-0.51-0.21 0.16-0.45 0.34-0.65 0.51zM711.99 729.35c0.65-0.16 1.31-0.32 1.99-0.49-0.68 0.18-1.35 0.34-1.99 0.49zM772.75 697.9c0.27-0.21 0.46-0.36 0.67-0.53-0.2 0.16-0.43 0.34-0.67 0.53zM764.92 733.63s-4.74 0.79-6.29 2.34c-1.55 1.55-1.6 7.17-1.08 9.81 0.53 2.65 0.97 3.17 4.51 1.95 3.52-1.22 7.87-9.7 7.45-11.59-0.44-1.87-4.59-2.51-4.59-2.51zM777.28 800.55l-6.46-40.11-0.46 0.19 0.27 1.85 5.7 38.19s-0.92 0.12 1.64 1.98c-2.56-1.87-0.69-2.1-0.69-2.1zM779.32 756.51l-0.51-4.05-0.01 0.01zM684.16 790.27h-0.02c0.02 0 4.02 20.02 6.14 31.28 0.71 3.74 1.2 6.7 1.28 7.56 1.07 0.77 2.14 1.11 3.16 1.08-1.02 0.03-2.08-0.48-3.15-1.25-0.3-3.44-7.41-38.67-7.41-38.67zM683.96 790.97c-0.84 0.51-4.41 1.98-9.45-5.6 0.28-2.29 0.26-5.26-0.77-8.71-2.35-7.83-6.5-5.5-6.51-5.5-1.2-3.14-1.57-4.91-1.57-4.91s0.05 0.21 0.13 0.51c0.44 1.7 2.26 7.93 7.69 17.09 1.58 2.68 3.04 4.45 4.33 5.62 3.3 2.97 5.53 1.91 6.15 1.5z" p-id="2995"></path><path d="M648.49 786.8c-2.76 2.67 0.96 7.62 0.96 7.62l1.7-0.41c1.7-0.4 3.22-5.24 3.22-5.24s1.04-5.56 3.54-11.87c1.87-4.72 5.27-8.32 6.88-9.85 0.54-0.52 0.89-0.8 0.89-0.8s0.38 1.76 1.57 4.91c0.01 0 4.16-2.33 6.51 5.5 1.03 3.45 1.05 6.42 0.77 8.71 5.04 7.58 8.61 5.83 9.45 5.31 0.12-0.07 0.18-0.41 0.19-0.41h0.02s7.11 35.26 7.41 38.71c1.07 0.77 2.13 1.18 3.15 1.14 3.04-0.09 5.52-2.8 5.52-2.8s-2.5-38.24-2.05-38.82c-1.35-3.74-1.63-7.88-2.12-11.72-1-7.88 5.99-9.78 14.75-13.98 8.77-4.2 19.23-3.18 37.23-7.77 18.01-4.59 21.6-2.72 23.23 1.98 0.71 2.08-0.04 2.19-0.47 3.41l6.46 40.11s-1.87 0.23 0.7 2.1c2.56 1.88 6.94-1.65 6.94-1.65l-5.59-44.49-0.52-4.04h0.01c0.03-0.02 1.56-1.07 4.59-7.59 0.19-0.43 1.35-1.07 1.61-1.64-0.21-0.1-0.46-0.25-0.68-0.37-3.44-1.79-8.22-4.67-9.45-6.42-1.88-2.67 4.7-12.2 6.2-15.69 1.49-3.48 5.03-7.02 5.03-7.02l9.69 4.14 0.16 0.07c0.31-0.81 0.54-1.41 0.76-1.94 0.14-0.37 0.22-0.56 0.3-0.77 0.09-0.23 0.22-0.55 0.22-0.55l8.41-3.67s12.61-1.6 14.99-3.18c2.38-1.59-0.26-12.76-0.26-12.76-2.03-1.52-4.97-0.31-7.75-0.93-2.8-0.62-13.67-5.44-16.24-5.9-2.58-0.45-17.74-13.25-17.74-13.25l5.16 11.74-13.29 6.7 4.41 2.73s-0.6 0.48-1.51 1.2c-0.22 0.17-0.4 0.33-0.67 0.53-0.47 0.38-1.02 0.81-1.63 1.29-0.22 0.16-0.42 0.33-0.65 0.51-2.06 1.62-4.62 3.63-7.31 5.7-0.62 0.47-1.22 0.94-1.85 1.42-0.54 0.42-1.09 0.83-1.63 1.24-0.88 0.67-1.74 1.31-2.59 1.95-0.36 0.27-0.72 0.55-1.08 0.81-0.27 0.19-0.54 0.4-0.8 0.59 2.8 0.86 6.02 2.38 5.18 4.78-1.42 4.05-6.01 9.08-6.26 14.72-0.27 5.65-5.36 11.33-9.51 10.68-4.15-0.64-13.04-2.04-17.37-7.3-2.29-2.78-4.09-5.6-5.3-7.66-0.15 0.05-0.29 0.08-0.45 0.13-2.56 0.79-5.08 1.48-7.53 2.1-0.68 0.17-1.33 0.33-1.99 0.49-2.65 0.62-5.21 1.14-7.44 1.42-13.92 1.75-20.47 3.55-32.61 10.1-12.14 6.56-7.1 18.9-7.1 18.9s-1.28 2.1-5.03 6.24c-0.65 0.71-1.23 1.66-1.79 2.67-2.67 4.84-4.29 12.03-4.29 12.03s-2.5 3.44-5.26 6.11z m113.56-39.06c-3.54 1.22-3.98 0.69-4.51-1.95-0.52-2.64-0.46-8.27 1.08-9.81 1.55-1.55 6.29-2.34 6.29-2.34s4.15 0.64 4.59 2.52c0.43 1.88-3.93 10.36-7.45 11.58z m-75.93-0.33c1.62-4.07 10.1-5.91 16.08-7.63 5.98-1.72 8.86-3.44 10.67-1.34 0 0 3.24 2.69-1.37 10.63-4.61 7.93-8.92 15.25-12.21 13.73-3.3-1.52-14.78-11.31-13.17-15.39z" fill="#D5D4D4" p-id="2996"></path><path d="M770.36 760.63l0.46-0.19c0.43-1.23 1.19-1.33 0.47-3.41-1.63-4.7-5.22-6.57-23.23-1.98-18 4.59-28.46 3.58-37.23 7.78-8.76 4.2-15.75 6.11-14.75 13.99 0.48 3.83 0.77 7.99 2.12 11.73 0-0.16 2.17-0.8 2.19-0.82 0.45-0.58 6.31-2.47 18.37-6.06 12.06-3.58 21.1-9.1 26.07-12.7 2.67-1.93 9.49-4.05 15.27-5.62 4.97-1.35 9.17-2.29 9.17-2.29l1.09-0.43z" fill="#D2B1B0" p-id="2997"></path><path d="M840.3 759.09l-0.65-0.09 2.74 18.23s0.18 0.78 1.85 0.77c1.67-0.01 1.84-1.63 1.84-1.63l-0.9-17.31c-2.66-0.03-4.88 0.03-4.88 0.03zM886.84 763.16c-0.07-0.02-0.09-0.03-0.1-0.03 0 0.01 0.5 10.26 0.87 16.2 0.27 0.09 0.5 0.22 0.84 0.2 1.19-0.08 1.57-2.47 1.72-2.69 0.13-0.15-0.2-9.13-0.44-15.21-1.29 1.94-2.55 1.66-2.89 1.53z" fill="#C7C9C5" p-id="2998"></path><path d="M890.14 754.69c-0.07 1.85 0.29 3.35 0.72 4.47-1.57 4.45-3.55 4.15-4.02 4 0.34 0.13 1.6 0.41 2.89-1.53 0.5-0.74 1.01-1.82 1.45-3.37 1.31-4.44 1.58-7.45 1.64-8.87-0.02 0.44-0.05 0.96-0.15 1.71 0.02 0-2.36-0.63-2.53 3.59zM839 735.48c1.23 1.85 4.17 3.78 5.02 6.58 0.85 2.79 4.13 4.98 6.13 4.13 2-0.85 6.27-2.69 7.77-5.88 0.79-1.68 1.33-3.34 1.67-4.52 0.18 0.01 0.34 0 0.52 0.01-6.34-0.29-13.09-1.24-15.72-2.1-2.98-0.98-10.04-4.09-13.39-5.58 2.37 1.06 6.63 2.94 9.99 4.3-1.29 0.79-2.72 1.97-1.99 3.06zM842.21 751.5c1.93 0.16 2.09-0.16 2-1.56-0.07-1.39-0.81-4.2-1.79-4.78-0.97-0.58-3.45-0.37-3.45-0.37s-2 0.84-1.97 1.85c0.02 1 3.29 4.7 5.21 4.86zM865.66 740.55s-1.28 1.76 2.04 5.15c3.32 3.39 6.41 6.5 7.86 5.31 1.45-1.18 5.96-7.55 4.64-9.39-1.34-1.83-5.82-1.67-9.04-1.76-3.21-0.1-4.87-0.59-5.5 0.69zM864.99 735.88c-0.4 0.01-0.81 0.01-1.22 0.01 0.41 0 0.82 0 1.22-0.01zM834.67 758.09l-0.24-2.09s-0.91-0.31-3.28-3.21c-0.15-0.19-0.82-0.37-1.02-0.62 1.51-1.31 3.8-3.6 4.21-4.69 0.61-1.58-3.9-5.52-5.1-7.07-1.2-1.55-3.43-2.87-3.43-2.87l-4.41 3.37c-0.62-0.89-1.04-1.48-1.04-1.48l-4.67-0.76s-6.54 0.81-7.92 0.33c1.38 0.49 7.91-0.32 7.91-0.32l4.67 0.77s6.39 10.96 8.76 13.87c2.14 2.63 1.44 3.52 1.28 3.67l2.24 1.64 3.92 22.74s2.06 0.65 3.4 0.21c-1.12 0.06-2.38-0.48-2.38-0.48l-2.9-23.01zM829.17 727.31s0.73 0.33 1.82 0.81c-1.12-0.49-1.82-0.81-1.82-0.81zM807.77 739c-1.4-0.5-1.51-6.43-1.51-6.43s0.1 5.93 1.51 6.43zM887.93 783.32c-0.44 0.52-0.94 0.79-1.45 0.9 0.51-0.1 1.02-0.38 1.45-0.9zM879.38 763.77l0.03 0.01z" p-id="2999"></path><path d="M830.34 757.04s0.03-0.05 0.05-0.06l-0.08-0.06 0.03 0.12zM840.64 779.9s-0.45 0-0.45 0.05v-0.05l-1.33-20.9-0.1-0.01 1.88 20.91zM886.73 763.12s0.9 18.43 1.2 20.2c-0.08-0.45-0.19-1.98-0.32-4-0.37-5.94-0.87-16.18-0.88-16.2z" p-id="3000"></path><path d="M807.77 739c1.38 0.49 7.92-0.33 7.92-0.33l4.67 0.76s0.42 0.58 1.04 1.48l4.41-3.37s2.23 1.32 3.43 2.87c1.2 1.56 5.71 5.49 5.1 7.07-0.41 1.09-2.7 3.38-4.21 4.69 0.21 0.25 0.88 0.43 1.02 0.62 2.37 2.9 3.28 3.21 3.28 3.21l0.24 2.09 2.9 23s1.26 0.53 2.38 0.48c0.51-0.03 0.99-0.14 1.31-0.53 0.66-0.8 0.51-1.02 0.31-1.1-0.11-0.04-0.23-0.05-0.23-0.05l-1.88-20.92c-0.38-0.56-0.77-0.52-0.68-1.65 0.22-2.56 1.78-3.95 11.39-3.96 9.61 0 14.72-1.85 19.64-0.86 4.93 0.99 8.67 1.05 9.18 5.12 0.26 1.97 0.64 4.1 0.44 6.15 0.29 0.24 3.93 19.72 3.93 19.72s1.6 1.08 3.13 0.74c0.52-0.11 1.02-0.38 1.45-0.9-0.29-1.77-1.2-20.2-1.2-20.2h0.01c0.01 0 0.03 0.02 0.1 0.03 0.47 0.15 2.45 0.45 4.02-4-0.43-1.12-0.79-2.61-0.72-4.47 0.17-4.23 2.55-3.59 2.55-3.59 0.1-0.74 0.13-1.27 0.15-1.71 0.03-0.57 0.03-0.95 0.03-0.95s3.2 1.5 5.25 4.35c2.06 2.84 3.3 5.49 3.3 5.49s1.39 2.23 2.28 2.21l0.89-0.01s1.22-2.96-0.48-3.95c-1.73-0.97-3.42-2.37-3.42-2.37s-2.52-4.99-4.93-6.59c-2.4-1.59-3.3-2.48-3.3-2.48s0.95-6.83-5.98-8.56c-6.91-1.73-10.42-1.8-17.62-0.9-1.14 0.15-2.46 0.21-3.85 0.24-0.4 0.01-0.81 0.01-1.22 0.01-1.19 0-2.41-0.02-3.67-0.08-0.17-0.01-0.34 0-0.52-0.01-0.34 1.18-0.88 2.83-1.67 4.52-1.5 3.19-5.77 5.03-7.77 5.88-2 0.85-5.27-1.34-6.13-4.13-0.85-2.81-3.79-4.73-5.02-6.58-0.73-1.09 0.7-2.27 1.98-3.05-3.36-1.36-7.62-3.24-9.99-4.3H831c-1.08-0.49-1.82-0.82-1.82-0.82l1.86-1.94-7.52-1.66 1.08-6.54s-5.96 8.36-7.19 8.91c-1.23 0.56-6.05 4.36-7.37 5.03-1.31 0.66-2.93 0.44-3.77 1.45-0.02 0 0.09 5.94 1.5 6.44z m63.4 0.86c3.22 0.1 7.69-0.07 9.04 1.76 1.33 1.84-3.18 8.21-4.64 9.39-1.45 1.18-4.54-1.93-7.86-5.31-3.32-3.39-2.04-5.15-2.04-5.15 0.62-1.28 2.28-0.79 5.5-0.69z m-32.21 4.94s2.48-0.21 3.45 0.37c0.98 0.58 1.72 3.39 1.79 4.78 0.09 1.39-0.07 1.71-2 1.56-1.92-0.16-5.18-3.86-5.22-4.85-0.01-1.02 1.98-1.86 1.98-1.86z" fill="#D5D4D4" p-id="3001"></path><path d="M878.97 757.66c-0.52-4.08-4.25-4.15-9.18-5.14-4.92-0.98-10.03 0.85-19.64 0.86-9.6 0-11.17 1.4-11.39 3.95-0.1 1.14 0.3 1.08 0.68 1.65l0.1 0.01 0.09 0.01 0.65 0.09s2.23-0.06 4.89-0.03c3.1 0.05 6.78 0.24 8.36 0.86 2.94 1.17 8.18 2.78 14.68 3.03 6.51 0.25 9.67 0.48 9.97 0.71 0.02 0.01 1.12 0.16 1.18 0.16h0.03c0.22 0.02-0.16-4.19-0.42-6.16z" fill="#D2B1B0" p-id="3002"></path><path d="M267.78 315.89l-35.62 69.03h28.64l63.89-66.46-39.66 75.27h31.58l65.35-123.37h-42.59l-55.43 57.83 30.84-54.16-3.31-3.67h-35.24L175.62 376.28l-5.14 4.97 36.71 1.1zM346.71 379.68l-15.79 2.85-7.71 11.2h67.56l6.98-8.08-15.79-2.2 67.93-94 16.16-0.37 6.24-9.17-63.89-2.21-9.18 10.28h15.06zM482.93 403.64l6.25-9.91-50.67-6.61 80.04-104.28-33.42-2.57-87.38 116.4zM531.77 411.35l33.41-48.46 2.94 54.71 42.96 3.3-4.41-65.91 97.67-62.97-44.8-1.1-76.37 44.79 35.25-48.83-33.78-2.2-1.65 4.4-92.71 122.27z" fill="#FFFFFF" p-id="3003"></path></svg>