<?xml version="1.0" standalone="no"?><!DOCTYPE svg PUBLIC "-//W3C//DTD SVG 1.1//EN" "http://www.w3.org/Graphics/SVG/1.1/DTD/svg11.dtd"><svg t="1607840000772" class="icon" viewBox="0 0 1024 1024" version="1.1" xmlns="http://www.w3.org/2000/svg" p-id="2352" xmlns:xlink="http://www.w3.org/1999/xlink" width="200" height="200"><defs><style type="text/css"></style></defs><path d="M953.42 605.7c1.82-5.27 1.33-10.01-1.46-14.11-4.42-6.48-11.69-6.77-14.51-6.87 0 0-1.35-0.11-3.65-0.2-30.52-45.64-98.72-83.76-193.89-108.31-2.13-11.4-3.51-18.8-3.51-18.8L706.43 296.3l-2.05-10.99c-0.41-2.21-1.34-4.29-2.74-6.05-2.97-3.78-16.22-16.89-61.92-26.74-39.93-8.61-112.54-17.77-168.46-17.77-2.63 0-5.22 0.02-7.76 0.06-52.71 0.86-99.4 7.77-116.58 13.84l-4.1 1.43c-17.11 5.93-40.55 14.07-52.56 29.08a13.983 13.983 0 0 0-2.95 6.99l-1.12 9.11-8.04 65.42-14.62 118.99c-124.68 34.8-198.8 94.06-198.8 159.48 0 61.17 63.82 116.66 175.09 152.39 62.02 32.55 161.12 51.97 265.56 51.97 100.2 0 193.57-17.29 256.52-47.43 120.64-35.5 189.81-92.66 189.81-156.92 0-8.13-1.3-16.34-3.66-24.52 2.67-2.25 4.71-5.07 5.37-8.94z" p-id="2353"></path><path d="M245.2 778.68c58 30.82 152.89 50.93 260.2 50.93 102.16 0 193.07-18.23 251.61-46.57-70.21 20.54-156.02 32.66-248.77 32.66-99.13-0.01-190.35-13.85-263.04-37.02z" fill="#DDDDDD" p-id="2354"></path><path d="M893.19 601.17c13.97-2.22 25.38-2.8 32.94-2.86-27.13-47.04-99.98-86.78-198.28-110.86l4.51 24.22c79.54 20.9 138.01 52.6 160.83 89.5zM903.79 635.68c0 83.05-177.44 150.61-395.55 150.61s-395.56-67.56-395.56-150.61c0-49.57 63.24-93.61 160.59-121.07l2.94-23.98c-118.8 31.4-197.56 86.17-197.56 148.53 0 56.76 65.25 107.22 166.54 139.52 72.69 23.18 163.91 37.01 263.04 37.01 92.75 0 178.56-12.12 248.77-32.66 109.39-32 180.81-84.49 180.81-143.87 0-10.54-2.38-20.86-6.69-30.89-7.63 3.37-19.11 7.67-29.51 11.64 1.43 5.18 2.18 10.45 2.18 15.77z" fill="#FFFFFF" p-id="2355"></path><path d="M732.75 513.81l6.6 35.46c55.16 17.13 92.9 40.14 103.73 65.97 6.74-2.89 12.88-5.24 18.13-6.8 1.9-0.57 3.75-1.07 5.61-1.58h-0.01c0.02 0 0.03-0.01 0.05-0.01 8.61-2.35 16.75-4.1 24.2-5.35-22.6-36.08-80.1-67.1-158.31-87.69z" fill="#FFFFFF" p-id="2356"></path><path d="M159.78 640.9h1.35v-3.36c0-0.82-1.62-1.64-1.72-2.46-0.2-1.48-1.02-2.97-1.02-4.47 0-32.74 42.63-62.2 111.14-82.73l3.66-31.19c-95.99 27.11-158.33 70.36-158.33 118.99 0 81.9 176.47 148.53 393.42 148.53 216.96 0 393.44-66.63 393.44-148.53 0-5.07-0.69-10.09-2.02-15.04-5.5 2.11-10.62 4.1-14.48 5.76-4.25 1.82-20.46 9.24-41.96 19.15-14.28 35-77.9 64.89-167.36 82-3.23 5.34-8.32 13.19-13.87 19.44-9.27 10.44-45.8 19.71-64.35 18.55-16.56-1.04-11.86-10.86-0.77-26.96-30.14 2.81-61.26 6.02-94.17 6.02-183.03 0-331.94-48.05-342.96-103.7z" fill="#FFFFFF" p-id="2357"></path><path d="M158.44 637.54c-0.16-0.82-0.27-1.64-0.37-2.46 0.09 0.82 0.21 1.64 0.37 2.46zM843.25 645.56c-60.63 27.95-163.84 75.93-163.84 75.93s-1.35 2.48-3.52 6.07c89.45-17.11 153.08-47 167.36-82zM716.5 684.96s71.8-44.87 120.12-66.86c-15.46-20.91-48.82-39.53-94.53-54.05l11.22 60.33s-53.91 38.26-93.05 55.65-74.79 25.22-211.31 24.35c-33.19-0.21-61.5-4.04-85.42-9.68-5.73 13.19-18.85 22.44-34.15 22.44-16.71 0-30.68-11.07-35.4-26.23-6.96 5.16-15.55 8.25-24.88 8.25-23.13 0-41.88-18.75-41.88-41.88 0-20.28 14.42-37.19 33.57-41.05l1.1-8.98 5.52-44.9c-62.56 19.03-103.41 45.56-108.97 75.21 11.02 58.79 160.6 105.37 343.61 105.37 32.91 0 64.7-1.54 94.84-4.35 1.34-1.94 2.75-3.96 4.25-6.09 0.86-1.21 1.88-2.35 3.04-3.42 0.99-0.92 2.13-1.76 3.32-2.58 0.19-0.14 0.34-0.29 0.54-0.42h-0.01c20.13-13.41 63.84-13.87 63.84-13.87l44.63-27.24z" fill="#F7F6F3" p-id="2358"></path><path d="M157.72 630.61c0 1.5 1.49 2.99 1.69 4.47 0.11 0.82 1.72 1.64 1.72 2.46v3.36h-1.35c5.56-34.78 45.74-57.85 108.3-76.88l1.45-15.3c-68.51 20.53-111.81 49.15-111.81 81.89zM836.62 618.1c2.2-1 4.36-1.96 6.45-2.86-10.84-25.83-48.57-48.85-103.73-65.97l2.75 14.78c45.71 14.52 79.07 33.14 94.53 54.05z" fill="#D6D5D3" p-id="2359"></path><path d="M891.06 601.5c0.73-0.12 1.41-0.22 2.13-0.33-22.81-36.89-81.29-68.59-160.83-89.5l0.39 2.14c78.21 20.59 135.71 51.61 158.31 87.69zM508.24 784.21c-216.96 0-393.46-66.63-393.46-148.53 0-48.63 62.24-91.88 158.24-118.99l0.26-2.08c-97.35 27.46-160.59 71.5-160.59 121.07 0 83.05 177.44 150.61 395.56 150.61 218.1 0 395.55-67.56 395.55-150.61 0-5.33-0.75-10.59-2.18-15.78-0.65 0.25-1.28 0.49-1.92 0.74 1.33 4.95 2.01 9.96 2.01 15.04-0.01 81.9-176.51 148.53-393.47 148.53z" fill="#DBC78F" p-id="2360"></path><path d="M273.02 516.69l-3.83 31.19-1.78 14.47-5.52 44.9c2.2 2.13 5.18 4.97 8.68 8.22 1.18 0.04 2.36 0.11 3.52 0.25 0.46 0.05 0.92 0.14 1.38 0.21 1.21 0.18 2.41 0.41 3.58 0.7 0.43 0.11 0.87 0.21 1.3 0.34 1.34 0.37 2.65 0.8 3.93 1.3 0.2 0.08 0.4 0.14 0.6 0.22 1.56 0.64 3.07 1.36 4.53 2.16h0.01c10.11 5.62 17.62 15.3 20.38 26.83 0.24 0.16 0.47 0.31 0.71 0.46 5.56-3.29 11.96-5.31 18.89-5.31 9.5 0 18.07 3.67 24.65 9.52h0.01c0.2 0.18 1.71 0.35 1.91 0.52 2.09 1.94-0.04 4.03 6.92 6.39v0.01c0 1.27 0.21 2.68 0.9 4.05 0.48 0.93 0.35 1.82 0.75 2.8 37.5 7.31 89.18 13.98 117.37 13.68 40.44-0.43 111.14-5.22 137.23-12.61 26.09-7.39 107.75-47.39 122.97-57.83 2.89-1.98 5.23-3.84 7.38-5.63l3.86 20.85-11.23-60.33-2.76-14.78-6.6-35.46-0.39-2.14-4.51-24.22-5.12-27.5c-3.94-7.33-7.62-13.87-10.27-17.89-9.67-14.68-14.5-21.45-23.19-11.59-8.7 9.85-5.79 63.19-6.37 89.86-0.58 26.67-13.91 34.78-24.93 31.31-11.02-3.48-18.55-39.42-30.72-45.92s-11.02 10.56-20.29 41.86c-9.27 31.31-30.14 24.35-35.36 18.55-5.22-5.8-15.65-76.52-20.29-92.18-4.64-15.65-38.84-5.8-53.34 2.61s-13.91 50.14-16.23 60.58c-2.32 10.44-4.64 17.39-11.6 20.87-6.96 3.48-7.53-14.49-6.96-39.42 0.58-24.93-10.44-60.87-20.87-69.57-6.38-8.12-25.5 10.44-44.06 19.71s-31.88 0-39.42-13.33-20.87-18.55-27.83-12.76c-6.96 5.8-35.36 41.74-44.63 44.64-3.73 1.17-6.95 0.05-9.52-1.66L292 362.39l-15.75 128.25-2.94 23.98-0.29 2.07z" fill="#FED850" p-id="2361"></path><path d="M705.24 365.95c-4.46 2.79-9.59 5.97-15.69 9.72-48.99 24.35-81.74 28.99-127.54 35.36s-92.48 4.06-159.14-4.93c-66.67-8.99-108.41-39.71-108.41-39.71l-2.49-4.02-15.14 123.23c2.57 1.71 5.79 2.82 9.52 1.66 9.27-2.9 37.68-38.84 44.63-44.64 6.96-5.8 20.29-0.58 27.83 12.76s20.87 22.61 39.42 13.33 37.68-27.83 44.06-19.71c10.44 8.7 21.45 44.64 20.87 69.57-0.58 24.93 0 42.9 6.96 39.42 6.96-3.48 9.28-10.44 11.6-20.87 2.32-10.44 1.73-52.17 16.23-60.58s48.7-18.26 53.34-2.61c4.64 15.65 15.08 86.38 20.29 92.18 5.22 5.8 26.09 12.76 35.36-18.55 9.27-31.31 8.12-48.36 20.29-41.86s19.7 42.44 30.72 45.92c11.02 3.48 24.36-4.64 24.93-31.31 0.58-26.67-2.32-80 6.37-89.86 8.7-9.85 13.52-3.08 23.19 11.59 2.65 4.02 6.33 10.56 10.27 17.89l-29.97-161.11 12.5 67.13z" fill="#FEE588" p-id="2362"></path><path d="M294.47 366.4s41.74 30.72 108.41 39.71c66.67 8.99 113.35 11.31 159.14 4.93s78.55-11.02 127.54-35.36c6.09-3.76 11.22-6.94 15.69-9.72l-12.49-67.12c-15.97 34.79-97.6 61.29-195.96 61.29-100.14 0-182.93-27.46-196.78-63.17l-8.04 65.42 2.49 4.02z" fill="#674328" p-id="2363"></path><path d="M496.79 360.13c98.36 0 179.99-26.5 195.96-61.29l-2.04-10.99s-9.57-12.17-53.91-21.74c-44.35-9.57-120-18.26-173.05-17.39-53.05 0.87-97.39 7.83-112.18 13.04s-40 13.04-50.44 26.09l-1.12 9.11c13.84 35.71 96.64 63.17 196.78 63.17z m135.76-45.87c5.33-1.74 27.39-15.44 28.26-18.15 0.87-2.72-8.26-8.38-7.83-8.37 6.3 0.11 13.59 3.8 16.09 7.5s-1.96 8.7-3.91 10.44c-1.96 1.74-38.26 11.3-38.26 11.3s0.33-0.98 5.65-2.72zM393.2 262.95l11.41 2.28v0.98l-25.82 4.73 14.41-7.99z m-64.68 22.94c7.17-3.91 23.26-11.74 34.78-12.61 0 0-26.3 7.83-23.26 18.04 3.04 10.22 14.35 19.35 50 27.18 35.65 7.83 80.87 12.17 80.87 12.17l66.31 6.3s-99.35-3.26-119.35-5.43-79.57-10.44-92.61-31.96c-4.35-5.65-3.91-9.78 3.26-13.69z" fill="#845A3B" p-id="2364"></path><path d="M404.61 265.24l-11.41-2.29-14.4 7.99 25.81-4.73zM417.87 331.54c20 2.17 119.35 5.43 119.35 5.43l-66.31-6.3s-45.22-4.35-80.87-12.17c-35.65-7.83-46.96-16.96-50-27.18-3.04-10.22 23.26-18.04 23.26-18.04-11.52 0.87-27.61 8.7-34.78 12.61-7.17 3.91-7.61 8.04-3.26 13.7 13.05 21.52 72.61 29.78 92.61 31.95zM669.08 295.24c-2.5-3.7-9.78-7.39-16.09-7.5-0.43-0.01 8.7 5.65 7.83 8.37-0.87 2.72-22.93 16.41-28.26 18.15-5.33 1.74-5.65 2.72-5.65 2.72s36.31-9.57 38.26-11.3c1.95-1.75 6.41-6.75 3.91-10.44z" fill="#B58B6C" p-id="2365"></path><path d="M260.79 616.23c1.45-0.29 2.93-0.5 4.44-0.64 1.28-0.12 2.57-0.19 3.87-0.19 0.49 0 0.97 0.06 1.46 0.07-3.5-3.24-6.47-6.08-8.68-8.22l-1.09 8.98zM363.54 694.7c23.91 5.64 52.23 9.47 85.42 9.68 136.53 0.87 172.18-6.96 211.31-24.35s93.05-55.65 93.05-55.65l-3.88-20.85c-2.15 1.78-4.53 3.65-7.43 5.63-15.22 10.44-96.96 50.44-123.05 57.83-26.09 7.39-96.96 12.17-137.4 12.61-28.19 0.3-80.19-6.37-117.69-13.68 1.75 4.32 2.77 9.02 2.77 13.97 0 5.27-1.12 10.27-3.1 14.81zM310.51 647.95c-0.24-0.16-0.48-0.3-0.71-0.46 0.06 0.25 0.14 0.49 0.19 0.75 0.16-0.11 0.35-0.19 0.52-0.29z" fill="#FEBF3A" p-id="2366"></path><path d="M843.08 615.24c-2.09 0.9-4.25 1.86-6.45 2.86-48.32 21.99-120.12 66.86-120.12 66.86l-44.63 27.25s-43.71 0.45-63.84 13.87c-3.36 5.41-6.54 11.2-7.6 15.12 1.62 0.2 2.89 1.52 2.89 3.19 0 0.56-0.18 1.06-0.43 1.52 8.84 0.79 29.99-2.41 54.49-16.88 25.51-15.08 106.35-53.34 106.35-53.34l122.07-55.65s20.29-7.54 16.81-12.17c-3.48-4.64-18.42 0.62-27.83 0-2.09-0.14-4.9-0.51-7.96-1-1.86 0.51-3.71 1.01-5.61 1.58-5.26 1.55-11.4 3.9-18.14 6.79zM607.01 738.29s4.78-8.48 13.04-12.39c8.26-3.91 18.04-5.65 23.91-5.44 5.87 0.22 7.61 0.87 7.61 0.87s-27.82 0.66-44.56 16.96zM604.18 729.07c0.99-0.92 2.13-1.76 3.32-2.58-1.18 0.82-2.32 1.67-3.32 2.58zM891.06 601.5c-7.45 1.25-15.59 3-24.2 5.35 39.82-10.87 69.36-8.27 69.36-8.27s-3.69-0.32-10.1-0.27c-7.55 0.05-18.97 0.64-32.94 2.86-0.71 0.11-1.39 0.21-2.12 0.33z" fill="#E6BC33" p-id="2367"></path><path d="M936.23 598.58s-29.55-2.6-69.36 8.27c-0.02 0-0.03 0.01-0.05 0.01h0.01c3.06 0.49 5.86 0.86 7.96 1 9.4 0.62 24.35-4.64 27.83 0 3.48 4.64-16.81 12.17-16.81 12.17l-122.07 55.65s-80.84 38.26-106.35 53.34c-24.5 14.48-45.65 17.67-54.49 16.88-0.55 1.02-1.6 1.74-2.83 1.74a3.26 3.26 0 0 1 0-6.52c0.14 0 0.24 0.06 0.37 0.07 1.06-3.92 4.25-9.72 7.6-15.12h0.01c-0.2 0.13-0.35 0.28-0.54 0.42-1.18 0.82-2.32 1.66-3.32 2.58-1.16 1.07-2.19 2.21-3.04 3.42-1.5 2.12-2.91 4.14-4.25 6.09-11.08 16.1-15.78 25.92 0.77 26.96 18.55 1.16 55.08-8.12 64.35-18.55 5.55-6.24 10.64-14.09 13.87-19.44 2.17-3.59 3.52-6.07 3.52-6.07s103.22-47.98 163.84-75.93c21.51-9.92 37.7-17.33 41.96-19.15 3.87-1.66 8.97-3.65 14.48-5.76 0.64-0.24 1.28-0.49 1.92-0.74 10.4-3.97 21.88-8.27 29.51-11.64 5.03-2.22 8.41-4.04 8.58-5.05 0.58-3.47 2.9-4.37-3.47-4.63z" fill="#CC911E" p-id="2368"></path><path d="M600.43 741.2c-0.13-0.01-0.24-0.07-0.37-0.07a3.26 3.26 0 0 0 0 6.52c1.24 0 2.28-0.72 2.83-1.74 0.25-0.46 0.43-0.96 0.43-1.52-0.01-1.68-1.28-3-2.89-3.19zM643.97 720.47c-5.87-0.22-15.65 1.52-23.91 5.44-8.26 3.91-13.04 12.39-13.04 12.39 16.74-16.3 44.57-16.96 44.57-16.96s-1.75-0.65-7.62-0.87z" fill="#FFFFFF" p-id="2369"></path><path d="M275.46 615.93c1.21 0.19 2.41 0.41 3.58 0.7a38.38 38.38 0 0 0-3.58-0.7zM280.35 616.97zM280.27 625.25l-7.83 8.7V623.8l-17.24-1.38 10.04-6.83c-1.51 0.14-2.99 0.34-4.44 0.64-19.14 3.86-33.57 20.77-33.57 41.05 0 23.13 18.75 41.88 41.88 41.88 9.33 0 17.92-3.09 24.88-8.25-1.09-3.5-1.85-7.16-1.85-11.02 0-13.43 7.17-25.1 17.84-31.66-0.05-0.25-0.13-0.5-0.19-0.75-2.76-11.53-10.27-21.21-20.38-26.83l2.74 7.78-11.88-3.18z m-32.25 17.25c-2.45 0-4.42-2.11-4.42-4.71s1.98-4.71 4.42-4.71 4.42 2.11 4.42 4.71c-0.01 2.6-1.98 4.71-4.42 4.71zM289.4 620.65zM274.08 615.72a41.05 41.05 0 0 0-3.52-0.25c-0.49-0.02-0.97-0.07-1.46-0.07 1.69-0.01 3.35 0.12 4.98 0.32z" fill="#4E5E9D" p-id="2370"></path><path d="M269.1 615.39c-1.3 0-2.6 0.08-3.87 0.19l-10.04 6.83 17.24 1.38v10.15l7.83-8.7 11.88 3.19-2.74-7.78h-0.01c-1.46-0.81-2.98-1.53-4.53-2.16-0.2-0.08-0.4-0.14-0.6-0.22-1.28-0.5-2.59-0.93-3.93-1.3-0.43-0.12-0.87-0.23-1.3-0.34a38.38 38.38 0 0 0-3.58-0.7c-0.46-0.07-0.92-0.16-1.38-0.21-1.62-0.2-3.28-0.33-4.97-0.33z" fill="#7186D7" p-id="2371"></path><path d="M248.02 633.07c-2.45 0-4.42 2.11-4.42 4.71s1.98 4.71 4.42 4.71 4.42-2.11 4.42-4.71c-0.01-2.6-1.98-4.71-4.42-4.71z" fill="#FFFFFF" p-id="2372"></path><path d="M360.28 659.07c-1.6-2.36-3.53-4.46-5.62-6.39 0.35 0.27 0.72 0.54 1.03 0.85l4.59 5.54zM292.14 679.89c0 3.86 0.75 7.52 1.85 11.02 4.72 15.16 18.7 26.23 35.4 26.23 15.3 0 28.42-9.25 34.15-22.44a36.94 36.94 0 0 0 3.1-14.81c0-4.95-0.82-9.65-2.57-13.97-0.39-0.97-1.2-1.87-1.2-2.8v0.01l-6.11 14.5-2.05-10-11.35 1.96 3.46-9.57-7.84-9.13 15.07 1.26c-6.58-5.85-15.16-9.52-24.65-9.52-6.93 0-13.33 2.02-18.89 5.31-0.17 0.1-0.35 0.18-0.52 0.29-10.67 6.56-17.85 18.23-17.85 31.66z m28.77-25.84c0-2.34 1.94-4.24 4.35-4.24 2.4 0 4.35 1.9 4.35 4.24 0 2.34-1.94 4.24-4.35 4.24-2.4 0-4.35-1.9-4.35-4.24z" fill="#41518F" p-id="2373"></path><path d="M346.78 660.03l-3.48 9.57 11.3-1.96 2.15 10 6.11-14.5v-0.01-4.06l-5.88-5.54c-0.31-0.32-1.32 0.75-1.68 0.48-0.21-0.17-0.73 0.81-0.94 0.81h-0.17l-15.16-2.59 7.75 7.8z" fill="#7187DA" p-id="2374"></path><path d="M325.26 658.29c2.4 0 4.35-1.9 4.35-4.24 0-2.34-1.94-4.24-4.35-4.24-2.41 0-4.35 1.9-4.35 4.24 0 2.34 1.95 4.24 4.35 4.24z" fill="#FFFFFF" p-id="2375"></path></svg>